<svg version="1.1" viewBox="0.0 0.0 504.3963254593176 225.32808398950132" fill="none" stroke="none" stroke-linecap="square" stroke-miterlimit="10" xmlns:xlink="http://www.w3.org/1999/xlink" xmlns="http://www.w3.org/2000/svg"><clipPath id="p.0"><path d="m0 0l504.39633 0l0 225.32808l-504.39633 0l0 -225.32808z" clip-rule="nonzero"/></clipPath><g clip-path="url(#p.0)"><path fill="#000000" fill-opacity="0.0" d="m0 0l504.39633 0l0 225.32808l-504.39633 0z" fill-rule="evenodd"/><path fill="#000000" fill-opacity="0.0" d="m109.414696 0l268.50394 0l0 50.07874l-268.50394 0z" fill-rule="evenodd"/><path fill="#000000" d="m191.11253 27.41375l3.5625 -0.34375q0.3125 1.796875 1.296875 2.640625q0.984375 0.84375 2.65625 0.84375q1.765625 0 2.65625 -0.75q0.90625 -0.75 0.90625 -1.75q0 -0.640625 -0.390625 -1.09375q-0.375 -0.453125 -1.3125 -0.78125q-0.640625 -0.234375 -2.921875 -0.796875q-2.953125 -0.734375 -4.140625 -1.796875q-1.65625 -1.5 -1.65625 -3.640625q0 -1.390625 0.78125 -2.59375q0.78125 -1.203125 2.25 -1.828125q1.484375 -0.640625 3.578125 -0.640625q3.40625 0 5.125 1.5q1.734375 1.484375 1.828125 3.984375l-3.65625 0.171875q-0.25 -1.40625 -1.015625 -2.015625q-0.765625 -0.609375 -2.3125 -0.609375q-1.609375 0 -2.5 0.65625q-0.578125 0.421875 -0.578125 1.125q0 0.640625 0.53125 1.09375q0.703125 0.578125 3.375 1.21875q2.671875 0.625 3.9375 1.296875q1.28125 0.671875 2.0 1.84375q0.734375 1.171875 0.734375 2.890625q0 1.5625 -0.875 2.921875q-0.859375 1.359375 -2.4375 2.03125q-1.578125 0.65625 -3.953125 0.65625q-3.4375 0 -5.28125 -1.59375q-1.828125 -1.59375 -2.1875 -4.640625zm17.534286 -7.234375l3.203125 0l0 1.796875q1.71875 -2.09375 4.09375 -2.09375q1.25 0 2.171875 0.53125q0.9375 0.515625 1.53125 1.5625q0.875 -1.046875 1.875 -1.5625q1.0 -0.53125 2.140625 -0.53125q1.4375 0 2.4375 0.59375q1.0 0.59375 1.5 1.71875q0.359375 0.84375 0.359375 2.734375l0 8.390625l-3.46875 0l0 -7.5q0 -1.96875 -0.359375 -2.53125q-0.484375 -0.734375 -1.484375 -0.734375q-0.734375 0 -1.375 0.453125q-0.640625 0.4375 -0.9375 1.296875q-0.28125 0.859375 -0.28125 2.703125l0 6.3125l-3.46875 0l0 -7.203125q0 -1.90625 -0.1875 -2.46875q-0.1875 -0.5625 -0.578125 -0.828125q-0.390625 -0.265625 -1.046875 -0.265625q-0.8125 0 -1.453125 0.4375q-0.640625 0.421875 -0.921875 1.234375q-0.28125 0.8125 -0.28125 2.71875l0 6.375l-3.46875 0l0 -13.140625zm21.973892 6.390625q0 -1.734375 0.84375 -3.34375q0.859375 -1.625 2.421875 -2.484375q1.5625 -0.859375 3.5 -0.859375q2.9843903 0 4.8750153 1.9375q1.90625 1.9375 1.90625 4.890625q0 2.984375 -1.921875 4.953125q-1.921875 1.953125 -4.8437653 1.953125q-1.796875 0 -3.4375 -0.8125q-1.640625 -0.8125 -2.5 -2.390625q-0.84375 -1.578125 -0.84375 -3.84375zm3.5625 0.1875q0 1.953125 0.921875 3.0q0.9375 1.03125 2.296875 1.03125q1.3593903 0 2.2812653 -1.03125q0.921875 -1.046875 0.921875 -3.03125q0 -1.921875 -0.921875 -2.953125q-0.921875 -1.046875 -2.2812653 -1.046875q-1.359375 0 -2.296875 1.046875q-0.921875 1.03125 -0.921875 2.984375zm12.580826 6.5625l0 -18.125l3.484375 0l0 9.609375l4.0625 -4.625l4.28125 0l-4.484375 4.8125l4.8125 8.328125l-3.75 0l-3.296875 -5.90625l-1.625 1.703125l0 4.203125l-3.484375 0zm14.211304 -14.921875l0 -3.203125l3.484375 0l0 3.203125l-3.484375 0zm0 14.921875l0 -13.140625l3.484375 0l0 13.140625l-3.484375 0zm18.990082 0l-3.46875 0l0 -6.703125q0 -2.125 -0.234375 -2.75q-0.21875 -0.625 -0.71875 -0.96875q-0.5 -0.34375 -1.203125 -0.34375q-0.90625 0 -1.625 0.5q-0.71875 0.484375 -0.984375 1.296875q-0.265625 0.8125 -0.265625 3.015625l0 5.953125l-3.46875 0l0 -13.140625l3.21875 0l0 1.9375q1.71875 -2.234375 4.328125 -2.234375q1.15625 0 2.109375 0.421875q0.953125 0.40625 1.4375 1.0625q0.484375 0.640625 0.671875 1.453125q0.203125 0.8125 0.203125 2.34375l0 8.15625zm3.2058105 0.859375l3.96875 0.484375q0.09375 0.703125 0.453125 0.953125q0.5 0.375 1.5625 0.375q1.359375 0 2.03125 -0.40625q0.46875 -0.28125 0.703125 -0.875q0.15625 -0.4375 0.15625 -1.59375l0 -1.921875q-1.5625 2.125 -3.9375 2.125q-2.640625 0 -4.1875 -2.234375q-1.21875 -1.765625 -1.21875 -4.40625q0 -3.296875 1.59375 -5.046875q1.59375 -1.75 3.953125 -1.75q2.4375 0 4.015625 2.140625l0 -1.84375l3.25 0l0 11.796875q0 2.328125 -0.390625 3.46875q-0.375 1.15625 -1.0625 1.8125q-0.6875 0.65625 -1.84375 1.015625q-1.15625 0.375 -2.921875 0.375q-3.34375 0 -4.75 -1.140625q-1.390625 -1.140625 -1.390625 -2.90625q0 -0.171875 0.015625 -0.421875zm3.09375 -7.703125q0 2.09375 0.8125 3.0625q0.8125 0.96875 2.0 0.96875q1.28125 0 2.15625 -0.984375q0.875 -1.0 0.875 -2.953125q0 -2.046875 -0.84375 -3.03125q-0.84375 -0.984375 -2.125 -0.984375q-1.25 0 -2.0625 0.96875q-0.8125 0.96875 -0.8125 2.953125z" fill-rule="nonzero"/><path fill="#000000" fill-opacity="0.0" d="m0 144.62993l200.59842 0l0 80.7874l-200.59842 0z" fill-rule="evenodd"/><path fill="#000000" d="m72.05385 177.94992l-3.984375 0l-1.578125 -4.125l-7.25 0l-1.484375 4.125l-3.890625 0l7.0625 -18.125l3.875 0l7.25 18.125zm-6.734375 -7.171875l-2.5 -6.734375l-2.453125 6.734375l4.953125 0zm8.650543 7.171875l0 -18.125l3.484375 0l0 18.125l-3.484375 0zm18.490097 -9.25l-3.421875 0.625q-0.171875 -1.03125 -0.78125 -1.546875q-0.609375 -0.53125 -1.59375 -0.53125q-1.296875 0 -2.078125 0.90625q-0.765625 0.890625 -0.765625 3.0q0 2.328125 0.78125 3.296875q0.796875 0.96875 2.109375 0.96875q1.0 0 1.625 -0.5625q0.625 -0.5625 0.890625 -1.9375l3.40625 0.578125q-0.53125 2.34375 -2.046875 3.546875q-1.5 1.203125 -4.03125 1.203125q-2.875 0 -4.59375 -1.8125q-1.71875 -1.828125 -1.71875 -5.03125q0 -3.265625 1.71875 -5.078125q1.71875 -1.8125 4.65625 -1.8125q2.390625 0 3.8125 1.046875q1.421875 1.03125 2.03125 3.140625zm1.8363037 2.5q0 -1.734375 0.84375 -3.34375q0.859375 -1.625 2.421875 -2.484375q1.5625 -0.859375 3.5 -0.859375q2.984375 0 4.875 1.9375q1.90625 1.9375 1.90625 4.890625q0 2.984375 -1.921875 4.953125q-1.921875 1.953125 -4.84375 1.953125q-1.796875 0 -3.4375 -0.8125q-1.640625 -0.8125 -2.5 -2.390625q-0.84375 -1.578125 -0.84375 -3.84375zm3.5625 0.1875q0 1.953125 0.921875 3.0q0.9375 1.03125 2.296875 1.03125q1.359375 0 2.28125 -1.03125q0.921875 -1.046875 0.921875 -3.03125q0 -1.921875 -0.921875 -2.953125q-0.921875 -1.046875 -2.28125 -1.046875q-1.359375 0 -2.296875 1.046875q-0.921875 1.03125 -0.921875 2.984375zm16.17456 -11.5625l0 6.65625q1.6875 -1.96875 4.015625 -1.96875q1.203125 0 2.15625 0.453125q0.96875 0.4375 1.453125 1.140625q0.5 0.6875 0.671875 1.53125q0.1875 0.84375 0.1875 2.609375l0 7.703125l-3.46875 0l0 -6.9375q0 -2.0625 -0.203125 -2.609375q-0.203125 -0.5625 -0.703125 -0.890625q-0.5 -0.328125 -1.25 -0.328125q-0.875 0 -1.5625 0.421875q-0.671875 0.40625 -0.984375 1.265625q-0.3125 0.84375 -0.3125 2.5l0 6.578125l-3.46875 0l0 -18.125l3.46875 0zm11.205811 11.375q0 -1.734375 0.84375 -3.34375q0.859375 -1.625 2.421875 -2.484375q1.5625 -0.859375 3.5 -0.859375q2.984375 0 4.875 1.9375q1.90625 1.9375 1.90625 4.890625q0 2.984375 -1.921875 4.953125q-1.921875 1.953125 -4.84375 1.953125q-1.796875 0 -3.4375 -0.8125q-1.640625 -0.8125 -2.5 -2.390625q-0.84375 -1.578125 -0.84375 -3.84375zm3.5625 0.1875q0 1.953125 0.921875 3.0q0.9375 1.03125 2.296875 1.03125q1.359375 0 2.28125 -1.03125q0.921875 -1.046875 0.921875 -3.03125q0 -1.921875 -0.921875 -2.953125q-0.921875 -1.046875 -2.28125 -1.046875q-1.359375 0 -2.296875 1.046875q-0.921875 1.03125 -0.921875 2.984375zm12.705811 6.5625l0 -18.125l3.484375 0l0 18.125l-3.484375 0z" fill-rule="nonzero"/><path fill="#000000" d="m32.137566 201.67805l3.5625 1.125q-0.828125 2.96875 -2.734375 4.421875q-1.890625 1.4375 -4.796875 1.4375q-3.625 0 -5.953125 -2.46875q-2.3125 -2.46875 -2.3125 -6.75q0 -4.53125 2.328125 -7.03125q2.34375 -2.5 6.15625 -2.5q3.328125 0 5.40625 1.96875q1.234375 1.15625 1.84375 3.328125l-3.625 0.875q-0.3125 -1.40625 -1.34375 -2.21875q-1.015625 -0.828125 -2.46875 -0.828125q-2.015625 0 -3.28125 1.453125q-1.25 1.4375 -1.25 4.6875q0 3.4375 1.234375 4.90625q1.234375 1.453125 3.21875 1.453125q1.46875 0 2.515625 -0.921875q1.046875 -0.9375 1.5 -2.9375zm5.869293 -0.078125q0 -1.734375 0.84375 -3.34375q0.859375 -1.625 2.421875 -2.484375q1.5625 -0.859375 3.5 -0.859375q2.984375 0 4.875 1.9375q1.90625 1.9375 1.90625 4.890625q0 2.984375 -1.921875 4.953125q-1.921875 1.953125 -4.84375 1.953125q-1.796875 0 -3.4375 -0.8125q-1.640625 -0.8125 -2.5 -2.390625q-0.84375 -1.578125 -0.84375 -3.84375zm3.5625 0.1875q0 1.953125 0.921875 3.0q0.9375 1.03125 2.296875 1.03125q1.359375 0 2.28125 -1.03125q0.921875 -1.046875 0.921875 -3.03125q0 -1.921875 -0.921875 -2.953125q-0.921875 -1.046875 -2.28125 -1.046875q-1.359375 0 -2.296875 1.046875q-0.921875 1.03125 -0.921875 2.984375zm24.658936 6.5625l-3.46875 0l0 -6.703125q0 -2.125 -0.234375 -2.75q-0.21875 -0.625 -0.71875 -0.96875q-0.5 -0.34375 -1.203125 -0.34375q-0.90625 0 -1.625 0.5q-0.71875 0.484375 -0.984375 1.296875q-0.265625 0.8125 -0.265625 3.015625l0 5.953125l-3.46875 0l0 -13.140625l3.21875 0l0 1.9375q1.71875 -2.234375 4.328125 -2.234375q1.15625 0 2.109375 0.421875q0.953125 0.40625 1.4375 1.0625q0.484375 0.640625 0.671875 1.453125q0.203125 0.8125 0.203125 2.34375l0 8.15625zm2.2995605 -3.75l3.484375 -0.53125q0.21875 1.015625 0.90625 1.546875q0.6875 0.515625 1.90625 0.515625q1.34375 0 2.03125 -0.484375q0.453125 -0.359375 0.453125 -0.9375q0 -0.390625 -0.25 -0.65625q-0.25 -0.234375 -1.15625 -0.453125q-4.203125 -0.921875 -5.328125 -1.6875q-1.5625 -1.0625 -1.5625 -2.96875q0 -1.703125 1.34375 -2.859375q1.34375 -1.171875 4.1875 -1.171875q2.6875 0 4.0 0.890625q1.3125 0.875 1.8125 2.59375l-3.28125 0.609375q-0.21875 -0.765625 -0.8125 -1.171875q-0.578125 -0.421875 -1.65625 -0.421875q-1.375 0 -1.96875 0.390625q-0.40625 0.265625 -0.40625 0.703125q0 0.375 0.359375 0.625q0.46875 0.34375 3.234375 0.984375q2.78125 0.625 3.890625 1.546875q1.078125 0.921875 1.078125 2.578125q0 1.8125 -1.515625 3.109375q-1.5 1.296875 -4.453125 1.296875q-2.6875 0 -4.25 -1.078125q-1.5625 -1.09375 -2.046875 -2.96875zm23.961304 3.75l0 -1.96875q-0.71875 1.046875 -1.890625 1.65625q-1.171875 0.609375 -2.46875 0.609375q-1.328125 0 -2.375 -0.578125q-1.046875 -0.578125 -1.515625 -1.625q-0.46875 -1.0625 -0.46875 -2.921875l0 -8.3125l3.46875 0l0 6.046875q0 2.765625 0.1875 3.390625q0.203125 0.625 0.703125 1.0q0.5 0.359375 1.28125 0.359375q0.890625 0 1.59375 -0.484375q0.71875 -0.5 0.96875 -1.21875q0.265625 -0.734375 0.265625 -3.546875l0 -5.546875l3.46875 0l0 13.140625l-3.21875 0zm6.5651855 -13.140625l3.203125 0l0 1.796875q1.71875 -2.09375 4.09375 -2.09375q1.25 0 2.171875 0.53125q0.9375 0.515625 1.53125 1.5625q0.875 -1.046875 1.875 -1.5625q1.0 -0.53125 2.140625 -0.53125q1.4375 0 2.4375 0.59375q1.0 0.59375 1.5 1.71875q0.359375 0.84375 0.359375 2.734375l0 8.390625l-3.46875 0l0 -7.5q0 -1.96875 -0.359375 -2.53125q-0.484375 -0.734375 -1.484375 -0.734375q-0.734375 0 -1.375 0.453125q-0.640625 0.4375 -0.9375 1.296875q-0.28125 0.859375 -0.28125 2.703125l0 6.3125l-3.46875 0l0 -7.203125q0 -1.90625 -0.1875 -2.46875q-0.1875 -0.5625 -0.578125 -0.828125q-0.390625 -0.265625 -1.046875 -0.265625q-0.8125 0 -1.453125 0.4375q-0.640625 0.421875 -0.921875 1.234375q-0.28125 0.8125 -0.28125 2.71875l0 6.375l-3.46875 0l0 -13.140625zm22.677017 0l3.234375 0l0 1.9375q0.640625 -0.984375 1.703125 -1.609375q1.078125 -0.625 2.3906174 -0.625q2.296875 0 3.890625 1.796875q1.59375 1.796875 1.59375 5.0q0 3.296875 -1.609375 5.125q-1.609375 1.8125 -3.890625 1.8125q-1.0937424 0 -1.9843674 -0.421875q-0.875 -0.4375 -1.859375 -1.5l0 6.625l-3.46875 0l0 -18.140625zm3.4375 6.34375q0 2.21875 0.875 3.28125q0.875 1.046875 2.1406174 1.046875q1.21875 0 2.015625 -0.96875q0.8125 -0.96875 0.8125 -3.171875q0 -2.078125 -0.828125 -3.078125q-0.828125 -1.0 -2.0625 -1.0q-1.2656174 0 -2.1093674 0.984375q-0.84375 0.984375 -0.84375 2.90625zm18.158928 -6.34375l0 2.78125l-2.375 0l0 5.28125q0 1.609375 0.0625 1.875q0.078125 0.265625 0.3125 0.453125q0.234375 0.171875 0.59375 0.171875q0.46875 0 1.390625 -0.34375l0.296875 2.703125q-1.21875 0.515625 -2.75 0.515625q-0.9375 0 -1.6875 -0.3125q-0.75 -0.3125 -1.109375 -0.8125q-0.359375 -0.5 -0.484375 -1.359375q-0.109375 -0.609375 -0.109375 -2.453125l0 -5.71875l-1.59375 0l0 -2.78125l1.59375 0l0 -2.609375l3.484375 -2.015625l0 4.625l2.375 0zm2.4032288 -1.78125l0 -3.203125l3.484375 0l0 3.203125l-3.484375 0zm0 14.921875l0 -13.140625l3.484375 0l0 13.140625l-3.484375 0zm6.240082 -6.75q0 -1.734375 0.84375 -3.34375q0.859375 -1.625 2.421875 -2.484375q1.5625 -0.859375 3.5 -0.859375q2.984375 0 4.875 1.9375q1.90625 1.9375 1.90625 4.890625q0 2.984375 -1.921875 4.953125q-1.921875 1.953125 -4.84375 1.953125q-1.796875 0 -3.4375 -0.8125q-1.640625 -0.8125 -2.5 -2.390625q-0.84375 -1.578125 -0.84375 -3.84375zm3.5625 0.1875q0 1.953125 0.921875 3.0q0.9375 1.03125 2.296875 1.03125q1.359375 0 2.28125 -1.03125q0.921875 -1.046875 0.921875 -3.03125q0 -1.921875 -0.921875 -2.953125q-0.921875 -1.046875 -2.28125 -1.046875q-1.359375 0 -2.296875 1.046875q-0.921875 1.03125 -0.921875 2.984375zm24.658936 6.5625l-3.46875 0l0 -6.703125q0 -2.125 -0.234375 -2.75q-0.21875 -0.625 -0.71875 -0.96875q-0.5 -0.34375 -1.203125 -0.34375q-0.90625 0 -1.625 0.5q-0.71875 0.484375 -0.984375 1.296875q-0.265625 0.8125 -0.265625 3.015625l0 5.953125l-3.46875 0l0 -13.140625l3.21875 0l0 1.9375q1.71875 -2.234375 4.328125 -2.234375q1.15625 0 2.109375 0.421875q0.953125 0.40625 1.4375 1.0625q0.484375 0.640625 0.671875 1.453125q0.203125 0.8125 0.203125 2.34375l0 8.15625z" fill-rule="nonzero"/><path fill="#000000" fill-opacity="0.0" d="m322.5853 159.98425l184.8819 0l0 50.078735l-184.8819 0z" fill-rule="evenodd"/><path fill="#000000" d="m339.5633 193.30424l0 -17.984375l3.671875 0l0 14.921875l9.09375 0l0 3.0625l-12.765625 0zm24.002686 0l0 -1.96875q-0.71875 1.046875 -1.890625 1.65625q-1.171875 0.609375 -2.46875 0.609375q-1.328125 0 -2.375 -0.578125q-1.046875 -0.578125 -1.515625 -1.625q-0.46875 -1.0625 -0.46875 -2.921875l0 -8.3125l3.46875 0l0 6.046875q0 2.765625 0.1875 3.390625q0.203125 0.625 0.703125 1.0q0.5 0.359375 1.28125 0.359375q0.890625 0 1.59375 -0.484375q0.71875 -0.5 0.96875 -1.21875q0.265625 -0.734375 0.265625 -3.546875l0 -5.546875l3.46875 0l0 13.140625l-3.21875 0zm18.76831 0l-3.46875 0l0 -6.703125q0 -2.125 -0.234375 -2.75q-0.21875 -0.625 -0.71875 -0.96875q-0.5 -0.34375 -1.203125 -0.34375q-0.90625 0 -1.625 0.5q-0.71875 0.484375 -0.984375 1.296875q-0.265625 0.8125 -0.265625 3.015625l0 5.953125l-3.46875 0l0 -13.140625l3.21875 0l0 1.9375q1.71875 -2.234375 4.328125 -2.234375q1.15625 0 2.109375 0.421875q0.953125 0.40625 1.4375 1.0625q0.484375 0.640625 0.671875 1.453125q0.203125 0.8125 0.203125 2.34375l0 8.15625zm3.2058105 0.859375l3.96875 0.484375q0.09375 0.703125 0.453125 0.953125q0.5 0.375 1.5625 0.375q1.359375 0 2.03125 -0.40625q0.46875 -0.28125 0.703125 -0.875q0.15625 -0.4375 0.15625 -1.59375l0 -1.921875q-1.5625 2.125 -3.9375 2.125q-2.640625 0 -4.1875 -2.234375q-1.21875 -1.765625 -1.21875 -4.40625q0 -3.296875 1.59375 -5.046875q1.59375 -1.75 3.953125 -1.75q2.4375 0 4.015625 2.140625l0 -1.84375l3.25 0l0 11.796875q0 2.328125 -0.390625 3.46875q-0.375 1.15625 -1.0625 1.8125q-0.6875 0.65625 -1.84375 1.015625q-1.15625 0.375 -2.921875 0.375q-3.34375 0 -4.75 -1.140625q-1.390625 -1.140625 -1.390625 -2.90625q0 -0.171875 0.015625 -0.421875zm3.09375 -7.703125q0 2.09375 0.8125 3.0625q0.8125 0.96875 2.0 0.96875q1.28125 0 2.15625 -0.984375q0.875 -1.0 0.875 -2.953125q0 -2.046875 -0.84375 -3.03125q-0.84375 -0.984375 -2.125 -0.984375q-1.25 0 -2.0625 0.96875q-0.8125 0.96875 -0.8125 2.953125zm31.352142 0.171875l3.5625 1.125q-0.828125 2.96875 -2.734375 4.421875q-1.890625 1.4375 -4.796875 1.4375q-3.625 0 -5.953125 -2.46875q-2.3125 -2.46875 -2.3125 -6.75q0 -4.53125 2.328125 -7.03125q2.34375 -2.5 6.15625 -2.5q3.328125 0 5.40625 1.96875q1.234375 1.15625 1.84375 3.328125l-3.625 0.875q-0.3125 -1.40625 -1.34375 -2.21875q-1.015625 -0.828125 -2.46875 -0.828125q-2.015625 0 -3.28125 1.453125q-1.25 1.4375 -1.25 4.6875q0 3.4375 1.234375 4.90625q1.234375 1.453125 3.21875 1.453125q1.46875 0 2.515625 -0.921875q1.046875 -0.9375 1.5 -2.9375zm9.275543 -2.453125l-3.15625 -0.578125q0.53125 -1.890625 1.828125 -2.8125q1.296875 -0.921875 3.859375 -0.921875q2.328125 0 3.453125 0.5625q1.140625 0.546875 1.609375 1.390625q0.46875 0.84375 0.46875 3.109375l-0.046875 4.0625q0 1.734375 0.171875 2.5625q0.171875 0.8125 0.625 1.75l-3.4375 0q-0.140625 -0.34375 -0.328125 -1.03125q-0.09375 -0.296875 -0.125 -0.40625q-0.890625 0.875 -1.90625 1.3125q-1.015625 0.421875 -2.171875 0.421875q-2.03125 0 -3.203125 -1.09375q-1.15625 -1.109375 -1.15625 -2.796875q0 -1.109375 0.53125 -1.96875q0.53125 -0.875 1.484375 -1.34375q0.96875 -0.46875 2.765625 -0.8125q2.4375 -0.453125 3.375 -0.859375l0 -0.34375q0 -1.0 -0.5 -1.421875q-0.484375 -0.421875 -1.859375 -0.421875q-0.921875 0 -1.453125 0.359375q-0.515625 0.359375 -0.828125 1.28125zm4.640625 2.8125q-0.671875 0.234375 -2.125 0.546875q-1.4375 0.296875 -1.875 0.59375q-0.6875 0.484375 -0.6875 1.234375q0 0.71875 0.546875 1.25q0.546875 0.53125 1.390625 0.53125q0.9375 0 1.78125 -0.609375q0.640625 -0.46875 0.828125 -1.15625q0.140625 -0.4375 0.140625 -1.6875l0 -0.703125zm18.789429 6.3125l-3.46875 0l0 -6.703125q0 -2.125 -0.234375 -2.75q-0.21875 -0.625 -0.71875 -0.96875q-0.5 -0.34375 -1.203125 -0.34375q-0.90625 0 -1.625 0.5q-0.71875 0.484375 -0.984375 1.296875q-0.265625 0.8125 -0.265625 3.015625l0 5.953125l-3.46875 0l0 -13.140625l3.21875 0l0 1.9375q1.71875 -2.234375 4.328125 -2.234375q1.15625 0 2.109375 0.421875q0.953125 0.40625 1.4375 1.0625q0.484375 0.640625 0.671875 1.453125q0.203125 0.8125 0.203125 2.34375l0 8.15625zm14.971436 -9.25l-3.421875 0.625q-0.171875 -1.03125 -0.78125 -1.546875q-0.609375 -0.53125 -1.59375 -0.53125q-1.296875 0 -2.078125 0.90625q-0.765625 0.890625 -0.765625 3.0q0 2.328125 0.78125 3.296875q0.796875 0.96875 2.109375 0.96875q1.0 0 1.625 -0.5625q0.625 -0.5625 0.890625 -1.9375l3.40625 0.578125q-0.53125 2.34375 -2.046875 3.546875q-1.5 1.203125 -4.03125 1.203125q-2.875 0 -4.59375 -1.8125q-1.71875 -1.828125 -1.71875 -5.03125q0 -3.265625 1.71875 -5.078125q1.71875 -1.8125 4.65625 -1.8125q2.390625 0 3.8125 1.046875q1.421875 1.03125 2.03125 3.140625zm10.242554 5.0625l3.46875 0.59375q-0.671875 1.90625 -2.109375 2.90625q-1.4375 0.984375 -3.609375 0.984375q-3.421875 0 -5.0625 -2.234375q-1.3125 -1.796875 -1.3125 -4.53125q0 -3.265625 1.703125 -5.109375q1.71875 -1.859375 4.328125 -1.859375q2.921875 0 4.609375 1.9375q1.703125 1.9375 1.640625 5.9375l-8.71875 0q0.046875 1.546875 0.84375 2.40625q0.8125 0.859375 2.0 0.859375q0.828125 0 1.375 -0.4375q0.5625 -0.453125 0.84375 -1.453125zm0.203125 -3.5q-0.046875 -1.515625 -0.796875 -2.296875q-0.734375 -0.78125 -1.796875 -0.78125q-1.125 0 -1.875 0.828125q-0.734375 0.828125 -0.734375 2.25l5.203125 0zm9.601929 7.6875l-3.46875 0l0 -13.140625l3.21875 0l0 1.875q0.828125 -1.328125 1.484375 -1.75q0.671875 -0.421875 1.515625 -0.421875q1.1875 0 2.28125 0.65625l-1.0625 3.03125q-0.890625 -0.5625 -1.640625 -0.5625q-0.734375 0 -1.25 0.40625q-0.5 0.390625 -0.796875 1.453125q-0.28125 1.046875 -0.28125 4.390625l0 4.0625z" fill-rule="nonzero"/><path fill="#000000" fill-opacity="0.0" d="m243.66667 50.07874l-143.37009 94.55119" fill-rule="evenodd"/><path stroke="#000000" stroke-width="1.0" stroke-linejoin="round" stroke-linecap="butt" d="m243.66667 50.07874l-138.36127 91.24791" fill-rule="evenodd"/><path fill="#000000" stroke="#000000" stroke-width="1.0" stroke-linecap="butt" d="m104.396065 139.94777l-2.879074 3.877304l4.6977844 -1.1195526z" fill-rule="evenodd"/><path fill="#000000" fill-opacity="0.0" d="m243.66667 50.07874l171.37007 109.921265" fill-rule="evenodd"/><path stroke="#000000" stroke-width="1.0" stroke-linejoin="round" stroke-linecap="butt" d="m243.66667 50.07874l166.31972 106.68184" fill-rule="evenodd"/><path fill="#000000" stroke="#000000" stroke-width="1.0" stroke-linecap="butt" d="m409.0946 158.15088l4.711609 1.0598297l-2.9280396 -3.8404388z" fill-rule="evenodd"/><path fill="#000000" fill-opacity="0.0" d="m200.59842 185.02362l121.98425 0" fill-rule="evenodd"/><path stroke="#000000" stroke-width="1.0" stroke-linejoin="round" stroke-linecap="butt" stroke-dasharray="1.0,3.0" d="m200.59842 185.02362l115.98425 0" fill-rule="evenodd"/><path fill="#000000" stroke="#000000" stroke-width="1.0" stroke-linecap="butt" d="m316.58267 186.67535l4.5381165 -1.6517334l-4.5381165 -1.6517334z" fill-rule="evenodd"/><path fill="#000000" fill-opacity="0.0" d="m200.59842 143.55643l118.299225 0l0 53.322845l-118.299225 0z" fill-rule="evenodd"/><path fill="#000000" d="m258.415 174.49893q-0.015625 -0.484375 -0.015625 -0.734375q0 -1.453125 0.40625 -2.5q0.3125 -0.796875 0.984375 -1.609375q0.484375 -0.578125 1.765625 -1.703125q1.28125 -1.140625 1.65625 -1.796875q0.390625 -0.671875 0.390625 -1.46875q0 -1.4375 -1.125 -2.515625q-1.125 -1.09375 -2.75 -1.09375q-1.578125 0 -2.625 0.984375q-1.046875 0.984375 -1.3749847 3.078125l-2.53125 -0.3125q0.34375 -2.796875 2.03125 -4.28125q1.6874847 -1.5 4.4531097 -1.5q2.953125 0 4.703125 1.609375q1.75 1.59375 1.75 3.859375q0 1.3125 -0.625 2.421875q-0.609375 1.109375 -2.40625 2.703125q-1.203125 1.0625 -1.578125 1.578125q-0.359375 0.5 -0.546875 1.15625q-0.171875 0.65625 -0.203125 2.125l-2.359375 0zm-0.15625 4.9375l0 -2.796875l2.8125 0l0 2.796875l-2.8125 0z" fill-rule="nonzero"/></g></svg>