<?xml version="1.0" encoding="utf-8"?>
<!-- Generator: Adobe Illustrator 26.3.1, SVG Export Plug-In . SVG Version: 6.00 Build 0)  -->
<svg version="1.1" id="Layer_1" xmlns="http://www.w3.org/2000/svg" xmlns:xlink="http://www.w3.org/1999/xlink" x="0px" y="0px"
	 viewBox="0 0 484.4 375.9" style="enable-background:new 0 0 484.4 375.9;" xml:space="preserve">
<style type="text/css">
	.st0{fill-rule:evenodd;clip-rule:evenodd;fill:#B4A7D6;}
	.st1{fill:none;stroke:#000000;stroke-linejoin:round;stroke-miterlimit:10;}
	.st2{fill-rule:evenodd;clip-rule:evenodd;fill:#B6D7A8;}
	.st3{fill-rule:evenodd;clip-rule:evenodd;fill:#CFE2F3;}
	.st4{fill-rule:evenodd;clip-rule:evenodd;fill:#FFD966;}
	.st5{fill-rule:evenodd;clip-rule:evenodd;fill-opacity:0;}
	.st6{fill-rule:evenodd;clip-rule:evenodd;stroke:#000000;stroke-miterlimit:10;}
	.st7{fill-rule:evenodd;clip-rule:evenodd;fill:#E06666;}
	.st8{fill:none;stroke:#000000;stroke-linejoin:round;}
	.st9{fill:none;stroke:#000000;stroke-miterlimit:10;}
	.st10{fill:none;stroke:#000000;stroke-width:14;stroke-miterlimit:10;}
	.st11{fill:#F90303;}
	.st12{font-family:'MyriadPro-Regular';}
	.st13{font-size:36px;}
</style>
<path class="st0" d="M143.6,6.6L143.6,6.6c0-3.3,2.7-6.1,6.1-6.1h184.4c1.6,0,3.2,0.6,4.3,1.8s1.8,2.7,1.8,4.3v24.3
	c0,3.3-2.7,6.1-6.1,6.1H149.7c-3.3,0-6.1-2.7-6.1-6.1V6.6z"/>
<path class="st1" d="M143.6,6.6L143.6,6.6c0-3.3,2.7-6.1,6.1-6.1h184.4c1.6,0,3.2,0.6,4.3,1.8s1.8,2.7,1.8,4.3v24.3
	c0,3.3-2.7,6.1-6.1,6.1H149.7c-3.3,0-6.1-2.7-6.1-6.1V6.6z"/>
<path d="M216,23.8V13.3h3.4c1.3,0,2.1,0.1,2.5,0.2c0.6,0.2,1.1,0.5,1.5,1c0.4,0.5,0.6,1.2,0.6,2c0,0.6-0.1,1.2-0.4,1.6
	c-0.2,0.4-0.5,0.8-0.9,1c-0.4,0.2-0.7,0.4-1.1,0.5c-0.5,0.1-1.2,0.2-2.2,0.2h-1.4v4H216z M218.2,15.1v3h1.2c0.8,0,1.4-0.1,1.7-0.2
	c0.3-0.1,0.5-0.3,0.7-0.5c0.2-0.2,0.2-0.5,0.2-0.8c0-0.4-0.1-0.7-0.3-0.9c-0.2-0.2-0.5-0.4-0.8-0.5c-0.2-0.1-0.8-0.1-1.5-0.1H218.2z
	 M227.3,18.5l-1.8-0.3c0.2-0.7,0.5-1.3,1-1.6c0.5-0.4,1.3-0.5,2.2-0.5c0.9,0,1.6,0.1,2,0.3c0.4,0.2,0.7,0.5,0.9,0.8
	c0.2,0.3,0.3,0.9,0.3,1.8l0,2.3c0,0.7,0,1.2,0.1,1.5c0.1,0.3,0.2,0.7,0.4,1h-2c-0.1-0.1-0.1-0.3-0.2-0.6c0-0.1-0.1-0.2-0.1-0.2
	c-0.3,0.3-0.7,0.6-1.1,0.8c-0.4,0.2-0.8,0.2-1.2,0.2c-0.8,0-1.4-0.2-1.9-0.6c-0.4-0.4-0.7-1-0.7-1.6c0-0.4,0.1-0.8,0.3-1.1
	c0.2-0.3,0.5-0.6,0.9-0.8c0.4-0.2,0.9-0.3,1.6-0.5c0.9-0.2,1.6-0.3,2-0.5v-0.2c0-0.4-0.1-0.7-0.3-0.8c-0.2-0.2-0.5-0.2-1.1-0.2
	c-0.4,0-0.6,0.1-0.8,0.2C227.6,17.9,227.4,18.1,227.3,18.5z M230,20.1c-0.3,0.1-0.7,0.2-1.2,0.3c-0.6,0.1-0.9,0.2-1.1,0.3
	c-0.3,0.2-0.4,0.4-0.4,0.7c0,0.3,0.1,0.5,0.3,0.7c0.2,0.2,0.5,0.3,0.8,0.3c0.4,0,0.7-0.1,1-0.4c0.2-0.2,0.4-0.4,0.5-0.7
	c0.1-0.2,0.1-0.5,0.1-1V20.1z M235.9,23.8h-2v-7.6h1.9v1.1c0.3-0.5,0.6-0.8,0.9-1c0.3-0.2,0.6-0.2,0.9-0.2c0.5,0,0.9,0.1,1.3,0.4
	l-0.6,1.8c-0.3-0.2-0.6-0.3-0.9-0.3c-0.3,0-0.5,0.1-0.7,0.2s-0.4,0.4-0.5,0.8c-0.1,0.4-0.2,1.3-0.2,2.5V23.8z M244.1,21.3l2,0.3
	c-0.2,0.7-0.7,1.3-1.2,1.7c-0.6,0.4-1.2,0.6-2.1,0.6c-1.3,0-2.3-0.4-2.9-1.3c-0.5-0.7-0.8-1.6-0.8-2.6c0-1.2,0.3-2.2,1-2.9
	c0.7-0.7,1.5-1.1,2.5-1.1c1.1,0,2,0.4,2.7,1.1c0.7,0.7,1,1.9,0.9,3.4h-5c0,0.6,0.2,1.1,0.5,1.4c0.3,0.3,0.7,0.5,1.2,0.5
	c0.3,0,0.6-0.1,0.8-0.2C243.8,22,244,21.7,244.1,21.3z M244.2,19.3c0-0.6-0.2-1-0.5-1.3c-0.3-0.3-0.6-0.5-1-0.5
	c-0.4,0-0.8,0.2-1.1,0.5c-0.3,0.3-0.4,0.7-0.4,1.3H244.2z M254.7,23.8h-2v-3.9c0-0.8,0-1.4-0.1-1.6c-0.1-0.2-0.2-0.4-0.4-0.6
	c-0.2-0.1-0.4-0.2-0.7-0.2c-0.3,0-0.7,0.1-0.9,0.3c-0.3,0.2-0.5,0.4-0.6,0.8s-0.2,0.9-0.2,1.8v3.4h-2v-7.6h1.9v1.1
	c0.7-0.9,1.5-1.3,2.5-1.3c0.4,0,0.9,0.1,1.2,0.2s0.6,0.4,0.8,0.6c0.2,0.2,0.3,0.5,0.4,0.8s0.1,0.8,0.1,1.4V23.8z M260.3,16.2v1.6
	h-1.4v3.1c0,0.6,0,1,0,1.1c0,0.1,0.1,0.2,0.2,0.2c0.1,0.1,0.2,0.1,0.3,0.1c0.2,0,0.5-0.1,0.8-0.2l0.2,1.6c-0.5,0.2-1,0.3-1.6,0.3
	c-0.4,0-0.7-0.1-1-0.2c-0.3-0.1-0.5-0.3-0.6-0.5c-0.1-0.2-0.2-0.5-0.3-0.8c0-0.2-0.1-0.7-0.1-1.4v-3.3h-0.9v-1.6h0.9v-1.5l2-1.2v2.7
	H260.3z M260.9,21.6l2-0.3c0.1,0.4,0.3,0.7,0.5,0.9c0.3,0.2,0.6,0.3,1.1,0.3c0.5,0,0.9-0.1,1.2-0.3c0.2-0.1,0.3-0.3,0.3-0.5
	c0-0.1,0-0.3-0.1-0.4c-0.1-0.1-0.3-0.2-0.7-0.3c-1.6-0.4-2.7-0.7-3.1-1c-0.6-0.4-0.9-1-0.9-1.7c0-0.7,0.3-1.2,0.8-1.7
	c0.5-0.4,1.3-0.7,2.4-0.7c1,0,1.8,0.2,2.3,0.5c0.5,0.3,0.9,0.8,1,1.5l-1.9,0.4c-0.1-0.3-0.2-0.5-0.5-0.7s-0.6-0.2-1-0.2
	c-0.5,0-0.9,0.1-1.1,0.2c-0.2,0.1-0.2,0.2-0.2,0.4c0,0.1,0.1,0.3,0.2,0.4c0.2,0.1,0.8,0.3,1.9,0.6c1.1,0.2,1.8,0.5,2.2,0.9
	c0.4,0.4,0.6,0.9,0.6,1.5c0,0.7-0.3,1.3-0.9,1.8c-0.6,0.5-1.4,0.8-2.6,0.8c-1,0-1.8-0.2-2.5-0.6C261.5,22.9,261.1,22.3,260.9,21.6z"
	/>
<path class="st2" d="M0.5,313.1L0.5,313.1c0-6.9,5.6-12.5,12.5-12.5h119.8c3.3,0,6.5,1.3,8.8,3.7c2.3,2.3,3.7,5.5,3.7,8.8v49.8
	c0,6.9-5.6,12.5-12.5,12.5H13l0,0c-6.9,0-12.5-5.6-12.5-12.5L0.5,313.1z"/>
<path class="st1" d="M0.5,313.1L0.5,313.1c0-6.9,5.6-12.5,12.5-12.5h119.8c3.3,0,6.5,1.3,8.8,3.7c2.3,2.3,3.7,5.5,3.7,8.8v49.8
	c0,6.9-5.6,12.5-12.5,12.5H13l0,0c-6.9,0-12.5-5.6-12.5-12.5L0.5,313.1z"/>
<path d="M40.5,327.1v-10.5h7.8v1.8h-5.7v2.3h5.3v1.8h-5.3v2.9h5.9v1.8H40.5z M49.3,327.1l2.8-3.9l-2.6-3.7h2.5l1.3,2.1l1.4-2.1H57
	l-2.6,3.6l2.8,4h-2.5l-1.5-2.4l-1.6,2.4H49.3z M58.4,319.5h1.9v1.1c0.2-0.4,0.6-0.7,1-0.9c0.4-0.2,0.9-0.4,1.4-0.4
	c0.9,0,1.6,0.3,2.2,1c0.6,0.7,0.9,1.7,0.9,2.9c0,1.3-0.3,2.3-0.9,3c-0.6,0.7-1.4,1-2.2,1c-0.4,0-0.8-0.1-1.1-0.2
	c-0.3-0.2-0.7-0.5-1.1-0.9v3.8h-2V319.5z M60.4,323.1c0,0.9,0.2,1.5,0.5,1.9c0.3,0.4,0.8,0.6,1.2,0.6c0.5,0,0.9-0.2,1.2-0.6
	c0.3-0.4,0.5-1,0.5-1.8c0-0.8-0.2-1.4-0.5-1.8c-0.3-0.4-0.7-0.6-1.2-0.6c-0.5,0-0.9,0.2-1.2,0.6C60.5,321.8,60.4,322.4,60.4,323.1z
	 M66.9,323.2c0-0.7,0.2-1.3,0.5-1.9c0.3-0.6,0.8-1.1,1.4-1.4c0.6-0.3,1.3-0.5,2-0.5c1.1,0,2.1,0.4,2.8,1.1c0.7,0.7,1.1,1.7,1.1,2.8
	c0,1.2-0.4,2.1-1.1,2.9c-0.7,0.8-1.7,1.1-2.8,1.1c-0.7,0-1.4-0.2-2-0.5c-0.6-0.3-1.1-0.8-1.4-1.4C67.1,324.8,66.9,324,66.9,323.2z
	 M69,323.3c0,0.8,0.2,1.3,0.5,1.7c0.4,0.4,0.8,0.6,1.3,0.6c0.5,0,1-0.2,1.3-0.6c0.4-0.4,0.5-1,0.5-1.8c0-0.8-0.2-1.3-0.5-1.7
	c-0.4-0.4-0.8-0.6-1.3-0.6c-0.5,0-1,0.2-1.3,0.6C69.2,321.9,69,322.5,69,323.3z M75.6,324.9l2-0.3c0.1,0.4,0.3,0.7,0.5,0.9
	c0.3,0.2,0.6,0.3,1.1,0.3c0.5,0,0.9-0.1,1.2-0.3c0.2-0.1,0.3-0.3,0.3-0.5c0-0.1,0-0.3-0.1-0.4c-0.1-0.1-0.3-0.2-0.7-0.3
	c-1.6-0.4-2.7-0.7-3.1-1c-0.6-0.4-0.9-1-0.9-1.7c0-0.7,0.3-1.2,0.8-1.7c0.5-0.4,1.3-0.7,2.4-0.7c1,0,1.8,0.2,2.3,0.5
	c0.5,0.3,0.9,0.8,1,1.5l-1.9,0.4c-0.1-0.3-0.2-0.5-0.5-0.7s-0.6-0.2-1-0.2c-0.5,0-0.9,0.1-1.1,0.2c-0.2,0.1-0.2,0.2-0.2,0.4
	c0,0.1,0.1,0.3,0.2,0.4c0.2,0.1,0.8,0.3,1.9,0.6c1.1,0.2,1.8,0.5,2.2,0.9c0.4,0.4,0.6,0.9,0.6,1.5c0,0.7-0.3,1.3-0.9,1.8
	c-0.6,0.5-1.4,0.8-2.6,0.8c-1,0-1.8-0.2-2.5-0.6C76.2,326.2,75.8,325.6,75.6,324.9z M89.5,327.1v-1.1c-0.3,0.4-0.6,0.7-1.1,1
	c-0.4,0.2-0.9,0.3-1.4,0.3c-0.5,0-1-0.1-1.4-0.3c-0.4-0.2-0.7-0.5-0.9-1s-0.3-1-0.3-1.7v-4.8h2v3.5c0,1.1,0,1.7,0.1,2
	c0.1,0.2,0.2,0.4,0.4,0.6c0.2,0.1,0.4,0.2,0.8,0.2c0.3,0,0.7-0.1,0.9-0.3c0.3-0.2,0.5-0.4,0.5-0.7c0.1-0.3,0.2-1,0.2-2v-3.2h2v7.6
	H89.5z M95.4,327.1h-2v-7.6h1.9v1.1c0.3-0.5,0.6-0.8,0.9-1c0.3-0.2,0.6-0.2,0.9-0.2c0.5,0,0.9,0.1,1.3,0.4l-0.6,1.8
	c-0.3-0.2-0.6-0.3-0.9-0.3c-0.3,0-0.5,0.1-0.7,0.2s-0.4,0.4-0.5,0.8c-0.1,0.4-0.2,1.3-0.2,2.5V327.1z M103.6,324.6l2,0.3
	c-0.3,0.7-0.7,1.3-1.2,1.7c-0.6,0.4-1.2,0.6-2.1,0.6c-1.3,0-2.3-0.4-2.9-1.3c-0.5-0.7-0.8-1.6-0.8-2.6c0-1.2,0.3-2.2,1-2.9
	c0.7-0.7,1.5-1.1,2.5-1.1c1.1,0,2,0.4,2.7,1.1c0.7,0.7,1,1.9,0.9,3.4h-5c0,0.6,0.2,1.1,0.5,1.4c0.3,0.3,0.7,0.5,1.2,0.5
	c0.3,0,0.6-0.1,0.8-0.2C103.3,325.3,103.4,325,103.6,324.6z M103.7,322.6c0-0.6-0.2-1-0.5-1.3c-0.3-0.3-0.6-0.5-1-0.5
	c-0.4,0-0.8,0.2-1.1,0.5c-0.3,0.3-0.4,0.7-0.4,1.3H103.7z"/>
<path d="M37.3,343.8l2-9.5h4c0.7,0,1.2,0.1,1.6,0.2c0.3,0.2,0.6,0.4,0.8,0.8c0.2,0.4,0.3,0.8,0.3,1.3c0,0.4-0.1,0.8-0.2,1.2
	c-0.2,0.4-0.4,0.7-0.6,1c-0.2,0.3-0.5,0.5-0.7,0.6c-0.2,0.1-0.5,0.2-0.8,0.3c-0.6,0.1-1.2,0.2-1.8,0.2h-2.4l-0.8,3.9H37.3z
	 M39.6,338.8h2.1c0.8,0,1.4-0.1,1.8-0.3c0.4-0.2,0.7-0.4,0.9-0.8c0.2-0.4,0.3-0.7,0.3-1.2c0-0.3-0.1-0.6-0.2-0.8
	c-0.1-0.2-0.3-0.3-0.5-0.4c-0.2-0.1-0.6-0.1-1.3-0.1h-2.5L39.6,338.8z M50.7,342.9c-0.4,0.4-0.8,0.6-1.2,0.8
	c-0.4,0.2-0.8,0.2-1.2,0.2c-0.6,0-1.2-0.2-1.6-0.6c-0.4-0.4-0.6-0.9-0.6-1.4c0-0.4,0.1-0.7,0.3-1c0.2-0.3,0.4-0.5,0.7-0.7
	c0.3-0.2,0.6-0.3,1.1-0.4c0.3-0.1,0.8-0.1,1.5-0.1c0.7,0,1.3-0.1,1.6-0.2c0.1-0.3,0.1-0.6,0.1-0.8c0-0.3-0.1-0.5-0.3-0.6
	c-0.3-0.2-0.7-0.3-1.2-0.3c-0.5,0-0.9,0.1-1.2,0.3c-0.3,0.2-0.5,0.5-0.7,0.9l-1.2-0.1c0.2-0.7,0.6-1.2,1.1-1.6
	c0.5-0.4,1.2-0.5,2-0.5c0.9,0,1.5,0.2,2,0.6c0.4,0.3,0.6,0.7,0.6,1.2c0,0.4-0.1,0.8-0.2,1.3l-0.4,1.7c-0.1,0.5-0.2,1-0.2,1.3
	c0,0.2,0.1,0.5,0.2,0.9h-1.2C50.7,343.6,50.7,343.3,50.7,342.9z M51.1,340.3c-0.2,0.1-0.3,0.1-0.5,0.2c-0.2,0-0.5,0.1-0.9,0.1
	c-0.7,0.1-1.2,0.1-1.5,0.2c-0.3,0.1-0.5,0.2-0.6,0.5c-0.1,0.2-0.2,0.4-0.2,0.7c0,0.3,0.1,0.6,0.3,0.8c0.2,0.2,0.6,0.3,1,0.3
	c0.4,0,0.8-0.1,1.1-0.3c0.4-0.2,0.7-0.5,0.9-0.9C50.8,341.5,51,341,51.1,340.3z M53.4,343.8l1.5-6.9h1l-0.3,1.4
	c0.4-0.5,0.7-0.9,1-1.2c0.3-0.3,0.7-0.4,1-0.4c0.2,0,0.5,0.1,0.9,0.2l-0.5,1.1c-0.2-0.1-0.4-0.2-0.7-0.2c-0.4,0-0.8,0.2-1.3,0.7
	c-0.4,0.5-0.8,1.3-1,2.5l-0.6,2.8H53.4z M60.6,342.8l-0.2,1c-0.3,0.1-0.6,0.1-0.8,0.1c-0.5,0-0.8-0.1-1.1-0.3
	c-0.2-0.2-0.3-0.4-0.3-0.7c0-0.2,0.1-0.5,0.2-1l0.8-4h-0.9l0.2-0.9h0.9l0.3-1.7l1.4-0.8l-0.5,2.5h1.2l-0.2,0.9h-1.2l-0.8,3.8
	c-0.1,0.5-0.2,0.8-0.2,0.9c0,0.1,0,0.3,0.1,0.3c0.1,0.1,0.2,0.1,0.4,0.1C60.2,342.9,60.4,342.9,60.6,342.8z M63.2,335.6l0.3-1.3h1.2
	l-0.3,1.3H63.2z M61.5,343.8l1.5-6.9h1.2l-1.4,6.9H61.5z M69.3,341.3l1.2,0.1c-0.3,0.9-0.7,1.5-1.3,1.9c-0.5,0.4-1.2,0.6-1.8,0.6
	c-0.8,0-1.4-0.2-1.8-0.7c-0.5-0.5-0.7-1.2-0.7-2c0-0.7,0.1-1.5,0.4-2.2c0.3-0.7,0.7-1.3,1.3-1.7c0.6-0.4,1.2-0.6,1.9-0.6
	c0.7,0,1.3,0.2,1.8,0.6c0.4,0.4,0.7,1,0.7,1.7l-1.2,0.1c0-0.4-0.1-0.8-0.4-1c-0.2-0.2-0.6-0.4-1-0.4c-0.5,0-0.9,0.2-1.2,0.5
	c-0.3,0.3-0.6,0.7-0.8,1.4c-0.2,0.6-0.3,1.2-0.3,1.8c0,0.6,0.1,1,0.4,1.3c0.3,0.3,0.6,0.4,1,0.4c0.4,0,0.7-0.1,1.1-0.4
	C68.8,342.3,69.1,341.9,69.3,341.3z M72.9,335.6l0.3-1.3h1.2l-0.3,1.3H72.9z M71.1,343.8l1.5-6.9h1.2l-1.4,6.9H71.1z M73.6,346.4
	l2-9.6h1.1l-0.2,1c0.4-0.4,0.8-0.7,1.1-0.9c0.3-0.2,0.7-0.2,1-0.2c0.7,0,1.2,0.2,1.6,0.7c0.4,0.5,0.7,1.2,0.7,2.1
	c0,0.7-0.1,1.4-0.4,2c-0.2,0.6-0.5,1.1-0.9,1.4c-0.3,0.4-0.7,0.6-1,0.8c-0.4,0.2-0.7,0.3-1.1,0.2c-0.8,0-1.5-0.4-1.9-1.3l-0.8,3.8
	H73.6z M75.9,341c0,0.5,0,0.9,0.1,1.1c0.1,0.3,0.3,0.5,0.5,0.7c0.2,0.2,0.5,0.3,0.9,0.2c0.7,0,1.2-0.4,1.6-1.1
	c0.4-0.8,0.6-1.5,0.6-2.3c0-0.6-0.1-1-0.4-1.4c-0.3-0.3-0.6-0.5-1-0.5c-0.3,0-0.6,0.1-0.8,0.2c-0.2,0.2-0.5,0.4-0.7,0.7
	c-0.2,0.3-0.4,0.7-0.5,1.2C76,340.2,75.9,340.6,75.9,341z M86.2,342.9c-0.4,0.4-0.8,0.6-1.2,0.8c-0.4,0.2-0.8,0.2-1.2,0.2
	c-0.6,0-1.2-0.2-1.6-0.6c-0.4-0.4-0.6-0.9-0.6-1.4c0-0.4,0.1-0.7,0.3-1c0.2-0.3,0.4-0.5,0.7-0.7c0.3-0.2,0.6-0.3,1.1-0.4
	c0.3-0.1,0.8-0.1,1.5-0.1c0.7,0,1.3-0.1,1.6-0.2c0.1-0.3,0.1-0.6,0.1-0.8c0-0.3-0.1-0.5-0.3-0.6c-0.3-0.2-0.7-0.3-1.2-0.3
	c-0.5,0-0.9,0.1-1.2,0.3c-0.3,0.2-0.5,0.5-0.7,0.9l-1.2-0.1c0.2-0.7,0.6-1.2,1.1-1.6c0.5-0.4,1.2-0.5,2-0.5c0.9,0,1.5,0.2,2,0.6
	c0.4,0.3,0.6,0.7,0.6,1.2c0,0.4-0.1,0.8-0.2,1.3l-0.4,1.7c-0.1,0.5-0.2,1-0.2,1.3c0,0.2,0.1,0.5,0.2,0.9h-1.2
	C86.3,343.6,86.3,343.3,86.2,342.9z M86.7,340.3c-0.2,0.1-0.3,0.1-0.5,0.2c-0.2,0-0.5,0.1-0.9,0.1c-0.7,0.1-1.2,0.1-1.5,0.2
	c-0.3,0.1-0.5,0.2-0.6,0.5c-0.1,0.2-0.2,0.4-0.2,0.7c0,0.3,0.1,0.6,0.3,0.8c0.2,0.2,0.6,0.3,1,0.3c0.4,0,0.8-0.1,1.1-0.3
	c0.4-0.2,0.7-0.5,0.9-0.9C86.4,341.5,86.5,341,86.7,340.3z M89,343.8l1.5-6.9h1.1l-0.2,1.2c0.5-0.5,0.9-0.8,1.3-1
	c0.4-0.2,0.8-0.3,1.2-0.3c0.6,0,1,0.2,1.3,0.5c0.3,0.3,0.5,0.7,0.5,1.2c0,0.3-0.1,0.7-0.2,1.2l-0.9,4.2h-1.2l0.9-4.4
	c0.1-0.4,0.1-0.7,0.1-1c0-0.2-0.1-0.4-0.2-0.5c-0.2-0.1-0.4-0.2-0.7-0.2c-0.6,0-1.1,0.2-1.6,0.7c-0.5,0.4-0.8,1.2-1,2.2l-0.7,3.2H89
	z M99.2,342.8l-0.2,1c-0.3,0.1-0.6,0.1-0.8,0.1c-0.5,0-0.8-0.1-1.1-0.3c-0.2-0.2-0.3-0.4-0.3-0.7c0-0.2,0.1-0.5,0.2-1l0.8-4h-0.9
	l0.2-0.9h0.9l0.3-1.7l1.4-0.8l-0.5,2.5h1.2l-0.2,0.9h-1.2l-0.8,3.8c-0.1,0.5-0.2,0.8-0.2,0.9c0,0.1,0,0.3,0.1,0.3
	c0.1,0.1,0.2,0.1,0.4,0.1C98.7,342.9,98.9,342.9,99.2,342.8z M101.7,335.6l0.3-1.3h1.3l-0.2,1.2c-0.1,0.7-0.4,1.2-0.7,1.5
	c-0.3,0.3-0.7,0.5-1.1,0.6l0.1-0.5c0.5-0.1,0.8-0.6,1-1.4H101.7z M102.9,341.4l1.2-0.1c0,0.3,0.1,0.6,0.2,0.9
	c0.1,0.2,0.3,0.4,0.6,0.6c0.3,0.1,0.6,0.2,1,0.2c0.5,0,0.9-0.1,1.2-0.3c0.3-0.2,0.4-0.5,0.4-0.7c0-0.2-0.1-0.4-0.2-0.6
	c-0.2-0.2-0.5-0.4-1.2-0.7c-0.6-0.3-1-0.5-1.2-0.6c-0.3-0.2-0.5-0.4-0.7-0.6c-0.1-0.2-0.2-0.5-0.2-0.8c0-0.5,0.2-1,0.7-1.4
	c0.4-0.4,1-0.6,1.8-0.6c0.9,0,1.5,0.2,2,0.6c0.5,0.4,0.7,0.9,0.7,1.6l-1.2,0.1c0-0.4-0.2-0.7-0.5-1c-0.3-0.2-0.7-0.4-1.2-0.4
	c-0.4,0-0.7,0.1-1,0.3c-0.2,0.2-0.3,0.4-0.3,0.6c0,0.2,0.1,0.4,0.3,0.6c0.1,0.1,0.5,0.3,1,0.5c0.9,0.4,1.5,0.7,1.7,0.9
	c0.4,0.4,0.6,0.8,0.6,1.3c0,0.3-0.1,0.7-0.3,1c-0.2,0.3-0.5,0.6-1,0.8c-0.4,0.2-0.9,0.3-1.5,0.3c-0.8,0-1.5-0.2-2-0.6
	C103.2,342.9,102.9,342.3,102.9,341.4z"/>
<path d="M52.8,356l0.2-1.1h4.2l-0.8,3.9c-0.5,0.3-1.1,0.6-1.8,0.8c-0.7,0.2-1.3,0.3-2,0.3c-1.4,0-2.4-0.4-3.1-1.2
	c-0.6-0.7-0.9-1.6-0.9-2.7c0-1.1,0.2-2.2,0.8-3.1c0.5-0.9,1.2-1.6,1.9-2.1c0.8-0.4,1.6-0.7,2.6-0.7c0.7,0,1.3,0.1,1.8,0.4
	c0.5,0.2,1,0.6,1.2,1c0.3,0.4,0.5,0.9,0.6,1.6l-1.2,0.1c-0.1-0.7-0.4-1.2-0.8-1.5c-0.4-0.4-1-0.5-1.6-0.5c-0.7,0-1.3,0.2-2,0.6
	c-0.6,0.4-1.1,0.9-1.4,1.7c-0.4,0.8-0.5,1.6-0.5,2.6c0,1,0.2,1.7,0.7,2.2c0.5,0.5,1.1,0.7,2,0.7c0.8,0,1.7-0.3,2.7-0.8l0.4-2H52.8z
	 M63.2,357.4l1.2,0.1c-0.2,0.6-0.5,1.1-1.1,1.6c-0.6,0.5-1.3,0.8-2.1,0.8c-0.5,0-1-0.1-1.4-0.3c-0.4-0.2-0.8-0.6-1-1
	c-0.2-0.5-0.3-1-0.3-1.5c0-0.8,0.2-1.5,0.5-2.2c0.4-0.7,0.8-1.2,1.4-1.6c0.6-0.3,1.2-0.5,1.8-0.5c0.8,0,1.5,0.3,2,0.8
	c0.5,0.5,0.8,1.2,0.8,2.1c0,0.3,0,0.7-0.1,1h-5.1c0,0.1,0,0.2,0,0.4c0,0.6,0.1,1.1,0.4,1.5c0.3,0.3,0.7,0.5,1.1,0.5
	c0.4,0,0.8-0.1,1.2-0.4C62.7,358.3,63,357.9,63.2,357.4z M59.8,355.7h3.9c0-0.1,0-0.2,0-0.3c0-0.6-0.2-1-0.5-1.3
	c-0.3-0.3-0.7-0.5-1.1-0.5c-0.5,0-1,0.2-1.4,0.5C60.3,354.5,60,355,59.8,355.7z M65.5,359.8l1.5-6.9H68l-0.2,1.2
	c0.5-0.5,0.9-0.8,1.3-1c0.4-0.2,0.8-0.3,1.2-0.3c0.6,0,1,0.2,1.3,0.5c0.3,0.3,0.5,0.7,0.5,1.2c0,0.3-0.1,0.7-0.2,1.2l-0.9,4.2h-1.2
	l0.9-4.4c0.1-0.4,0.1-0.7,0.1-1c0-0.2-0.1-0.4-0.2-0.5c-0.2-0.1-0.4-0.2-0.7-0.2c-0.6,0-1.1,0.2-1.6,0.7c-0.5,0.4-0.8,1.2-1,2.2
	l-0.7,3.2H65.5z M73.2,357.2c0-1.3,0.4-2.5,1.2-3.3c0.7-0.7,1.5-1.1,2.6-1.1c0.8,0,1.5,0.3,2,0.8c0.5,0.5,0.8,1.2,0.8,2.1
	c0,0.8-0.2,1.5-0.5,2.2c-0.3,0.7-0.8,1.2-1.4,1.6c-0.6,0.4-1.2,0.5-1.9,0.5c-0.5,0-1-0.1-1.5-0.3c-0.4-0.2-0.8-0.6-1-1
	C73.3,358.2,73.2,357.7,73.2,357.2z M74.3,357c0,0.6,0.2,1.1,0.5,1.5c0.3,0.3,0.7,0.5,1.2,0.5c0.2,0,0.5-0.1,0.8-0.2
	c0.2-0.1,0.5-0.3,0.7-0.5c0.2-0.2,0.4-0.4,0.5-0.7c0.1-0.3,0.3-0.6,0.4-0.9c0.1-0.4,0.2-0.8,0.2-1.2c0-0.6-0.2-1.1-0.5-1.5
	c-0.3-0.3-0.7-0.5-1.2-0.5c-0.4,0-0.7,0.1-1,0.3c-0.3,0.2-0.6,0.4-0.8,0.8c-0.2,0.3-0.4,0.7-0.5,1.2C74.4,356.3,74.3,356.7,74.3,357
	z M80.3,359.8l1.4-6.9H83l-0.2,1.1c0.4-0.5,0.8-0.8,1.2-1c0.4-0.2,0.7-0.3,1.1-0.3c0.4,0,0.8,0.1,1.1,0.3c0.3,0.2,0.5,0.5,0.6,1
	c0.3-0.4,0.7-0.8,1.1-1c0.4-0.2,0.8-0.3,1.2-0.3c0.6,0,1,0.1,1.3,0.4c0.3,0.3,0.4,0.7,0.4,1.2c0,0.2-0.1,0.6-0.2,1l-0.9,4.5h-1.2
	l0.9-4.6c0.1-0.4,0.1-0.6,0.1-0.8c0-0.2-0.1-0.4-0.2-0.5c-0.1-0.1-0.3-0.2-0.6-0.2c-0.4,0-0.7,0.1-1.1,0.3c-0.4,0.2-0.7,0.5-0.9,0.8
	c-0.2,0.3-0.4,0.9-0.5,1.6l-0.7,3.3h-1.2l1-4.7c0.1-0.3,0.1-0.5,0.1-0.7c0-0.2-0.1-0.4-0.2-0.5c-0.1-0.1-0.3-0.2-0.5-0.2
	c-0.3,0-0.7,0.1-1.1,0.3c-0.4,0.2-0.7,0.5-0.9,0.9c-0.2,0.4-0.4,0.9-0.6,1.6l-0.7,3.3H80.3z M96.5,357.4l1.2,0.1
	c-0.2,0.6-0.5,1.1-1.1,1.6c-0.6,0.5-1.3,0.8-2.1,0.8c-0.5,0-1-0.1-1.4-0.3c-0.4-0.2-0.8-0.6-1-1c-0.2-0.5-0.3-1-0.3-1.5
	c0-0.8,0.2-1.5,0.5-2.2c0.4-0.7,0.8-1.2,1.4-1.6c0.6-0.3,1.2-0.5,1.8-0.5c0.8,0,1.5,0.3,2,0.8c0.5,0.5,0.8,1.2,0.8,2.1
	c0,0.3,0,0.7-0.1,1h-5.1c0,0.1,0,0.2,0,0.4c0,0.6,0.1,1.1,0.4,1.5c0.3,0.3,0.7,0.5,1.1,0.5c0.4,0,0.8-0.1,1.2-0.4
	C96,358.3,96.3,357.9,96.5,357.4z M93.1,355.7H97c0-0.1,0-0.2,0-0.3c0-0.6-0.2-1-0.5-1.3c-0.3-0.3-0.7-0.5-1.1-0.5
	c-0.5,0-1,0.2-1.4,0.5C93.6,354.5,93.3,355,93.1,355.7z"/>
<path class="st3" d="M293.7,313.1L293.7,313.1c0-6.9,5.6-12.5,12.5-12.5h165.2c3.3,0,6.5,1.3,8.8,3.7c2.3,2.3,3.7,5.5,3.7,8.8v49.8
	c0,6.9-5.6,12.5-12.5,12.5H306.2l0,0c-6.9,0-12.5-5.6-12.5-12.5V313.1z"/>
<path class="st1" d="M293.7,313.1L293.7,313.1c0-6.9,5.6-12.5,12.5-12.5h165.2c3.3,0,6.5,1.3,8.8,3.7c2.3,2.3,3.7,5.5,3.7,8.8v49.8
	c0,6.9-5.6,12.5-12.5,12.5H306.2l0,0c-6.9,0-12.5-5.6-12.5-12.5V313.1z"/>
<path d="M357.7,329.9c0-1.1,0.2-2,0.5-2.7c0.2-0.5,0.6-1,1-1.4c0.4-0.4,0.9-0.7,1.4-0.9c0.7-0.3,1.4-0.4,2.2-0.4
	c1.6,0,2.8,0.5,3.7,1.4c0.9,1,1.4,2.3,1.4,4c0,1.7-0.5,3-1.4,4c-0.9,0.9-2.1,1.4-3.7,1.4c-1.6,0-2.8-0.5-3.7-1.4
	C358.2,332.9,357.7,331.6,357.7,329.9z M359.9,329.8c0,1.2,0.3,2.1,0.8,2.7c0.6,0.6,1.3,0.9,2.1,0.9c0.8,0,1.5-0.3,2.1-0.9
	c0.5-0.6,0.8-1.5,0.8-2.8c0-1.2-0.3-2.1-0.8-2.7c-0.5-0.6-1.2-0.9-2.1-0.9c-0.9,0-1.6,0.3-2.1,0.9
	C360.1,327.7,359.9,328.6,359.9,329.8z M374.5,335.1v-1.1c-0.3,0.4-0.6,0.7-1.1,1c-0.4,0.2-0.9,0.3-1.4,0.3c-0.5,0-1-0.1-1.4-0.3
	c-0.4-0.2-0.7-0.5-0.9-1s-0.3-1-0.3-1.7v-4.8h2v3.5c0,1.1,0,1.7,0.1,2c0.1,0.2,0.2,0.4,0.4,0.6c0.2,0.1,0.4,0.2,0.8,0.2
	c0.3,0,0.7-0.1,0.9-0.3s0.5-0.4,0.5-0.7c0.1-0.3,0.2-1,0.2-2v-3.2h2v7.6H374.5z M381.9,327.5v1.6h-1.4v3.1c0,0.6,0,1,0,1.1
	c0,0.1,0.1,0.2,0.2,0.2c0.1,0.1,0.2,0.1,0.3,0.1c0.2,0,0.5-0.1,0.8-0.2l0.2,1.6c-0.5,0.2-1,0.3-1.6,0.3c-0.4,0-0.7-0.1-1-0.2
	c-0.3-0.1-0.5-0.3-0.6-0.5c-0.1-0.2-0.2-0.5-0.3-0.8c0-0.2-0.1-0.7-0.1-1.4v-3.3h-0.9v-1.6h0.9V326l2-1.2v2.7H381.9z M390,329.7
	l-2,0.4c-0.1-0.4-0.2-0.7-0.5-0.9c-0.2-0.2-0.5-0.3-0.9-0.3c-0.5,0-0.9,0.2-1.2,0.5c-0.3,0.3-0.5,0.9-0.5,1.7c0,0.9,0.2,1.5,0.5,1.9
	c0.3,0.4,0.7,0.5,1.2,0.5c0.4,0,0.7-0.1,0.9-0.3c0.2-0.2,0.4-0.6,0.5-1.1l2,0.3c-0.2,0.9-0.6,1.6-1.2,2.1c-0.6,0.5-1.4,0.7-2.3,0.7
	c-1.1,0-2-0.3-2.7-1c-0.7-0.7-1-1.7-1-2.9c0-1.2,0.3-2.2,1-2.9c0.7-0.7,1.6-1,2.7-1c0.9,0,1.7,0.2,2.2,0.6
	C389.3,328.3,389.7,328.9,390,329.7z M391,331.2c0-0.7,0.2-1.3,0.5-1.9c0.3-0.6,0.8-1.1,1.4-1.4c0.6-0.3,1.3-0.5,2-0.5
	c1.1,0,2.1,0.4,2.8,1.1c0.7,0.7,1.1,1.7,1.1,2.8c0,1.2-0.4,2.1-1.1,2.9c-0.7,0.8-1.7,1.1-2.8,1.1c-0.7,0-1.4-0.2-2-0.5
	c-0.6-0.3-1.1-0.8-1.4-1.4C391.2,332.8,391,332,391,331.2z M393.1,331.3c0,0.8,0.2,1.3,0.5,1.7c0.4,0.4,0.8,0.6,1.3,0.6
	c0.5,0,1-0.2,1.3-0.6c0.4-0.4,0.5-1,0.5-1.8c0-0.8-0.2-1.3-0.5-1.7c-0.4-0.4-0.8-0.6-1.3-0.6c-0.5,0-1,0.2-1.3,0.6
	C393.3,329.9,393.1,330.5,393.1,331.3z M400.3,327.5h1.8v1c0.7-0.8,1.5-1.2,2.4-1.2c0.5,0,0.9,0.1,1.3,0.3c0.4,0.2,0.6,0.5,0.9,0.9
	c0.3-0.4,0.7-0.7,1.1-0.9c0.4-0.2,0.8-0.3,1.2-0.3c0.6,0,1,0.1,1.4,0.3c0.4,0.2,0.7,0.5,0.9,1c0.1,0.3,0.2,0.8,0.2,1.6v4.9h-2v-4.3
	c0-0.8-0.1-1.2-0.2-1.5c-0.2-0.3-0.5-0.4-0.9-0.4c-0.3,0-0.5,0.1-0.8,0.3c-0.2,0.2-0.4,0.4-0.5,0.8c-0.1,0.3-0.2,0.9-0.2,1.6v3.7h-2
	v-4.2c0-0.7,0-1.2-0.1-1.4c-0.1-0.2-0.2-0.4-0.3-0.5c-0.1-0.1-0.3-0.2-0.6-0.2c-0.3,0-0.6,0.1-0.8,0.2c-0.2,0.2-0.4,0.4-0.5,0.7
	c-0.1,0.3-0.2,0.8-0.2,1.6v3.7h-2V327.5z M417.9,332.6l2,0.3c-0.2,0.7-0.7,1.3-1.2,1.7c-0.6,0.4-1.2,0.6-2.1,0.6
	c-1.3,0-2.3-0.4-2.9-1.3c-0.5-0.7-0.8-1.6-0.8-2.6c0-1.2,0.3-2.2,1-2.9c0.7-0.7,1.5-1.1,2.5-1.1c1.1,0,2,0.4,2.7,1.1
	c0.7,0.7,1,1.9,0.9,3.4h-5c0,0.6,0.2,1.1,0.5,1.4c0.3,0.3,0.7,0.5,1.2,0.5c0.3,0,0.6-0.1,0.8-0.2C417.6,333.3,417.8,333,417.9,332.6
	z M418,330.6c0-0.6-0.2-1-0.5-1.3c-0.3-0.3-0.6-0.5-1-0.5c-0.4,0-0.8,0.2-1.1,0.5c-0.3,0.3-0.4,0.7-0.4,1.3H418z"/>
<path d="M313.6,351.8l2-9.5h4c0.7,0,1.2,0.1,1.6,0.2c0.3,0.2,0.6,0.4,0.8,0.8c0.2,0.4,0.3,0.8,0.3,1.3c0,0.4-0.1,0.8-0.2,1.2
	c-0.2,0.4-0.4,0.7-0.6,1c-0.2,0.3-0.5,0.5-0.7,0.6s-0.5,0.2-0.8,0.3c-0.6,0.1-1.2,0.2-1.8,0.2h-2.4l-0.8,3.9H313.6z M315.9,346.8
	h2.1c0.8,0,1.4-0.1,1.8-0.3s0.7-0.4,0.9-0.8c0.2-0.4,0.3-0.8,0.3-1.2c0-0.3-0.1-0.6-0.2-0.8c-0.1-0.2-0.3-0.3-0.5-0.4
	s-0.6-0.1-1.3-0.1h-2.5L315.9,346.8z M327,350.9c-0.4,0.4-0.8,0.6-1.2,0.8c-0.4,0.2-0.8,0.2-1.2,0.2c-0.6,0-1.2-0.2-1.6-0.6
	c-0.4-0.4-0.6-0.9-0.6-1.4c0-0.4,0.1-0.7,0.3-1c0.2-0.3,0.4-0.5,0.7-0.7c0.3-0.2,0.6-0.3,1.1-0.4c0.3-0.1,0.8-0.1,1.5-0.1
	s1.3-0.1,1.6-0.2c0.1-0.3,0.1-0.6,0.1-0.8c0-0.3-0.1-0.5-0.3-0.6c-0.3-0.2-0.7-0.3-1.2-0.3c-0.5,0-0.9,0.1-1.2,0.3s-0.5,0.5-0.7,0.9
	l-1.2-0.1c0.2-0.7,0.6-1.2,1.1-1.6c0.5-0.4,1.2-0.5,2-0.5c0.9,0,1.5,0.2,2,0.6c0.4,0.3,0.6,0.7,0.6,1.2c0,0.4-0.1,0.8-0.2,1.3
	l-0.4,1.7c-0.1,0.5-0.2,1-0.2,1.3c0,0.2,0.1,0.5,0.2,0.9h-1.2C327.1,351.6,327,351.3,327,350.9z M327.4,348.3
	c-0.2,0.1-0.3,0.1-0.5,0.2c-0.2,0-0.5,0.1-0.9,0.1c-0.7,0.1-1.2,0.1-1.5,0.2s-0.5,0.2-0.6,0.5c-0.1,0.2-0.2,0.4-0.2,0.7
	c0,0.3,0.1,0.6,0.3,0.8c0.2,0.2,0.6,0.3,1,0.3c0.4,0,0.8-0.1,1.1-0.3c0.4-0.2,0.7-0.5,0.9-0.9C327.1,349.5,327.3,349,327.4,348.3z
	 M329.7,351.8l1.5-6.9h1l-0.3,1.4c0.4-0.5,0.7-0.9,1-1.2c0.3-0.3,0.7-0.4,1-0.4c0.2,0,0.5,0.1,0.9,0.2l-0.5,1.1
	c-0.2-0.1-0.4-0.2-0.7-0.2c-0.4,0-0.8,0.2-1.3,0.7c-0.4,0.5-0.8,1.3-1,2.5l-0.6,2.8H329.7z M336.9,350.8l-0.2,1
	c-0.3,0.1-0.6,0.1-0.8,0.1c-0.5,0-0.8-0.1-1.1-0.3c-0.2-0.2-0.3-0.4-0.3-0.7c0-0.2,0.1-0.5,0.2-1l0.8-4h-0.9l0.2-0.9h0.9l0.3-1.7
	l1.4-0.8l-0.5,2.5h1.2l-0.2,0.9h-1.2l-0.8,3.8c-0.1,0.5-0.2,0.8-0.2,0.9c0,0.1,0,0.3,0.1,0.3c0.1,0.1,0.2,0.1,0.4,0.1
	C336.5,350.9,336.7,350.9,336.9,350.8z M339.6,343.6l0.3-1.3h1.2l-0.3,1.3H339.6z M337.8,351.8l1.5-6.9h1.2l-1.4,6.9H337.8z
	 M345.6,349.3l1.2,0.1c-0.3,0.9-0.7,1.5-1.3,1.9c-0.5,0.4-1.2,0.6-1.8,0.6c-0.8,0-1.4-0.2-1.8-0.7c-0.5-0.5-0.7-1.2-0.7-2
	c0-0.8,0.1-1.5,0.4-2.2c0.3-0.7,0.7-1.3,1.3-1.7c0.6-0.4,1.2-0.6,1.9-0.6c0.7,0,1.3,0.2,1.8,0.6s0.7,1,0.7,1.7l-1.2,0.1
	c0-0.4-0.1-0.8-0.4-1c-0.2-0.2-0.6-0.4-1-0.4c-0.5,0-0.9,0.2-1.2,0.5c-0.3,0.3-0.6,0.7-0.8,1.4c-0.2,0.6-0.3,1.2-0.3,1.8
	c0,0.6,0.1,1,0.4,1.3c0.3,0.3,0.6,0.4,1,0.4c0.4,0,0.7-0.1,1.1-0.4C345.1,350.3,345.4,349.9,345.6,349.3z M349.2,343.6l0.3-1.3h1.2
	l-0.3,1.3H349.2z M347.5,351.8l1.5-6.9h1.2l-1.4,6.9H347.5z M349.9,354.4l2-9.6h1.1l-0.2,1c0.4-0.4,0.8-0.7,1.1-0.9
	c0.3-0.2,0.7-0.2,1-0.2c0.7,0,1.2,0.2,1.6,0.7c0.4,0.5,0.7,1.2,0.7,2.1c0,0.7-0.1,1.4-0.4,2c-0.2,0.6-0.5,1.1-0.9,1.4
	c-0.3,0.4-0.7,0.6-1,0.8c-0.4,0.2-0.7,0.2-1.1,0.2c-0.8,0-1.5-0.4-1.9-1.3l-0.8,3.8H349.9z M352.2,349c0,0.5,0,0.9,0.1,1.1
	c0.1,0.3,0.3,0.5,0.5,0.7c0.3,0.2,0.5,0.2,0.9,0.2c0.7,0,1.2-0.4,1.6-1.1c0.4-0.8,0.6-1.5,0.6-2.3c0-0.6-0.1-1-0.4-1.4
	c-0.3-0.3-0.6-0.5-1-0.5c-0.3,0-0.6,0.1-0.8,0.2c-0.2,0.2-0.5,0.4-0.7,0.7c-0.2,0.3-0.4,0.7-0.5,1.2
	C352.3,348.2,352.2,348.6,352.2,349z M362.6,350.9c-0.4,0.4-0.8,0.6-1.2,0.8c-0.4,0.2-0.8,0.2-1.2,0.2c-0.6,0-1.2-0.2-1.6-0.6
	c-0.4-0.4-0.6-0.9-0.6-1.4c0-0.4,0.1-0.7,0.3-1c0.2-0.3,0.4-0.5,0.7-0.7c0.3-0.2,0.6-0.3,1.1-0.4c0.3-0.1,0.8-0.1,1.5-0.1
	c0.7,0,1.3-0.1,1.6-0.2c0.1-0.3,0.1-0.6,0.1-0.8c0-0.3-0.1-0.5-0.3-0.6c-0.3-0.2-0.7-0.3-1.2-0.3c-0.5,0-0.9,0.1-1.2,0.3
	c-0.3,0.2-0.5,0.5-0.7,0.9l-1.2-0.1c0.2-0.7,0.6-1.2,1.1-1.6c0.5-0.4,1.2-0.5,2-0.5c0.9,0,1.5,0.2,2,0.6c0.4,0.3,0.6,0.7,0.6,1.2
	c0,0.4-0.1,0.8-0.2,1.3l-0.4,1.7c-0.1,0.5-0.2,1-0.2,1.3c0,0.2,0.1,0.5,0.2,0.9h-1.2C362.6,351.6,362.6,351.3,362.6,350.9z
	 M363,348.3c-0.2,0.1-0.3,0.1-0.5,0.2c-0.2,0-0.5,0.1-0.9,0.1c-0.7,0.1-1.2,0.1-1.5,0.2c-0.3,0.1-0.5,0.2-0.6,0.5
	c-0.1,0.2-0.2,0.4-0.2,0.7c0,0.3,0.1,0.6,0.3,0.8c0.2,0.2,0.6,0.3,1,0.3c0.4,0,0.8-0.1,1.1-0.3c0.4-0.2,0.7-0.5,0.9-0.9
	C362.7,349.5,362.9,349,363,348.3z M365.3,351.8l1.5-6.9h1.1l-0.2,1.2c0.5-0.5,0.9-0.8,1.3-1c0.4-0.2,0.8-0.3,1.2-0.3
	c0.6,0,1,0.2,1.3,0.5c0.3,0.3,0.5,0.7,0.5,1.2c0,0.2-0.1,0.7-0.2,1.2l-0.9,4.2h-1.2l0.9-4.4c0.1-0.4,0.1-0.7,0.1-1
	c0-0.2-0.1-0.4-0.2-0.5c-0.2-0.1-0.4-0.2-0.7-0.2c-0.6,0-1.1,0.2-1.6,0.7c-0.5,0.4-0.8,1.2-1,2.2l-0.7,3.2H365.3z M375.5,350.8
	l-0.2,1c-0.3,0.1-0.6,0.1-0.8,0.1c-0.5,0-0.8-0.1-1.1-0.3c-0.2-0.2-0.3-0.4-0.3-0.7c0-0.2,0.1-0.5,0.2-1l0.8-4h-0.9l0.2-0.9h0.9
	l0.3-1.7l1.4-0.8l-0.5,2.5h1.2l-0.2,0.9h-1.2l-0.8,3.8c-0.1,0.5-0.2,0.8-0.2,0.9c0,0.1,0,0.3,0.1,0.3c0.1,0.1,0.2,0.1,0.4,0.1
	C375,350.9,375.3,350.9,375.5,350.8z M378,343.6l0.3-1.3h1.3l-0.2,1.2c-0.1,0.7-0.4,1.2-0.7,1.5s-0.7,0.5-1.1,0.6l0.1-0.5
	c0.5-0.1,0.8-0.6,1-1.4H378z M379.2,349.4l1.2-0.1c0,0.3,0.1,0.6,0.2,0.9c0.1,0.2,0.3,0.4,0.6,0.6c0.3,0.1,0.6,0.2,1,0.2
	c0.5,0,0.9-0.1,1.2-0.3c0.3-0.2,0.4-0.5,0.4-0.7c0-0.2-0.1-0.4-0.2-0.6c-0.2-0.2-0.5-0.4-1.2-0.7c-0.6-0.3-1-0.5-1.2-0.6
	c-0.3-0.2-0.5-0.4-0.7-0.6c-0.1-0.2-0.2-0.5-0.2-0.8c0-0.5,0.2-1,0.7-1.4c0.4-0.4,1-0.6,1.8-0.6c0.9,0,1.5,0.2,2,0.6
	c0.5,0.4,0.7,0.9,0.7,1.6l-1.2,0.1c0-0.4-0.2-0.7-0.5-1c-0.3-0.2-0.7-0.4-1.2-0.4c-0.4,0-0.7,0.1-1,0.3c-0.2,0.2-0.3,0.4-0.3,0.6
	c0,0.2,0.1,0.4,0.3,0.6c0.1,0.1,0.5,0.3,1,0.5c0.9,0.4,1.5,0.7,1.7,0.9c0.4,0.4,0.6,0.8,0.6,1.3c0,0.3-0.1,0.7-0.3,1
	c-0.2,0.3-0.5,0.6-1,0.8c-0.4,0.2-0.9,0.3-1.5,0.3c-0.8,0-1.5-0.2-2-0.6S379.2,350.3,379.2,349.4z M397.1,348.4l1.3,0.2
	c-0.4,1.1-1,1.9-1.8,2.5c-0.8,0.6-1.6,0.8-2.6,0.8c-1.2,0-2.1-0.3-2.8-1c-0.7-0.7-1-1.7-1-3c0-1.7,0.5-3.1,1.6-4.3
	c0.9-1,2.1-1.5,3.4-1.5c1,0,1.8,0.3,2.5,0.8c0.6,0.5,1,1.3,1.1,2.2l-1.2,0.1c-0.1-0.7-0.4-1.2-0.8-1.5s-0.9-0.5-1.5-0.5
	c-1.2,0-2.1,0.5-2.8,1.6c-0.6,0.9-0.9,2-0.9,3.2c0,1,0.2,1.7,0.7,2.2c0.5,0.5,1.1,0.8,1.9,0.8c0.7,0,1.3-0.2,1.8-0.6
	C396.5,349.8,396.9,349.2,397.1,348.4z M399.3,349.2c0-1.3,0.4-2.5,1.2-3.3c0.7-0.7,1.5-1.1,2.6-1.1c0.8,0,1.5,0.3,2,0.8
	c0.5,0.5,0.8,1.2,0.8,2.1c0,0.8-0.2,1.5-0.5,2.2c-0.3,0.7-0.8,1.2-1.4,1.6s-1.2,0.5-1.9,0.5c-0.5,0-1-0.1-1.5-0.3
	c-0.4-0.2-0.8-0.6-1-1C399.5,350.2,399.3,349.7,399.3,349.2z M400.5,349c0,0.6,0.2,1.1,0.5,1.5c0.3,0.3,0.7,0.5,1.2,0.5
	c0.2,0,0.5-0.1,0.8-0.2s0.5-0.3,0.7-0.5c0.2-0.2,0.4-0.4,0.5-0.7c0.1-0.3,0.3-0.6,0.4-0.9c0.1-0.4,0.2-0.8,0.2-1.2
	c0-0.6-0.2-1.1-0.5-1.5s-0.7-0.5-1.2-0.5c-0.4,0-0.7,0.1-1,0.3c-0.3,0.2-0.6,0.4-0.8,0.8c-0.2,0.3-0.4,0.7-0.5,1.2
	C400.6,348.3,400.5,348.7,400.5,349z M406.5,351.8l1.5-6.9h1.1l-0.2,1.2c0.5-0.5,0.9-0.8,1.3-1c0.4-0.2,0.8-0.3,1.2-0.3
	c0.6,0,1,0.2,1.3,0.5c0.3,0.3,0.5,0.7,0.5,1.2c0,0.2-0.1,0.7-0.2,1.2l-0.9,4.2h-1.2l0.9-4.4c0.1-0.4,0.1-0.7,0.1-1
	c0-0.2-0.1-0.4-0.2-0.5c-0.2-0.1-0.4-0.2-0.7-0.2c-0.6,0-1.1,0.2-1.6,0.7c-0.5,0.4-0.8,1.2-1,2.2l-0.7,3.2H406.5z M413.9,351.8
	l1.5-6.9h1.1l-0.2,1.2c0.5-0.5,0.9-0.8,1.3-1c0.4-0.2,0.8-0.3,1.2-0.3c0.6,0,1,0.2,1.3,0.5c0.3,0.3,0.5,0.7,0.5,1.2
	c0,0.2-0.1,0.7-0.2,1.2l-0.9,4.2h-1.2l0.9-4.4c0.1-0.4,0.1-0.7,0.1-1c0-0.2-0.1-0.4-0.2-0.5c-0.2-0.1-0.4-0.2-0.7-0.2
	c-0.6,0-1.1,0.2-1.6,0.7c-0.5,0.4-0.8,1.2-1,2.2l-0.7,3.2H413.9z M426.4,349.4l1.2,0.1c-0.2,0.6-0.5,1.1-1.1,1.6s-1.3,0.8-2.1,0.8
	c-0.5,0-1-0.1-1.4-0.3c-0.4-0.2-0.8-0.6-1-1c-0.2-0.5-0.3-1-0.3-1.5c0-0.8,0.2-1.5,0.5-2.2c0.4-0.7,0.8-1.2,1.4-1.6
	c0.6-0.3,1.2-0.5,1.8-0.5c0.8,0,1.5,0.3,2,0.8c0.5,0.5,0.8,1.2,0.8,2.1c0,0.3,0,0.7-0.1,1h-5.1c0,0.1,0,0.2,0,0.4
	c0,0.6,0.1,1.1,0.4,1.5c0.3,0.3,0.7,0.5,1.1,0.5c0.4,0,0.8-0.1,1.2-0.4C425.9,350.3,426.2,349.9,426.4,349.4z M423,347.7h3.9
	c0-0.1,0-0.2,0-0.3c0-0.6-0.2-1-0.5-1.3c-0.3-0.3-0.7-0.5-1.1-0.5c-0.5,0-1,0.2-1.4,0.5C423.5,346.5,423.2,347,423,347.7z
	 M433.6,349.3l1.2,0.1c-0.3,0.9-0.7,1.5-1.3,1.9c-0.5,0.4-1.2,0.6-1.8,0.6c-0.8,0-1.4-0.2-1.8-0.7c-0.5-0.5-0.7-1.2-0.7-2
	c0-0.8,0.1-1.5,0.4-2.2c0.3-0.7,0.7-1.3,1.3-1.7c0.6-0.4,1.2-0.6,1.9-0.6c0.7,0,1.3,0.2,1.8,0.6s0.7,1,0.7,1.7l-1.2,0.1
	c0-0.4-0.1-0.8-0.4-1c-0.2-0.2-0.6-0.4-1-0.4c-0.5,0-0.9,0.2-1.2,0.5c-0.3,0.3-0.6,0.7-0.8,1.4c-0.2,0.6-0.3,1.2-0.3,1.8
	c0,0.6,0.1,1,0.4,1.3c0.3,0.3,0.6,0.4,1,0.4c0.4,0,0.7-0.1,1.1-0.4C433.1,350.3,433.3,349.9,433.6,349.3z M438.2,350.8l-0.2,1
	c-0.3,0.1-0.6,0.1-0.8,0.1c-0.5,0-0.8-0.1-1.1-0.3c-0.2-0.2-0.3-0.4-0.3-0.7c0-0.2,0.1-0.5,0.2-1l0.8-4h-0.9l0.2-0.9h0.9l0.3-1.7
	l1.4-0.8l-0.5,2.5h1.2l-0.2,0.9h-1.2l-0.8,3.8c-0.1,0.5-0.2,0.8-0.2,0.9c0,0.1,0,0.3,0.1,0.3c0.1,0.1,0.2,0.1,0.4,0.1
	C437.8,350.9,438,350.9,438.2,350.8z M439.4,349.2c0-1.3,0.4-2.5,1.2-3.3c0.7-0.7,1.5-1.1,2.6-1.1c0.8,0,1.5,0.3,2,0.8
	s0.8,1.2,0.8,2.1c0,0.8-0.2,1.5-0.5,2.2c-0.3,0.7-0.8,1.2-1.4,1.6s-1.2,0.5-1.9,0.5c-0.5,0-1-0.1-1.5-0.3c-0.4-0.2-0.8-0.6-1-1
	C439.5,350.2,439.4,349.7,439.4,349.2z M440.5,349c0,0.6,0.2,1.1,0.5,1.5c0.3,0.3,0.7,0.5,1.2,0.5c0.2,0,0.5-0.1,0.8-0.2
	s0.5-0.3,0.7-0.5c0.2-0.2,0.4-0.4,0.5-0.7c0.1-0.3,0.3-0.6,0.4-0.9c0.1-0.4,0.2-0.8,0.2-1.2c0-0.6-0.2-1.1-0.5-1.5s-0.7-0.5-1.2-0.5
	c-0.4,0-0.7,0.1-1,0.3s-0.6,0.4-0.8,0.8c-0.2,0.3-0.4,0.7-0.5,1.2S440.5,348.7,440.5,349z M446.6,351.8l1.4-6.9h1.2l-0.2,1.1
	c0.4-0.5,0.8-0.8,1.2-1c0.4-0.2,0.7-0.3,1.1-0.3c0.4,0,0.8,0.1,1.1,0.3c0.3,0.2,0.5,0.5,0.6,1c0.3-0.4,0.7-0.8,1.1-1
	c0.4-0.2,0.8-0.3,1.2-0.3c0.6,0,1,0.1,1.3,0.4c0.3,0.3,0.4,0.7,0.4,1.2c0,0.2-0.1,0.6-0.2,1l-0.9,4.5h-1.2l0.9-4.6
	c0.1-0.4,0.1-0.6,0.1-0.8c0-0.2-0.1-0.4-0.2-0.5c-0.1-0.1-0.3-0.2-0.6-0.2c-0.4,0-0.7,0.1-1.1,0.3c-0.4,0.2-0.7,0.5-0.9,0.8
	c-0.2,0.3-0.4,0.9-0.5,1.6l-0.7,3.3h-1.2l1-4.7c0.1-0.3,0.1-0.5,0.1-0.7c0-0.2-0.1-0.4-0.2-0.5s-0.3-0.2-0.5-0.2
	c-0.3,0-0.7,0.1-1.1,0.3c-0.4,0.2-0.7,0.5-0.9,0.9s-0.4,0.9-0.6,1.6l-0.7,3.3H446.6z M462.7,349.4l1.2,0.1c-0.2,0.6-0.5,1.1-1.1,1.6
	s-1.3,0.8-2.1,0.8c-0.5,0-1-0.1-1.4-0.3c-0.4-0.2-0.8-0.6-1-1c-0.2-0.5-0.3-1-0.3-1.5c0-0.8,0.2-1.5,0.5-2.2
	c0.4-0.7,0.8-1.2,1.4-1.6c0.6-0.3,1.2-0.5,1.8-0.5c0.8,0,1.5,0.3,2,0.8c0.5,0.5,0.8,1.2,0.8,2.1c0,0.3,0,0.7-0.1,1h-5.1
	c0,0.1,0,0.2,0,0.4c0,0.6,0.1,1.1,0.4,1.5c0.3,0.3,0.7,0.5,1.1,0.5c0.4,0,0.8-0.1,1.2-0.4C462.2,350.3,462.5,349.9,462.7,349.4z
	 M459.3,347.7h3.9c0-0.1,0-0.2,0-0.3c0-0.6-0.2-1-0.5-1.3c-0.3-0.3-0.7-0.5-1.1-0.5c-0.5,0-1,0.2-1.4,0.5
	C459.8,346.5,459.5,347,459.3,347.7z"/>
<path class="st0" d="M293.7,83L293.7,83c0-6.9,5.6-12.5,12.5-12.5h164.7c3.3,0,6.5,1.3,8.8,3.7c2.3,2.3,3.7,5.5,3.7,8.8v49.8
	c0,6.9-5.6,12.5-12.5,12.5H306.2l0,0c-6.9,0-12.5-5.6-12.5-12.5V83z"/>
<path class="st1" d="M293.7,83L293.7,83c0-6.9,5.6-12.5,12.5-12.5h164.7c3.3,0,6.5,1.3,8.8,3.7c2.3,2.3,3.7,5.5,3.7,8.8v49.8
	c0,6.9-5.6,12.5-12.5,12.5H306.2l0,0c-6.9,0-12.5-5.6-12.5-12.5V83z"/>
<path d="M363.2,89V78.6h2.1l4.3,7v-7h2V89h-2.1l-4.2-6.8V89H363.2z M378.7,89v-1.1c-0.3,0.4-0.6,0.7-1.1,1c-0.4,0.2-0.9,0.3-1.4,0.3
	c-0.5,0-1-0.1-1.4-0.3c-0.4-0.2-0.7-0.5-0.9-1c-0.2-0.4-0.3-1-0.3-1.7v-4.8h2v3.5c0,1.1,0,1.7,0.1,2c0.1,0.2,0.2,0.4,0.4,0.6
	c0.2,0.1,0.4,0.2,0.8,0.2c0.3,0,0.7-0.1,0.9-0.3c0.3-0.2,0.5-0.4,0.5-0.7c0.1-0.3,0.2-1,0.2-2v-3.2h2V89H378.7z M384.6,89h-2v-7.6
	h1.9v1.1c0.3-0.5,0.6-0.8,0.9-1c0.3-0.2,0.6-0.2,0.9-0.2c0.5,0,0.9,0.1,1.3,0.4l-0.6,1.8c-0.3-0.2-0.6-0.3-0.9-0.3
	c-0.3,0-0.5,0.1-0.7,0.2s-0.4,0.4-0.5,0.8c-0.1,0.4-0.2,1.3-0.2,2.5V89z M391.9,81.5V83h-1.4v3.1c0,0.6,0,1,0,1.1
	c0,0.1,0.1,0.2,0.2,0.2c0.1,0.1,0.2,0.1,0.3,0.1c0.2,0,0.5-0.1,0.8-0.2l0.2,1.6c-0.5,0.2-1,0.3-1.6,0.3c-0.4,0-0.7-0.1-1-0.2
	c-0.3-0.1-0.5-0.3-0.6-0.5c-0.1-0.2-0.2-0.5-0.3-0.8c0-0.2-0.1-0.7-0.1-1.4V83h-0.9v-1.6h0.9v-1.5l2-1.2v2.7H391.9z M398.3,89v-1.1
	c-0.3,0.4-0.6,0.7-1.1,1c-0.4,0.2-0.9,0.3-1.4,0.3c-0.5,0-1-0.1-1.4-0.3c-0.4-0.2-0.7-0.5-0.9-1c-0.2-0.4-0.3-1-0.3-1.7v-4.8h2v3.5
	c0,1.1,0,1.7,0.1,2c0.1,0.2,0.2,0.4,0.4,0.6c0.2,0.1,0.4,0.2,0.8,0.2c0.3,0,0.7-0.1,0.9-0.3c0.3-0.2,0.5-0.4,0.5-0.7
	c0.1-0.3,0.2-1,0.2-2v-3.2h2V89H398.3z M404.2,89h-2v-7.6h1.9v1.1c0.3-0.5,0.6-0.8,0.9-1c0.3-0.2,0.6-0.2,0.9-0.2
	c0.5,0,0.9,0.1,1.3,0.4l-0.6,1.8c-0.3-0.2-0.6-0.3-0.9-0.3c-0.3,0-0.5,0.1-0.7,0.2c-0.2,0.2-0.4,0.4-0.5,0.8
	c-0.1,0.4-0.2,1.3-0.2,2.5V89z M412.3,86.6l2,0.3c-0.3,0.7-0.7,1.3-1.2,1.7c-0.6,0.4-1.2,0.6-2.1,0.6c-1.3,0-2.3-0.4-2.9-1.3
	c-0.5-0.7-0.8-1.6-0.8-2.6c0-1.2,0.3-2.2,1-2.9c0.7-0.7,1.5-1.1,2.5-1.1c1.1,0,2,0.4,2.7,1.1c0.7,0.7,1,1.9,0.9,3.4h-5
	c0,0.6,0.2,1.1,0.5,1.4c0.3,0.3,0.7,0.5,1.2,0.5c0.3,0,0.6-0.1,0.8-0.2C412,87.3,412.2,87,412.3,86.6z M412.4,84.6
	c0-0.6-0.2-1-0.5-1.3c-0.3-0.3-0.6-0.5-1-0.5c-0.4,0-0.8,0.2-1.1,0.5c-0.3,0.3-0.4,0.7-0.4,1.3H412.4z"/>
<path d="M332.1,105.8l2-9.5h6.9l-0.2,1.1h-5.6l-0.6,3h5.5l-0.2,1.1h-5.5l-0.7,3.3h6l-0.2,1.1H332.1z M345.5,104.8
	c-0.7,0.8-1.4,1.2-2.1,1.2c-0.7,0-1.2-0.2-1.6-0.7c-0.4-0.5-0.7-1.2-0.7-2.1c0-0.8,0.2-1.6,0.5-2.3s0.8-1.2,1.3-1.6s1-0.5,1.6-0.5
	c0.9,0,1.5,0.4,1.9,1.2l0.8-3.7h1.2l-2,9.5h-1.1L345.5,104.8z M342.3,102.9c0,0.5,0,0.9,0.1,1.1c0.1,0.3,0.3,0.5,0.5,0.7
	s0.5,0.3,0.8,0.3c0.5,0,1-0.3,1.5-0.8c0.6-0.7,0.9-1.7,0.9-2.7c0-0.5-0.1-1-0.4-1.3c-0.3-0.3-0.6-0.5-1.1-0.5
	c-0.3,0-0.5,0.1-0.8,0.2s-0.5,0.3-0.7,0.6s-0.4,0.7-0.6,1.2C342.4,102.1,342.3,102.5,342.3,102.9z M353,104.5
	c-0.8,0.9-1.7,1.4-2.5,1.4c-0.5,0-1-0.2-1.3-0.5c-0.3-0.3-0.5-0.7-0.5-1.1c0-0.3,0.1-0.8,0.2-1.5l0.8-4h1.2l-0.9,4.4
	c-0.1,0.4-0.1,0.7-0.1,0.9c0,0.3,0.1,0.5,0.2,0.6s0.4,0.2,0.7,0.2c0.3,0,0.6-0.1,1-0.2c0.3-0.2,0.6-0.4,0.8-0.6
	c0.2-0.3,0.4-0.6,0.6-1c0.1-0.2,0.2-0.7,0.3-1.2l0.6-3h1.2l-1.5,6.9h-1.1L353,104.5z M360.4,103.3l1.2,0.1c-0.3,0.9-0.7,1.5-1.3,1.9
	c-0.5,0.4-1.2,0.6-1.8,0.6c-0.8,0-1.4-0.2-1.8-0.7c-0.5-0.5-0.7-1.2-0.7-2c0-0.8,0.1-1.5,0.4-2.2c0.3-0.7,0.7-1.3,1.3-1.7
	c0.6-0.4,1.2-0.6,1.9-0.6c0.7,0,1.3,0.2,1.8,0.6s0.7,1,0.7,1.7l-1.2,0.1c0-0.4-0.1-0.8-0.4-1c-0.2-0.2-0.6-0.4-1-0.4
	c-0.5,0-0.9,0.2-1.2,0.5c-0.3,0.3-0.6,0.7-0.8,1.4c-0.2,0.6-0.3,1.2-0.3,1.8c0,0.6,0.1,1,0.4,1.3c0.3,0.3,0.6,0.4,1,0.4
	c0.4,0,0.7-0.1,1.1-0.4C360,104.3,360.2,103.8,360.4,103.3z M367,104.9c-0.4,0.4-0.8,0.6-1.2,0.8c-0.4,0.2-0.8,0.2-1.2,0.2
	c-0.6,0-1.2-0.2-1.6-0.6c-0.4-0.4-0.6-0.9-0.6-1.4c0-0.4,0.1-0.7,0.3-1c0.2-0.3,0.4-0.5,0.7-0.7c0.3-0.2,0.6-0.3,1.1-0.4
	c0.3-0.1,0.8-0.1,1.5-0.1s1.3-0.1,1.6-0.2c0.1-0.3,0.1-0.6,0.1-0.8c0-0.3-0.1-0.5-0.3-0.6c-0.3-0.2-0.7-0.3-1.2-0.3
	c-0.5,0-0.9,0.1-1.2,0.3s-0.5,0.5-0.7,0.9l-1.2-0.1c0.2-0.7,0.6-1.2,1.1-1.6c0.5-0.4,1.2-0.5,2-0.5c0.9,0,1.5,0.2,2,0.6
	c0.4,0.3,0.6,0.7,0.6,1.2c0,0.4-0.1,0.8-0.2,1.3l-0.4,1.7c-0.1,0.5-0.2,1-0.2,1.3c0,0.2,0.1,0.5,0.2,0.9h-1.2
	C367.1,105.5,367,105.3,367,104.9z M367.4,102.3c-0.2,0.1-0.3,0.1-0.5,0.2c-0.2,0-0.5,0.1-0.9,0.1c-0.7,0.1-1.2,0.1-1.5,0.2
	s-0.5,0.2-0.6,0.5c-0.1,0.2-0.2,0.4-0.2,0.7c0,0.3,0.1,0.6,0.3,0.8c0.2,0.2,0.6,0.3,1,0.3c0.4,0,0.8-0.1,1.1-0.3
	c0.4-0.2,0.7-0.5,0.9-0.9C367.1,103.5,367.3,102.9,367.4,102.3z M372.5,104.8l-0.2,1c-0.3,0.1-0.6,0.1-0.8,0.1
	c-0.5,0-0.8-0.1-1.1-0.3c-0.2-0.2-0.3-0.4-0.3-0.7c0-0.2,0.1-0.5,0.2-1l0.8-4h-0.9l0.2-0.9h0.9l0.3-1.7l1.4-0.8l-0.5,2.5h1.2
	l-0.2,0.9h-1.2l-0.8,3.8c-0.1,0.5-0.2,0.8-0.2,0.9c0,0.1,0,0.3,0.1,0.3c0.1,0.1,0.2,0.1,0.4,0.1
	C372.1,104.9,372.3,104.9,372.5,104.8z M375.1,97.6l0.3-1.3h1.2l-0.3,1.3H375.1z M373.4,105.8l1.5-6.9h1.2l-1.4,6.9H373.4z
	 M376.6,103.1c0-1.3,0.4-2.5,1.2-3.3c0.7-0.7,1.5-1.1,2.6-1.1c0.8,0,1.5,0.3,2,0.8c0.5,0.5,0.8,1.2,0.8,2.1c0,0.8-0.2,1.5-0.5,2.2
	c-0.3,0.7-0.8,1.2-1.4,1.6s-1.2,0.5-1.9,0.5c-0.5,0-1-0.1-1.5-0.3c-0.4-0.2-0.8-0.6-1-1C376.7,104.2,376.6,103.7,376.6,103.1z
	 M377.8,103c0,0.6,0.2,1.1,0.5,1.5c0.3,0.3,0.7,0.5,1.2,0.5c0.2,0,0.5-0.1,0.8-0.2s0.5-0.3,0.7-0.5c0.2-0.2,0.4-0.4,0.5-0.7
	c0.1-0.3,0.3-0.6,0.4-0.9c0.1-0.4,0.2-0.8,0.2-1.2c0-0.6-0.2-1.1-0.5-1.5s-0.7-0.5-1.2-0.5c-0.4,0-0.7,0.1-1,0.3
	c-0.3,0.2-0.6,0.4-0.8,0.8c-0.2,0.3-0.4,0.7-0.5,1.2C377.9,102.3,377.8,102.7,377.8,103z M383.8,105.8l1.5-6.9h1.1l-0.2,1.2
	c0.5-0.5,0.9-0.8,1.3-1c0.4-0.2,0.8-0.3,1.2-0.3c0.6,0,1,0.2,1.3,0.5c0.3,0.3,0.5,0.7,0.5,1.2c0,0.2-0.1,0.7-0.2,1.2l-0.9,4.2h-1.2
	l0.9-4.4c0.1-0.4,0.1-0.7,0.1-1c0-0.2-0.1-0.4-0.2-0.5c-0.2-0.1-0.4-0.2-0.7-0.2c-0.6,0-1.1,0.2-1.6,0.7c-0.5,0.4-0.8,1.2-1,2.2
	l-0.7,3.2H383.8z M391.5,105.8l0.3-1.3h1.3l-0.2,1.2c-0.2,0.7-0.4,1.2-0.7,1.5c-0.3,0.3-0.7,0.5-1.1,0.6l0.1-0.5
	c0.5-0.1,0.9-0.6,1-1.4H391.5z M399,105.8l2-9.5h1.3l-2,9.5H399z M402.3,105.8l1.5-6.9h1.1l-0.2,1.2c0.5-0.5,0.9-0.8,1.3-1
	c0.4-0.2,0.8-0.3,1.2-0.3c0.6,0,1,0.2,1.3,0.5c0.3,0.3,0.5,0.7,0.5,1.2c0,0.2-0.1,0.7-0.2,1.2l-0.9,4.2h-1.2l0.9-4.4
	c0.1-0.4,0.1-0.7,0.1-1c0-0.2-0.1-0.4-0.2-0.5c-0.2-0.1-0.4-0.2-0.7-0.2c-0.6,0-1.1,0.2-1.6,0.7c-0.5,0.4-0.8,1.2-1,2.2l-0.7,3.2
	H402.3z M414.5,103.3l1.2,0.1c-0.3,0.9-0.7,1.5-1.3,1.9c-0.5,0.4-1.2,0.6-1.8,0.6c-0.8,0-1.4-0.2-1.8-0.7c-0.5-0.5-0.7-1.2-0.7-2
	c0-0.8,0.1-1.5,0.4-2.2c0.3-0.7,0.7-1.3,1.3-1.7c0.6-0.4,1.2-0.6,1.9-0.6c0.7,0,1.3,0.2,1.8,0.6s0.7,1,0.7,1.7l-1.2,0.1
	c0-0.4-0.1-0.8-0.4-1c-0.2-0.2-0.6-0.4-1-0.4c-0.5,0-0.9,0.2-1.2,0.5c-0.3,0.3-0.6,0.7-0.8,1.4c-0.2,0.6-0.3,1.2-0.3,1.8
	c0,0.6,0.1,1,0.4,1.3c0.3,0.3,0.6,0.4,1,0.4c0.4,0,0.7-0.1,1.1-0.4C414,104.3,414.3,103.8,414.5,103.3z M416.6,103.1
	c0-1.3,0.4-2.5,1.2-3.3c0.7-0.7,1.5-1.1,2.6-1.1c0.8,0,1.5,0.3,2,0.8c0.5,0.5,0.8,1.2,0.8,2.1c0,0.8-0.2,1.5-0.5,2.2
	c-0.3,0.7-0.8,1.2-1.4,1.6s-1.2,0.5-1.9,0.5c-0.5,0-1-0.1-1.5-0.3c-0.4-0.2-0.8-0.6-1-1C416.8,104.2,416.6,103.7,416.6,103.1z
	 M417.8,103c0,0.6,0.2,1.1,0.5,1.5c0.3,0.3,0.7,0.5,1.2,0.5c0.2,0,0.5-0.1,0.8-0.2s0.5-0.3,0.7-0.5c0.2-0.2,0.4-0.4,0.5-0.7
	c0.1-0.3,0.3-0.6,0.4-0.9c0.1-0.4,0.2-0.8,0.2-1.2c0-0.6-0.2-1.1-0.5-1.5s-0.7-0.5-1.2-0.5c-0.4,0-0.7,0.1-1,0.3
	c-0.3,0.2-0.6,0.4-0.8,0.8c-0.2,0.3-0.4,0.7-0.5,1.2C417.9,102.3,417.8,102.7,417.8,103z M423.8,105.8l1.4-6.9h1.2l-0.2,1.1
	c0.4-0.5,0.8-0.8,1.2-1c0.4-0.2,0.7-0.3,1.1-0.3c0.4,0,0.8,0.1,1.1,0.3c0.3,0.2,0.5,0.5,0.6,1c0.3-0.4,0.7-0.8,1.1-1
	c0.4-0.2,0.8-0.3,1.2-0.3c0.6,0,1,0.1,1.3,0.4c0.3,0.3,0.4,0.7,0.4,1.2c0,0.2-0.1,0.6-0.2,1l-0.9,4.5H432l0.9-4.6
	c0.1-0.4,0.1-0.6,0.1-0.8c0-0.2-0.1-0.4-0.2-0.5c-0.1-0.1-0.3-0.2-0.6-0.2c-0.4,0-0.7,0.1-1.1,0.3c-0.4,0.2-0.7,0.5-0.9,0.8
	c-0.2,0.3-0.4,0.9-0.5,1.6l-0.7,3.3h-1.2l1-4.7c0.1-0.3,0.1-0.5,0.1-0.7c0-0.2-0.1-0.4-0.2-0.5c-0.1-0.1-0.3-0.2-0.5-0.2
	c-0.3,0-0.7,0.1-1.1,0.3c-0.4,0.2-0.7,0.5-0.9,0.9c-0.2,0.4-0.4,0.9-0.6,1.6l-0.7,3.3H423.8z M440,103.4l1.2,0.1
	c-0.2,0.6-0.5,1.1-1.1,1.6s-1.3,0.8-2.1,0.8c-0.5,0-1-0.1-1.4-0.3c-0.4-0.2-0.8-0.6-1-1c-0.2-0.5-0.3-1-0.3-1.5
	c0-0.8,0.2-1.5,0.5-2.2c0.4-0.7,0.8-1.2,1.4-1.6c0.6-0.3,1.2-0.5,1.8-0.5c0.8,0,1.5,0.3,2,0.8c0.5,0.5,0.8,1.2,0.8,2.1
	c0,0.3,0,0.7-0.1,1h-5.1c0,0.1,0,0.2,0,0.4c0,0.6,0.1,1.1,0.4,1.5c0.3,0.3,0.7,0.5,1.1,0.5c0.4,0,0.8-0.1,1.2-0.4
	C439.5,104.3,439.8,103.9,440,103.4z M436.6,101.7h3.9c0-0.1,0-0.2,0-0.3c0-0.6-0.2-1-0.5-1.3c-0.3-0.3-0.7-0.5-1.1-0.5
	c-0.5,0-1,0.2-1.4,0.5C437.1,100.5,436.8,101,436.6,101.7z M442.6,105.8l0.3-1.3h1.3l-0.2,1.2c-0.2,0.7-0.4,1.2-0.7,1.5
	c-0.3,0.3-0.7,0.5-1.1,0.6l0.1-0.5c0.5-0.1,0.9-0.6,1-1.4H442.6z"/>
<path d="M320.9,117.8c0-1.7,0.5-3.1,1.5-4.1c1-1.1,2.2-1.6,3.6-1.6c1.2,0,2.2,0.4,2.9,1.2c0.8,0.8,1.1,1.8,1.1,3.1
	c0,0.9-0.2,1.8-0.6,2.6c-0.3,0.6-0.6,1.1-1.1,1.5c-0.4,0.4-0.9,0.8-1.4,1c-0.6,0.3-1.3,0.5-2.1,0.5c-0.8,0-1.5-0.2-2.1-0.5
	s-1.1-0.9-1.4-1.5C321,119.2,320.9,118.5,320.9,117.8z M322.1,117.8c0,0.6,0.1,1.1,0.3,1.5c0.2,0.5,0.6,0.8,1,1.1
	c0.5,0.3,0.9,0.4,1.5,0.4c0.5,0,1-0.1,1.4-0.3c0.4-0.2,0.8-0.6,1.2-1c0.4-0.4,0.6-0.9,0.8-1.5c0.2-0.6,0.3-1.2,0.3-1.8
	c0-0.9-0.3-1.7-0.8-2.3s-1.2-0.8-2-0.8c-1,0-1.9,0.4-2.7,1.3C322.5,115.3,322.1,116.4,322.1,117.8z M335.2,119.3l1.2,0.1
	c-0.3,0.9-0.7,1.5-1.3,1.9c-0.5,0.4-1.2,0.6-1.8,0.6c-0.8,0-1.4-0.2-1.8-0.7c-0.5-0.5-0.7-1.2-0.7-2c0-0.8,0.1-1.5,0.4-2.2
	c0.3-0.7,0.7-1.3,1.3-1.7c0.6-0.4,1.2-0.6,1.9-0.6c0.7,0,1.3,0.2,1.8,0.6s0.7,1,0.7,1.7l-1.2,0.1c0-0.4-0.1-0.8-0.4-1
	c-0.2-0.2-0.6-0.4-1-0.4c-0.5,0-0.9,0.2-1.2,0.5c-0.3,0.3-0.6,0.7-0.8,1.4c-0.2,0.6-0.3,1.2-0.3,1.8c0,0.6,0.1,1,0.4,1.3
	c0.3,0.3,0.6,0.4,1,0.4c0.4,0,0.7-0.1,1.1-0.4C334.7,120.3,335,119.8,335.2,119.3z M341.9,119.3l1.2,0.1c-0.3,0.9-0.7,1.5-1.3,1.9
	c-0.5,0.4-1.2,0.6-1.8,0.6c-0.8,0-1.4-0.2-1.8-0.7c-0.5-0.5-0.7-1.2-0.7-2c0-0.8,0.1-1.5,0.4-2.2c0.3-0.7,0.7-1.3,1.3-1.7
	c0.6-0.4,1.2-0.6,1.9-0.6c0.7,0,1.3,0.2,1.8,0.6c0.4,0.4,0.7,1,0.7,1.7l-1.2,0.1c0-0.4-0.1-0.8-0.4-1c-0.2-0.2-0.6-0.4-1-0.4
	c-0.5,0-0.9,0.2-1.2,0.5c-0.3,0.3-0.6,0.7-0.8,1.4c-0.2,0.6-0.3,1.2-0.3,1.8c0,0.6,0.1,1,0.4,1.3c0.3,0.3,0.6,0.4,1,0.4
	c0.4,0,0.7-0.1,1.1-0.4C341.4,120.3,341.7,119.8,341.9,119.3z M348.5,120.5c-0.8,0.9-1.7,1.4-2.5,1.4c-0.5,0-1-0.2-1.3-0.5
	c-0.3-0.3-0.5-0.7-0.5-1.1c0-0.3,0.1-0.8,0.2-1.5l0.8-4h1.2l-0.9,4.4c-0.1,0.4-0.1,0.7-0.1,0.9c0,0.3,0.1,0.5,0.2,0.6
	c0.2,0.1,0.4,0.2,0.7,0.2c0.3,0,0.6-0.1,1-0.2c0.3-0.2,0.6-0.4,0.8-0.6c0.2-0.3,0.4-0.6,0.6-1c0.1-0.2,0.2-0.7,0.3-1.2l0.6-3h1.2
	l-1.5,6.9h-1.1L348.5,120.5z M350.6,124.4l2-9.6h1.1l-0.2,1c0.4-0.4,0.8-0.7,1.1-0.9c0.3-0.2,0.7-0.2,1-0.2c0.7,0,1.2,0.2,1.6,0.7
	c0.4,0.5,0.7,1.2,0.7,2.1c0,0.7-0.1,1.4-0.4,2c-0.2,0.6-0.5,1.1-0.9,1.4c-0.3,0.4-0.7,0.6-1,0.8c-0.4,0.2-0.7,0.2-1.1,0.2
	c-0.8,0-1.5-0.4-1.9-1.3l-0.8,3.8H350.6z M352.9,118.9c0,0.5,0,0.9,0.1,1.1c0.1,0.3,0.3,0.5,0.5,0.7c0.3,0.2,0.5,0.2,0.9,0.2
	c0.7,0,1.2-0.4,1.6-1.1c0.4-0.8,0.6-1.5,0.6-2.3c0-0.6-0.1-1-0.4-1.4c-0.3-0.3-0.6-0.5-1-0.5c-0.3,0-0.6,0.1-0.8,0.2
	c-0.2,0.2-0.5,0.4-0.7,0.7c-0.2,0.3-0.4,0.7-0.5,1.2C353,118.2,352.9,118.6,352.9,118.9z M363.3,120.9c-0.4,0.4-0.8,0.6-1.2,0.8
	c-0.4,0.2-0.8,0.2-1.2,0.2c-0.6,0-1.2-0.2-1.6-0.6c-0.4-0.4-0.6-0.9-0.6-1.4c0-0.4,0.1-0.7,0.3-1c0.2-0.3,0.4-0.5,0.7-0.7
	c0.3-0.2,0.6-0.3,1.1-0.4c0.3-0.1,0.8-0.1,1.5-0.1c0.7,0,1.3-0.1,1.6-0.2c0.1-0.3,0.1-0.6,0.1-0.8c0-0.3-0.1-0.5-0.3-0.6
	c-0.3-0.2-0.7-0.3-1.2-0.3c-0.5,0-0.9,0.1-1.2,0.3c-0.3,0.2-0.5,0.5-0.7,0.9l-1.2-0.1c0.2-0.7,0.6-1.2,1.1-1.6
	c0.5-0.4,1.2-0.5,2-0.5c0.9,0,1.5,0.2,2,0.6c0.4,0.3,0.6,0.7,0.6,1.2c0,0.4-0.1,0.8-0.2,1.3l-0.4,1.7c-0.1,0.5-0.2,1-0.2,1.3
	c0,0.2,0.1,0.5,0.2,0.9h-1.2C363.3,121.5,363.3,121.3,363.3,120.9z M363.7,118.3c-0.2,0.1-0.3,0.1-0.5,0.2c-0.2,0-0.5,0.1-0.9,0.1
	c-0.7,0.1-1.2,0.1-1.5,0.2c-0.3,0.1-0.5,0.2-0.6,0.5c-0.1,0.2-0.2,0.4-0.2,0.7c0,0.3,0.1,0.6,0.3,0.8c0.2,0.2,0.6,0.3,1,0.3
	c0.4,0,0.8-0.1,1.1-0.3c0.4-0.2,0.7-0.5,0.9-0.9C363.4,119.5,363.6,118.9,363.7,118.3z M368.8,120.8l-0.2,1
	c-0.3,0.1-0.6,0.1-0.8,0.1c-0.5,0-0.8-0.1-1.1-0.3c-0.2-0.2-0.3-0.4-0.3-0.7c0-0.2,0.1-0.5,0.2-1l0.8-4h-0.9l0.2-0.9h0.9l0.3-1.7
	l1.4-0.8l-0.5,2.5h1.2l-0.2,0.9h-1.2l-0.8,3.8c-0.1,0.5-0.2,0.8-0.2,0.9c0,0.1,0,0.3,0.1,0.3c0.1,0.1,0.2,0.1,0.4,0.1
	C368.3,120.9,368.6,120.9,368.8,120.8z M371.4,113.6l0.3-1.3h1.2l-0.3,1.3H371.4z M369.7,121.8l1.5-6.9h1.2l-1.4,6.9H369.7z
	 M372.9,119.1c0-1.3,0.4-2.5,1.2-3.3c0.7-0.7,1.5-1.1,2.6-1.1c0.8,0,1.5,0.3,2,0.8c0.5,0.5,0.8,1.2,0.8,2.1c0,0.8-0.2,1.5-0.5,2.2
	c-0.3,0.7-0.8,1.2-1.4,1.6s-1.2,0.5-1.9,0.5c-0.5,0-1-0.1-1.5-0.3c-0.4-0.2-0.8-0.6-1-1C373,120.2,372.9,119.7,372.9,119.1z
	 M374.1,119c0,0.6,0.2,1.1,0.5,1.5c0.3,0.3,0.7,0.5,1.2,0.5c0.2,0,0.5-0.1,0.8-0.2s0.5-0.3,0.7-0.5c0.2-0.2,0.4-0.4,0.5-0.7
	c0.1-0.3,0.3-0.6,0.4-0.9c0.1-0.4,0.2-0.8,0.2-1.2c0-0.6-0.2-1.1-0.5-1.5s-0.7-0.5-1.2-0.5c-0.4,0-0.7,0.1-1,0.3
	c-0.3,0.2-0.6,0.4-0.8,0.8c-0.2,0.3-0.4,0.7-0.5,1.2C374.1,118.3,374.1,118.7,374.1,119z M380.1,121.8l1.5-6.9h1.1l-0.2,1.2
	c0.5-0.5,0.9-0.8,1.3-1c0.4-0.2,0.8-0.3,1.2-0.3c0.6,0,1,0.2,1.3,0.5c0.3,0.3,0.5,0.7,0.5,1.2c0,0.2-0.1,0.7-0.2,1.2l-0.9,4.2h-1.2
	l0.9-4.4c0.1-0.4,0.1-0.7,0.1-1c0-0.2-0.1-0.4-0.2-0.5c-0.2-0.1-0.4-0.2-0.7-0.2c-0.6,0-1.1,0.2-1.6,0.7c-0.5,0.4-0.8,1.2-1,2.2
	l-0.7,3.2H380.1z M387.8,121.8l0.3-1.3h1.3l-0.2,1.2c-0.2,0.7-0.4,1.2-0.7,1.5c-0.3,0.3-0.7,0.5-1.1,0.6l0.1-0.5
	c0.5-0.1,0.9-0.6,1-1.4H387.8z M395,121.8l2-9.5h1.3l-1.8,8.5h5l-0.2,1.1H395z M407,120.9c-0.4,0.4-0.8,0.6-1.2,0.8
	c-0.4,0.2-0.8,0.2-1.2,0.2c-0.6,0-1.2-0.2-1.6-0.6c-0.4-0.4-0.6-0.9-0.6-1.4c0-0.4,0.1-0.7,0.3-1c0.2-0.3,0.4-0.5,0.7-0.7
	c0.3-0.2,0.6-0.3,1.1-0.4c0.3-0.1,0.8-0.1,1.5-0.1c0.7,0,1.3-0.1,1.6-0.2c0.1-0.3,0.1-0.6,0.1-0.8c0-0.3-0.1-0.5-0.3-0.6
	c-0.3-0.2-0.7-0.3-1.2-0.3c-0.5,0-0.9,0.1-1.2,0.3c-0.3,0.2-0.5,0.5-0.7,0.9l-1.2-0.1c0.2-0.7,0.6-1.2,1.1-1.6
	c0.5-0.4,1.2-0.5,2-0.5c0.9,0,1.5,0.2,2,0.6c0.4,0.3,0.6,0.7,0.6,1.2c0,0.4-0.1,0.8-0.2,1.3l-0.4,1.7c-0.1,0.5-0.2,1-0.2,1.3
	c0,0.2,0.1,0.5,0.2,0.9h-1.2C407.1,121.5,407,121.3,407,120.9z M407.4,118.3c-0.2,0.1-0.3,0.1-0.5,0.2c-0.2,0-0.5,0.1-0.9,0.1
	c-0.7,0.1-1.2,0.1-1.5,0.2c-0.3,0.1-0.5,0.2-0.6,0.5c-0.1,0.2-0.2,0.4-0.2,0.7c0,0.3,0.1,0.6,0.3,0.8c0.2,0.2,0.6,0.3,1,0.3
	c0.4,0,0.8-0.1,1.1-0.3c0.4-0.2,0.7-0.5,0.9-0.9C407.1,119.5,407.3,118.9,407.4,118.3z M409.7,121.8l1.5-6.9h1.1l-0.2,1.2
	c0.5-0.5,0.9-0.8,1.3-1c0.4-0.2,0.8-0.3,1.2-0.3c0.6,0,1,0.2,1.3,0.5c0.3,0.3,0.5,0.7,0.5,1.2c0,0.2-0.1,0.7-0.2,1.2l-0.9,4.2h-1.2
	l0.9-4.4c0.1-0.4,0.1-0.7,0.1-1c0-0.2-0.1-0.4-0.2-0.5c-0.2-0.1-0.4-0.2-0.7-0.2c-0.6,0-1.1,0.2-1.6,0.7c-0.5,0.4-0.8,1.2-1,2.2
	l-0.7,3.2H409.7z M417.1,122.4l1.2,0.1c0,0.3,0,0.5,0.1,0.6c0.1,0.1,0.2,0.2,0.3,0.3c0.2,0.1,0.5,0.1,0.8,0.1c0.7,0,1.2-0.2,1.5-0.5
	c0.2-0.2,0.4-0.8,0.6-1.6l0.1-0.6c-0.6,0.6-1.3,0.9-2,0.9c-0.7,0-1.3-0.3-1.8-0.8c-0.5-0.5-0.7-1.2-0.7-2.2c0-0.8,0.2-1.5,0.5-2.1
	c0.4-0.7,0.8-1.1,1.3-1.5c0.5-0.3,1-0.5,1.6-0.5c0.9,0,1.6,0.4,2.1,1.3l0.2-1.1h1.1l-1.4,6.7c-0.1,0.7-0.3,1.3-0.6,1.7
	c-0.3,0.4-0.6,0.7-1,1c-0.4,0.2-0.9,0.3-1.5,0.3c-0.6,0-1-0.1-1.4-0.2c-0.4-0.1-0.7-0.3-0.9-0.6c-0.2-0.3-0.3-0.6-0.3-1
	C417.1,122.6,417.1,122.5,417.1,122.4z M418.6,118.7c0,0.5,0,0.8,0.1,1.1c0.1,0.3,0.3,0.6,0.6,0.8c0.2,0.2,0.5,0.2,0.8,0.2
	c0.4,0,0.8-0.1,1.1-0.4c0.4-0.3,0.7-0.7,0.9-1.2c0.2-0.6,0.4-1.1,0.4-1.6c0-0.6-0.2-1-0.5-1.4c-0.3-0.3-0.7-0.5-1.2-0.5
	c-0.3,0-0.6,0.1-0.8,0.2c-0.3,0.2-0.5,0.4-0.8,0.7c-0.2,0.3-0.4,0.7-0.5,1.1C418.6,118.2,418.6,118.5,418.6,118.7z M429.3,120.5
	c-0.8,0.9-1.7,1.4-2.5,1.4c-0.5,0-1-0.2-1.3-0.5c-0.3-0.3-0.5-0.7-0.5-1.1c0-0.3,0.1-0.8,0.2-1.5l0.8-4h1.2l-0.9,4.4
	c-0.1,0.4-0.1,0.7-0.1,0.9c0,0.3,0.1,0.5,0.2,0.6c0.2,0.1,0.4,0.2,0.7,0.2c0.3,0,0.6-0.1,1-0.2c0.3-0.2,0.6-0.4,0.8-0.6
	c0.2-0.3,0.4-0.6,0.6-1c0.1-0.2,0.2-0.7,0.3-1.2l0.6-3h1.2l-1.5,6.9H429L429.3,120.5z M436.6,120.9c-0.4,0.4-0.8,0.6-1.2,0.8
	c-0.4,0.2-0.8,0.2-1.2,0.2c-0.6,0-1.2-0.2-1.6-0.6c-0.4-0.4-0.6-0.9-0.6-1.4c0-0.4,0.1-0.7,0.3-1c0.2-0.3,0.4-0.5,0.7-0.7
	c0.3-0.2,0.6-0.3,1.1-0.4c0.3-0.1,0.8-0.1,1.5-0.1c0.7,0,1.3-0.1,1.6-0.2c0.1-0.3,0.1-0.6,0.1-0.8c0-0.3-0.1-0.5-0.3-0.6
	c-0.3-0.2-0.7-0.3-1.2-0.3c-0.5,0-0.9,0.1-1.2,0.3c-0.3,0.2-0.5,0.5-0.7,0.9l-1.2-0.1c0.2-0.7,0.6-1.2,1.1-1.6
	c0.5-0.4,1.2-0.5,2-0.5c0.9,0,1.5,0.2,2,0.6c0.4,0.3,0.6,0.7,0.6,1.2c0,0.4-0.1,0.8-0.2,1.3l-0.4,1.7c-0.1,0.5-0.2,1-0.2,1.3
	c0,0.2,0.1,0.5,0.2,0.9h-1.2C436.7,121.5,436.7,121.3,436.6,120.9z M437.1,118.3c-0.2,0.1-0.3,0.1-0.5,0.2c-0.2,0-0.5,0.1-0.9,0.1
	c-0.7,0.1-1.2,0.1-1.5,0.2c-0.3,0.1-0.5,0.2-0.6,0.5c-0.1,0.2-0.2,0.4-0.2,0.7c0,0.3,0.1,0.6,0.3,0.8c0.2,0.2,0.6,0.3,1,0.3
	c0.4,0,0.8-0.1,1.1-0.3c0.4-0.2,0.7-0.5,0.9-0.9C436.8,119.5,437,118.9,437.1,118.3z M439.3,122.4l1.2,0.1c0,0.3,0,0.5,0.1,0.6
	c0.1,0.1,0.2,0.2,0.3,0.3c0.2,0.1,0.5,0.1,0.8,0.1c0.7,0,1.2-0.2,1.5-0.5c0.2-0.2,0.4-0.8,0.6-1.6l0.1-0.6c-0.6,0.6-1.3,0.9-2,0.9
	c-0.7,0-1.3-0.3-1.8-0.8c-0.5-0.5-0.7-1.2-0.7-2.2c0-0.8,0.2-1.5,0.5-2.1c0.4-0.7,0.8-1.1,1.3-1.5c0.5-0.3,1-0.5,1.6-0.5
	c0.9,0,1.6,0.4,2.1,1.3l0.2-1.1h1.1l-1.4,6.7c-0.1,0.7-0.3,1.3-0.6,1.7c-0.2,0.4-0.6,0.7-1,1c-0.4,0.2-0.9,0.3-1.5,0.3
	c-0.6,0-1-0.1-1.4-0.2c-0.4-0.1-0.7-0.3-0.9-0.6c-0.2-0.3-0.3-0.6-0.3-1C439.3,122.6,439.3,122.5,439.3,122.4z M440.8,118.7
	c0,0.5,0,0.8,0.1,1.1c0.1,0.3,0.3,0.6,0.6,0.8c0.2,0.2,0.5,0.2,0.8,0.2c0.4,0,0.8-0.1,1.1-0.4c0.4-0.3,0.7-0.7,0.9-1.2
	c0.2-0.6,0.4-1.1,0.4-1.6c0-0.6-0.2-1-0.5-1.4c-0.3-0.3-0.7-0.5-1.2-0.5c-0.3,0-0.6,0.1-0.8,0.2c-0.3,0.2-0.5,0.4-0.8,0.7
	c-0.2,0.3-0.4,0.7-0.5,1.1C440.9,118.2,440.8,118.5,440.8,118.7z M451.9,119.4l1.2,0.1c-0.2,0.6-0.5,1.1-1.1,1.6
	c-0.6,0.5-1.3,0.8-2.1,0.8c-0.5,0-1-0.1-1.4-0.3c-0.4-0.2-0.8-0.6-1-1c-0.2-0.5-0.3-1-0.3-1.5c0-0.8,0.2-1.5,0.5-2.2
	c0.4-0.7,0.8-1.2,1.4-1.6c0.6-0.3,1.2-0.5,1.8-0.5c0.8,0,1.5,0.3,2,0.8c0.5,0.5,0.7,1.2,0.8,2.1c0,0.3,0,0.7-0.1,1h-5.1
	c0,0.1,0,0.2,0,0.4c0,0.6,0.1,1.1,0.4,1.5c0.3,0.3,0.7,0.5,1.1,0.5c0.4,0,0.8-0.1,1.2-0.4C451.4,120.3,451.7,119.9,451.9,119.4z
	 M448.5,117.7h3.9c0-0.1,0-0.2,0-0.3c0-0.6-0.2-1-0.5-1.3c-0.3-0.3-0.7-0.5-1.1-0.5c-0.5,0-1,0.2-1.4,0.5
	C449,116.5,448.7,117,448.5,117.7z M454.5,121.8l0.3-1.3h1.3l-0.2,1.2c-0.2,0.7-0.4,1.2-0.7,1.5c-0.3,0.3-0.7,0.5-1.1,0.6l0.1-0.5
	c0.5-0.1,0.9-0.6,1-1.4H454.5z"/>
<path d="M359.1,137.8l2-9.5h4c0.7,0,1.2,0.1,1.6,0.2c0.3,0.2,0.6,0.4,0.8,0.8c0.2,0.4,0.3,0.8,0.3,1.3c0,0.4-0.1,0.8-0.2,1.2
	c-0.2,0.4-0.4,0.7-0.6,1c-0.2,0.3-0.5,0.5-0.7,0.6c-0.2,0.1-0.5,0.2-0.8,0.3c-0.6,0.1-1.2,0.2-1.8,0.2h-2.4l-0.8,3.9H359.1z
	 M361.5,132.8h2.1c0.8,0,1.4-0.1,1.8-0.3c0.4-0.2,0.7-0.4,0.9-0.8c0.2-0.4,0.3-0.8,0.3-1.2c0-0.3-0.1-0.6-0.2-0.8
	c-0.1-0.2-0.3-0.3-0.5-0.4s-0.6-0.1-1.3-0.1h-2.5L361.5,132.8z M373,135.4l1.2,0.1c-0.2,0.6-0.5,1.1-1.1,1.6
	c-0.6,0.5-1.3,0.8-2.1,0.8c-0.5,0-1-0.1-1.4-0.3c-0.4-0.2-0.8-0.6-1-1c-0.2-0.5-0.3-1-0.3-1.5c0-0.8,0.2-1.5,0.5-2.2
	c0.4-0.7,0.8-1.2,1.4-1.6c0.6-0.3,1.2-0.5,1.8-0.5c0.8,0,1.5,0.3,2,0.8c0.5,0.5,0.8,1.2,0.8,2.1c0,0.3,0,0.7-0.1,1h-5.1
	c0,0.1,0,0.2,0,0.4c0,0.6,0.1,1.1,0.4,1.5c0.3,0.3,0.7,0.5,1.1,0.5c0.4,0,0.8-0.1,1.2-0.4C372.4,136.3,372.7,135.9,373,135.4z
	 M369.5,133.7h3.9c0-0.1,0-0.2,0-0.3c0-0.6-0.2-1-0.5-1.3c-0.3-0.3-0.7-0.5-1.1-0.5c-0.5,0-1,0.2-1.4,0.5
	C370.1,132.5,369.8,133,369.5,133.7z M380.4,135.4l1.2,0.1c-0.2,0.6-0.5,1.1-1.1,1.6c-0.6,0.5-1.3,0.8-2.1,0.8c-0.5,0-1-0.1-1.4-0.3
	c-0.4-0.2-0.8-0.6-1-1c-0.2-0.5-0.3-1-0.3-1.5c0-0.8,0.2-1.5,0.5-2.2c0.4-0.7,0.8-1.2,1.4-1.6c0.6-0.3,1.2-0.5,1.8-0.5
	c0.8,0,1.5,0.3,2,0.8c0.5,0.5,0.8,1.2,0.8,2.1c0,0.3,0,0.7-0.1,1h-5.1c0,0.1,0,0.2,0,0.4c0,0.6,0.1,1.1,0.4,1.5
	c0.3,0.3,0.7,0.5,1.1,0.5c0.4,0,0.8-0.1,1.2-0.4C379.9,136.3,380.2,135.9,380.4,135.4z M377,133.7h3.9c0-0.1,0-0.2,0-0.3
	c0-0.6-0.2-1-0.5-1.3c-0.3-0.3-0.7-0.5-1.1-0.5c-0.5,0-1,0.2-1.4,0.5C377.5,132.5,377.2,133,377,133.7z M382.7,137.8l1.5-6.9h1
	l-0.3,1.4c0.4-0.5,0.7-0.9,1-1.2c0.3-0.3,0.7-0.4,1-0.4c0.2,0,0.5,0.1,0.9,0.2l-0.5,1.1c-0.2-0.1-0.4-0.2-0.7-0.2
	c-0.4,0-0.8,0.2-1.3,0.7c-0.4,0.5-0.8,1.3-1,2.5l-0.6,2.8H382.7z M387.3,135.4l1.2-0.1c0,0.3,0.1,0.6,0.2,0.9
	c0.1,0.2,0.3,0.4,0.6,0.6c0.3,0.1,0.6,0.2,1,0.2c0.5,0,0.9-0.1,1.2-0.3c0.3-0.2,0.4-0.5,0.4-0.7c0-0.2-0.1-0.4-0.2-0.6
	c-0.2-0.2-0.5-0.4-1.2-0.7c-0.6-0.3-1-0.5-1.2-0.6c-0.3-0.2-0.5-0.4-0.7-0.6c-0.1-0.2-0.2-0.5-0.2-0.8c0-0.5,0.2-1,0.7-1.4
	c0.4-0.4,1-0.6,1.8-0.6c0.9,0,1.5,0.2,2,0.6c0.5,0.4,0.7,0.9,0.7,1.6l-1.2,0.1c0-0.4-0.2-0.7-0.5-1c-0.3-0.2-0.7-0.4-1.2-0.4
	c-0.4,0-0.7,0.1-1,0.3c-0.2,0.2-0.3,0.4-0.3,0.6c0,0.2,0.1,0.4,0.3,0.6c0.1,0.1,0.5,0.3,1,0.5c0.9,0.4,1.5,0.7,1.7,0.9
	c0.4,0.4,0.6,0.8,0.6,1.3c0,0.3-0.1,0.7-0.3,1c-0.2,0.3-0.5,0.6-1,0.8c-0.4,0.2-0.9,0.3-1.5,0.3c-0.8,0-1.5-0.2-2-0.6
	C387.5,136.9,387.2,136.3,387.3,135.4z M394.1,137.8l0.3-1.3h1.3l-0.2,1.2c-0.2,0.7-0.4,1.2-0.7,1.5c-0.3,0.3-0.7,0.5-1.1,0.6
	l0.1-0.5c0.5-0.1,0.9-0.6,1-1.4H394.1z M406.3,135.4l1.2,0.1c-0.2,0.6-0.5,1.1-1.1,1.6c-0.6,0.5-1.3,0.8-2.1,0.8
	c-0.5,0-1-0.1-1.4-0.3c-0.4-0.2-0.8-0.6-1-1c-0.2-0.5-0.3-1-0.3-1.5c0-0.8,0.2-1.5,0.5-2.2c0.4-0.7,0.8-1.2,1.4-1.6
	c0.6-0.3,1.2-0.5,1.8-0.5c0.8,0,1.5,0.3,2,0.8c0.5,0.5,0.8,1.2,0.8,2.1c0,0.3,0,0.7-0.1,1h-5.1c0,0.1,0,0.2,0,0.4
	c0,0.6,0.1,1.1,0.4,1.5c0.3,0.3,0.7,0.5,1.1,0.5c0.4,0,0.8-0.1,1.2-0.4C405.8,136.3,406.1,135.9,406.3,135.4z M402.9,133.7h3.9
	c0-0.1,0-0.2,0-0.3c0-0.6-0.2-1-0.5-1.3c-0.3-0.3-0.7-0.5-1.1-0.5c-0.5,0-1,0.2-1.4,0.5C403.4,132.5,403.1,133,402.9,133.7z
	 M411.4,136.8l-0.2,1c-0.3,0.1-0.6,0.1-0.8,0.1c-0.5,0-0.8-0.1-1.1-0.3c-0.2-0.2-0.3-0.4-0.3-0.7c0-0.2,0.1-0.5,0.2-1l0.8-4H409
	l0.2-0.9h0.9l0.3-1.7l1.4-0.8l-0.5,2.5h1.2l-0.2,0.9h-1.2l-0.8,3.8c-0.1,0.5-0.2,0.8-0.2,0.9c0,0.1,0,0.3,0.1,0.3
	c0.1,0.1,0.2,0.1,0.4,0.1C411,136.9,411.2,136.9,411.4,136.8z M417.1,135.3l1.2,0.1c-0.3,0.9-0.7,1.5-1.3,1.9
	c-0.5,0.4-1.2,0.6-1.8,0.6c-0.8,0-1.4-0.2-1.8-0.7c-0.5-0.5-0.7-1.2-0.7-2c0-0.8,0.1-1.5,0.4-2.2c0.3-0.7,0.7-1.3,1.3-1.7
	c0.6-0.4,1.2-0.6,1.9-0.6c0.7,0,1.3,0.2,1.8,0.6c0.4,0.4,0.7,1,0.7,1.7l-1.2,0.1c0-0.4-0.1-0.8-0.4-1c-0.2-0.2-0.6-0.4-1-0.4
	c-0.5,0-0.9,0.2-1.2,0.5c-0.3,0.3-0.6,0.7-0.8,1.4c-0.2,0.6-0.3,1.2-0.3,1.8c0,0.6,0.1,1,0.4,1.3c0.3,0.3,0.6,0.4,1,0.4
	c0.4,0,0.7-0.1,1.1-0.4C416.6,136.3,416.9,135.8,417.1,135.3z"/>
<path class="st4" d="M80.3,188L80.3,188c0-3.4,2.8-6.2,6.2-6.2h127.4c1.7,0,3.2,0.7,4.4,1.8c1.2,1.2,1.8,2.8,1.8,4.4v24.9
	c0,3.4-2.8,6.2-6.2,6.2H86.5c-3.4,0-6.2-2.8-6.2-6.2V188z"/>
<path class="st1" d="M80.3,188L80.3,188c0-3.4,2.8-6.2,6.2-6.2h127.4c1.7,0,3.2,0.7,4.4,1.8c1.2,1.2,1.8,2.8,1.8,4.4v24.9
	c0,3.4-2.8,6.2-6.2,6.2H86.5c-3.4,0-6.2-2.8-6.2-6.2V188z"/>
<path d="M95.4,206.3v-11.5h2.2l4.7,7.6v-7.6h2.2v11.5h-2.3l-4.6-7.5v7.5H95.4z M111.7,203.6l2.2,0.4c-0.3,0.8-0.7,1.4-1.3,1.8
	c-0.6,0.4-1.4,0.6-2.3,0.6c-1.4,0-2.5-0.5-3.2-1.4c-0.5-0.7-0.8-1.7-0.8-2.9c0-1.4,0.4-2.4,1.1-3.2c0.7-0.8,1.6-1.2,2.7-1.2
	c1.2,0,2.2,0.4,2.9,1.2c0.7,0.8,1.1,2.1,1,3.8h-5.5c0,0.6,0.2,1.2,0.5,1.5c0.3,0.4,0.8,0.5,1.3,0.5c0.3,0,0.6-0.1,0.9-0.3
	C111.4,204.4,111.6,204.1,111.7,203.6z M111.8,201.4c0-0.6-0.2-1.1-0.5-1.5c-0.3-0.3-0.7-0.5-1.1-0.5c-0.5,0-0.9,0.2-1.2,0.5
	c-0.3,0.3-0.5,0.8-0.5,1.4H111.8z M121.3,206.3V205c-0.3,0.4-0.7,0.8-1.2,1.1c-0.5,0.3-1,0.4-1.6,0.4c-0.6,0-1.1-0.1-1.5-0.4
	c-0.4-0.2-0.8-0.6-1-1c-0.2-0.4-0.3-1.1-0.3-1.8V198h2.2v3.8c0,1.2,0,1.9,0.1,2.1c0.1,0.3,0.2,0.5,0.4,0.6c0.2,0.2,0.5,0.2,0.8,0.2
	c0.4,0,0.7-0.1,1-0.3c0.3-0.2,0.5-0.5,0.6-0.8c0.1-0.3,0.2-1,0.2-2.2V198h2.2v8.3H121.3z M127.7,206.3h-2.2V198h2v1.2
	c0.4-0.6,0.7-0.9,0.9-1.1c0.3-0.2,0.6-0.3,1-0.3c0.5,0,1,0.1,1.5,0.4l-0.7,1.9c-0.4-0.2-0.7-0.4-1-0.4c-0.3,0-0.6,0.1-0.8,0.2
	c-0.2,0.2-0.4,0.5-0.5,0.9c-0.1,0.4-0.2,1.4-0.2,2.8V206.3z M131.3,202c0-0.7,0.2-1.4,0.5-2.1c0.4-0.7,0.9-1.2,1.5-1.6
	c0.7-0.4,1.4-0.5,2.2-0.5c1.2,0,2.3,0.4,3.1,1.2c0.8,0.8,1.2,1.8,1.2,3.1c0,1.3-0.4,2.3-1.2,3.1c-0.8,0.8-1.8,1.2-3,1.2
	c-0.8,0-1.5-0.2-2.2-0.5c-0.7-0.3-1.2-0.8-1.6-1.5C131.5,203.8,131.3,203,131.3,202z M133.5,202.1c0,0.8,0.2,1.5,0.6,1.9
	c0.4,0.4,0.9,0.7,1.5,0.7c0.6,0,1.1-0.2,1.4-0.7c0.4-0.4,0.6-1.1,0.6-1.9c0-0.8-0.2-1.4-0.6-1.9c-0.4-0.4-0.9-0.7-1.4-0.7
	c-0.6,0-1.1,0.2-1.5,0.7C133.7,200.7,133.5,201.3,133.5,202.1z M143.2,200.5l-2-0.4c0.2-0.8,0.6-1.4,1.2-1.8
	c0.6-0.4,1.4-0.6,2.4-0.6c1,0,1.7,0.1,2.2,0.3c0.5,0.2,0.8,0.5,1,0.9c0.2,0.4,0.3,1,0.3,2l0,2.6c0,0.7,0,1.3,0.1,1.6
	c0.1,0.3,0.2,0.7,0.4,1.1h-2.2c-0.1-0.1-0.1-0.4-0.2-0.7c0-0.1-0.1-0.2-0.1-0.2c-0.4,0.4-0.8,0.6-1.2,0.8c-0.4,0.2-0.9,0.3-1.4,0.3
	c-0.9,0-1.5-0.2-2-0.7c-0.5-0.5-0.7-1.1-0.7-1.8c0-0.5,0.1-0.9,0.3-1.2c0.2-0.4,0.5-0.7,0.9-0.8c0.4-0.2,1-0.4,1.8-0.5
	c1-0.2,1.7-0.4,2.1-0.5v-0.2c0-0.4-0.1-0.7-0.3-0.9c-0.2-0.2-0.6-0.3-1.2-0.3c-0.4,0-0.7,0.1-0.9,0.2
	C143.5,199.9,143.4,200.1,143.2,200.5z M146.2,202.3c-0.3,0.1-0.7,0.2-1.3,0.3c-0.6,0.1-1,0.3-1.2,0.4c-0.3,0.2-0.4,0.5-0.4,0.8
	c0,0.3,0.1,0.6,0.3,0.8c0.2,0.2,0.5,0.3,0.9,0.3c0.4,0,0.8-0.1,1.1-0.4c0.3-0.2,0.4-0.4,0.5-0.7c0.1-0.2,0.1-0.5,0.1-1.1V202.3z
	 M158,206.3h-2.2V202c0-0.9,0-1.5-0.1-1.7c-0.1-0.3-0.2-0.5-0.5-0.6c-0.2-0.1-0.5-0.2-0.8-0.2c-0.4,0-0.7,0.1-1,0.3
	c-0.3,0.2-0.5,0.5-0.6,0.8c-0.1,0.3-0.2,1-0.2,1.9v3.8h-2.2V198h2v1.2c0.7-0.9,1.6-1.4,2.7-1.4c0.5,0,0.9,0.1,1.3,0.3
	c0.4,0.2,0.7,0.4,0.9,0.7c0.2,0.3,0.4,0.6,0.4,0.9c0.1,0.3,0.1,0.8,0.1,1.5V206.3z M161.9,200.5l-2-0.4c0.2-0.8,0.6-1.4,1.2-1.8
	c0.6-0.4,1.4-0.6,2.4-0.6c1,0,1.7,0.1,2.2,0.3c0.5,0.2,0.8,0.5,1,0.9c0.2,0.4,0.3,1,0.3,2l0,2.6c0,0.7,0,1.3,0.1,1.6
	c0.1,0.3,0.2,0.7,0.4,1.1h-2.2c-0.1-0.1-0.1-0.4-0.2-0.7c0-0.1-0.1-0.2-0.1-0.2c-0.4,0.4-0.8,0.6-1.2,0.8c-0.4,0.2-0.9,0.3-1.4,0.3
	c-0.9,0-1.5-0.2-2-0.7c-0.5-0.5-0.7-1.1-0.7-1.8c0-0.5,0.1-0.9,0.3-1.2c0.2-0.4,0.5-0.7,0.9-0.8c0.4-0.2,1-0.4,1.8-0.5
	c1-0.2,1.7-0.4,2.1-0.5v-0.2c0-0.4-0.1-0.7-0.3-0.9c-0.2-0.2-0.6-0.3-1.2-0.3c-0.4,0-0.7,0.1-0.9,0.2
	C162.2,199.9,162,200.1,161.9,200.5z M164.8,202.3c-0.3,0.1-0.7,0.2-1.3,0.3c-0.6,0.1-1,0.3-1.2,0.4c-0.3,0.2-0.4,0.5-0.4,0.8
	c0,0.3,0.1,0.6,0.3,0.8c0.2,0.2,0.5,0.3,0.9,0.3c0.4,0,0.8-0.1,1.1-0.4c0.3-0.2,0.4-0.4,0.5-0.7c0.1-0.2,0.1-0.5,0.1-1.1V202.3z
	 M172.9,198v1.8h-1.5v3.3c0,0.7,0,1.1,0,1.2c0,0.1,0.1,0.2,0.2,0.3c0.1,0.1,0.2,0.1,0.4,0.1c0.2,0,0.5-0.1,0.9-0.2l0.2,1.7
	c-0.5,0.2-1.1,0.3-1.7,0.3c-0.4,0-0.8-0.1-1.1-0.2c-0.3-0.1-0.5-0.3-0.7-0.5c-0.1-0.2-0.2-0.5-0.3-0.9c-0.1-0.2-0.1-0.8-0.1-1.5
	v-3.6h-1V198h1v-1.7l2.2-1.3v2.9H172.9z M174,202c0-0.7,0.2-1.4,0.5-2.1c0.4-0.7,0.9-1.2,1.5-1.6c0.7-0.4,1.4-0.5,2.2-0.5
	c1.2,0,2.3,0.4,3.1,1.2c0.8,0.8,1.2,1.8,1.2,3.1c0,1.3-0.4,2.3-1.2,3.1c-0.8,0.8-1.8,1.2-3,1.2c-0.8,0-1.5-0.2-2.2-0.5
	c-0.7-0.3-1.2-0.8-1.6-1.5C174.1,203.8,174,203,174,202z M176.2,202.1c0,0.8,0.2,1.5,0.6,1.9c0.4,0.4,0.9,0.7,1.5,0.7
	c0.6,0,1.1-0.2,1.4-0.7c0.4-0.4,0.6-1.1,0.6-1.9c0-0.8-0.2-1.4-0.6-1.9c-0.4-0.4-0.9-0.7-1.4-0.7c-0.6,0-1.1,0.2-1.5,0.7
	C176.4,200.7,176.2,201.3,176.2,202.1z M184.1,198h2v1.1c0.7-0.9,1.6-1.3,2.6-1.3c0.5,0,1,0.1,1.4,0.3c0.4,0.2,0.7,0.5,1,1
	c0.4-0.4,0.8-0.8,1.2-1c0.4-0.2,0.9-0.3,1.4-0.3c0.6,0,1.1,0.1,1.5,0.4c0.4,0.2,0.7,0.6,1,1.1c0.1,0.4,0.2,0.9,0.2,1.7v5.3h-2.2
	v-4.8c0-0.8-0.1-1.4-0.2-1.6c-0.2-0.3-0.5-0.5-0.9-0.5c-0.3,0-0.6,0.1-0.9,0.3c-0.3,0.2-0.5,0.5-0.6,0.8c-0.1,0.4-0.2,0.9-0.2,1.7v4
	h-2.2v-4.5c0-0.8,0-1.3-0.1-1.6c-0.1-0.2-0.2-0.4-0.4-0.5c-0.2-0.1-0.4-0.2-0.7-0.2c-0.3,0-0.7,0.1-0.9,0.3
	c-0.3,0.2-0.5,0.4-0.6,0.8c-0.1,0.3-0.2,0.9-0.2,1.7v4h-2.2V198z M197.4,198h2.3l2,5.9l1.9-5.9h2.3l-2.9,8l-0.5,1.5
	c-0.2,0.5-0.4,0.8-0.5,1.1c-0.2,0.3-0.4,0.5-0.6,0.6c-0.2,0.2-0.5,0.3-0.8,0.4c-0.3,0.1-0.7,0.1-1.1,0.1c-0.4,0-0.8,0-1.2-0.1
	l-0.2-1.7c0.3,0.1,0.7,0.1,0.9,0.1c0.5,0,0.9-0.2,1.1-0.5c0.2-0.3,0.4-0.7,0.6-1.1L197.4,198z"/>
<path class="st4" d="M265.2,187.9L265.2,187.9c0-3.4,2.8-6.2,6.2-6.2h45.4c1.7,0,3.2,0.7,4.4,1.8c1.2,1.2,1.8,2.8,1.8,4.4v24.9
	c0,3.4-2.8,6.2-6.2,6.2h-45.4c-3.4,0-6.2-2.8-6.2-6.2V187.9z"/>
<path class="st1" d="M265.2,187.9L265.2,187.9c0-3.4,2.8-6.2,6.2-6.2h45.4c1.7,0,3.2,0.7,4.4,1.8c1.2,1.2,1.8,2.8,1.8,4.4v24.9
	c0,3.4-2.8,6.2-6.2,6.2h-45.4c-3.4,0-6.2-2.8-6.2-6.2V187.9z"/>
<path d="M280.5,202.5l2.2-0.2c0.1,0.8,0.4,1.3,0.8,1.7c0.4,0.4,1,0.5,1.7,0.5c0.8,0,1.3-0.2,1.7-0.5c0.4-0.3,0.6-0.7,0.6-1.1
	c0-0.3-0.1-0.5-0.2-0.7c-0.2-0.2-0.4-0.4-0.8-0.5c-0.3-0.1-0.9-0.3-1.9-0.5c-1.2-0.3-2.1-0.7-2.6-1.1c-0.7-0.6-1-1.4-1-2.3
	c0-0.6,0.2-1.1,0.5-1.6c0.3-0.5,0.8-0.9,1.4-1.2c0.6-0.3,1.4-0.4,2.2-0.4c1.4,0,2.5,0.3,3.2,1c0.7,0.6,1.1,1.5,1.1,2.5l-2.3,0.1
	c-0.1-0.6-0.3-1-0.6-1.3c-0.3-0.3-0.8-0.4-1.5-0.4c-0.7,0-1.2,0.1-1.6,0.4c-0.2,0.2-0.4,0.4-0.4,0.7c0,0.3,0.1,0.5,0.3,0.7
	c0.3,0.2,1,0.5,2.1,0.8c1.1,0.3,2,0.5,2.5,0.8c0.5,0.3,1,0.7,1.3,1.2c0.3,0.5,0.5,1.1,0.5,1.8c0,0.7-0.2,1.3-0.5,1.8
	c-0.4,0.6-0.9,1-1.5,1.3c-0.7,0.3-1.5,0.4-2.5,0.4c-1.4,0-2.6-0.3-3.3-1C281.1,204.8,280.6,203.8,280.5,202.5z M296.5,203.6l2.2,0.4
	c-0.3,0.8-0.7,1.4-1.3,1.8c-0.6,0.4-1.4,0.6-2.3,0.6c-1.4,0-2.5-0.5-3.2-1.4c-0.5-0.8-0.8-1.7-0.8-2.9c0-1.4,0.4-2.4,1.1-3.2
	c0.7-0.8,1.6-1.2,2.7-1.2c1.2,0,2.2,0.4,2.9,1.2c0.7,0.8,1.1,2.1,1,3.8h-5.5c0,0.6,0.2,1.2,0.5,1.5c0.3,0.4,0.8,0.5,1.3,0.5
	c0.3,0,0.6-0.1,0.9-0.3C296.2,204.3,296.4,204,296.5,203.6z M296.6,201.4c0-0.6-0.2-1.1-0.5-1.5c-0.3-0.3-0.7-0.5-1.1-0.5
	c-0.5,0-0.9,0.2-1.2,0.5c-0.3,0.3-0.5,0.8-0.5,1.4H296.6z M299.6,206.3l3-4.3l-2.9-4h2.7l1.5,2.3l1.5-2.3h2.6l-2.8,3.9l3.1,4.4h-2.7
	l-1.7-2.6l-1.7,2.6H299.6z"/>
<path class="st5" d="M150.2,181.7"/>
<path class="st5" d="M388.6,145.4"/>
<path class="st1" d="M388.6,145.4"/>
<path class="st0" d="M12.5,83L12.5,83c0-6.9,5.6-12.5,12.5-12.5h97.2c3.3,0,6.5,1.3,8.8,3.7c2.3,2.3,3.7,5.5,3.7,8.8v49.8
	c0,6.9-5.6,12.5-12.5,12.5H24.9c-6.9,0-12.5-5.6-12.5-12.5L12.5,83z"/>
<path class="st1" d="M12.5,83L12.5,83c0-6.9,5.6-12.5,12.5-12.5h97.2c3.3,0,6.5,1.3,8.8,3.7c2.3,2.3,3.7,5.5,3.7,8.8v49.8
	c0,6.9-5.6,12.5-12.5,12.5H24.9c-6.9,0-12.5-5.6-12.5-12.5L12.5,83z"/>
<path d="M51.4,105V94.6h2.1l4.3,7v-7h2V105h-2.1l-4.2-6.8v6.8H51.4z M63.5,99.8l-1.8-0.3c0.2-0.7,0.5-1.3,1-1.6
	c0.5-0.4,1.3-0.5,2.2-0.5c0.9,0,1.6,0.1,2,0.3s0.7,0.5,0.9,0.8c0.2,0.3,0.3,0.9,0.3,1.8l0,2.3c0,0.7,0,1.2,0.1,1.5
	c0.1,0.3,0.2,0.7,0.4,1h-2c-0.1-0.1-0.1-0.3-0.2-0.6c0-0.1-0.1-0.2-0.1-0.2c-0.3,0.3-0.7,0.6-1.1,0.8c-0.4,0.2-0.8,0.2-1.2,0.2
	c-0.8,0-1.4-0.2-1.9-0.6c-0.4-0.4-0.7-1-0.7-1.6c0-0.4,0.1-0.8,0.3-1.1c0.2-0.3,0.5-0.6,0.9-0.8c0.4-0.2,0.9-0.3,1.6-0.5
	c0.9-0.2,1.6-0.3,2-0.5v-0.2c0-0.4-0.1-0.7-0.3-0.8c-0.2-0.2-0.5-0.2-1.1-0.2c-0.4,0-0.6,0.1-0.8,0.2C63.7,99.2,63.6,99.4,63.5,99.8
	z M66.1,101.4c-0.3,0.1-0.7,0.2-1.2,0.3c-0.6,0.1-0.9,0.2-1.1,0.3c-0.3,0.2-0.4,0.4-0.4,0.7c0,0.3,0.1,0.5,0.3,0.7
	c0.2,0.2,0.5,0.3,0.8,0.3c0.4,0,0.7-0.1,1-0.4c0.2-0.2,0.4-0.4,0.5-0.7c0.1-0.2,0.1-0.5,0.1-1V101.4z M73.6,97.5V99h-1.4v3.1
	c0,0.6,0,1,0,1.1c0,0.1,0.1,0.2,0.2,0.2c0.1,0.1,0.2,0.1,0.3,0.1c0.2,0,0.5-0.1,0.8-0.2l0.2,1.6c-0.5,0.2-1,0.3-1.6,0.3
	c-0.4,0-0.7-0.1-1-0.2c-0.3-0.1-0.5-0.3-0.6-0.5c-0.1-0.2-0.2-0.5-0.3-0.8c0-0.2-0.1-0.7-0.1-1.4V99h-0.9v-1.6h0.9v-1.5l2-1.2v2.7
	H73.6z M80,105v-1.1c-0.3,0.4-0.6,0.7-1.1,1c-0.4,0.2-0.9,0.3-1.4,0.3c-0.5,0-1-0.1-1.4-0.3c-0.4-0.2-0.7-0.5-0.9-1
	c-0.2-0.4-0.3-1-0.3-1.7v-4.8h2v3.5c0,1.1,0,1.7,0.1,2c0.1,0.2,0.2,0.4,0.4,0.6c0.2,0.1,0.4,0.2,0.8,0.2c0.3,0,0.7-0.1,0.9-0.3
	c0.3-0.2,0.5-0.4,0.5-0.7c0.1-0.3,0.2-1,0.2-2v-3.2h2v7.6H80z M85.9,105h-2v-7.6h1.9v1.1c0.3-0.5,0.6-0.8,0.9-1
	c0.3-0.2,0.6-0.2,0.9-0.2c0.5,0,0.9,0.1,1.3,0.4l-0.6,1.8c-0.3-0.2-0.6-0.3-0.9-0.3c-0.3,0-0.5,0.1-0.7,0.2
	c-0.2,0.2-0.4,0.4-0.5,0.8c-0.1,0.4-0.2,1.3-0.2,2.5V105z M94,102.6l2,0.3c-0.2,0.7-0.7,1.3-1.2,1.7c-0.6,0.4-1.2,0.6-2.1,0.6
	c-1.3,0-2.3-0.4-2.9-1.3c-0.5-0.7-0.8-1.6-0.8-2.6c0-1.2,0.3-2.2,1-2.9c0.7-0.7,1.5-1.1,2.5-1.1c1.1,0,2,0.4,2.7,1.1
	c0.7,0.7,1,1.9,0.9,3.4h-5c0,0.6,0.2,1.1,0.5,1.4s0.7,0.5,1.2,0.5c0.3,0,0.6-0.1,0.8-0.2C93.8,103.3,93.9,103,94,102.6z M94.1,100.6
	c0-0.6-0.2-1-0.5-1.3c-0.3-0.3-0.6-0.5-1-0.5c-0.4,0-0.8,0.2-1.1,0.5c-0.3,0.3-0.4,0.7-0.4,1.3H94.1z"/>
<path d="M28.6,121.8l5.4-9.5h1.5l1.6,9.5h-1.2l-0.5-2.8h-3.9l-1.5,2.8H28.6z M32,118h3.2l-0.4-2.4c-0.1-0.9-0.2-1.7-0.3-2.4
	c-0.2,0.6-0.5,1.2-1,2L32,118z M38.2,121.8l1.5-6.9h1.1l-0.2,1.2c0.5-0.5,0.9-0.8,1.3-1c0.4-0.2,0.8-0.3,1.2-0.3
	c0.6,0,1,0.2,1.3,0.5c0.3,0.3,0.5,0.7,0.5,1.2c0,0.2-0.1,0.7-0.2,1.2l-0.9,4.2h-1.2l0.9-4.4c0.1-0.4,0.1-0.7,0.1-1
	c0-0.2-0.1-0.4-0.2-0.5c-0.2-0.1-0.4-0.2-0.7-0.2c-0.6,0-1.1,0.2-1.6,0.7c-0.5,0.4-0.8,1.2-1,2.2l-0.7,3.2H38.2z M50.4,119.3
	l1.2,0.1c-0.3,0.9-0.7,1.5-1.3,1.9c-0.5,0.4-1.2,0.6-1.8,0.6c-0.8,0-1.4-0.2-1.8-0.7c-0.5-0.5-0.7-1.2-0.7-2c0-0.8,0.1-1.5,0.4-2.2
	c0.3-0.7,0.7-1.3,1.3-1.7c0.6-0.4,1.2-0.6,1.9-0.6c0.7,0,1.3,0.2,1.8,0.6s0.7,1,0.7,1.7l-1.2,0.1c0-0.4-0.1-0.8-0.4-1
	c-0.2-0.2-0.6-0.4-1-0.4c-0.5,0-0.9,0.2-1.2,0.5c-0.3,0.3-0.6,0.7-0.8,1.4c-0.2,0.6-0.3,1.2-0.3,1.8c0,0.6,0.1,1,0.4,1.3
	c0.3,0.3,0.6,0.4,1,0.4c0.4,0,0.7-0.1,1.1-0.4C49.9,120.3,50.1,119.8,50.4,119.3z M57.3,119.4l1.2,0.1c-0.2,0.6-0.5,1.1-1.1,1.6
	s-1.3,0.8-2.1,0.8c-0.5,0-1-0.1-1.4-0.3c-0.4-0.2-0.8-0.6-1-1c-0.2-0.5-0.3-1-0.3-1.5c0-0.8,0.2-1.5,0.5-2.2
	c0.4-0.7,0.8-1.2,1.4-1.6c0.6-0.3,1.2-0.5,1.8-0.5c0.8,0,1.5,0.3,2,0.8c0.5,0.5,0.8,1.2,0.8,2.1c0,0.3,0,0.7-0.1,1h-5.1
	c0,0.1,0,0.2,0,0.4c0,0.6,0.1,1.1,0.4,1.5c0.3,0.3,0.7,0.5,1.1,0.5c0.4,0,0.8-0.1,1.2-0.4C56.8,120.3,57.1,119.9,57.3,119.4z
	 M53.9,117.7h3.9c0-0.1,0-0.2,0-0.3c0-0.6-0.2-1-0.5-1.3c-0.3-0.3-0.7-0.5-1.1-0.5c-0.5,0-1,0.2-1.4,0.5
	C54.4,116.5,54.1,117,53.9,117.7z M59.8,119.4l1.2-0.1c0,0.3,0.1,0.6,0.2,0.9c0.1,0.2,0.3,0.4,0.6,0.6c0.3,0.1,0.6,0.2,1,0.2
	c0.5,0,0.9-0.1,1.2-0.3s0.4-0.5,0.4-0.7c0-0.2-0.1-0.4-0.2-0.6c-0.2-0.2-0.5-0.4-1.2-0.7c-0.6-0.3-1-0.5-1.2-0.6
	c-0.3-0.2-0.5-0.4-0.7-0.6c-0.1-0.2-0.2-0.5-0.2-0.8c0-0.5,0.2-1,0.7-1.4c0.4-0.4,1-0.6,1.8-0.6c0.9,0,1.5,0.2,2,0.6
	c0.5,0.4,0.7,0.9,0.7,1.6l-1.2,0.1c0-0.4-0.2-0.7-0.5-1c-0.3-0.2-0.7-0.4-1.2-0.4c-0.4,0-0.7,0.1-1,0.3c-0.2,0.2-0.3,0.4-0.3,0.6
	c0,0.2,0.1,0.4,0.3,0.6c0.1,0.1,0.5,0.3,1,0.5c0.9,0.4,1.5,0.7,1.7,0.9c0.4,0.4,0.6,0.8,0.6,1.3c0,0.3-0.1,0.7-0.3,1
	c-0.2,0.3-0.5,0.6-1,0.8c-0.4,0.2-0.9,0.3-1.5,0.3c-0.8,0-1.5-0.2-2-0.6S59.7,120.3,59.8,119.4z M69.1,120.8l-0.2,1
	c-0.3,0.1-0.6,0.1-0.8,0.1c-0.5,0-0.8-0.1-1.1-0.3c-0.2-0.2-0.3-0.4-0.3-0.7c0-0.2,0.1-0.5,0.2-1l0.8-4h-0.9l0.2-0.9h0.9l0.3-1.7
	l1.4-0.8l-0.5,2.5h1.2l-0.2,0.9h-1.2l-0.8,3.8c-0.1,0.5-0.2,0.8-0.2,0.9c0,0.1,0,0.3,0.1,0.3c0.1,0.1,0.2,0.1,0.4,0.1
	C68.6,120.9,68.9,120.9,69.1,120.8z M70,121.8l1.5-6.9h1l-0.3,1.4c0.4-0.5,0.7-0.9,1-1.2c0.3-0.3,0.7-0.4,1-0.4
	c0.2,0,0.5,0.1,0.9,0.2l-0.5,1.1c-0.2-0.1-0.4-0.2-0.7-0.2c-0.4,0-0.8,0.2-1.3,0.7c-0.4,0.5-0.8,1.3-1,2.5l-0.6,2.8H70z M74,124.4
	l0.1-1.1c0.2,0.1,0.5,0.1,0.7,0.1c0.2,0,0.4-0.1,0.6-0.2c0.2-0.1,0.4-0.4,0.6-0.8l0.4-0.7l-1.2-6.9h1.2l0.5,3.5
	c0.1,0.7,0.2,1.4,0.3,2.1l3.1-5.6h1.2l-4.4,7.8c-0.4,0.8-0.8,1.3-1.1,1.5s-0.7,0.4-1.1,0.4C74.5,124.6,74.3,124.5,74,124.4z
	 M80.4,121.8l0.3-1.3H82l-0.2,1.2c-0.2,0.7-0.4,1.2-0.7,1.5c-0.3,0.3-0.7,0.5-1.1,0.6l0.1-0.5c0.5-0.1,0.9-0.6,1-1.4H80.4z
	 M87.7,121.8l2-9.5h4c0.8,0,1.4,0.1,1.8,0.2c0.4,0.1,0.7,0.4,1,0.8c0.2,0.4,0.4,0.8,0.4,1.4c0,0.8-0.3,1.4-0.8,1.9
	c-0.5,0.5-1.3,0.8-2.5,1c0.3,0.2,0.6,0.5,0.8,0.8c0.4,0.6,0.7,1.1,1,1.7l0.7,1.8h-1.4L94,120c-0.2-0.6-0.5-1.2-0.8-1.7
	c-0.2-0.3-0.4-0.5-0.7-0.6c-0.2-0.1-0.6-0.2-1.1-0.2h-1.5l-0.9,4.2H87.7z M90.1,116.5h1.8c0.8,0,1.3,0,1.6,0
	c0.5-0.1,0.9-0.2,1.2-0.3c0.3-0.2,0.6-0.4,0.7-0.7c0.2-0.3,0.3-0.6,0.3-0.9c0-0.3-0.1-0.5-0.2-0.7c-0.1-0.2-0.3-0.3-0.5-0.4
	c-0.2-0.1-0.6-0.1-1-0.1h-3.1L90.1,116.5z M101.8,120.9c-0.4,0.4-0.8,0.6-1.2,0.8c-0.4,0.2-0.8,0.2-1.2,0.2c-0.6,0-1.2-0.2-1.6-0.6
	c-0.4-0.4-0.6-0.9-0.6-1.4c0-0.4,0.1-0.7,0.3-1c0.2-0.3,0.4-0.5,0.7-0.7c0.3-0.2,0.6-0.3,1.1-0.4c0.3-0.1,0.8-0.1,1.5-0.1
	c0.7,0,1.3-0.1,1.6-0.2c0.1-0.3,0.1-0.6,0.1-0.8c0-0.3-0.1-0.5-0.3-0.6c-0.3-0.2-0.7-0.3-1.2-0.3c-0.5,0-0.9,0.1-1.2,0.3
	c-0.3,0.2-0.5,0.5-0.7,0.9l-1.2-0.1c0.2-0.7,0.6-1.2,1.1-1.6c0.5-0.4,1.2-0.5,2-0.5c0.9,0,1.5,0.2,2,0.6c0.4,0.3,0.6,0.7,0.6,1.2
	c0,0.4-0.1,0.8-0.2,1.3l-0.4,1.7c-0.1,0.5-0.2,1-0.2,1.3c0,0.2,0.1,0.5,0.2,0.9H102C101.9,121.5,101.9,121.3,101.8,120.9z
	 M102.3,118.3c-0.2,0.1-0.3,0.1-0.5,0.2c-0.2,0-0.5,0.1-0.9,0.1c-0.7,0.1-1.2,0.1-1.5,0.2c-0.3,0.1-0.5,0.2-0.6,0.5
	c-0.1,0.2-0.2,0.4-0.2,0.7c0,0.3,0.1,0.6,0.3,0.8c0.2,0.2,0.6,0.3,1,0.3c0.4,0,0.8-0.1,1.1-0.3c0.4-0.2,0.7-0.5,0.9-0.9
	C102,119.5,102.1,118.9,102.3,118.3z M109.4,119.3l1.2,0.1c-0.3,0.9-0.7,1.5-1.3,1.9c-0.5,0.4-1.2,0.6-1.8,0.6
	c-0.8,0-1.4-0.2-1.8-0.7c-0.5-0.5-0.7-1.2-0.7-2c0-0.8,0.1-1.5,0.4-2.2c0.3-0.7,0.7-1.3,1.3-1.7c0.6-0.4,1.2-0.6,1.9-0.6
	c0.7,0,1.3,0.2,1.8,0.6c0.4,0.4,0.7,1,0.7,1.7l-1.2,0.1c0-0.4-0.1-0.8-0.4-1c-0.2-0.2-0.6-0.4-1-0.4c-0.5,0-0.9,0.2-1.2,0.5
	c-0.3,0.3-0.6,0.7-0.8,1.4c-0.2,0.6-0.3,1.2-0.3,1.8c0,0.6,0.1,1,0.4,1.3c0.3,0.3,0.6,0.4,1,0.4c0.4,0,0.7-0.1,1.1-0.4
	C108.9,120.3,109.1,119.8,109.4,119.3z M116.3,119.4l1.2,0.1c-0.2,0.6-0.5,1.1-1.1,1.6c-0.6,0.5-1.3,0.8-2.1,0.8
	c-0.5,0-1-0.1-1.4-0.3c-0.4-0.2-0.8-0.6-1-1c-0.2-0.5-0.3-1-0.3-1.5c0-0.8,0.2-1.5,0.5-2.2c0.4-0.7,0.8-1.2,1.4-1.6
	c0.6-0.3,1.2-0.5,1.8-0.5c0.8,0,1.5,0.3,2,0.8c0.5,0.5,0.8,1.2,0.8,2.1c0,0.3,0,0.7-0.1,1h-5.1c0,0.1,0,0.2,0,0.4
	c0,0.6,0.1,1.1,0.4,1.5c0.3,0.3,0.7,0.5,1.1,0.5c0.4,0,0.8-0.1,1.2-0.4C115.8,120.3,116.1,119.9,116.3,119.4z M112.9,117.7h3.9
	c0-0.1,0-0.2,0-0.3c0-0.6-0.2-1-0.5-1.3c-0.3-0.3-0.7-0.5-1.1-0.5c-0.5,0-1,0.2-1.4,0.5C113.4,116.5,113.1,117,112.9,117.7z"/>
<path class="st5" d="M73.5,145.4l-0.7,155.2"/>
<path class="st5" d="M134.6,108h159.1"/>
<path class="st1" d="M134.6,108h153.1"/>
<path class="st6" d="M287.7,109.6l4.5-1.7l-4.5-1.7V109.6z"/>
<path class="st5" d="M388.6,145.4"/>
<path class="st5" d="M294.1,181.7"/>
<path class="st1" d="M294.1,181.7"/>
<path class="st6" d="M387.8,146.6"/>
<path class="st7" d="M356.8,187.9L356.8,187.9c0-3.4,2.8-6.2,6.2-6.2h45.4c1.7,0,3.2,0.7,4.4,1.8c1.2,1.2,1.8,2.8,1.8,4.4v24.9
	c0,3.4-2.8,6.2-6.2,6.2h-45.4c-3.4,0-6.2-2.8-6.2-6.2V187.9z"/>
<path class="st1" d="M356.8,187.9L356.8,187.9c0-3.4,2.8-6.2,6.2-6.2h45.4c1.7,0,3.2,0.7,4.4,1.8c1.2,1.2,1.8,2.8,1.8,4.4v24.9
	c0,3.4-2.8,6.2-6.2,6.2h-45.4c-3.4,0-6.2-2.8-6.2-6.2V187.9z"/>
<path d="M382.1,206.3h-2.5l-1-2.6H374l-1,2.6h-2.5l4.5-11.5h2.4L382.1,206.3z M377.9,201.7l-1.6-4.2l-1.5,4.2H377.9z M383.1,206.8
	l2.5,0.3c0,0.3,0.1,0.5,0.3,0.6c0.2,0.2,0.5,0.2,1,0.2c0.6,0,1-0.1,1.3-0.2c0.2-0.1,0.3-0.3,0.4-0.6c0.1-0.2,0.1-0.5,0.1-1v-1.2
	c-0.7,0.9-1.5,1.3-2.5,1.3c-1.1,0-2-0.5-2.7-1.4c-0.5-0.7-0.8-1.7-0.8-2.8c0-1.4,0.3-2.4,1-3.2c0.7-0.7,1.5-1.1,2.5-1.1
	c1,0,1.9,0.4,2.5,1.3V198h2v7.4c0,1-0.1,1.7-0.2,2.2c-0.2,0.5-0.4,0.9-0.7,1.1c-0.3,0.3-0.7,0.5-1.2,0.7c-0.5,0.2-1.1,0.2-1.8,0.2
	c-1.4,0-2.4-0.2-3-0.7c-0.6-0.5-0.9-1.1-0.9-1.8C383.1,207,383.1,206.9,383.1,206.8z M385.1,201.9c0,0.9,0.2,1.5,0.5,1.9
	s0.8,0.6,1.3,0.6c0.5,0,1-0.2,1.3-0.6c0.4-0.4,0.6-1,0.6-1.9c0-0.9-0.2-1.5-0.5-1.9c-0.4-0.4-0.8-0.6-1.3-0.6c-0.5,0-1,0.2-1.3,0.6
	C385.3,200.5,385.1,201.1,385.1,201.9z M397.9,203.6l2.2,0.4c-0.3,0.8-0.7,1.4-1.3,1.8c-0.6,0.4-1.4,0.6-2.3,0.6
	c-1.4,0-2.5-0.5-3.2-1.4c-0.5-0.8-0.8-1.7-0.8-2.9c0-1.4,0.4-2.4,1.1-3.2c0.7-0.8,1.6-1.2,2.7-1.2c1.2,0,2.2,0.4,2.9,1.2
	c0.7,0.8,1.1,2.1,1,3.8h-5.5c0,0.6,0.2,1.2,0.5,1.5c0.3,0.4,0.8,0.5,1.3,0.5c0.3,0,0.6-0.1,0.9-0.3
	C397.6,204.3,397.8,204,397.9,203.6z M398,201.4c0-0.6-0.2-1.1-0.5-1.5c-0.3-0.3-0.7-0.5-1.1-0.5c-0.5,0-0.9,0.2-1.2,0.5
	c-0.3,0.3-0.5,0.8-0.5,1.4H398z"/>
<path class="st5" d="M403.4,146.5"/>
<path class="st5" d="M368.1,181.8"/>
<path class="st1" d="M368.1,181.8"/>
<path class="st5" d="M143.6,18.7H73.5v51.9"/>
<path class="st1" d="M143.6,18.7H73.5v45.9"/>
<path class="st6" d="M71.9,64.6l1.7,4.5l1.7-4.5H71.9z"/>
<path class="st5" d="M340.1,18.7h48.4v51.9"/>
<path class="st1" d="M340.1,18.7h48.4v45.9"/>
<path class="st6" d="M386.9,64.6l1.7,4.5l1.7-4.5H386.9z"/>
<g>
	<g>
		<path class="st8" d="M53.9,145.4c-4.5,72.9-2.7,128.9-1.8,148.1"/>
		<g>
			<polygon points="47.1,292.2 52.5,300.6 57,291.7 			"/>
		</g>
	</g>
</g>
<g>
	<g>
		<path class="st8" d="M114.8,145.4c7.4,7,8.3,12.7,8.4,28.2"/>
		<g>
			<polygon points="118.2,172.2 123.3,180.7 128.2,172.1 			"/>
		</g>
	</g>
</g>
<g>
	<g>
		<path class="st9" d="M294.1,149.1c-4,10.9-3.3,29.1-2.2,32.5"/>
		<g>
			<polygon points="289.3,148.1 297.8,142.9 298,152.9 			"/>
		</g>
	</g>
</g>
<g>
	<g>
		<path class="st9" d="M265.2,200.4c0,0.3-25.2,0.2-37.9,0.1"/>
		<g>
			<polygon points="228.8,195.5 220.2,200.4 228.8,205.5 			"/>
		</g>
	</g>
</g>
<g>
	<g>
		<path class="st9" d="M76.4,300.6c3.5-31.5,22.4-62.1,30.9-74.6"/>
		<g>
			<polygon points="110.5,230.1 111.5,220.2 102.4,224.3 			"/>
		</g>
	</g>
</g>
<g>
	<g>
		<path class="st9" d="M293.8,134.2c-65,0-99.2,28.8-110.9,41.1"/>
		<g>
			<polygon points="180.2,171 178.2,180.7 187.7,177.5 			"/>
		</g>
	</g>
</g>
<g>
	<g>
		<path class="st9" d="M111,300.6c36.8-11.5,144.1-52,167.5-74.6"/>
		<g>
			<polygon points="281.4,230.1 282.7,220.2 273.5,224 			"/>
		</g>
	</g>
</g>
<g>
	<g>
		<line class="st9" x1="387.3" y1="181.7" x2="387.3" y2="153.7"/>
		<g>
			<polygon points="392.2,155.2 387.3,146.5 382.3,155.2 			"/>
		</g>
	</g>
</g>
<g>
	<g>
		<line class="st9" x1="387.9" y1="219.1" x2="387.9" y2="293.4"/>
		<g>
			<polygon points="382.9,292 387.9,300.6 392.9,292 			"/>
		</g>
	</g>
</g>
<g>
	<g>
		<path class="st9" d="M208.6,224.4c34.2,31.7,135.7,32.1,151.3-5.3"/>
		<g>
			<polygon points="206.1,228.8 203.8,219.1 213.3,222 			"/>
		</g>
	</g>
</g>
<g>
	<g>
		<path class="st9" d="M374.1,219.1c-31.7,40.9-156.8,87.5-222,90.9"/>
		<g>
			<polygon points="153.3,305 144.9,310.3 153.7,314.9 			"/>
		</g>
	</g>
</g>
<g>
	<g>
		<path class="st9" d="M178.2,219.1C181,260,305.6,281.8,333.6,296"/>
		<g>
			<polygon points="329.3,299.2 339.1,300.6 335.4,291.4 			"/>
		</g>
	</g>
</g>
<g>
	<g>
		<path class="st9" d="M308.2,219.1c19,8.9,45,52.2,50.6,74.4"/>
		<g>
			<polygon points="353.6,292.9 359.9,300.6 363.4,291.3 			"/>
		</g>
	</g>
</g>
<g>
	<line x1="145.5" y1="337.1" x2="293.5" y2="337.1"/>
	<g>
		<line class="st10" x1="145.5" y1="337.1" x2="275.4" y2="337.1"/>
		<g>
			<polygon points="271.7,349.7 293.5,337.1 271.7,324.6 			"/>
		</g>
	</g>
</g>
<text transform="matrix(1 0 0 1 211.1562 328.8286)" class="st11 st12 st13">?</text>
</svg>
