<?xml version="1.0" encoding="utf-8"?>
<!-- Generator: Adobe Illustrator 25.0.0, SVG Export Plug-In . SVG Version: 6.00 Build 0)  -->
<svg version="1.1" id="Layer_1" xmlns="http://www.w3.org/2000/svg" xmlns:xlink="http://www.w3.org/1999/xlink" x="0px" y="0px"
	 viewBox="0 0 143.25 72" style="enable-background:new 0 0 143.25 72;" xml:space="preserve">
<style type="text/css">
	.st0{clip-path:url(#SVGID_1_);fill:none;stroke:#939598;stroke-width:0.3573;stroke-miterlimit:10;}
	.st1{clip-path:url(#SVGID_1_);fill:#B896C6;}
	.st2{clip-path:url(#SVGID_1_);fill:#231F20;}
	.st3{clip-path:url(#SVGID_1_);fill:#82469B;}
</style>
<g>
	<defs>
		<rect id="SVGID_3_" width="143.25" height="72"/>
	</defs>
	<clipPath id="SVGID_1_">
		<use xlink:href="#SVGID_3_"  style="overflow:visible;"/>
	</clipPath>
	<polygon class="st0" points="138.66,46.56 131.53,41.97 121.5,44.97 	"/>
	<polygon class="st0" points="122.8,37.97 121.5,44.97 131.53,41.97 	"/>
	<polygon class="st0" points="115.06,38.58 107.36,44.97 121.5,44.97 	"/>
	<polygon class="st0" points="122.8,37.97 115.06,38.58 121.5,44.97 	"/>
	<polygon class="st0" points="103.93,38.58 97.39,40.73 107.36,44.97 	"/>
	<polygon class="st0" points="115.06,38.58 103.93,38.58 107.36,44.97 	"/>
	<polygon class="st0" points="86.56,41.76 97.39,40.73 97.57,45.52 	"/>
	<polyline class="st0" points="57.55,43.88 86.56,41.76 77.23,45.77 89.09,49.95 77.23,45.77 	"/>
	<polygon class="st0" points="18.82,27.38 10.03,26.78 22.37,33.84 	"/>
	<polygon class="st0" points="43.97,41.48 48.5,45.51 57.55,43.88 	"/>
	<polygon class="st0" points="138.41,62.71 136.04,52.98 130.08,60.49 	"/>
	<polygon class="st0" points="125.19,67.63 119.38,60.08 124.54,54.1 	"/>
	<polygon class="st0" points="130.08,60.49 138.41,62.71 125.19,67.63 	"/>
	<polygon class="st0" points="136.04,52.98 124.54,54.1 121.5,44.97 	"/>
	<polygon class="st0" points="111.94,52.53 119.38,60.08 110.68,60.08 	"/>
	<polygon class="st0" points="124.54,54.1 130.66,60.64 119.38,60.08 	"/>
	<polygon class="st0" points="101.73,51.23 100.88,58.41 110.68,60.08 	"/>
	<polygon class="st0" points="115.24,69.29 119.38,60.08 125.19,67.63 	"/>
	<polygon class="st0" points="104.43,67.75 100.88,58.41 93.8,64.05 	"/>
	<polygon class="st0" points="111.94,52.53 101.73,51.23 107.36,44.97 	"/>
	<polygon class="st0" points="110.68,60.08 115.24,69.29 104.43,67.75 	"/>
	<polygon class="st0" points="124.54,54.1 111.94,52.53 121.5,44.97 	"/>
	<polygon class="st0" points="90.55,56.43 100.88,58.41 93.8,64.05 	"/>
	<polygon class="st0" points="89.09,49.95 101.73,51.23 97.57,45.52 	"/>
	<line class="st0" x1="90.55" y1="56.43" x2="89.09" y2="49.95"/>
	<polygon class="st0" points="80.64,52.53 74.27,56.98 83.19,60.96 	"/>
	<polyline class="st0" points="100.88,58.41 101.73,51.23 90.55,56.43 	"/>
	<polygon class="st0" points="77.23,45.77 80.64,52.53 89.09,49.95 	"/>
	<polygon class="st0" points="83.19,60.96 90.55,56.43 93.8,64.05 	"/>
	<polygon class="st0" points="70.97,49.95 74.27,56.98 64.77,53.36 	"/>
	<polygon class="st0" points="77.23,45.77 70.97,49.95 80.64,52.53 	"/>
	<polygon class="st0" points="68.96,42.63 61.17,48.87 70.97,49.95 	"/>
	<polygon class="st0" points="54.22,52.98 48.5,45.51 44.4,53.66 	"/>
	<polygon class="st0" points="64.77,53.36 61.17,48.87 54.22,52.98 	"/>
	<polygon class="st0" points="37.19,53.85 35.41,46.74 44.4,53.66 	"/>
	<polygon class="st0" points="35.41,46.74 29.15,52.78 37.19,53.85 	"/>
	<polygon class="st0" points="25.58,43.3 21.94,49.24 29.15,52.78 	"/>
	<polygon class="st0" points="2.11,21.9 4.86,32.82 10.12,26.83 	"/>
	<polygon class="st0" points="26.75,18.64 28.62,14.04 31.14,17.86 	"/>
	<polygon class="st0" points="37.19,12.65 30.88,11.03 34.8,15.88 	"/>
	<polygon class="st0" points="31.09,7.21 33.65,3.99 33.94,8.78 	"/>
	<polyline class="st0" points="57.55,43.88 61.17,48.87 48.5,45.51 35.41,46.74 43.97,41.48 31.14,39.51 35.41,46.74 	"/>
	<polygon class="st0" points="31.14,39.51 25.58,43.3 35.41,46.74 	"/>
	<polygon class="st0" points="22.37,33.84 18.82,40.3 25.58,43.3 	"/>
	<polygon class="st0" points="31.14,39.51 22.37,33.84 25.58,43.3 	"/>
	<polygon class="st0" points="13.44,41.41 21.94,49.24 18.82,40.3 	"/>
	<polygon class="st0" points="10.12,26.83 4.86,32.82 13.44,41.41 	"/>
	<polygon class="st0" points="18.82,40.3 10.12,26.83 22.37,33.84 	"/>
	<polygon class="st0" points="18.82,27.38 12.09,15.48 10.12,26.83 	"/>
	<polyline class="st0" points="16.33,9.06 22.37,8.88 19.35,2.05 15.1,8.44 19.35,2.05 11.65,4.39 	"/>
	<polygon class="st0" points="19.35,2.05 26.72,2.75 22.37,8.88 	"/>
	<polygon class="st0" points="4.46,9.06 2.11,21.9 5.01,17.22 	"/>
	<polygon class="st0" points="4.46,9.06 11.65,4.39 15.1,8.44 	"/>
	<polygon class="st0" points="26.75,2.7 33.65,3.99 22.37,8.88 	"/>
	<polygon class="st0" points="22.37,8.88 31.09,7.21 26.72,2.75 	"/>
	<polyline class="st0" points="12.02,15.88 15.1,8.44 5.01,17.22 10.12,26.83 	"/>
	<path class="st1" d="M12.95,2.03c0.31,0.17,0.58,0.4,0.81,0.68c0.22,0.28,0.39,0.59,0.49,0.93s0.13,0.69,0.09,1.05
		c-0.04,0.36-0.14,0.69-0.32,1c-0.17,0.31-0.4,0.58-0.68,0.81c-0.28,0.22-0.59,0.39-0.93,0.49c-0.34,0.1-0.69,0.13-1.05,0.09
		c-0.36-0.04-0.69-0.15-1-0.32s-0.58-0.4-0.81-0.68C9.32,5.8,9.16,5.49,9.06,5.15C8.96,4.81,8.93,4.46,8.97,4.1
		c0.04-0.36,0.14-0.69,0.32-1c0.17-0.31,0.4-0.58,0.68-0.81c0.28-0.22,0.59-0.39,0.93-0.49s0.69-0.13,1.05-0.09
		C12.3,1.75,12.63,1.86,12.95,2.03z"/>
	<path class="st1" d="M20.02,0.84c0.16,0.09,0.3,0.2,0.41,0.35c0.11,0.14,0.2,0.3,0.25,0.48c0.05,0.18,0.07,0.36,0.05,0.54
		c-0.02,0.18-0.07,0.35-0.16,0.52c-0.09,0.16-0.2,0.3-0.35,0.41c-0.14,0.12-0.3,0.2-0.48,0.25c-0.18,0.05-0.36,0.07-0.54,0.05
		c-0.18-0.02-0.35-0.07-0.52-0.16c-0.16-0.09-0.3-0.2-0.41-0.35s-0.2-0.3-0.25-0.48c-0.05-0.18-0.07-0.36-0.05-0.54
		c0.02-0.18,0.07-0.35,0.16-0.52c0.09-0.16,0.2-0.3,0.35-0.41c0.14-0.11,0.3-0.2,0.48-0.25c0.18-0.05,0.36-0.07,0.54-0.05
		C19.68,0.69,19.86,0.75,20.02,0.84z"/>
	<path class="st1" d="M34.32,2.77c0.16,0.09,0.3,0.2,0.41,0.35c0.11,0.14,0.2,0.3,0.25,0.48c0.05,0.18,0.07,0.36,0.05,0.54
		c-0.02,0.18-0.07,0.35-0.16,0.52c-0.09,0.16-0.2,0.3-0.35,0.41c-0.14,0.12-0.3,0.2-0.48,0.25c-0.18,0.05-0.36,0.07-0.54,0.05
		c-0.18-0.02-0.35-0.07-0.52-0.16c-0.16-0.09-0.3-0.2-0.41-0.35c-0.12-0.14-0.2-0.3-0.25-0.48c-0.05-0.18-0.07-0.36-0.05-0.54
		s0.07-0.35,0.16-0.52c0.09-0.16,0.2-0.3,0.35-0.41c0.14-0.11,0.3-0.2,0.48-0.25c0.18-0.05,0.36-0.07,0.54-0.05
		S34.16,2.68,34.32,2.77z"/>
	<path class="st1" d="M28.05,0.33c0.31,0.17,0.58,0.4,0.81,0.68c0.22,0.28,0.39,0.59,0.49,0.93c0.1,0.34,0.13,0.69,0.09,1.05
		c-0.04,0.36-0.14,0.69-0.32,1c-0.17,0.31-0.4,0.58-0.68,0.81c-0.28,0.22-0.59,0.39-0.93,0.49s-0.69,0.13-1.05,0.09
		c-0.36-0.04-0.69-0.15-1-0.32c-0.31-0.17-0.58-0.4-0.81-0.68c-0.22-0.28-0.39-0.59-0.48-0.93c-0.1-0.34-0.13-0.69-0.09-1.05
		c0.04-0.36,0.14-0.69,0.32-1c0.17-0.31,0.4-0.58,0.68-0.81c0.28-0.22,0.59-0.39,0.93-0.49c0.34-0.1,0.69-0.13,1.05-0.09
		S27.74,0.16,28.05,0.33z"/>
	<path class="st2" d="M52.32,20.59c-0.41-0.22-0.84-0.32-1.31-0.31c-0.66-0.02-1.2,0.23-1.59,0.77c-0.44,0.64-0.63,1.34-0.59,2.11
		v4.86h-2.95V17.91h2.95v1.9h0.04c0.49-1.38,1.38-2.07,2.66-2.07c0.27-0.01,0.54,0.03,0.8,0.12V20.59z"/>
	<path class="st2" d="M57.54,23.44c-1.06,0.14-1.6,0.61-1.6,1.43c-0.01,0.36,0.11,0.67,0.39,0.91c0.3,0.26,0.65,0.38,1.05,0.36
		c0.6,0.02,1.09-0.2,1.49-0.64c0.41-0.45,0.6-0.98,0.58-1.59V23.2L57.54,23.44z M54.21,18.52c0.58-0.3,1.19-0.51,1.83-0.62
		c0.64-0.15,1.3-0.22,1.96-0.24c2.82,0,4.23,1.42,4.23,4.25v6.1h-2.8v-1.47h-0.04c-0.3,0.55-0.72,0.98-1.27,1.29
		c-0.54,0.31-1.13,0.45-1.75,0.43c-0.88,0.04-1.64-0.23-2.3-0.82c-0.62-0.61-0.91-1.35-0.87-2.23c0-1.94,1.15-3.06,3.46-3.38
		l2.77-0.36c0-1.18-0.61-1.77-1.84-1.77c-1.25,0.01-2.38,0.37-3.4,1.1L54.21,18.52z"/>
	<path class="st2" d="M64.63,25.3c0.9,0.59,1.89,0.89,2.97,0.92c1.22,0,1.82-0.33,1.82-0.98c0-0.48-0.5-0.86-1.5-1.16
		c-1.24-0.39-2.1-0.82-2.57-1.3c-0.51-0.55-0.75-1.19-0.71-1.94c-0.01-0.47,0.09-0.91,0.3-1.32c0.21-0.42,0.52-0.75,0.91-1.01
		c0.96-0.62,2.01-0.9,3.16-0.85c0.91,0,1.8,0.14,2.67,0.41v2.31c-0.8-0.47-1.66-0.71-2.59-0.7c-0.4-0.02-0.78,0.07-1.13,0.25
		c-0.28,0.13-0.42,0.35-0.43,0.66c0,0.46,0.42,0.84,1.28,1.12c0.71,0.22,1.39,0.5,2.06,0.83c0.44,0.23,0.79,0.56,1.05,0.99
		c0.25,0.44,0.37,0.92,0.36,1.43c0.02,0.49-0.08,0.95-0.31,1.38c-0.22,0.43-0.54,0.78-0.94,1.05c-0.82,0.57-1.93,0.85-3.32,0.85
		c-1.05,0.02-2.07-0.15-3.05-0.5V25.3z"/>
	<path class="st2" d="M77.18,23.56c-0.03,0.66,0.17,1.25,0.59,1.77c0.39,0.46,0.89,0.68,1.5,0.67c0.34,0.01,0.66-0.06,0.97-0.21
		c0.31-0.15,0.56-0.37,0.75-0.65c0.46-0.74,0.67-1.56,0.61-2.43c0-1.85-0.72-2.78-2.16-2.78c-0.67-0.02-1.22,0.24-1.64,0.77
		c-0.46,0.58-0.67,1.24-0.64,1.97L77.18,23.56z M77.23,26.82v5.85h-2.96V17.91h2.95v1.54h0.04c0.17-0.26,0.36-0.49,0.58-0.7
		c0.22-0.21,0.46-0.39,0.73-0.55c0.26-0.16,0.54-0.28,0.83-0.37c0.29-0.09,0.59-0.15,0.9-0.17c0.31-0.02,0.61-0.01,0.91,0.04
		c0.3,0.05,0.59,0.13,0.88,0.25c0.28,0.12,0.55,0.26,0.8,0.44c0.25,0.18,0.47,0.38,0.67,0.61c0.71,0.9,1.07,2.13,1.07,3.67
		c0,1.69-0.42,3.04-1.26,4.06c-0.4,0.5-0.89,0.88-1.47,1.14c-0.58,0.27-1.19,0.39-1.82,0.37c-0.56,0.03-1.09-0.08-1.6-0.34
		c-0.5-0.26-0.91-0.62-1.21-1.09H77.23z"/>
	<path class="st2" d="M89.26,22.97c0,2.02,0.82,3.03,2.46,3.03c1.58,0,2.36-1.04,2.36-3.11c0-1.97-0.79-2.96-2.38-2.96
		c-0.73-0.03-1.32,0.23-1.79,0.8C89.44,21.4,89.22,22.14,89.26,22.97L89.26,22.97z M86.28,23.01c0-1.67,0.5-2.98,1.49-3.93
		c1-0.95,2.33-1.43,4.01-1.43c1.62,0,2.91,0.47,3.87,1.41c0.96,0.94,1.43,2.19,1.43,3.77c0,1.66-0.49,2.98-1.47,3.96
		c-0.98,0.98-2.3,1.47-3.97,1.47s-2.95-0.47-3.91-1.43S86.28,24.63,86.28,23.01z"/>
	<rect x="99.26" y="13.06" class="st2" width="2.94" height="14.96"/>
	<path class="st2" d="M107.37,22.97c0,2.02,0.82,3.03,2.47,3.03c1.57,0,2.36-1.04,2.36-3.11c0-1.97-0.79-2.96-2.38-2.96
		c-0.73-0.03-1.32,0.23-1.79,0.8C107.54,21.39,107.32,22.14,107.37,22.97z M104.39,23.01c0-1.67,0.5-2.98,1.49-3.93
		c0.99-0.95,2.33-1.43,4.01-1.43c1.63,0,2.92,0.47,3.87,1.41c0.95,0.94,1.43,2.19,1.43,3.77c0,1.66-0.49,2.98-1.47,3.96
		s-2.3,1.47-3.97,1.47s-2.95-0.47-3.91-1.43C104.87,25.86,104.39,24.63,104.39,23.01z"/>
	<path class="st2" d="M124.26,22.31c0.02-0.64-0.18-1.21-0.61-1.69c-0.4-0.47-0.91-0.7-1.53-0.69c-0.34-0.01-0.66,0.06-0.96,0.21
		c-0.3,0.15-0.55,0.36-0.74,0.64c-0.47,0.72-0.68,1.51-0.63,2.37c-0.04,0.77,0.16,1.46,0.6,2.09c0.4,0.53,0.93,0.78,1.6,0.76
		c0.68,0.02,1.22-0.24,1.64-0.78c0.45-0.6,0.66-1.27,0.63-2.02V22.31z M127.18,26.9c0,1.88-0.53,3.32-1.6,4.34
		c-1.07,1.01-2.61,1.52-4.61,1.52c-1.13,0.05-2.21-0.15-3.25-0.59v-2.5c0.97,0.59,2.03,0.9,3.17,0.91c0.94,0.06,1.76-0.22,2.47-0.84
		c0.65-0.65,0.95-1.43,0.89-2.35v-0.86h-0.05c-0.33,0.56-0.78,1-1.35,1.31c-0.57,0.31-1.18,0.45-1.83,0.42
		c-0.59,0.02-1.15-0.09-1.68-0.33c-0.54-0.24-0.99-0.58-1.37-1.04c-0.76-0.91-1.14-2.12-1.14-3.64c0-1.7,0.42-3.06,1.26-4.07
		c0.4-0.5,0.9-0.88,1.48-1.15c0.58-0.27,1.19-0.39,1.84-0.37c0.56-0.03,1.09,0.09,1.59,0.35c0.5,0.26,0.9,0.63,1.2,1.11h0.06v-1.21
		h2.94L127.18,26.9z"/>
	<path class="st2" d="M129.95,28.03V17.91h2.94v10.11L129.95,28.03z M129.73,14.66c-0.02-0.44,0.14-0.81,0.48-1.1
		c0.35-0.3,0.76-0.44,1.23-0.43c0.47-0.02,0.88,0.12,1.24,0.44c0.33,0.29,0.49,0.65,0.47,1.09c0.01,0.44-0.15,0.82-0.48,1.11
		c-0.35,0.31-0.76,0.46-1.23,0.44c-0.47,0.02-0.88-0.13-1.22-0.45C129.88,15.47,129.72,15.1,129.73,14.66z"/>
	<path class="st2" d="M143.24,27.64c-0.71,0.41-1.72,0.62-3.01,0.62c-0.69,0.03-1.36-0.08-2.01-0.32s-1.22-0.61-1.72-1.08
		c-0.48-0.48-0.85-1.04-1.09-1.67c-0.25-0.63-0.36-1.29-0.33-1.97c0-1.72,0.51-3.07,1.53-4.06c1.02-0.99,2.38-1.49,4.08-1.49
		c1.15,0,2,0.16,2.56,0.48v2.53c-0.65-0.49-1.38-0.74-2.2-0.74c-0.84-0.04-1.56,0.24-2.17,0.82c-0.59,0.64-0.86,1.39-0.81,2.26
		c-0.05,0.84,0.21,1.57,0.77,2.19c0.59,0.57,1.29,0.84,2.11,0.8c0.84-0.01,1.61-0.26,2.3-0.75V27.64z"/>
	<path class="st2" d="M40.43,12.74c0.2-0.68,0.26-1.38,0.18-2.08c-0.08-0.71-0.29-1.37-0.64-1.99c-0.32-0.63-0.76-1.16-1.32-1.59
		c-0.55-0.44-1.17-0.74-1.86-0.91c-1.79-0.48-3.35-0.19-4.69,0.86c-1.34,1.05-2.32,2.72-2.92,5.01c-0.52,1.97-0.47,3.69,0.17,5.16
		c0.29,0.72,0.73,1.33,1.32,1.84c0.59,0.51,1.26,0.85,2.01,1.02c0.75,0.22,1.5,0.27,2.27,0.14c0.77-0.13,1.47-0.41,2.11-0.86
		c0.68-0.48,1.26-1.06,1.72-1.76c0.46-0.69,0.78-1.45,0.96-2.27L40.43,12.74z M41.2,23.09c-1.82,6.87-6.06,9.41-12.71,7.64
		c-2.11-0.51-4-1.47-5.65-2.89l0.84-3.17c1.76,1.7,3.59,2.8,5.49,3.31c4.5,1.19,7.38-0.58,8.64-5.31l0.52-1.96h-0.06
		c-2.03,1.95-4.44,2.56-7.23,1.82c-2.32-0.62-3.96-1.95-4.92-3.98c-0.95-2.04-1.07-4.43-0.34-7.18c0.84-3.16,2.28-5.46,4.31-6.91
		s4.33-1.82,6.9-1.14c2.47,0.65,4.04,2.12,4.71,4.41h0.07l0.67-2.5L45.7,6.1L41.2,23.09z"/>
	<polygon class="st0" points="34.8,15.88 28.62,14.04 31.14,17.86 	"/>
	<polygon class="st0" points="28.62,14.04 30.88,11.03 34.8,15.88 	"/>
	<polygon class="st0" points="33.94,8.78 31.71,7.55 30.88,11.03 	"/>
	<polygon class="st0" points="37.19,12.65 33.94,8.78 30.88,11.03 	"/>
	<polygon class="st0" points="34.01,6.73 33.94,8.78 37.19,12.65 	"/>
	<path class="st1" d="M34.61,7.56c0.16,0.09,0.3,0.2,0.41,0.35s0.2,0.3,0.25,0.48c0.05,0.18,0.07,0.36,0.05,0.54
		c-0.02,0.18-0.07,0.35-0.16,0.52c-0.09,0.16-0.2,0.3-0.35,0.41c-0.14,0.12-0.3,0.2-0.48,0.25c-0.18,0.05-0.36,0.07-0.54,0.05
		c-0.18-0.02-0.35-0.07-0.52-0.16c-0.16-0.09-0.3-0.2-0.41-0.35c-0.11-0.14-0.2-0.3-0.25-0.48s-0.07-0.36-0.05-0.54
		c0.02-0.18,0.07-0.35,0.16-0.52c0.09-0.16,0.2-0.3,0.35-0.41c0.14-0.11,0.3-0.2,0.48-0.25c0.18-0.05,0.36-0.07,0.54-0.05
		C34.27,7.42,34.45,7.47,34.61,7.56z"/>
	<path class="st1" d="M37.85,11.44c0.16,0.09,0.3,0.2,0.41,0.35s0.2,0.3,0.25,0.48c0.05,0.18,0.07,0.36,0.05,0.54
		c-0.02,0.18-0.07,0.35-0.16,0.52c-0.09,0.16-0.2,0.3-0.35,0.41c-0.14,0.11-0.3,0.2-0.48,0.25c-0.18,0.05-0.36,0.07-0.54,0.05
		c-0.18-0.02-0.35-0.07-0.52-0.16s-0.3-0.2-0.41-0.35s-0.2-0.3-0.25-0.48c-0.05-0.18-0.07-0.36-0.05-0.54
		c0.02-0.18,0.07-0.35,0.16-0.52c0.09-0.16,0.2-0.3,0.35-0.41c0.14-0.12,0.3-0.2,0.48-0.25c0.18-0.05,0.36-0.07,0.54-0.05
		S37.69,11.35,37.85,11.44z"/>
	<path class="st1" d="M31.54,9.81c0.16,0.09,0.3,0.2,0.41,0.35c0.11,0.14,0.2,0.3,0.25,0.48c0.05,0.18,0.07,0.36,0.05,0.54
		c-0.02,0.18-0.07,0.35-0.16,0.52c-0.09,0.16-0.2,0.3-0.35,0.41c-0.14,0.12-0.3,0.2-0.48,0.25c-0.18,0.05-0.36,0.07-0.54,0.05
		c-0.18-0.02-0.35-0.07-0.52-0.16c-0.16-0.09-0.3-0.2-0.41-0.35c-0.11-0.14-0.2-0.3-0.25-0.48c-0.05-0.18-0.07-0.36-0.05-0.54
		c0.02-0.18,0.07-0.35,0.16-0.52c0.09-0.16,0.2-0.3,0.35-0.41s0.3-0.2,0.48-0.25c0.18-0.05,0.36-0.07,0.54-0.05
		C31.21,9.67,31.38,9.72,31.54,9.81z"/>
	<path class="st1" d="M35.47,14.66c0.16,0.09,0.3,0.2,0.41,0.35c0.11,0.14,0.2,0.3,0.25,0.48c0.05,0.18,0.07,0.36,0.05,0.54
		c-0.02,0.18-0.07,0.35-0.16,0.52c-0.09,0.16-0.2,0.3-0.35,0.41c-0.14,0.12-0.3,0.2-0.48,0.25c-0.18,0.05-0.36,0.07-0.54,0.05
		s-0.35-0.07-0.52-0.16c-0.16-0.09-0.3-0.2-0.41-0.35c-0.11-0.14-0.2-0.3-0.25-0.48c-0.05-0.18-0.07-0.36-0.05-0.54
		c0.02-0.18,0.07-0.35,0.16-0.52c0.09-0.16,0.2-0.3,0.35-0.41c0.14-0.12,0.3-0.2,0.48-0.25c0.18-0.05,0.36-0.07,0.54-0.05
		C35.14,14.51,35.31,14.57,35.47,14.66z"/>
	<path class="st1" d="M29.78,13.27c0.1,0.15,0.17,0.32,0.2,0.5c0.03,0.18,0.03,0.36,0,0.54c-0.04,0.18-0.11,0.35-0.21,0.5
		c-0.1,0.15-0.23,0.28-0.39,0.38c-0.15,0.1-0.32,0.17-0.5,0.2c-0.18,0.03-0.36,0.03-0.54,0c-0.18-0.04-0.35-0.11-0.5-0.21
		c-0.15-0.1-0.28-0.23-0.38-0.39c-0.1-0.15-0.17-0.32-0.2-0.5c-0.03-0.18-0.03-0.36,0-0.54c0.04-0.18,0.11-0.35,0.21-0.5
		s0.23-0.28,0.38-0.38s0.32-0.17,0.5-0.2s0.36-0.03,0.54,0c0.18,0.04,0.35,0.11,0.5,0.21C29.55,12.99,29.68,13.12,29.78,13.27z"/>
	<path class="st1" d="M28.05,16.28c0.31,0.17,0.58,0.4,0.81,0.68c0.22,0.28,0.39,0.59,0.49,0.93s0.13,0.69,0.09,1.05
		c-0.04,0.36-0.14,0.69-0.32,1s-0.4,0.58-0.68,0.81s-0.59,0.39-0.93,0.49c-0.34,0.1-0.69,0.13-1.05,0.09
		c-0.36-0.04-0.69-0.14-1-0.32c-0.31-0.17-0.58-0.4-0.81-0.68c-0.22-0.28-0.39-0.59-0.49-0.93c-0.1-0.34-0.13-0.69-0.09-1.05
		c0.04-0.36,0.14-0.69,0.32-1c0.17-0.31,0.4-0.58,0.68-0.81c0.28-0.22,0.59-0.39,0.93-0.49s0.69-0.13,1.05-0.09
		C27.4,16,27.74,16.1,28.05,16.28z"/>
	<path class="st1" d="M32.45,17.19c0.1,0.15,0.17,0.32,0.2,0.5c0.03,0.18,0.03,0.36,0,0.54c-0.04,0.18-0.11,0.35-0.21,0.5
		c-0.1,0.15-0.23,0.28-0.39,0.38c-0.15,0.1-0.32,0.17-0.5,0.2c-0.18,0.03-0.36,0.03-0.54-0.01c-0.18-0.04-0.35-0.11-0.5-0.21
		c-0.15-0.1-0.28-0.23-0.38-0.39c-0.1-0.15-0.17-0.32-0.2-0.5c-0.03-0.18-0.03-0.36,0-0.54c0.04-0.18,0.11-0.35,0.21-0.5
		c0.1-0.15,0.23-0.28,0.39-0.38s0.32-0.17,0.5-0.2c0.18-0.03,0.36-0.03,0.54,0.01c0.18,0.04,0.35,0.11,0.5,0.21
		C32.22,16.9,32.35,17.03,32.45,17.19z"/>
	<line class="st0" x1="91.14" y1="56.45" x2="81.23" y2="52.55"/>
	<line class="st0" x1="69.08" y1="42.53" x2="77.81" y2="45.78"/>
	<path class="st1" d="M46.28,51.3c0.31,0.17,0.58,0.4,0.81,0.68c0.22,0.28,0.39,0.59,0.49,0.93c0.1,0.34,0.13,0.69,0.09,1.05
		c-0.04,0.36-0.14,0.69-0.32,1c-0.17,0.31-0.4,0.58-0.68,0.81c-0.28,0.22-0.59,0.39-0.93,0.49c-0.34,0.1-0.69,0.13-1.05,0.09
		c-0.36-0.04-0.69-0.15-1-0.32c-0.31-0.17-0.58-0.4-0.81-0.68c-0.22-0.28-0.39-0.59-0.48-0.93c-0.1-0.34-0.13-0.69-0.09-1.05
		c0.04-0.36,0.14-0.69,0.32-1c0.17-0.31,0.4-0.58,0.68-0.81c0.28-0.22,0.59-0.39,0.93-0.49c0.34-0.1,0.69-0.13,1.05-0.09
		C45.63,51.02,45.97,51.13,46.28,51.3z"/>
	<path class="st1" d="M38.44,52.65c0.16,0.09,0.3,0.2,0.41,0.35c0.11,0.14,0.2,0.3,0.25,0.48c0.05,0.18,0.07,0.36,0.05,0.54
		c-0.02,0.18-0.07,0.35-0.16,0.52c-0.09,0.16-0.2,0.3-0.35,0.41c-0.14,0.12-0.3,0.2-0.48,0.25c-0.18,0.05-0.36,0.07-0.54,0.05
		s-0.35-0.07-0.52-0.16c-0.16-0.09-0.3-0.2-0.41-0.35c-0.11-0.14-0.2-0.3-0.25-0.48s-0.07-0.36-0.05-0.54
		c0.02-0.18,0.07-0.36,0.16-0.52s0.2-0.3,0.35-0.41c0.14-0.12,0.3-0.2,0.48-0.25c0.18-0.05,0.36-0.07,0.54-0.05
		C38.11,52.5,38.28,52.56,38.44,52.65z"/>
	<path class="st1" d="M117.13,66.93c0.31,0.17,0.58,0.4,0.81,0.68c0.22,0.28,0.39,0.59,0.49,0.93c0.1,0.34,0.13,0.69,0.09,1.05
		c-0.04,0.36-0.15,0.69-0.32,1s-0.4,0.58-0.68,0.81c-0.28,0.22-0.59,0.39-0.93,0.49c-0.34,0.1-0.69,0.13-1.05,0.09
		c-0.36-0.04-0.69-0.15-1-0.32c-0.31-0.17-0.58-0.4-0.81-0.68c-0.22-0.28-0.39-0.59-0.49-0.93c-0.1-0.34-0.13-0.69-0.09-1.05
		c0.04-0.36,0.15-0.69,0.32-1c0.17-0.31,0.4-0.58,0.68-0.81c0.28-0.22,0.59-0.39,0.93-0.49c0.34-0.1,0.69-0.13,1.05-0.09
		C116.48,66.66,116.81,66.76,117.13,66.93z"/>
	<path class="st1" d="M140.94,59.17c0.23,0.13,0.45,0.28,0.65,0.45c0.2,0.17,0.39,0.36,0.55,0.57c0.17,0.21,0.31,0.43,0.43,0.66
		c0.12,0.24,0.22,0.48,0.29,0.74c0.07,0.26,0.12,0.52,0.15,0.78c0.02,0.26,0.02,0.53-0.01,0.79s-0.08,0.52-0.16,0.78
		c-0.08,0.25-0.18,0.5-0.31,0.73c-0.13,0.23-0.28,0.45-0.45,0.65c-0.17,0.2-0.36,0.39-0.57,0.55c-0.21,0.17-0.43,0.31-0.66,0.43
		c-0.24,0.12-0.48,0.22-0.74,0.3c-0.25,0.07-0.51,0.12-0.78,0.15s-0.53,0.02-0.79-0.01c-0.26-0.03-0.52-0.08-0.78-0.16
		c-0.25-0.08-0.5-0.18-0.73-0.31c-0.23-0.13-0.45-0.28-0.65-0.45c-0.2-0.17-0.39-0.36-0.55-0.57c-0.17-0.21-0.31-0.43-0.43-0.66
		c-0.12-0.24-0.22-0.48-0.29-0.74c-0.07-0.26-0.12-0.52-0.15-0.78c-0.02-0.26-0.02-0.53,0.01-0.79c0.03-0.26,0.08-0.52,0.16-0.78
		c0.08-0.25,0.18-0.5,0.31-0.73c0.13-0.23,0.28-0.45,0.45-0.65c0.17-0.2,0.36-0.39,0.57-0.55c0.21-0.17,0.43-0.31,0.66-0.43
		c0.24-0.12,0.48-0.22,0.74-0.3c0.26-0.07,0.51-0.12,0.78-0.15c0.26-0.02,0.53-0.02,0.79,0.01c0.26,0.03,0.52,0.08,0.78,0.16
		S140.71,59.04,140.94,59.17z"/>
	<path class="st1" d="M126.43,51.74c0.31,0.17,0.58,0.4,0.81,0.68c0.22,0.28,0.39,0.59,0.48,0.93c0.1,0.34,0.13,0.69,0.09,1.05
		c-0.04,0.36-0.15,0.69-0.32,1c-0.17,0.31-0.4,0.58-0.68,0.81c-0.28,0.22-0.59,0.39-0.93,0.49c-0.34,0.1-0.69,0.13-1.05,0.09
		c-0.36-0.04-0.69-0.15-1-0.32c-0.31-0.17-0.58-0.4-0.81-0.68c-0.22-0.28-0.39-0.59-0.49-0.93c-0.1-0.34-0.13-0.69-0.09-1.05
		c0.04-0.36,0.14-0.69,0.32-1c0.17-0.31,0.4-0.58,0.68-0.81c0.28-0.22,0.59-0.39,0.93-0.49c0.34-0.1,0.69-0.13,1.05-0.09
		C125.78,51.46,126.11,51.57,126.43,51.74z"/>
	<path class="st1" d="M138.58,49.44c0.23,0.13,0.45,0.28,0.65,0.45c0.2,0.17,0.39,0.36,0.55,0.57c0.17,0.21,0.31,0.43,0.43,0.66
		c0.12,0.24,0.22,0.48,0.29,0.74s0.12,0.52,0.15,0.78s0.02,0.53-0.01,0.79c-0.03,0.26-0.08,0.52-0.16,0.78
		c-0.08,0.25-0.18,0.5-0.31,0.73c-0.13,0.23-0.28,0.45-0.45,0.65c-0.17,0.2-0.36,0.39-0.57,0.55c-0.21,0.17-0.43,0.31-0.66,0.43
		c-0.24,0.12-0.48,0.22-0.74,0.3c-0.26,0.07-0.51,0.12-0.78,0.15s-0.53,0.02-0.79-0.01c-0.26-0.03-0.52-0.08-0.78-0.16
		s-0.5-0.18-0.73-0.31c-0.23-0.13-0.45-0.28-0.65-0.45c-0.2-0.17-0.39-0.36-0.55-0.57c-0.17-0.21-0.31-0.43-0.43-0.66
		c-0.12-0.24-0.22-0.48-0.29-0.74c-0.07-0.26-0.12-0.52-0.15-0.78c-0.02-0.26-0.02-0.53,0.01-0.79c0.03-0.26,0.08-0.52,0.16-0.78
		c0.08-0.25,0.18-0.5,0.31-0.73c0.13-0.23,0.28-0.45,0.45-0.65c0.17-0.2,0.36-0.39,0.57-0.55c0.21-0.17,0.43-0.31,0.66-0.43
		c0.24-0.12,0.48-0.22,0.74-0.3c0.25-0.07,0.51-0.12,0.78-0.15s0.53-0.02,0.79,0.01c0.26,0.03,0.52,0.08,0.78,0.16
		S138.35,49.31,138.58,49.44z"/>
	<path class="st1" d="M131.33,59.29c0.16,0.09,0.3,0.2,0.41,0.35c0.11,0.14,0.2,0.3,0.25,0.48c0.05,0.18,0.07,0.36,0.05,0.54
		c-0.02,0.18-0.07,0.35-0.16,0.52c-0.09,0.16-0.2,0.3-0.35,0.41c-0.14,0.11-0.3,0.2-0.48,0.25c-0.18,0.05-0.36,0.07-0.54,0.05
		c-0.18-0.02-0.35-0.07-0.52-0.16c-0.16-0.09-0.3-0.2-0.41-0.35c-0.11-0.14-0.2-0.3-0.25-0.48s-0.07-0.36-0.05-0.54
		c0.02-0.18,0.07-0.35,0.16-0.52c0.09-0.16,0.2-0.3,0.35-0.41c0.14-0.12,0.3-0.2,0.48-0.25c0.18-0.05,0.36-0.07,0.54-0.05
		S131.17,59.2,131.33,59.29z"/>
	<path class="st1" d="M127.07,65.28c0.31,0.17,0.58,0.4,0.81,0.68c0.22,0.28,0.39,0.59,0.49,0.93c0.1,0.34,0.13,0.69,0.09,1.05
		c-0.04,0.36-0.15,0.69-0.32,1c-0.17,0.31-0.4,0.58-0.68,0.81c-0.28,0.22-0.59,0.39-0.93,0.49c-0.34,0.1-0.69,0.13-1.05,0.09
		c-0.36-0.04-0.69-0.15-1-0.32c-0.31-0.17-0.58-0.4-0.81-0.68c-0.22-0.28-0.39-0.59-0.48-0.93s-0.13-0.69-0.09-1.05
		c0.04-0.36,0.15-0.69,0.32-1c0.17-0.31,0.4-0.58,0.68-0.81c0.28-0.22,0.59-0.39,0.93-0.49c0.34-0.1,0.69-0.13,1.05-0.09
		C126.43,65,126.76,65.1,127.07,65.28z"/>
	<path class="st1" d="M120.64,58.87c0.16,0.09,0.3,0.2,0.41,0.35c0.11,0.14,0.2,0.3,0.25,0.48s0.07,0.36,0.05,0.54
		s-0.07,0.35-0.16,0.52c-0.09,0.16-0.2,0.3-0.35,0.41c-0.14,0.12-0.3,0.2-0.48,0.25c-0.18,0.05-0.36,0.07-0.54,0.05
		s-0.35-0.07-0.52-0.16c-0.16-0.09-0.3-0.2-0.41-0.35c-0.11-0.14-0.2-0.3-0.25-0.48c-0.05-0.18-0.07-0.36-0.05-0.54
		c0.02-0.18,0.07-0.36,0.16-0.52c0.09-0.16,0.2-0.3,0.35-0.41c0.14-0.11,0.3-0.2,0.48-0.25c0.18-0.05,0.36-0.07,0.54-0.05
		C120.3,58.73,120.48,58.79,120.64,58.87z"/>
	<path class="st1" d="M90.98,47.6c0.31,0.17,0.58,0.4,0.81,0.68c0.22,0.28,0.39,0.59,0.48,0.93c0.1,0.34,0.13,0.69,0.09,1.05
		s-0.14,0.69-0.32,1c-0.17,0.31-0.4,0.58-0.68,0.81c-0.28,0.22-0.59,0.39-0.93,0.49c-0.34,0.1-0.69,0.13-1.05,0.09
		c-0.36-0.04-0.69-0.15-1-0.32c-0.31-0.17-0.58-0.4-0.81-0.68c-0.22-0.28-0.39-0.59-0.48-0.93c-0.1-0.34-0.13-0.69-0.09-1.05
		c0.04-0.36,0.15-0.69,0.32-1c0.17-0.31,0.4-0.58,0.68-0.81c0.28-0.22,0.59-0.39,0.93-0.49c0.34-0.1,0.69-0.13,1.05-0.09
		C90.33,47.32,90.66,47.43,90.98,47.6z"/>
	<path class="st1" d="M102.13,57.2c0.16,0.09,0.3,0.2,0.41,0.35c0.11,0.14,0.2,0.3,0.25,0.48c0.05,0.18,0.07,0.36,0.05,0.54
		c-0.02,0.18-0.07,0.36-0.16,0.52c-0.09,0.16-0.2,0.3-0.35,0.41c-0.14,0.12-0.3,0.2-0.48,0.25c-0.18,0.05-0.36,0.07-0.54,0.05
		c-0.18-0.02-0.35-0.07-0.52-0.16c-0.16-0.09-0.3-0.2-0.41-0.35c-0.11-0.14-0.2-0.3-0.25-0.48c-0.05-0.18-0.07-0.36-0.05-0.54
		c0.02-0.18,0.07-0.35,0.16-0.52c0.09-0.16,0.2-0.3,0.35-0.41c0.14-0.11,0.3-0.2,0.48-0.25c0.18-0.05,0.36-0.07,0.54-0.05
		C101.8,57.06,101.97,57.12,102.13,57.2z"/>
	<path class="st1" d="M111.93,58.88c0.16,0.09,0.3,0.2,0.41,0.35c0.11,0.14,0.2,0.3,0.25,0.48c0.05,0.18,0.07,0.36,0.05,0.54
		c-0.02,0.18-0.07,0.35-0.16,0.52c-0.09,0.16-0.2,0.3-0.35,0.41c-0.14,0.11-0.3,0.2-0.48,0.25c-0.18,0.05-0.36,0.07-0.54,0.05
		c-0.18-0.02-0.35-0.07-0.52-0.16s-0.3-0.2-0.41-0.35c-0.11-0.14-0.2-0.3-0.25-0.48s-0.07-0.36-0.05-0.54s0.07-0.36,0.16-0.52
		c0.09-0.16,0.2-0.3,0.35-0.41c0.14-0.12,0.3-0.2,0.48-0.25c0.18-0.05,0.36-0.07,0.54-0.05C111.6,58.73,111.77,58.79,111.93,58.88z"
		/>
	<path class="st1" d="M106.31,65.4c0.31,0.17,0.58,0.4,0.8,0.68c0.22,0.28,0.39,0.59,0.49,0.93c0.1,0.34,0.13,0.69,0.09,1.05
		c-0.04,0.36-0.14,0.69-0.32,1c-0.17,0.31-0.4,0.58-0.68,0.81c-0.28,0.22-0.59,0.39-0.93,0.49c-0.34,0.1-0.69,0.13-1.05,0.09
		c-0.36-0.04-0.69-0.15-1-0.32c-0.31-0.17-0.58-0.4-0.81-0.68s-0.39-0.59-0.49-0.93c-0.1-0.34-0.13-0.69-0.09-1.05
		c0.04-0.36,0.15-0.69,0.32-1c0.17-0.31,0.4-0.58,0.68-0.81c0.28-0.22,0.59-0.39,0.93-0.49c0.34-0.1,0.69-0.13,1.05-0.09
		C105.66,65.12,106,65.22,106.31,65.4z"/>
	<path class="st1" d="M95.69,61.7c0.31,0.17,0.58,0.4,0.81,0.68c0.22,0.28,0.39,0.59,0.49,0.93c0.1,0.34,0.13,0.69,0.09,1.05
		c-0.04,0.36-0.14,0.69-0.32,1s-0.4,0.58-0.68,0.81s-0.59,0.39-0.93,0.49c-0.34,0.1-0.69,0.13-1.05,0.09
		c-0.36-0.04-0.69-0.15-1-0.32c-0.31-0.17-0.58-0.4-0.81-0.68c-0.22-0.28-0.39-0.59-0.49-0.93c-0.1-0.34-0.13-0.69-0.09-1.05
		c0.04-0.36,0.14-0.69,0.32-1c0.17-0.31,0.4-0.58,0.68-0.81c0.28-0.22,0.59-0.39,0.93-0.49c0.34-0.1,0.69-0.13,1.05-0.09
		C95.04,61.42,95.38,61.53,95.69,61.7z"/>
	<path class="st1" d="M85.07,58.61c0.31,0.17,0.58,0.4,0.81,0.68c0.22,0.28,0.39,0.59,0.49,0.93c0.1,0.34,0.13,0.69,0.09,1.05
		c-0.04,0.36-0.15,0.69-0.32,1c-0.17,0.31-0.4,0.58-0.68,0.81c-0.28,0.22-0.59,0.39-0.93,0.49c-0.34,0.1-0.69,0.13-1.05,0.09
		c-0.36-0.04-0.69-0.15-1-0.32c-0.31-0.17-0.58-0.4-0.81-0.68c-0.22-0.28-0.39-0.59-0.49-0.93c-0.1-0.34-0.13-0.69-0.09-1.05
		c0.04-0.36,0.14-0.69,0.32-1c0.17-0.31,0.4-0.58,0.68-0.81c0.28-0.22,0.59-0.39,0.93-0.49c0.34-0.1,0.69-0.13,1.05-0.09
		C84.42,58.33,84.76,58.44,85.07,58.61z"/>
	<path class="st1" d="M113.82,50.18c0.31,0.17,0.58,0.4,0.81,0.68c0.22,0.28,0.39,0.59,0.48,0.93c0.1,0.34,0.13,0.69,0.09,1.05
		c-0.04,0.36-0.14,0.69-0.32,1c-0.17,0.31-0.4,0.58-0.68,0.81s-0.59,0.39-0.93,0.49c-0.34,0.1-0.69,0.13-1.05,0.09
		c-0.36-0.04-0.69-0.15-1-0.32c-0.31-0.17-0.58-0.4-0.81-0.68c-0.22-0.28-0.39-0.59-0.48-0.93c-0.1-0.34-0.13-0.69-0.09-1.05
		c0.04-0.36,0.15-0.69,0.32-1c0.17-0.31,0.4-0.58,0.68-0.81c0.28-0.22,0.59-0.39,0.93-0.49c0.34-0.1,0.69-0.13,1.05-0.09
		C113.17,49.9,113.51,50.01,113.82,50.18z"/>
	<path class="st1" d="M103.61,48.88c0.31,0.17,0.58,0.4,0.8,0.68c0.22,0.28,0.39,0.59,0.49,0.93c0.1,0.34,0.13,0.69,0.09,1.05
		c-0.04,0.36-0.14,0.69-0.32,1c-0.17,0.31-0.4,0.58-0.68,0.81c-0.28,0.22-0.59,0.39-0.93,0.49c-0.34,0.1-0.69,0.13-1.05,0.09
		c-0.36-0.04-0.69-0.15-1-0.32c-0.31-0.17-0.58-0.4-0.81-0.68s-0.39-0.59-0.49-0.93c-0.1-0.34-0.13-0.69-0.09-1.05
		c0.04-0.36,0.14-0.69,0.32-1c0.17-0.31,0.4-0.58,0.68-0.81c0.28-0.22,0.59-0.39,0.93-0.49c0.34-0.1,0.69-0.13,1.05-0.09
		C102.96,48.6,103.3,48.71,103.61,48.88z"/>
	<path class="st1" d="M91.8,55.23c0.16,0.09,0.3,0.2,0.41,0.35c0.11,0.14,0.2,0.3,0.25,0.48c0.05,0.18,0.07,0.36,0.05,0.54
		c-0.02,0.18-0.07,0.35-0.16,0.52c-0.09,0.16-0.2,0.3-0.35,0.41s-0.3,0.2-0.48,0.25c-0.18,0.05-0.36,0.07-0.54,0.05
		s-0.35-0.07-0.52-0.16c-0.16-0.09-0.3-0.2-0.41-0.35c-0.11-0.14-0.2-0.3-0.25-0.48c-0.05-0.18-0.07-0.36-0.05-0.54
		c0.02-0.18,0.07-0.35,0.16-0.52c0.09-0.16,0.2-0.3,0.35-0.41c0.14-0.12,0.3-0.2,0.48-0.25c0.18-0.05,0.36-0.07,0.54-0.05
		C91.47,55.09,91.64,55.14,91.8,55.23z"/>
	<path class="st1" d="M81.9,51.33c0.16,0.09,0.3,0.2,0.41,0.35c0.11,0.14,0.2,0.3,0.25,0.48c0.05,0.18,0.07,0.36,0.05,0.54
		c-0.02,0.18-0.07,0.35-0.16,0.52c-0.09,0.16-0.2,0.3-0.35,0.41c-0.14,0.12-0.3,0.2-0.48,0.25c-0.18,0.05-0.36,0.07-0.54,0.05
		s-0.35-0.07-0.52-0.16c-0.16-0.09-0.3-0.2-0.41-0.35c-0.11-0.14-0.2-0.3-0.25-0.48c-0.05-0.18-0.07-0.36-0.05-0.54
		c0.02-0.18,0.07-0.35,0.16-0.52c0.09-0.16,0.2-0.3,0.35-0.41c0.14-0.12,0.3-0.2,0.48-0.25c0.18-0.05,0.36-0.07,0.54-0.05
		S81.74,51.24,81.9,51.33z"/>
	<path class="st1" d="M79.11,43.42c0.31,0.17,0.58,0.4,0.81,0.68c0.22,0.28,0.39,0.59,0.48,0.93c0.1,0.34,0.13,0.69,0.09,1.05
		c-0.04,0.36-0.14,0.69-0.32,1c-0.17,0.31-0.4,0.58-0.68,0.81c-0.28,0.22-0.59,0.39-0.93,0.49c-0.34,0.1-0.69,0.13-1.05,0.09
		c-0.36-0.04-0.69-0.15-1-0.32c-0.31-0.17-0.58-0.4-0.81-0.68c-0.22-0.28-0.39-0.59-0.48-0.93c-0.1-0.34-0.13-0.69-0.09-1.05
		c0.04-0.36,0.14-0.69,0.32-1c0.17-0.31,0.4-0.58,0.68-0.81s0.59-0.39,0.93-0.49c0.34-0.1,0.69-0.13,1.05-0.09
		C78.46,43.14,78.8,43.25,79.11,43.42z"/>
	<path class="st1" d="M76.15,54.63c0.31,0.17,0.58,0.4,0.8,0.68c0.22,0.28,0.39,0.59,0.49,0.93c0.1,0.34,0.13,0.69,0.09,1.05
		c-0.04,0.36-0.14,0.69-0.32,1c-0.17,0.31-0.4,0.58-0.68,0.81c-0.28,0.22-0.59,0.39-0.93,0.49c-0.34,0.1-0.69,0.13-1.05,0.09
		c-0.36-0.04-0.69-0.15-1-0.32c-0.31-0.17-0.58-0.4-0.81-0.68c-0.22-0.28-0.39-0.59-0.49-0.93c-0.1-0.34-0.13-0.69-0.09-1.05
		c0.04-0.36,0.14-0.69,0.32-1c0.17-0.31,0.4-0.58,0.68-0.81c0.28-0.22,0.59-0.39,0.93-0.49c0.34-0.1,0.69-0.13,1.05-0.09
		C75.5,54.35,75.83,54.45,76.15,54.63z"/>
	<path class="st1" d="M66.66,51.01c0.31,0.17,0.58,0.4,0.81,0.68c0.22,0.28,0.39,0.59,0.49,0.93c0.1,0.34,0.13,0.69,0.09,1.05
		c-0.04,0.36-0.14,0.69-0.32,1c-0.17,0.31-0.4,0.58-0.68,0.81c-0.28,0.22-0.59,0.39-0.93,0.49c-0.34,0.1-0.69,0.13-1.05,0.09
		c-0.36-0.04-0.69-0.15-1-0.32c-0.31-0.17-0.58-0.4-0.81-0.68c-0.22-0.28-0.39-0.59-0.49-0.93c-0.1-0.34-0.13-0.69-0.09-1.05
		c0.04-0.36,0.14-0.69,0.32-1c0.17-0.31,0.4-0.58,0.68-0.81c0.28-0.22,0.59-0.39,0.93-0.49c0.34-0.1,0.69-0.13,1.05-0.09
		C66.01,50.73,66.34,50.84,66.66,51.01z"/>
	<path class="st1" d="M56.11,50.62c0.31,0.17,0.58,0.4,0.81,0.68c0.22,0.28,0.39,0.59,0.49,0.93c0.1,0.34,0.13,0.69,0.09,1.05
		c-0.04,0.36-0.14,0.69-0.32,1c-0.17,0.31-0.4,0.58-0.68,0.81c-0.28,0.22-0.59,0.39-0.93,0.49c-0.34,0.1-0.69,0.13-1.05,0.09
		c-0.36-0.04-0.69-0.15-1-0.32c-0.31-0.17-0.58-0.4-0.81-0.68c-0.22-0.28-0.39-0.59-0.49-0.93c-0.1-0.34-0.13-0.69-0.09-1.05
		c0.04-0.36,0.15-0.69,0.32-1c0.17-0.31,0.4-0.58,0.68-0.81c0.28-0.22,0.59-0.39,0.93-0.49c0.34-0.1,0.69-0.13,1.05-0.09
		C55.46,50.35,55.79,50.45,56.11,50.62z"/>
	<path class="st1" d="M72.22,48.75c0.16,0.09,0.3,0.2,0.41,0.35c0.11,0.14,0.2,0.3,0.25,0.48c0.05,0.18,0.07,0.36,0.05,0.54
		c-0.02,0.18-0.07,0.36-0.16,0.52c-0.09,0.16-0.2,0.3-0.35,0.41c-0.14,0.11-0.3,0.2-0.48,0.25c-0.18,0.05-0.36,0.07-0.54,0.05
		c-0.18-0.02-0.35-0.07-0.52-0.16c-0.16-0.09-0.3-0.2-0.41-0.35c-0.11-0.14-0.2-0.3-0.25-0.48c-0.05-0.18-0.07-0.36-0.05-0.54
		c0.02-0.18,0.07-0.35,0.16-0.52c0.09-0.16,0.2-0.3,0.35-0.41c0.14-0.12,0.3-0.2,0.48-0.25c0.18-0.05,0.36-0.07,0.54-0.05
		C71.88,48.61,72.06,48.66,72.22,48.75z"/>
	<path class="st1" d="M62.42,47.67c0.16,0.09,0.3,0.2,0.41,0.35c0.11,0.14,0.2,0.3,0.25,0.48c0.05,0.18,0.07,0.36,0.05,0.54
		c-0.02,0.18-0.07,0.35-0.16,0.52c-0.09,0.16-0.2,0.3-0.35,0.41c-0.14,0.12-0.3,0.2-0.48,0.25c-0.18,0.05-0.36,0.07-0.54,0.05
		s-0.35-0.07-0.52-0.16c-0.16-0.09-0.3-0.2-0.41-0.35c-0.11-0.14-0.2-0.3-0.25-0.48c-0.05-0.18-0.07-0.36-0.05-0.54
		c0.02-0.18,0.07-0.35,0.16-0.52c0.09-0.16,0.2-0.3,0.35-0.41c0.14-0.12,0.3-0.2,0.48-0.25c0.18-0.05,0.36-0.07,0.54-0.05
		S62.26,47.58,62.42,47.67z"/>
	<path class="st1" d="M30.4,51.58c0.16,0.09,0.3,0.2,0.41,0.35c0.11,0.14,0.2,0.3,0.25,0.48c0.05,0.18,0.07,0.36,0.05,0.54
		c-0.02,0.18-0.07,0.35-0.16,0.52c-0.09,0.16-0.2,0.3-0.35,0.41c-0.14,0.12-0.3,0.2-0.48,0.25c-0.18,0.05-0.36,0.07-0.54,0.05
		s-0.35-0.07-0.52-0.16c-0.16-0.09-0.3-0.2-0.41-0.35c-0.11-0.14-0.2-0.3-0.25-0.48c-0.05-0.18-0.07-0.36-0.05-0.54
		c0.02-0.18,0.07-0.35,0.16-0.52s0.2-0.3,0.35-0.41c0.14-0.11,0.3-0.2,0.48-0.25c0.18-0.05,0.36-0.07,0.54-0.05
		C30.07,51.43,30.24,51.49,30.4,51.58z"/>
	<path class="st1" d="M24.43,47.34c0.25,0.25,0.45,0.55,0.58,0.88c0.14,0.33,0.21,0.68,0.21,1.03c0,0.36-0.07,0.7-0.21,1.03
		c-0.14,0.33-0.33,0.62-0.58,0.88c-0.25,0.25-0.54,0.45-0.87,0.59c-0.33,0.14-0.67,0.21-1.03,0.21c-0.36,0-0.7-0.07-1.03-0.21
		c-0.33-0.14-0.62-0.33-0.87-0.59c-0.25-0.25-0.45-0.54-0.58-0.88c-0.14-0.33-0.21-0.68-0.21-1.03c0-0.36,0.07-0.7,0.21-1.03
		s0.33-0.62,0.58-0.88c0.25-0.25,0.54-0.45,0.87-0.59c0.33-0.14,0.67-0.21,1.03-0.21c0.36,0,0.7,0.07,1.03,0.21
		C23.88,46.89,24.17,47.09,24.43,47.34z"/>
	<path class="st1" d="M15.93,39.51c0.25,0.25,0.45,0.55,0.58,0.88c0.14,0.33,0.21,0.68,0.21,1.03s-0.07,0.7-0.21,1.03
		c-0.14,0.33-0.33,0.62-0.58,0.88c-0.25,0.25-0.54,0.45-0.87,0.59c-0.33,0.14-0.67,0.21-1.03,0.21c-0.36,0-0.7-0.07-1.03-0.21
		c-0.33-0.14-0.62-0.33-0.87-0.59c-0.25-0.25-0.45-0.55-0.58-0.88c-0.14-0.33-0.21-0.68-0.21-1.03s0.07-0.7,0.21-1.03
		c0.14-0.33,0.33-0.62,0.58-0.88c0.25-0.25,0.54-0.45,0.87-0.59c0.33-0.14,0.67-0.21,1.03-0.21c0.36,0,0.7,0.07,1.03,0.21
		C15.38,39.06,15.68,39.26,15.93,39.51z"/>
	<path class="st1" d="M7.35,30.92c0.25,0.25,0.45,0.55,0.58,0.88c0.14,0.33,0.21,0.68,0.21,1.03c0,0.36-0.07,0.7-0.21,1.03
		c-0.14,0.33-0.33,0.62-0.58,0.88c-0.25,0.25-0.54,0.45-0.87,0.59c-0.33,0.14-0.67,0.21-1.03,0.21c-0.36,0-0.7-0.07-1.03-0.21
		c-0.33-0.14-0.62-0.33-0.87-0.59c-0.25-0.25-0.45-0.55-0.58-0.88c-0.14-0.33-0.21-0.68-0.21-1.03c0-0.36,0.07-0.7,0.21-1.03
		c0.14-0.33,0.33-0.62,0.58-0.88c0.25-0.25,0.54-0.45,0.87-0.59c0.33-0.14,0.67-0.21,1.03-0.21c0.36,0,0.7,0.07,1.03,0.21
		C6.81,30.47,7.1,30.67,7.35,30.92z"/>
	<path class="st1" d="M4.6,20c0.25,0.25,0.45,0.54,0.58,0.88c0.14,0.33,0.21,0.68,0.21,1.03s-0.07,0.7-0.21,1.03
		c-0.14,0.33-0.33,0.62-0.58,0.88c-0.25,0.25-0.54,0.45-0.87,0.59c-0.33,0.14-0.67,0.21-1.03,0.21c-0.36,0-0.7-0.07-1.03-0.21
		c-0.33-0.14-0.62-0.33-0.87-0.59c-0.25-0.25-0.45-0.55-0.58-0.88C0.07,22.61,0,22.27,0,21.91s0.07-0.7,0.21-1.03
		c0.14-0.33,0.33-0.62,0.58-0.88c0.25-0.25,0.54-0.45,0.87-0.59c0.33-0.14,0.67-0.21,1.03-0.21c0.36,0,0.7,0.07,1.03,0.21
		C4.06,19.55,4.35,19.75,4.6,20z"/>
	<path class="st1" d="M6.95,7.16C7.21,7.42,7.4,7.71,7.54,8.04c0.14,0.33,0.21,0.68,0.21,1.03c0,0.36-0.07,0.7-0.21,1.03
		c-0.14,0.33-0.33,0.62-0.58,0.88c-0.25,0.25-0.54,0.45-0.87,0.59s-0.67,0.21-1.03,0.21c-0.36,0-0.7-0.07-1.03-0.21
		c-0.33-0.14-0.62-0.33-0.87-0.59c-0.25-0.25-0.45-0.55-0.58-0.88C2.42,9.77,2.35,9.43,2.35,9.07c0-0.36,0.07-0.7,0.21-1.03
		c0.14-0.33,0.33-0.62,0.58-0.88c0.25-0.25,0.54-0.45,0.87-0.59c0.33-0.14,0.67-0.21,1.03-0.21c0.36,0,0.7,0.07,1.03,0.21
		S6.7,6.91,6.95,7.16z"/>
	<path class="st3" d="M123.56,41.32c0.23,0.13,0.45,0.28,0.65,0.45c0.2,0.17,0.39,0.36,0.55,0.57c0.17,0.21,0.31,0.43,0.43,0.66
		s0.22,0.48,0.29,0.74s0.12,0.52,0.15,0.78c0.02,0.26,0.02,0.53-0.01,0.79c-0.03,0.26-0.08,0.52-0.16,0.78
		c-0.08,0.25-0.18,0.5-0.31,0.73c-0.13,0.23-0.28,0.45-0.45,0.65c-0.17,0.2-0.36,0.39-0.57,0.55s-0.43,0.31-0.66,0.43
		s-0.48,0.22-0.74,0.3c-0.25,0.07-0.51,0.12-0.78,0.15s-0.53,0.02-0.79-0.01c-0.26-0.03-0.52-0.08-0.78-0.16
		c-0.25-0.08-0.5-0.18-0.73-0.31c-0.23-0.13-0.45-0.28-0.65-0.45c-0.2-0.17-0.39-0.36-0.55-0.57c-0.17-0.21-0.31-0.43-0.43-0.66
		c-0.12-0.24-0.22-0.48-0.29-0.74s-0.12-0.52-0.15-0.78c-0.02-0.26-0.02-0.53,0.01-0.79s0.08-0.52,0.16-0.78
		c0.08-0.25,0.18-0.5,0.31-0.73c0.13-0.23,0.28-0.45,0.45-0.65c0.17-0.2,0.36-0.39,0.57-0.55c0.21-0.17,0.43-0.31,0.66-0.43
		c0.24-0.12,0.48-0.22,0.74-0.3s0.51-0.12,0.78-0.15c0.26-0.02,0.53-0.02,0.79,0.01s0.52,0.08,0.78,0.16
		C123.09,41.09,123.33,41.2,123.56,41.32z"/>
	<path class="st3" d="M140.07,44.1c0.31,0.17,0.58,0.4,0.81,0.68c0.22,0.28,0.39,0.59,0.49,0.93c0.1,0.34,0.13,0.69,0.09,1.05
		c-0.04,0.36-0.15,0.69-0.32,1c-0.17,0.31-0.4,0.58-0.68,0.81c-0.28,0.22-0.59,0.39-0.93,0.49c-0.34,0.1-0.69,0.13-1.05,0.09
		c-0.36-0.04-0.69-0.15-1-0.32c-0.31-0.17-0.58-0.4-0.81-0.68s-0.39-0.59-0.48-0.93s-0.13-0.69-0.09-1.05
		c0.04-0.36,0.14-0.69,0.32-1c0.17-0.31,0.4-0.58,0.68-0.81c0.28-0.22,0.59-0.39,0.93-0.49s0.69-0.13,1.05-0.09
		C139.42,43.82,139.76,43.92,140.07,44.1z"/>
	<path class="st3" d="M132.31,40.65c0.16,0.09,0.3,0.2,0.41,0.35c0.11,0.14,0.2,0.3,0.25,0.48c0.05,0.18,0.07,0.36,0.05,0.54
		c-0.02,0.18-0.07,0.35-0.16,0.52c-0.09,0.16-0.2,0.3-0.35,0.41c-0.14,0.12-0.3,0.2-0.48,0.25c-0.18,0.05-0.36,0.07-0.54,0.05
		s-0.35-0.07-0.52-0.16c-0.16-0.09-0.3-0.2-0.41-0.35c-0.11-0.14-0.2-0.3-0.25-0.48c-0.05-0.18-0.07-0.36-0.05-0.54
		c0.02-0.18,0.07-0.35,0.16-0.52c0.09-0.16,0.2-0.3,0.35-0.41c0.14-0.11,0.3-0.2,0.48-0.25c0.18-0.05,0.36-0.07,0.54-0.05
		C131.98,40.51,132.15,40.57,132.31,40.65z"/>
	<path class="st3" d="M109.85,43.44c0.19,0.31,0.31,0.65,0.37,1.02c0.06,0.36,0.04,0.72-0.05,1.08c-0.09,0.36-0.24,0.68-0.46,0.98
		c-0.22,0.3-0.48,0.54-0.8,0.73c-0.31,0.19-0.65,0.31-1.01,0.37c-0.36,0.06-0.72,0.04-1.08-0.05c-0.36-0.09-0.68-0.24-0.98-0.46
		c-0.3-0.22-0.54-0.48-0.73-0.8c-0.19-0.31-0.31-0.65-0.37-1.02c-0.06-0.36-0.04-0.72,0.05-1.08c0.09-0.36,0.24-0.68,0.46-0.98
		c0.22-0.3,0.48-0.54,0.8-0.73c0.31-0.19,0.65-0.31,1.01-0.37c0.36-0.06,0.72-0.04,1.08,0.05c0.36,0.09,0.68,0.24,0.98,0.46
		C109.41,42.86,109.66,43.12,109.85,43.44z"/>
	<path class="st3" d="M69.74,41.32c0.16,0.09,0.3,0.2,0.41,0.35c0.12,0.14,0.2,0.3,0.25,0.48c0.05,0.18,0.07,0.36,0.05,0.54
		c-0.02,0.18-0.07,0.35-0.16,0.52s-0.2,0.3-0.35,0.41c-0.14,0.12-0.3,0.2-0.48,0.25c-0.18,0.05-0.36,0.07-0.54,0.05
		c-0.18-0.02-0.35-0.07-0.52-0.16c-0.16-0.09-0.3-0.2-0.41-0.35c-0.11-0.14-0.2-0.3-0.25-0.48c-0.05-0.18-0.07-0.36-0.05-0.54
		c0.02-0.18,0.07-0.35,0.16-0.52c0.09-0.16,0.2-0.3,0.35-0.41c0.14-0.11,0.3-0.2,0.48-0.25c0.18-0.05,0.36-0.07,0.54-0.05
		C69.41,41.17,69.58,41.23,69.74,41.32z"/>
	<path class="st3" d="M31.92,38.19c0.16,0.09,0.3,0.2,0.41,0.35c0.11,0.14,0.2,0.3,0.25,0.48c0.05,0.18,0.07,0.36,0.05,0.54
		c-0.02,0.18-0.07,0.35-0.16,0.52c-0.09,0.16-0.2,0.3-0.35,0.41s-0.3,0.2-0.48,0.25s-0.36,0.07-0.54,0.05s-0.35-0.07-0.52-0.16
		c-0.16-0.09-0.3-0.2-0.41-0.35c-0.11-0.14-0.2-0.3-0.25-0.48s-0.07-0.36-0.05-0.54c0.02-0.18,0.07-0.35,0.16-0.52
		c0.09-0.16,0.2-0.3,0.35-0.41c0.14-0.12,0.3-0.2,0.48-0.25c0.18-0.05,0.36-0.07,0.54-0.05C31.59,38.05,31.76,38.11,31.92,38.19z"/>
	<path class="st3" d="M98.81,38.27c0.31,0.17,0.58,0.4,0.81,0.68c0.22,0.28,0.39,0.59,0.49,0.93c0.1,0.34,0.13,0.69,0.09,1.05
		c-0.04,0.36-0.15,0.69-0.32,1s-0.4,0.58-0.68,0.81c-0.28,0.22-0.59,0.39-0.93,0.49c-0.34,0.1-0.69,0.13-1.05,0.09
		c-0.36-0.04-0.69-0.15-1-0.32c-0.31-0.17-0.58-0.4-0.81-0.68s-0.39-0.59-0.49-0.93s-0.13-0.69-0.09-1.05
		c0.04-0.36,0.14-0.69,0.32-1c0.17-0.31,0.4-0.58,0.68-0.81c0.28-0.22,0.59-0.39,0.93-0.49c0.34-0.1,0.69-0.13,1.05-0.09
		C98.16,37.99,98.5,38.1,98.81,38.27z"/>
	<path class="st3" d="M26.99,40.84c0.31,0.17,0.58,0.4,0.81,0.68c0.22,0.28,0.39,0.59,0.48,0.93s0.13,0.69,0.09,1.05
		c-0.04,0.36-0.15,0.69-0.32,1c-0.17,0.31-0.4,0.58-0.68,0.81c-0.28,0.22-0.59,0.39-0.93,0.49c-0.34,0.1-0.69,0.13-1.05,0.09
		c-0.36-0.04-0.69-0.15-1-0.32c-0.31-0.17-0.58-0.4-0.81-0.68c-0.22-0.28-0.39-0.59-0.49-0.93c-0.1-0.34-0.13-0.69-0.09-1.05
		c0.04-0.36,0.14-0.69,0.32-1s0.4-0.58,0.68-0.81c0.28-0.22,0.59-0.39,0.93-0.49c0.34-0.1,0.69-0.13,1.05-0.09
		C26.34,40.56,26.68,40.67,26.99,40.84z"/>
	<path class="st3" d="M23.78,31.37c0.31,0.17,0.58,0.4,0.81,0.68s0.39,0.59,0.49,0.93c0.1,0.34,0.13,0.69,0.09,1.05
		c-0.04,0.36-0.15,0.69-0.32,1c-0.17,0.31-0.4,0.58-0.68,0.81c-0.28,0.22-0.59,0.39-0.93,0.49c-0.34,0.1-0.69,0.13-1.05,0.09
		c-0.36-0.04-0.69-0.15-1-0.32c-0.31-0.17-0.58-0.4-0.81-0.68c-0.22-0.28-0.39-0.59-0.48-0.93s-0.13-0.69-0.09-1.05
		c0.04-0.36,0.14-0.69,0.32-1c0.17-0.31,0.4-0.58,0.68-0.81c0.28-0.22,0.59-0.39,0.93-0.49s0.69-0.13,1.05-0.09
		C23.13,31.1,23.47,31.2,23.78,31.37z"/>
	<path class="st3" d="M98.36,44.21c0.16,0.09,0.3,0.2,0.41,0.35s0.2,0.3,0.25,0.48c0.05,0.18,0.07,0.36,0.05,0.54
		c-0.02,0.18-0.07,0.35-0.16,0.52c-0.09,0.16-0.2,0.3-0.35,0.41c-0.14,0.12-0.3,0.2-0.48,0.25c-0.18,0.05-0.36,0.07-0.54,0.05
		s-0.35-0.07-0.52-0.16c-0.16-0.09-0.3-0.2-0.41-0.35c-0.11-0.14-0.2-0.3-0.25-0.48c-0.05-0.18-0.07-0.36-0.05-0.54
		c0.02-0.18,0.07-0.35,0.16-0.52c0.09-0.16,0.2-0.3,0.35-0.41c0.14-0.11,0.3-0.2,0.48-0.25c0.18-0.05,0.36-0.07,0.54-0.05
		C98.03,44.07,98.2,44.12,98.36,44.21z"/>
	<path class="st3" d="M58.96,41.41c0.31,0.17,0.58,0.4,0.81,0.68c0.22,0.28,0.39,0.59,0.49,0.93c0.1,0.34,0.13,0.69,0.09,1.05
		c-0.04,0.36-0.14,0.69-0.32,1c-0.17,0.31-0.4,0.58-0.68,0.81c-0.28,0.22-0.59,0.39-0.93,0.49c-0.34,0.1-0.69,0.13-1.05,0.09
		c-0.36-0.04-0.69-0.14-1-0.32c-0.31-0.17-0.58-0.4-0.81-0.68c-0.22-0.28-0.39-0.59-0.49-0.93c-0.1-0.34-0.13-0.69-0.09-1.05
		c0.04-0.36,0.14-0.69,0.32-1c0.17-0.31,0.4-0.58,0.68-0.81c0.28-0.22,0.59-0.39,0.93-0.49s0.69-0.13,1.05-0.09
		S58.65,41.24,58.96,41.41z"/>
	<path class="st3" d="M49.91,43.05c0.31,0.17,0.58,0.4,0.81,0.68c0.22,0.28,0.39,0.59,0.49,0.93s0.13,0.69,0.09,1.05
		c-0.04,0.36-0.14,0.69-0.32,1c-0.17,0.31-0.4,0.58-0.68,0.81c-0.28,0.22-0.59,0.39-0.93,0.49s-0.69,0.13-1.05,0.09
		c-0.36-0.04-0.69-0.15-1-0.32c-0.31-0.17-0.58-0.4-0.8-0.68c-0.22-0.28-0.39-0.59-0.49-0.93c-0.1-0.34-0.13-0.69-0.09-1.05
		c0.04-0.36,0.14-0.69,0.32-1c0.17-0.31,0.4-0.58,0.68-0.81c0.28-0.22,0.59-0.39,0.93-0.49s0.69-0.13,1.05-0.09
		S49.6,42.88,49.91,43.05z"/>
	<path class="st3" d="M116.47,36.12c0.31,0.17,0.58,0.4,0.81,0.68c0.22,0.28,0.39,0.59,0.49,0.93c0.1,0.34,0.13,0.69,0.09,1.05
		c-0.04,0.36-0.14,0.69-0.32,1c-0.17,0.31-0.4,0.58-0.68,0.81c-0.28,0.22-0.59,0.39-0.93,0.49s-0.69,0.13-1.05,0.09
		c-0.36-0.04-0.69-0.15-1-0.32c-0.31-0.17-0.58-0.4-0.81-0.68c-0.22-0.28-0.39-0.59-0.48-0.93c-0.1-0.34-0.13-0.69-0.09-1.05
		c0.04-0.36,0.14-0.69,0.32-1c0.17-0.31,0.4-0.58,0.68-0.81c0.28-0.22,0.59-0.39,0.93-0.49c0.34-0.1,0.69-0.13,1.05-0.09
		C115.83,35.84,116.16,35.95,116.47,36.12z"/>
	<path class="st3" d="M123.59,36.66c0.16,0.09,0.3,0.2,0.41,0.35c0.11,0.14,0.2,0.3,0.25,0.48c0.05,0.18,0.07,0.36,0.05,0.54
		c-0.02,0.18-0.07,0.35-0.16,0.52c-0.09,0.16-0.2,0.3-0.35,0.41c-0.14,0.12-0.3,0.2-0.48,0.25c-0.18,0.05-0.36,0.07-0.54,0.05
		s-0.35-0.07-0.52-0.16c-0.16-0.09-0.3-0.2-0.41-0.35c-0.11-0.14-0.2-0.3-0.25-0.48s-0.07-0.36-0.05-0.54
		c0.02-0.18,0.07-0.35,0.16-0.52c0.09-0.16,0.2-0.3,0.35-0.41c0.14-0.11,0.3-0.2,0.48-0.25c0.18-0.05,0.36-0.07,0.54-0.05
		C123.26,36.51,123.43,36.57,123.59,36.66z"/>
	<path class="st3" d="M37.47,43.09c0.23,0.13,0.45,0.28,0.65,0.45c0.2,0.17,0.39,0.36,0.55,0.57c0.17,0.21,0.31,0.43,0.43,0.66
		s0.22,0.48,0.29,0.74s0.12,0.52,0.15,0.78s0.02,0.53-0.01,0.79c-0.03,0.26-0.08,0.52-0.16,0.78c-0.08,0.25-0.18,0.5-0.31,0.73
		c-0.13,0.23-0.28,0.45-0.45,0.65c-0.17,0.2-0.36,0.39-0.57,0.55c-0.21,0.17-0.43,0.31-0.66,0.43c-0.24,0.12-0.48,0.22-0.74,0.3
		c-0.25,0.07-0.51,0.12-0.78,0.15c-0.26,0.02-0.53,0.02-0.79-0.01c-0.26-0.03-0.52-0.08-0.78-0.16c-0.25-0.08-0.5-0.18-0.73-0.31
		c-0.23-0.13-0.45-0.28-0.65-0.45c-0.2-0.17-0.39-0.36-0.55-0.57c-0.17-0.21-0.31-0.43-0.43-0.66c-0.12-0.24-0.22-0.48-0.29-0.74
		c-0.07-0.26-0.12-0.52-0.15-0.78c-0.02-0.26-0.02-0.53,0.01-0.79s0.08-0.52,0.16-0.78c0.08-0.25,0.18-0.5,0.31-0.73
		c0.13-0.23,0.28-0.45,0.45-0.65c0.17-0.2,0.36-0.39,0.57-0.55c0.21-0.17,0.43-0.31,0.66-0.43c0.24-0.12,0.48-0.22,0.74-0.3
		s0.51-0.12,0.78-0.15c0.26-0.02,0.53-0.02,0.79,0.01c0.26,0.03,0.52,0.08,0.78,0.16C36.99,42.86,37.24,42.96,37.47,43.09z"/>
	<path class="st3" d="M104.72,37.27c0.16,0.09,0.3,0.2,0.41,0.35c0.12,0.14,0.2,0.3,0.25,0.48c0.05,0.18,0.07,0.36,0.05,0.54
		c-0.02,0.18-0.07,0.35-0.16,0.52c-0.09,0.16-0.2,0.3-0.35,0.41c-0.14,0.12-0.3,0.2-0.48,0.25c-0.18,0.05-0.36,0.07-0.54,0.05
		c-0.18-0.02-0.35-0.07-0.52-0.16c-0.16-0.09-0.3-0.2-0.41-0.35c-0.11-0.14-0.2-0.3-0.25-0.48c-0.05-0.18-0.07-0.36-0.05-0.54
		s0.07-0.35,0.16-0.52c0.09-0.16,0.2-0.3,0.35-0.41c0.14-0.11,0.3-0.2,0.48-0.25c0.18-0.05,0.36-0.07,0.54-0.05
		C104.39,37.12,104.56,37.18,104.72,37.27z"/>
	<path class="st3" d="M87.97,39.29c0.31,0.17,0.58,0.4,0.81,0.68c0.22,0.28,0.39,0.59,0.49,0.93c0.1,0.34,0.13,0.69,0.09,1.05
		c-0.04,0.36-0.15,0.69-0.32,1c-0.17,0.31-0.4,0.58-0.68,0.81c-0.28,0.22-0.59,0.39-0.93,0.49c-0.34,0.1-0.69,0.13-1.05,0.09
		c-0.36-0.04-0.69-0.15-1-0.32s-0.58-0.4-0.81-0.68c-0.22-0.28-0.39-0.59-0.48-0.93c-0.1-0.34-0.13-0.69-0.09-1.05
		c0.04-0.36,0.15-0.69,0.32-1c0.17-0.31,0.4-0.58,0.68-0.81c0.28-0.22,0.59-0.39,0.93-0.49c0.34-0.1,0.69-0.13,1.05-0.09
		C87.32,39.02,87.66,39.12,87.97,39.29z"/>
	<path class="st3" d="M44.76,40.16c0.16,0.09,0.3,0.2,0.41,0.35s0.2,0.3,0.25,0.48s0.07,0.36,0.05,0.54
		c-0.02,0.18-0.07,0.35-0.16,0.52c-0.09,0.16-0.2,0.3-0.35,0.41c-0.14,0.11-0.3,0.2-0.48,0.25s-0.36,0.07-0.54,0.05
		c-0.18-0.02-0.35-0.07-0.52-0.16c-0.16-0.09-0.3-0.2-0.41-0.35s-0.2-0.3-0.25-0.48s-0.07-0.36-0.05-0.54
		c0.02-0.18,0.07-0.35,0.16-0.52c0.09-0.16,0.2-0.3,0.35-0.41c0.14-0.12,0.3-0.2,0.48-0.25c0.18-0.05,0.36-0.07,0.54-0.05
		C44.42,40.02,44.59,40.07,44.76,40.16z"/>
	<path class="st3" d="M19.6,38.99c0.16,0.09,0.3,0.2,0.41,0.35c0.11,0.14,0.2,0.3,0.25,0.48c0.05,0.18,0.07,0.36,0.05,0.54
		c-0.02,0.18-0.07,0.35-0.16,0.52c-0.09,0.16-0.2,0.3-0.35,0.41c-0.14,0.12-0.3,0.2-0.48,0.25c-0.18,0.05-0.36,0.07-0.54,0.05
		s-0.35-0.07-0.52-0.16c-0.16-0.09-0.3-0.2-0.41-0.35c-0.11-0.14-0.2-0.3-0.25-0.48c-0.05-0.18-0.07-0.36-0.05-0.54
		c0.02-0.18,0.07-0.35,0.16-0.52c0.09-0.16,0.2-0.3,0.35-0.41c0.14-0.12,0.3-0.2,0.48-0.25c0.18-0.05,0.36-0.07,0.54-0.05
		S19.44,38.9,19.6,38.99z"/>
	<path class="st3" d="M23.78,6.41c0.31,0.17,0.58,0.4,0.81,0.68c0.22,0.28,0.39,0.59,0.49,0.93c0.1,0.34,0.13,0.69,0.09,1.05
		c-0.04,0.36-0.15,0.69-0.32,1c-0.17,0.31-0.4,0.58-0.68,0.81c-0.28,0.22-0.59,0.39-0.93,0.49s-0.69,0.13-1.05,0.09
		c-0.36-0.04-0.69-0.15-1-0.32c-0.31-0.17-0.58-0.4-0.81-0.68c-0.22-0.28-0.39-0.59-0.49-0.93s-0.13-0.69-0.09-1.05
		c0.04-0.36,0.14-0.69,0.32-1c0.17-0.31,0.4-0.58,0.68-0.81c0.28-0.22,0.59-0.39,0.93-0.49c0.34-0.1,0.69-0.13,1.05-0.09
		C23.13,6.13,23.47,6.24,23.78,6.41z"/>
	<path class="st3" d="M19.61,26.06c0.16,0.09,0.3,0.2,0.41,0.35c0.11,0.14,0.2,0.3,0.25,0.48c0.05,0.18,0.07,0.36,0.05,0.54
		c-0.02,0.18-0.07,0.35-0.16,0.52c-0.09,0.16-0.2,0.3-0.35,0.41c-0.14,0.11-0.3,0.2-0.48,0.25c-0.18,0.05-0.36,0.07-0.54,0.05
		c-0.18-0.02-0.35-0.07-0.52-0.16c-0.16-0.09-0.3-0.2-0.41-0.35c-0.12-0.14-0.2-0.3-0.25-0.48c-0.05-0.18-0.07-0.36-0.05-0.54
		c0.02-0.18,0.07-0.35,0.16-0.52c0.09-0.16,0.2-0.3,0.35-0.41c0.14-0.12,0.3-0.2,0.48-0.25s0.36-0.07,0.54-0.05
		C19.27,25.92,19.45,25.97,19.61,26.06z"/>
	<path class="st3" d="M12.09,23.13c0.23,0.13,0.45,0.28,0.65,0.45s0.39,0.36,0.55,0.57c0.17,0.21,0.31,0.43,0.43,0.66
		c0.12,0.24,0.22,0.48,0.29,0.74c0.07,0.26,0.12,0.52,0.15,0.78c0.02,0.26,0.02,0.53-0.01,0.79c-0.03,0.26-0.08,0.52-0.16,0.78
		c-0.08,0.25-0.18,0.5-0.31,0.73c-0.13,0.23-0.28,0.45-0.45,0.65c-0.17,0.2-0.36,0.39-0.57,0.55s-0.43,0.31-0.66,0.43
		c-0.24,0.12-0.48,0.22-0.74,0.3s-0.51,0.12-0.78,0.15S9.97,30.73,9.7,30.7c-0.26-0.03-0.52-0.08-0.78-0.16s-0.5-0.18-0.73-0.31
		c-0.23-0.13-0.45-0.28-0.65-0.45c-0.2-0.17-0.39-0.36-0.55-0.57C6.82,29,6.68,28.78,6.56,28.54c-0.12-0.24-0.22-0.48-0.29-0.74
		s-0.12-0.52-0.15-0.78c-0.02-0.26-0.02-0.53,0.01-0.79c0.03-0.26,0.08-0.52,0.16-0.78c0.08-0.25,0.18-0.5,0.31-0.73
		c0.13-0.23,0.28-0.45,0.45-0.65c0.17-0.2,0.36-0.39,0.57-0.55c0.21-0.17,0.43-0.31,0.66-0.43c0.24-0.12,0.48-0.22,0.74-0.3
		c0.25-0.07,0.51-0.12,0.78-0.15s0.53-0.02,0.79,0.01c0.26,0.03,0.52,0.08,0.78,0.16S11.86,23,12.09,23.13z"/>
	<path class="st3" d="M13.51,13.37c0.31,0.17,0.58,0.4,0.81,0.68c0.22,0.28,0.39,0.59,0.49,0.93s0.13,0.69,0.09,1.05
		s-0.14,0.69-0.32,1c-0.17,0.31-0.4,0.58-0.68,0.81c-0.28,0.22-0.59,0.39-0.93,0.49c-0.34,0.1-0.69,0.13-1.05,0.09
		c-0.36-0.04-0.69-0.15-1-0.32c-0.31-0.17-0.58-0.4-0.81-0.68c-0.22-0.28-0.39-0.59-0.49-0.93s-0.13-0.69-0.09-1.05
		c0.04-0.36,0.14-0.69,0.32-1c0.17-0.31,0.4-0.58,0.68-0.81c0.28-0.22,0.59-0.39,0.93-0.49c0.34-0.1,0.69-0.13,1.05-0.09
		C12.86,13.09,13.19,13.19,13.51,13.37z"/>
	<path class="st3" d="M5.79,15.9c0.16,0.09,0.3,0.2,0.41,0.35c0.11,0.14,0.2,0.3,0.25,0.48c0.05,0.18,0.07,0.36,0.05,0.54
		c-0.02,0.18-0.07,0.35-0.16,0.52s-0.2,0.3-0.35,0.41s-0.3,0.2-0.48,0.25c-0.18,0.05-0.36,0.07-0.54,0.05s-0.35-0.07-0.52-0.16
		c-0.16-0.09-0.3-0.2-0.41-0.35c-0.11-0.14-0.2-0.3-0.25-0.48s-0.07-0.36-0.05-0.54c0.02-0.18,0.07-0.35,0.16-0.52
		c0.09-0.16,0.2-0.3,0.35-0.41c0.14-0.11,0.3-0.2,0.48-0.25c0.18-0.05,0.36-0.07,0.54-0.05C5.46,15.76,5.63,15.82,5.79,15.9z"/>
	<path class="st3" d="M15.88,7.12c0.16,0.09,0.3,0.2,0.41,0.35c0.11,0.14,0.2,0.3,0.25,0.48c0.05,0.18,0.07,0.36,0.05,0.54
		C16.57,8.67,16.51,8.84,16.42,9c-0.09,0.16-0.2,0.3-0.35,0.41c-0.14,0.11-0.3,0.2-0.48,0.25c-0.18,0.05-0.36,0.07-0.54,0.05
		c-0.18-0.02-0.35-0.07-0.52-0.16c-0.16-0.09-0.3-0.2-0.41-0.35c-0.11-0.14-0.2-0.3-0.25-0.48c-0.05-0.18-0.07-0.36-0.05-0.54
		C13.85,8,13.91,7.83,14,7.67c0.09-0.16,0.2-0.3,0.35-0.41c0.14-0.12,0.3-0.2,0.48-0.25c0.18-0.05,0.36-0.07,0.54-0.05
		S15.72,7.03,15.88,7.12z"/>
	<path class="st3" d="M31.87,5.89c0.16,0.09,0.3,0.2,0.41,0.35c0.11,0.14,0.2,0.3,0.25,0.48c0.05,0.18,0.07,0.36,0.05,0.54
		c-0.02,0.18-0.07,0.35-0.16,0.52c-0.09,0.16-0.2,0.3-0.35,0.41c-0.14,0.12-0.3,0.2-0.48,0.25c-0.18,0.05-0.36,0.07-0.54,0.05
		c-0.18-0.02-0.35-0.07-0.52-0.16c-0.16-0.09-0.3-0.2-0.41-0.35c-0.11-0.14-0.2-0.3-0.25-0.48c-0.05-0.18-0.07-0.36-0.05-0.54
		c0.02-0.18,0.07-0.35,0.16-0.52c0.09-0.16,0.2-0.3,0.35-0.41c0.14-0.12,0.3-0.2,0.48-0.25c0.18-0.05,0.36-0.07,0.54-0.05
		S31.71,5.81,31.87,5.89z"/>
</g>
</svg>
