<?xml version="1.0" encoding="utf-8"?>
<!-- Generator: Adobe Illustrator 26.4.1, SVG Export Plug-In . SVG Version: 6.00 Build 0)  -->
<svg version="1.1" id="Layer_1" xmlns="http://www.w3.org/2000/svg" xmlns:xlink="http://www.w3.org/1999/xlink" x="0px" y="0px"
	 width="293.8px" height="79.9px" viewBox="0 0 293.8 79.9" style="enable-background:new 0 0 293.8 79.9;" xml:space="preserve">
<style type="text/css">
	.st0{fill:none;stroke:#000000;stroke-width:0.873;stroke-miterlimit:10;}
	.st1{font-family:'NimbusSanL-Reg';}
	.st2{font-size:10.3636px;}
	.st3{letter-spacing:27;}
	.st4{letter-spacing:13;}
	.st5{letter-spacing:23;}
	.st6{letter-spacing:2;}
	.st7{fill:none;stroke:#000000;stroke-width:0.545;stroke-miterlimit:10;}
	.st8{letter-spacing:59;}
	.st9{letter-spacing:54;}
	.st10{letter-spacing:48;}
	.st11{letter-spacing:49;}
	.st12{letter-spacing:-1;}
	.st13{letter-spacing:11;}
	.st14{letter-spacing:12;}
	.st15{letter-spacing:21;}
	.st16{letter-spacing:44;}
	.st17{letter-spacing:39;}
</style>
<line class="st0" x1="0" y1="0.44" x2="293.8" y2="0.44"/>
<text transform="matrix(1 0 0 1 5.9781 13.4104)"><tspan x="0" y="0" class="st1 st2">Zygosit</tspan><tspan x="33.4" y="0" class="st1 st2 st3">y</tspan><tspan x="66.58" y="0" class="st1 st2">Mo</tspan><tspan x="80.97" y="0" class="st1 st2">n</tspan><tspan x="86.72" y="0" class="st1 st2">ozygoti</tspan><tspan x="119.55" y="0" class="st1 st2 st4">c</tspan><tspan x="138.03" y="0" class="st1 st2">Dizygoti</tspan><tspan x="174.88" y="0" class="st1 st2 st5">c</tspan><tspan x="203.74" y="0" class="st1 st2">Non-twi</tspan><tspan x="238.86" y="0" class="st1 st2 st6">n</tspan><tspan x="247.49" y="0" class="st1 st2">si</tspan><tspan x="254.97" y="0" class="st1 st2">b</tspan><tspan x="260.53" y="0" class="st1 st2">lings</tspan></text>
<line class="st7" x1="0" y1="19.63" x2="293.8" y2="19.63"/>
<text transform="matrix(1 0 0 1 5.9781 32.4363)"><tspan x="0" y="0" class="st1 st2 st8">N</tspan><tspan x="66.58" y="0" class="st1 st2">3</tspan><tspan x="72.34" y="0" class="st1 st2">2</tspan><tspan x="78.09" y="0" class="st1 st2 st9">2</tspan><tspan x="138.03" y="0" class="st1 st2">21</tspan><tspan x="149.56" y="0" class="st1 st2 st10">2</tspan><tspan x="203.72" y="0" class="st1 st2">490</tspan></text>
<text transform="matrix(1 0 0 1 5.9781 45.9856)"><tspan x="0" y="0" class="st1 st2">S</tspan><tspan x="6.91" y="0" class="st1 st2">e</tspan><tspan x="12.36" y="0" class="st1 st2 st11">x</tspan><tspan x="66.58" y="0" class="st1 st2">19</tspan><tspan x="78.1" y="0" class="st1 st2 st6">6</tspan><tspan x="86.73" y="0" class="st1 st2 st12">F</tspan><tspan x="91.51" y="0" class="st1 st2 st6">,</tspan><tspan x="97.27" y="0" class="st1 st2">12</tspan><tspan x="108.8" y="0" class="st1 st2 st6">6</tspan><tspan x="117.43" y="0" class="st1 st2 st13">M</tspan><tspan x="138.02" y="0" class="st1 st2">12</tspan><tspan x="149.55" y="0" class="st1 st2 st6">5</tspan><tspan x="158.18" y="0" class="st1 st2 st12">F</tspan><tspan x="162.97" y="0" class="st1 st2 st6">,</tspan><tspan x="168.73" y="0" class="st1 st2">8</tspan><tspan x="174.49" y="0" class="st1 st2 st6">7</tspan><tspan x="183.13" y="0" class="st1 st2 st13">M</tspan><tspan x="203.73" y="0" class="st1 st2">2</tspan><tspan x="209.48" y="0" class="st1 st2">3</tspan><tspan x="215.24" y="0" class="st1 st2 st6">7</tspan><tspan x="223.88" y="0" class="st1 st2 st12">F</tspan><tspan x="228.67" y="0" class="st1 st2 st6">,</tspan><tspan x="234.43" y="0" class="st1 st2">25</tspan><tspan x="245.96" y="0" class="st1 st2 st6">3</tspan><tspan x="254.6" y="0" class="st1 st2">M</tspan></text>
<text transform="matrix(1 0 0 1 5.9781 59.5345)"><tspan x="0" y="0" class="st1 st2">Ag</tspan><tspan x="12.67" y="0" class="st1 st2 st6">e</tspan><tspan x="21.31" y="0" class="st1 st2">(mean</tspan><tspan x="50.68" y="0" class="st1 st2 st14">)</tspan><tspan x="66.55" y="0" class="st1 st2">29</tspan><tspan x="78.08" y="0" class="st1 st2">.</tspan><tspan x="80.95" y="0" class="st1 st2 st6">6</tspan><tspan x="89.59" y="0" class="st1 st2">(3.3</tspan><tspan x="107.45" y="0" class="st1 st2 st3">)</tspan><tspan x="138.01" y="0" class="st1 st2">28.</tspan><tspan x="152.42" y="0" class="st1 st2 st6">9</tspan><tspan x="161.06" y="0" class="st1 st2">(3.4</tspan><tspan x="178.92" y="0" class="st1 st2 st15">)</tspan><tspan x="203.72" y="0" class="st1 st2">2</tspan><tspan x="209.48" y="0" class="st1 st2">8</tspan><tspan x="215.23" y="0" class="st1 st2">.</tspan><tspan x="218.11" y="0" class="st1 st2 st6">3</tspan><tspan x="226.74" y="0" class="st1 st2">(3.9)</tspan></text>
<text transform="matrix(1 0 0 1 5.9781 73.0843)"><tspan x="0" y="0" class="st1 st2">Ag</tspan><tspan x="12.67" y="0" class="st1 st2 st6">e</tspan><tspan x="21.31" y="0" class="st1 st2">(</tspan><tspan x="24.76" y="0" class="st1 st2">r</tspan><tspan x="28.12" y="0" class="st1 st2">ange</tspan><tspan x="51.16" y="0" class="st1 st2 st13">)</tspan><tspan x="66.58" y="0" class="st1 st2">22-</tspan><tspan x="81.55" y="0" class="st1 st2">3</tspan><tspan x="87.3" y="0" class="st1 st2 st16">6</tspan><tspan x="138.02" y="0" class="st1 st2">22-3</tspan><tspan x="158.76" y="0" class="st1 st2 st17">6</tspan><tspan x="203.72" y="0" class="st1 st2">22-37</tspan></text>
<line class="st0" x1="0" y1="79.46" x2="293.8" y2="79.46"/>
</svg>
