<?xml version="1.0" encoding="utf-8"?>
<!-- Generator: Adobe Illustrator 26.3.1, SVG Export Plug-In . SVG Version: 6.00 Build 0)  -->
<svg version="1.1" id="Layer_1" xmlns="http://www.w3.org/2000/svg" xmlns:xlink="http://www.w3.org/1999/xlink" x="0px" y="0px"
	 viewBox="0 0 493.62 421.87" style="enable-background:new 0 0 493.62 421.87;" xml:space="preserve">
<style type="text/css">
	.st0{clip-path:url(#SVGID_00000182510987871615422750000002909993275053954210_);}
	.st1{fill-rule:evenodd;clip-rule:evenodd;fill-opacity:0;}
	.st2{fill-rule:evenodd;clip-rule:evenodd;fill:#B4A7D6;}
	.st3{fill:none;stroke:#000000;stroke-linejoin:round;stroke-miterlimit:10;}
	.st4{fill-rule:evenodd;clip-rule:evenodd;fill:#B6D7A8;}
	.st5{fill-rule:evenodd;clip-rule:evenodd;fill:#CFE2F3;}
	.st6{fill-rule:evenodd;clip-rule:evenodd;fill:#FFD966;}
	.st7{fill:none;stroke:#FF0000;stroke-width:8;stroke-linejoin:round;stroke-miterlimit:10;}
	.st8{fill-rule:evenodd;clip-rule:evenodd;fill:#FF0000;stroke:#FF0000;stroke-width:8;stroke-miterlimit:10;}
	.st9{fill-rule:evenodd;clip-rule:evenodd;stroke:#000000;stroke-miterlimit:10;}
	.st10{fill:none;stroke:#000000;stroke-linejoin:round;stroke-miterlimit:10;stroke-dasharray:1,3;}
</style>
<g>
	<defs>
		<rect id="SVGID_1_" width="493.62" height="421.87"/>
	</defs>
	<clipPath id="SVGID_00000129888788894253928510000008206377367093675185_">
		<use xlink:href="#SVGID_1_"  style="overflow:visible;"/>
	</clipPath>
	<g style="clip-path:url(#SVGID_00000129888788894253928510000008206377367093675185_);">
		<path class="st1" d="M0,0h493.62v421.87H0V0z"/>
		<path class="st2" d="M143.1,12.46L143.1,12.46C143.1,5.58,148.68,0,155.56,0h171.61c3.31,0,6.48,1.31,8.81,3.65
			c2.34,2.34,3.65,5.51,3.65,8.81v49.85c0,6.88-5.58,12.46-12.46,12.46H155.56l0,0c-6.88,0-12.46-5.58-12.46-12.46V12.46z"/>
		<path class="st3" d="M143.1,12.46L143.1,12.46C143.1,5.58,148.68,0,155.56,0h171.61c3.31,0,6.48,1.31,8.81,3.65
			c2.34,2.34,3.65,5.51,3.65,8.81v49.85c0,6.88-5.58,12.46-12.46,12.46H155.56l0,0c-6.88,0-12.46-5.58-12.46-12.46V12.46z"/>
		<path d="M215.55,42.47V31.98h3.41c1.28,0,2.12,0.05,2.52,0.16c0.6,0.16,1.11,0.5,1.52,1.03c0.41,0.52,0.61,1.2,0.61,2.03
			c0,0.65-0.12,1.19-0.36,1.62c-0.23,0.44-0.53,0.78-0.89,1.03c-0.35,0.25-0.72,0.42-1.09,0.5c-0.51,0.1-1.24,0.16-2.2,0.16h-1.38
			v3.95H215.55z M217.67,33.75v2.98h1.16c0.83,0,1.39-0.05,1.67-0.16c0.28-0.11,0.5-0.29,0.66-0.52c0.17-0.24,0.25-0.52,0.25-0.83
			c0-0.39-0.11-0.7-0.34-0.94c-0.22-0.25-0.5-0.41-0.84-0.47c-0.25-0.05-0.76-0.08-1.53-0.08H217.67z M226.83,37.18L225,36.86
			c0.2-0.74,0.55-1.28,1.05-1.62c0.51-0.35,1.26-0.53,2.23-0.53c0.91,0,1.58,0.1,2.02,0.31c0.44,0.21,0.74,0.48,0.92,0.81
			c0.18,0.32,0.27,0.92,0.27,1.8l-0.02,2.34c0,0.67,0.03,1.16,0.09,1.48c0.06,0.31,0.18,0.65,0.36,1.02h-1.98
			c-0.05-0.14-0.12-0.33-0.2-0.59c-0.03-0.11-0.05-0.19-0.06-0.23c-0.34,0.33-0.71,0.58-1.11,0.75c-0.39,0.17-0.8,0.25-1.25,0.25
			c-0.78,0-1.4-0.21-1.86-0.64c-0.45-0.43-0.67-0.96-0.67-1.61c0-0.43,0.1-0.81,0.31-1.14c0.21-0.34,0.49-0.6,0.86-0.78
			c0.38-0.18,0.91-0.33,1.61-0.47c0.94-0.18,1.59-0.34,1.95-0.48v-0.2c0-0.39-0.1-0.66-0.3-0.83c-0.19-0.17-0.55-0.25-1.08-0.25
			c-0.35,0-0.64,0.07-0.84,0.22C227.1,36.59,226.94,36.83,226.83,37.18z M229.51,38.81c-0.26,0.09-0.67,0.2-1.23,0.33
			c-0.55,0.11-0.92,0.23-1.09,0.34c-0.26,0.18-0.39,0.41-0.39,0.7c0,0.28,0.1,0.53,0.31,0.73c0.21,0.2,0.48,0.3,0.81,0.3
			c0.35,0,0.7-0.12,1.03-0.36c0.24-0.18,0.4-0.4,0.48-0.66c0.05-0.18,0.08-0.51,0.08-0.98V38.81z M235.4,42.47h-2.02v-7.59h1.86
			v1.08c0.32-0.51,0.61-0.84,0.86-1c0.26-0.17,0.55-0.25,0.88-0.25c0.46,0,0.9,0.12,1.33,0.38l-0.62,1.75
			c-0.33-0.22-0.65-0.33-0.94-0.33c-0.28,0-0.52,0.08-0.72,0.23s-0.35,0.44-0.47,0.84c-0.1,0.41-0.16,1.26-0.16,2.55V42.47z
			 M243.57,40.04l2,0.34c-0.25,0.73-0.66,1.29-1.22,1.67c-0.55,0.39-1.24,0.58-2.08,0.58c-1.32,0-2.3-0.43-2.94-1.3
			c-0.5-0.69-0.75-1.56-0.75-2.62c0-1.25,0.33-2.23,0.98-2.94c0.66-0.72,1.49-1.08,2.5-1.08c1.12,0,2.02,0.38,2.67,1.12
			c0.66,0.74,0.97,1.88,0.94,3.42h-5.03c0.01,0.59,0.17,1.06,0.48,1.39c0.31,0.33,0.7,0.5,1.16,0.5c0.31,0,0.57-0.08,0.78-0.25
			C243.29,40.71,243.46,40.43,243.57,40.04z M243.68,38.01c-0.01-0.58-0.16-1.03-0.45-1.33c-0.28-0.3-0.62-0.45-1.03-0.45
			c-0.45,0-0.81,0.16-1.09,0.48c-0.28,0.31-0.42,0.74-0.42,1.3H243.68z M254.24,42.47h-2.02v-3.88c0-0.82-0.04-1.35-0.12-1.59
			c-0.08-0.24-0.22-0.43-0.42-0.56c-0.2-0.14-0.43-0.2-0.7-0.2c-0.34,0-0.66,0.1-0.94,0.3c-0.27,0.19-0.46,0.44-0.56,0.75
			s-0.16,0.9-0.16,1.75v3.44h-2.02v-7.59h1.88v1.11c0.67-0.85,1.5-1.28,2.5-1.28c0.45,0,0.85,0.08,1.22,0.23s0.64,0.36,0.83,0.61
			c0.2,0.25,0.33,0.53,0.41,0.84s0.11,0.77,0.11,1.36V42.47z M259.75,34.87v1.59h-1.38v3.06c0,0.62,0.01,0.99,0.03,1.09
			c0.03,0.09,0.09,0.18,0.19,0.25c0.09,0.06,0.21,0.09,0.34,0.09c0.19,0,0.46-0.06,0.81-0.19l0.17,1.56c-0.47,0.2-1,0.3-1.59,0.3
			c-0.36,0-0.69-0.06-0.98-0.17c-0.28-0.12-0.49-0.28-0.64-0.47c-0.14-0.2-0.23-0.46-0.28-0.8c-0.04-0.24-0.06-0.71-0.06-1.42v-3.31
			h-0.92v-1.59h0.92v-1.52l2.02-1.17v2.69H259.75z M260.45,40.29l2.02-0.3c0.08,0.39,0.26,0.68,0.52,0.89
			c0.27,0.2,0.64,0.3,1.11,0.3c0.52,0,0.91-0.09,1.17-0.28c0.18-0.14,0.27-0.32,0.27-0.55c0-0.15-0.05-0.27-0.14-0.38
			c-0.1-0.09-0.33-0.18-0.67-0.27c-1.62-0.35-2.65-0.68-3.08-0.98c-0.6-0.41-0.91-0.97-0.91-1.7c0-0.66,0.26-1.21,0.78-1.66
			c0.52-0.45,1.33-0.67,2.42-0.67c1.03,0,1.8,0.17,2.31,0.52c0.51,0.33,0.86,0.83,1.05,1.48l-1.91,0.36
			c-0.07-0.3-0.22-0.53-0.45-0.69c-0.23-0.16-0.55-0.23-0.97-0.23c-0.53,0-0.91,0.07-1.14,0.22c-0.16,0.1-0.23,0.24-0.23,0.41
			c0,0.15,0.07,0.27,0.2,0.38c0.19,0.14,0.81,0.32,1.88,0.56c1.07,0.24,1.82,0.54,2.25,0.89c0.42,0.36,0.62,0.86,0.62,1.5
			c0,0.7-0.29,1.3-0.88,1.8c-0.57,0.5-1.43,0.75-2.58,0.75c-1.03,0-1.85-0.21-2.45-0.62C261.03,41.59,260.63,41.01,260.45,40.29z"/>
		<path class="st4" d="M0,350.94L0,350.94c0-6.88,5.58-12.46,12.46-12.46h171.61c3.31,0,6.47,1.31,8.81,3.65
			c2.34,2.34,3.65,5.51,3.65,8.81v49.85c0,6.88-5.58,12.46-12.46,12.46H12.46l0,0C5.58,413.25,0,407.67,0,400.79L0,350.94z"/>
		<path class="st3" d="M0,350.94L0,350.94c0-6.88,5.58-12.46,12.46-12.46h171.61c3.31,0,6.47,1.31,8.81,3.65
			c2.34,2.34,3.65,5.51,3.65,8.81v49.85c0,6.88-5.58,12.46-12.46,12.46H12.46l0,0C5.58,413.25,0,407.67,0,400.79L0,350.94z"/>
		<path d="M65.94,372.95v-10.48h7.78v1.77h-5.66v2.33h5.27v1.77h-5.27v2.86h5.86v1.77H65.94z M74.73,372.95l2.75-3.92l-2.62-3.67
			h2.45l1.34,2.08l1.42-2.08h2.36l-2.58,3.59l2.81,4h-2.47l-1.55-2.36l-1.56,2.36H74.73z M83.8,365.35h1.88v1.11
			c0.24-0.39,0.57-0.69,0.98-0.92c0.42-0.24,0.88-0.36,1.38-0.36c0.89,0,1.64,0.34,2.25,1.03c0.61,0.69,0.92,1.65,0.92,2.89
			c0,1.27-0.31,2.26-0.94,2.97c-0.61,0.7-1.36,1.05-2.25,1.05c-0.42,0-0.8-0.08-1.14-0.25c-0.33-0.17-0.69-0.45-1.08-0.86v3.83h-2
			V365.35z M85.78,369.03c0,0.85,0.17,1.48,0.5,1.89c0.34,0.41,0.76,0.61,1.25,0.61c0.47,0,0.85-0.19,1.16-0.56
			c0.31-0.38,0.47-0.99,0.47-1.84c0-0.8-0.16-1.4-0.48-1.78c-0.31-0.39-0.71-0.58-1.19-0.58c-0.49,0-0.9,0.19-1.22,0.58
			C85.95,367.71,85.78,368.28,85.78,369.03z M92.35,369.04c0-0.67,0.16-1.31,0.48-1.94c0.33-0.63,0.8-1.1,1.41-1.42
			c0.6-0.33,1.28-0.5,2.02-0.5c1.15,0,2.09,0.37,2.83,1.12c0.74,0.74,1.11,1.68,1.11,2.81c0,1.16-0.37,2.11-1.12,2.88
			c-0.74,0.75-1.67,1.12-2.8,1.12c-0.7,0-1.36-0.16-2-0.47c-0.62-0.31-1.1-0.77-1.44-1.38C92.51,370.66,92.35,369.92,92.35,369.04z
			 M94.39,369.15c0,0.75,0.18,1.33,0.53,1.73c0.36,0.4,0.81,0.59,1.34,0.59c0.52,0,0.96-0.2,1.31-0.59
			c0.35-0.41,0.53-0.99,0.53-1.75c0-0.75-0.18-1.32-0.53-1.72c-0.35-0.41-0.79-0.61-1.31-0.61c-0.53,0-0.98,0.2-1.34,0.61
			C94.57,367.81,94.39,368.39,94.39,369.15z M101.05,370.78l2.02-0.3c0.08,0.39,0.26,0.68,0.52,0.89c0.27,0.2,0.64,0.3,1.11,0.3
			c0.52,0,0.91-0.09,1.17-0.28c0.18-0.14,0.27-0.32,0.27-0.55c0-0.15-0.05-0.27-0.14-0.38c-0.1-0.09-0.33-0.18-0.67-0.27
			c-1.62-0.35-2.65-0.68-3.08-0.98c-0.6-0.41-0.91-0.97-0.91-1.7c0-0.66,0.26-1.21,0.78-1.66c0.52-0.45,1.33-0.67,2.42-0.67
			c1.03,0,1.8,0.17,2.31,0.52c0.51,0.33,0.86,0.83,1.05,1.48l-1.91,0.36c-0.07-0.3-0.22-0.53-0.45-0.69
			c-0.23-0.16-0.55-0.23-0.97-0.23c-0.53,0-0.91,0.07-1.14,0.22c-0.16,0.1-0.23,0.24-0.23,0.41c0,0.15,0.07,0.27,0.2,0.38
			c0.19,0.14,0.81,0.32,1.88,0.56c1.07,0.24,1.82,0.54,2.25,0.89c0.42,0.36,0.62,0.86,0.62,1.5c0,0.7-0.29,1.3-0.88,1.8
			c-0.57,0.5-1.43,0.75-2.58,0.75c-1.03,0-1.85-0.21-2.45-0.62C101.63,372.07,101.24,371.49,101.05,370.78z M114.9,372.95v-1.14
			c-0.27,0.41-0.64,0.73-1.09,0.97c-0.45,0.23-0.92,0.34-1.42,0.34c-0.51,0-0.97-0.11-1.38-0.33c-0.41-0.23-0.7-0.55-0.88-0.95
			c-0.18-0.41-0.27-0.97-0.27-1.69v-4.8h2v3.48c0,1.07,0.04,1.73,0.11,1.97c0.07,0.24,0.21,0.43,0.41,0.58
			c0.2,0.14,0.45,0.2,0.75,0.2c0.34,0,0.65-0.09,0.92-0.28c0.27-0.19,0.45-0.42,0.55-0.7c0.1-0.28,0.16-0.96,0.16-2.05v-3.2h2.02
			v7.59H114.9z M120.79,372.95h-2.02v-7.59h1.86v1.08c0.32-0.51,0.61-0.84,0.86-1c0.26-0.17,0.55-0.25,0.88-0.25
			c0.46,0,0.9,0.12,1.33,0.38l-0.62,1.75c-0.33-0.22-0.65-0.33-0.94-0.33c-0.28,0-0.52,0.08-0.72,0.23
			c-0.2,0.16-0.35,0.44-0.47,0.84c-0.1,0.41-0.16,1.26-0.16,2.55V372.95z M128.96,370.53l2,0.34c-0.25,0.73-0.66,1.29-1.22,1.67
			c-0.55,0.39-1.24,0.58-2.08,0.58c-1.32,0-2.3-0.43-2.94-1.3c-0.5-0.69-0.75-1.56-0.75-2.62c0-1.25,0.33-2.23,0.98-2.94
			c0.66-0.72,1.49-1.08,2.5-1.08c1.12,0,2.02,0.37,2.67,1.12c0.66,0.74,0.97,1.88,0.94,3.42h-5.03c0.01,0.59,0.17,1.06,0.48,1.39
			c0.31,0.33,0.7,0.5,1.16,0.5c0.31,0,0.57-0.08,0.78-0.25C128.68,371.19,128.85,370.91,128.96,370.53z M129.07,368.49
			c-0.01-0.58-0.16-1.03-0.45-1.33c-0.28-0.3-0.63-0.45-1.03-0.45c-0.45,0-0.81,0.16-1.09,0.48c-0.28,0.31-0.42,0.74-0.42,1.3
			H129.07z"/>
		<path d="M35.26,389.67l2-9.55h3.97c0.7,0,1.22,0.08,1.56,0.25c0.34,0.16,0.62,0.43,0.84,0.81c0.23,0.39,0.34,0.81,0.34,1.28
			c0,0.4-0.08,0.8-0.25,1.22c-0.16,0.41-0.36,0.74-0.61,1c-0.24,0.26-0.48,0.46-0.73,0.59c-0.25,0.14-0.52,0.23-0.81,0.3
			c-0.6,0.15-1.22,0.22-1.84,0.22h-2.39l-0.81,3.88H35.26z M37.57,384.71h2.09c0.81,0,1.41-0.09,1.8-0.27
			c0.39-0.18,0.69-0.44,0.92-0.8c0.23-0.36,0.34-0.75,0.34-1.16c0-0.31-0.06-0.56-0.19-0.75c-0.12-0.2-0.3-0.34-0.52-0.44
			s-0.64-0.14-1.27-0.14H38.3L37.57,384.71z M48.68,388.81c-0.42,0.35-0.81,0.61-1.19,0.78c-0.38,0.16-0.78,0.23-1.2,0.23
			c-0.65,0-1.17-0.19-1.56-0.56c-0.39-0.38-0.58-0.85-0.58-1.44c0-0.39,0.09-0.72,0.27-1.02c0.18-0.3,0.41-0.54,0.7-0.72
			c0.29-0.19,0.65-0.32,1.06-0.39c0.27-0.05,0.78-0.09,1.52-0.12c0.74-0.03,1.27-0.11,1.59-0.23c0.08-0.32,0.12-0.59,0.12-0.81
			c0-0.27-0.1-0.48-0.3-0.64c-0.27-0.22-0.67-0.33-1.19-0.33c-0.5,0-0.91,0.11-1.22,0.33s-0.54,0.53-0.69,0.94l-1.19-0.11
			c0.24-0.68,0.62-1.2,1.14-1.56c0.53-0.36,1.2-0.55,2-0.55c0.85,0,1.53,0.2,2.03,0.61c0.39,0.3,0.58,0.7,0.58,1.19
			c0,0.36-0.05,0.79-0.16,1.28l-0.39,1.72c-0.12,0.54-0.19,0.98-0.19,1.33c0,0.22,0.05,0.53,0.16,0.94h-1.2
			C48.74,389.44,48.7,389.15,48.68,388.81z M49.1,386.17c-0.16,0.06-0.33,0.11-0.53,0.16c-0.19,0.03-0.5,0.07-0.94,0.11
			c-0.69,0.05-1.17,0.12-1.45,0.22s-0.49,0.24-0.64,0.45c-0.15,0.2-0.22,0.42-0.22,0.67c0,0.33,0.11,0.61,0.34,0.83
			c0.23,0.21,0.56,0.31,0.98,0.31c0.39,0,0.76-0.1,1.11-0.31c0.36-0.21,0.65-0.49,0.86-0.86C48.82,387.37,48.99,386.84,49.1,386.17z
			 M51.42,389.67l1.45-6.91h1.03l-0.28,1.41c0.35-0.53,0.7-0.92,1.03-1.17c0.34-0.26,0.69-0.39,1.05-0.39
			c0.24,0,0.53,0.08,0.88,0.25l-0.48,1.09c-0.21-0.15-0.43-0.22-0.67-0.22c-0.42,0-0.84,0.23-1.28,0.69
			c-0.43,0.46-0.77,1.29-1.02,2.48l-0.58,2.77H51.42z M58.62,388.71l-0.2,0.95c-0.28,0.07-0.55,0.11-0.81,0.11
			c-0.47,0-0.84-0.11-1.12-0.34c-0.21-0.17-0.31-0.4-0.31-0.7c0-0.16,0.06-0.51,0.17-1.05l0.83-4.02h-0.92l0.19-0.91h0.94l0.34-1.7
			l1.36-0.81l-0.53,2.52h1.16l-0.19,0.91h-1.16l-0.8,3.81c-0.1,0.49-0.16,0.78-0.16,0.88c0,0.15,0.04,0.26,0.11,0.33
			c0.08,0.07,0.22,0.11,0.41,0.11C58.18,388.79,58.41,388.77,58.62,388.71z M61.23,381.46l0.28-1.34h1.17l-0.28,1.34H61.23z
			 M59.51,389.67l1.45-6.91h1.17l-1.44,6.91H59.51z M67.3,387.15l1.17,0.12c-0.29,0.86-0.71,1.51-1.27,1.92
			c-0.54,0.42-1.16,0.62-1.84,0.62c-0.76,0-1.38-0.24-1.84-0.72c-0.46-0.49-0.69-1.17-0.69-2.05c0-0.75,0.15-1.49,0.44-2.22
			c0.3-0.73,0.73-1.28,1.28-1.66c0.56-0.39,1.2-0.58,1.92-0.58c0.74,0,1.33,0.21,1.77,0.62c0.44,0.42,0.66,0.97,0.66,1.66
			l-1.16,0.08c-0.01-0.44-0.14-0.78-0.39-1.02c-0.25-0.25-0.58-0.38-0.98-0.38c-0.47,0-0.88,0.15-1.23,0.45
			c-0.34,0.29-0.61,0.74-0.81,1.36c-0.2,0.6-0.3,1.19-0.3,1.75c0,0.59,0.13,1.04,0.39,1.34c0.26,0.29,0.58,0.44,0.97,0.44
			c0.38,0,0.73-0.15,1.08-0.44C66.81,388.19,67.09,387.75,67.3,387.15z M70.86,381.46l0.28-1.34h1.17l-0.28,1.34H70.86z
			 M69.14,389.67l1.45-6.91h1.17l-1.44,6.91H69.14z M71.57,392.32l2-9.56h1.09l-0.2,0.95c0.4-0.42,0.76-0.7,1.08-0.86
			c0.32-0.17,0.66-0.25,1.02-0.25c0.66,0,1.2,0.24,1.62,0.72c0.44,0.48,0.66,1.17,0.66,2.06c0,0.72-0.12,1.38-0.36,1.97
			c-0.23,0.58-0.52,1.06-0.88,1.42c-0.34,0.36-0.69,0.63-1.05,0.8c-0.35,0.17-0.72,0.25-1.09,0.25c-0.83,0-1.47-0.42-1.92-1.27
			l-0.78,3.77H71.57z M73.9,386.84c0,0.52,0.04,0.88,0.11,1.08c0.11,0.28,0.29,0.51,0.53,0.69c0.25,0.17,0.54,0.25,0.88,0.25
			c0.68,0,1.22-0.38,1.64-1.14c0.42-0.76,0.62-1.54,0.62-2.33c0-0.58-0.14-1.04-0.42-1.36c-0.28-0.32-0.63-0.48-1.05-0.48
			c-0.3,0-0.58,0.08-0.84,0.25c-0.25,0.16-0.48,0.39-0.7,0.7s-0.4,0.7-0.55,1.16C73.97,386.11,73.9,386.51,73.9,386.84z
			 M84.23,388.81c-0.42,0.35-0.81,0.61-1.19,0.78c-0.38,0.16-0.78,0.23-1.2,0.23c-0.65,0-1.17-0.19-1.56-0.56
			c-0.39-0.38-0.58-0.85-0.58-1.44c0-0.39,0.09-0.72,0.27-1.02c0.18-0.3,0.41-0.54,0.7-0.72c0.29-0.19,0.65-0.32,1.06-0.39
			c0.27-0.05,0.78-0.09,1.52-0.12c0.74-0.03,1.27-0.11,1.59-0.23c0.08-0.32,0.12-0.59,0.12-0.81c0-0.27-0.1-0.48-0.3-0.64
			c-0.27-0.22-0.67-0.33-1.19-0.33c-0.5,0-0.91,0.11-1.22,0.33s-0.54,0.53-0.69,0.94l-1.19-0.11c0.24-0.68,0.62-1.2,1.14-1.56
			c0.53-0.36,1.2-0.55,2-0.55c0.85,0,1.53,0.2,2.03,0.61c0.39,0.3,0.58,0.7,0.58,1.19c0,0.36-0.05,0.79-0.16,1.28l-0.39,1.72
			c-0.12,0.54-0.19,0.98-0.19,1.33c0,0.22,0.05,0.53,0.16,0.94h-1.2C84.29,389.44,84.25,389.15,84.23,388.81z M84.65,386.17
			c-0.16,0.06-0.33,0.11-0.53,0.16c-0.19,0.03-0.5,0.07-0.94,0.11c-0.69,0.05-1.17,0.12-1.45,0.22s-0.49,0.24-0.64,0.45
			c-0.15,0.2-0.22,0.42-0.22,0.67c0,0.33,0.11,0.61,0.34,0.83c0.23,0.21,0.56,0.31,0.98,0.31c0.39,0,0.76-0.1,1.11-0.31
			c0.36-0.21,0.65-0.49,0.86-0.86C84.38,387.37,84.54,386.84,84.65,386.17z M86.97,389.67l1.45-6.91h1.06l-0.25,1.2
			c0.46-0.48,0.89-0.82,1.3-1.03c0.41-0.22,0.82-0.33,1.23-0.33c0.56,0,1,0.15,1.31,0.45c0.32,0.3,0.48,0.71,0.48,1.22
			c0,0.25-0.06,0.65-0.17,1.2l-0.88,4.19h-1.17l0.92-4.38c0.08-0.43,0.12-0.74,0.12-0.95c0-0.23-0.08-0.41-0.23-0.55
			c-0.16-0.15-0.39-0.22-0.69-0.22c-0.6,0-1.14,0.22-1.61,0.66c-0.47,0.43-0.81,1.17-1.03,2.22l-0.67,3.22H86.97z M97.15,388.71
			l-0.2,0.95c-0.28,0.07-0.55,0.11-0.81,0.11c-0.47,0-0.84-0.11-1.12-0.34c-0.21-0.17-0.31-0.4-0.31-0.7c0-0.16,0.06-0.51,0.17-1.05
			l0.83-4.02h-0.92l0.19-0.91h0.94l0.34-1.7l1.36-0.81l-0.53,2.52h1.16l-0.19,0.91h-1.16l-0.8,3.81c-0.1,0.49-0.16,0.78-0.16,0.88
			c0,0.15,0.04,0.26,0.11,0.33c0.08,0.07,0.22,0.11,0.41,0.11C96.71,388.79,96.94,388.77,97.15,388.71z M99.71,381.5l0.28-1.33h1.34
			l-0.23,1.17c-0.15,0.7-0.38,1.21-0.69,1.53c-0.31,0.32-0.68,0.51-1.09,0.56l0.11-0.52c0.51-0.15,0.85-0.62,1.02-1.42H99.71z
			 M100.92,387.31l1.19-0.08c0,0.34,0.05,0.64,0.16,0.88c0.1,0.24,0.3,0.44,0.58,0.59c0.28,0.15,0.6,0.22,0.97,0.22
			c0.52,0,0.91-0.1,1.17-0.31c0.26-0.21,0.39-0.45,0.39-0.73c0-0.21-0.08-0.4-0.23-0.58c-0.16-0.19-0.55-0.41-1.17-0.67
			c-0.62-0.27-1.02-0.46-1.19-0.58c-0.29-0.18-0.52-0.39-0.67-0.62c-0.15-0.24-0.22-0.52-0.22-0.83c0-0.54,0.22-1.01,0.66-1.39
			c0.44-0.4,1.05-0.59,1.83-0.59c0.86,0,1.52,0.2,1.97,0.61c0.46,0.4,0.7,0.92,0.72,1.58l-1.16,0.08c-0.02-0.42-0.17-0.74-0.45-0.98
			c-0.27-0.25-0.66-0.38-1.17-0.38c-0.41,0-0.72,0.09-0.95,0.28c-0.22,0.19-0.33,0.39-0.33,0.61c0,0.21,0.1,0.4,0.3,0.56
			c0.12,0.11,0.46,0.29,1,0.53c0.91,0.39,1.47,0.69,1.7,0.92c0.38,0.35,0.56,0.79,0.56,1.31c0,0.34-0.1,0.68-0.31,1.02
			c-0.21,0.32-0.53,0.58-0.97,0.78c-0.43,0.2-0.93,0.3-1.52,0.3c-0.8,0-1.48-0.2-2.05-0.59
			C101.15,388.83,100.89,388.19,100.92,387.31z M116.19,385.9l0.23-1.08h4.17l-0.81,3.89c-0.52,0.32-1.12,0.59-1.8,0.8
			c-0.67,0.21-1.33,0.31-1.98,0.31c-1.39,0-2.42-0.42-3.11-1.25c-0.57-0.71-0.86-1.61-0.86-2.72c0-1.15,0.25-2.19,0.75-3.12
			c0.51-0.95,1.15-1.65,1.92-2.09c0.77-0.45,1.62-0.67,2.56-0.67c0.68,0,1.28,0.12,1.81,0.38c0.54,0.24,0.95,0.57,1.23,0.98
			c0.29,0.41,0.5,0.94,0.62,1.59l-1.23,0.14c-0.14-0.66-0.42-1.16-0.84-1.5c-0.43-0.35-0.97-0.53-1.62-0.53
			c-0.7,0-1.35,0.19-1.95,0.56c-0.59,0.38-1.07,0.94-1.42,1.7c-0.35,0.75-0.53,1.61-0.53,2.58c0,0.96,0.23,1.68,0.7,2.17
			c0.48,0.49,1.14,0.73,1.97,0.73c0.82,0,1.71-0.28,2.67-0.83l0.42-2.05H116.19z M126.62,387.32l1.16,0.11
			c-0.17,0.57-0.55,1.11-1.14,1.62c-0.59,0.51-1.3,0.77-2.12,0.77c-0.51,0-0.98-0.11-1.41-0.34c-0.43-0.24-0.76-0.58-0.98-1.03
			c-0.22-0.46-0.33-0.97-0.33-1.55c0-0.76,0.17-1.49,0.52-2.2c0.35-0.71,0.81-1.23,1.36-1.58c0.56-0.34,1.17-0.52,1.81-0.52
			c0.82,0,1.48,0.26,1.97,0.77c0.5,0.51,0.75,1.21,0.75,2.09c0,0.33-0.03,0.68-0.09,1.05h-5.09c-0.02,0.12-0.03,0.24-0.03,0.36
			c0,0.65,0.15,1.14,0.44,1.48c0.3,0.33,0.67,0.5,1.11,0.5c0.4,0,0.79-0.13,1.17-0.39C126.09,388.2,126.4,387.82,126.62,387.32z
			 M123.2,385.6h3.88c0.01-0.12,0.02-0.21,0.02-0.27c0-0.58-0.15-1.03-0.45-1.34c-0.29-0.32-0.67-0.48-1.12-0.48
			c-0.51,0-0.97,0.18-1.39,0.53C123.71,384.39,123.41,384.91,123.2,385.6z M128.95,389.67l1.45-6.91h1.06l-0.25,1.2
			c0.46-0.48,0.89-0.82,1.3-1.03c0.41-0.22,0.82-0.33,1.23-0.33c0.56,0,1,0.15,1.31,0.45c0.32,0.3,0.48,0.71,0.48,1.22
			c0,0.25-0.06,0.65-0.17,1.2l-0.88,4.19h-1.17l0.92-4.38c0.08-0.43,0.12-0.74,0.12-0.95c0-0.23-0.08-0.41-0.23-0.55
			c-0.16-0.15-0.39-0.22-0.69-0.22c-0.6,0-1.14,0.22-1.61,0.66c-0.47,0.43-0.81,1.17-1.03,2.22l-0.67,3.22H128.95z M136.59,387.04
			c0-1.34,0.4-2.46,1.19-3.34c0.66-0.73,1.52-1.09,2.58-1.09c0.83,0,1.51,0.26,2.02,0.78c0.51,0.52,0.77,1.22,0.77,2.11
			c0,0.79-0.16,1.53-0.48,2.22c-0.32,0.68-0.78,1.2-1.38,1.56c-0.59,0.36-1.22,0.55-1.88,0.55c-0.53,0-1.02-0.11-1.47-0.34
			c-0.44-0.23-0.77-0.55-1-0.97C136.7,388.08,136.59,387.59,136.59,387.04z M137.76,386.93c0,0.65,0.16,1.14,0.47,1.48
			c0.31,0.33,0.71,0.5,1.19,0.5c0.25,0,0.5-0.05,0.75-0.16c0.25-0.1,0.48-0.26,0.69-0.47c0.22-0.21,0.4-0.44,0.55-0.7
			c0.15-0.27,0.27-0.56,0.36-0.88c0.14-0.43,0.2-0.84,0.2-1.23c0-0.62-0.16-1.11-0.47-1.45s-0.71-0.52-1.19-0.52
			c-0.38,0-0.71,0.09-1.02,0.27c-0.3,0.18-0.58,0.44-0.83,0.78c-0.24,0.33-0.42,0.72-0.53,1.17
			C137.81,386.18,137.76,386.58,137.76,386.93z M143.78,389.67l1.44-6.91h1.19l-0.25,1.14c0.44-0.5,0.83-0.84,1.17-1.02
			c0.35-0.19,0.73-0.28,1.12-0.28c0.44,0,0.8,0.11,1.08,0.34c0.29,0.22,0.48,0.54,0.58,0.95c0.34-0.44,0.71-0.76,1.09-0.97
			c0.4-0.22,0.81-0.33,1.23-0.33c0.58,0,1.02,0.14,1.3,0.41c0.29,0.27,0.44,0.66,0.44,1.16c0,0.21-0.05,0.56-0.16,1.05l-0.92,4.45
			h-1.17l0.94-4.56c0.08-0.38,0.12-0.65,0.12-0.81c0-0.22-0.07-0.39-0.22-0.52c-0.14-0.14-0.33-0.2-0.59-0.2
			c-0.35,0-0.71,0.11-1.08,0.33c-0.36,0.21-0.65,0.48-0.86,0.83c-0.2,0.34-0.37,0.88-0.52,1.59l-0.7,3.34h-1.19l0.98-4.67
			c0.07-0.31,0.11-0.54,0.11-0.67c0-0.23-0.07-0.41-0.22-0.55c-0.15-0.14-0.33-0.2-0.55-0.2c-0.33,0-0.69,0.11-1.06,0.33
			c-0.36,0.21-0.66,0.5-0.89,0.88s-0.42,0.92-0.56,1.62l-0.69,3.27H143.78z M159.96,387.32l1.16,0.11
			c-0.17,0.57-0.55,1.11-1.14,1.62c-0.59,0.51-1.3,0.77-2.12,0.77c-0.51,0-0.98-0.11-1.41-0.34c-0.43-0.24-0.76-0.58-0.98-1.03
			c-0.22-0.46-0.33-0.97-0.33-1.55c0-0.76,0.17-1.49,0.52-2.2c0.35-0.71,0.81-1.23,1.36-1.58c0.56-0.34,1.17-0.52,1.81-0.52
			c0.82,0,1.48,0.26,1.97,0.77c0.5,0.51,0.75,1.21,0.75,2.09c0,0.33-0.03,0.68-0.09,1.05h-5.09c-0.02,0.12-0.03,0.24-0.03,0.36
			c0,0.65,0.15,1.14,0.44,1.48c0.3,0.33,0.67,0.5,1.11,0.5c0.4,0,0.79-0.13,1.17-0.39C159.43,388.2,159.74,387.82,159.96,387.32z
			 M156.54,385.6h3.88c0.01-0.12,0.02-0.21,0.02-0.27c0-0.58-0.15-1.03-0.45-1.34c-0.29-0.32-0.67-0.48-1.12-0.48
			c-0.51,0-0.97,0.18-1.39,0.53C157.05,384.39,156.75,384.91,156.54,385.6z"/>
		<path class="st5" d="M264.61,350.95L264.61,350.95c0-6.88,5.58-12.46,12.46-12.46h193.85c3.31,0,6.47,1.31,8.81,3.65
			c2.34,2.34,3.65,5.51,3.65,8.81v49.85c0,6.88-5.58,12.46-12.46,12.46H277.08c-6.88,0-12.46-5.58-12.46-12.46V350.95z"/>
		<path class="st3" d="M264.61,350.95L264.61,350.95c0-6.88,5.58-12.46,12.46-12.46h193.85c3.31,0,6.47,1.31,8.81,3.65
			c2.34,2.34,3.65,5.51,3.65,8.81v49.85c0,6.88-5.58,12.46-12.46,12.46H277.08c-6.88,0-12.46-5.58-12.46-12.46V350.95z"/>
		<path d="M342.88,367.76c0-1.06,0.16-1.96,0.47-2.69c0.24-0.53,0.57-1.01,0.98-1.44c0.42-0.43,0.87-0.74,1.36-0.94
			c0.66-0.28,1.41-0.42,2.25-0.42c1.55,0,2.79,0.48,3.72,1.44c0.93,0.96,1.39,2.29,1.39,4c0,1.7-0.46,3.03-1.39,3.98
			c-0.92,0.95-2.15,1.42-3.69,1.42c-1.55,0-2.79-0.47-3.72-1.42C343.34,370.75,342.88,369.44,342.88,367.76z M345.05,367.7
			c0,1.19,0.28,2.09,0.83,2.7c0.55,0.61,1.25,0.92,2.09,0.92s1.54-0.3,2.08-0.91c0.54-0.61,0.81-1.53,0.81-2.75
			c0-1.2-0.27-2.09-0.8-2.69c-0.52-0.59-1.22-0.89-2.09-0.89s-1.58,0.3-2.12,0.91C345.32,365.59,345.05,366.49,345.05,367.7z
			 M359.69,372.95v-1.14c-0.27,0.41-0.64,0.73-1.09,0.97c-0.45,0.23-0.92,0.34-1.42,0.34c-0.51,0-0.97-0.11-1.38-0.33
			c-0.41-0.23-0.7-0.55-0.88-0.95s-0.27-0.97-0.27-1.69v-4.8h2v3.48c0,1.07,0.04,1.73,0.11,1.97c0.07,0.24,0.21,0.43,0.41,0.58
			c0.2,0.14,0.45,0.2,0.75,0.2c0.34,0,0.65-0.09,0.92-0.28s0.45-0.42,0.55-0.7c0.1-0.28,0.16-0.96,0.16-2.05v-3.2h2.02v7.59H359.69z
			 M367.12,365.36v1.59h-1.38v3.06c0,0.62,0.01,0.99,0.03,1.09c0.03,0.09,0.09,0.18,0.19,0.25c0.09,0.06,0.21,0.09,0.34,0.09
			c0.19,0,0.46-0.06,0.81-0.19l0.17,1.56c-0.47,0.2-1,0.3-1.59,0.3c-0.36,0-0.69-0.06-0.98-0.17c-0.28-0.12-0.49-0.28-0.64-0.47
			c-0.14-0.2-0.23-0.46-0.28-0.8c-0.04-0.24-0.06-0.71-0.06-1.42v-3.31h-0.92v-1.59h0.92v-1.52l2.02-1.17v2.69H367.12z
			 M375.15,367.59l-1.97,0.36c-0.07-0.4-0.23-0.69-0.47-0.89c-0.23-0.2-0.53-0.3-0.91-0.3c-0.5,0-0.9,0.17-1.2,0.52
			s-0.45,0.92-0.45,1.73c0,0.91,0.15,1.55,0.45,1.92c0.3,0.36,0.71,0.55,1.22,0.55c0.39,0,0.7-0.11,0.94-0.33
			c0.25-0.22,0.42-0.59,0.52-1.11l1.98,0.33c-0.21,0.91-0.6,1.59-1.19,2.06c-0.58,0.46-1.36,0.69-2.33,0.69
			c-1.11,0-2.01-0.35-2.67-1.05c-0.66-0.71-0.98-1.68-0.98-2.92c0-1.25,0.33-2.22,0.98-2.92c0.67-0.7,1.57-1.05,2.7-1.05
			c0.93,0,1.66,0.2,2.2,0.59C374.53,366.18,374.92,366.78,375.15,367.59z M376.22,369.05c0-0.67,0.16-1.31,0.48-1.94
			c0.33-0.62,0.8-1.1,1.41-1.42c0.6-0.33,1.28-0.5,2.02-0.5c1.15,0,2.09,0.38,2.83,1.12c0.74,0.74,1.11,1.68,1.11,2.81
			c0,1.16-0.38,2.11-1.12,2.88c-0.74,0.75-1.67,1.12-2.8,1.12c-0.7,0-1.36-0.16-2-0.47c-0.62-0.31-1.1-0.77-1.44-1.38
			C376.38,370.66,376.22,369.92,376.22,369.05z M378.27,369.15c0,0.75,0.18,1.33,0.53,1.73c0.36,0.4,0.81,0.59,1.34,0.59
			c0.52,0,0.96-0.2,1.31-0.59c0.35-0.41,0.53-0.99,0.53-1.75c0-0.75-0.18-1.32-0.53-1.72c-0.35-0.41-0.79-0.61-1.31-0.61
			c-0.53,0-0.98,0.2-1.34,0.61C378.44,367.82,378.27,368.39,378.27,369.15z M385.48,365.36h1.84v1.03c0.67-0.8,1.46-1.2,2.38-1.2
			c0.49,0,0.91,0.1,1.27,0.3c0.35,0.2,0.65,0.5,0.88,0.91c0.33-0.41,0.69-0.71,1.08-0.91c0.4-0.2,0.81-0.3,1.25-0.3
			c0.55,0,1.02,0.11,1.41,0.34c0.4,0.22,0.69,0.55,0.88,0.98c0.14,0.32,0.2,0.85,0.2,1.58v4.86h-2.02v-4.34
			c0-0.75-0.07-1.23-0.2-1.45c-0.19-0.29-0.47-0.44-0.86-0.44c-0.28,0-0.55,0.09-0.8,0.27c-0.24,0.17-0.42,0.42-0.53,0.75
			c-0.11,0.33-0.17,0.85-0.17,1.56v3.66h-2v-4.17c0-0.74-0.04-1.21-0.11-1.42c-0.07-0.22-0.19-0.38-0.34-0.48
			c-0.15-0.1-0.35-0.16-0.61-0.16c-0.3,0-0.58,0.08-0.83,0.25c-0.25,0.17-0.43,0.41-0.55,0.73c-0.1,0.31-0.16,0.83-0.16,1.56v3.69
			h-2V365.36z M403.06,370.53l2,0.34c-0.25,0.73-0.66,1.29-1.22,1.67c-0.55,0.39-1.24,0.58-2.08,0.58c-1.32,0-2.3-0.43-2.94-1.3
			c-0.5-0.69-0.75-1.56-0.75-2.62c0-1.25,0.33-2.23,0.98-2.94c0.66-0.72,1.49-1.08,2.5-1.08c1.12,0,2.02,0.38,2.67,1.12
			c0.66,0.74,0.97,1.88,0.94,3.42h-5.03c0.01,0.59,0.17,1.06,0.48,1.39c0.31,0.33,0.7,0.5,1.16,0.5c0.31,0,0.57-0.08,0.78-0.25
			C402.78,371.2,402.95,370.91,403.06,370.53z M403.17,368.5c-0.01-0.58-0.16-1.03-0.45-1.33c-0.28-0.3-0.62-0.45-1.03-0.45
			c-0.45,0-0.81,0.16-1.09,0.48c-0.28,0.31-0.42,0.74-0.42,1.3H403.17z"/>
		<path d="M298.76,389.67l2-9.55h3.97c0.7,0,1.22,0.08,1.56,0.25c0.34,0.16,0.62,0.43,0.84,0.81c0.23,0.39,0.34,0.81,0.34,1.28
			c0,0.4-0.08,0.8-0.25,1.22c-0.16,0.41-0.36,0.74-0.61,1c-0.24,0.26-0.48,0.46-0.73,0.59s-0.52,0.23-0.81,0.3
			c-0.6,0.15-1.22,0.22-1.84,0.22h-2.39l-0.81,3.88H298.76z M301.08,384.72h2.09c0.81,0,1.41-0.09,1.8-0.27s0.69-0.44,0.92-0.8
			c0.23-0.36,0.34-0.75,0.34-1.16c0-0.31-0.06-0.56-0.19-0.75c-0.12-0.2-0.3-0.34-0.52-0.44s-0.64-0.14-1.27-0.14h-2.45
			L301.08,384.72z M312.19,388.81c-0.42,0.35-0.81,0.61-1.19,0.78c-0.38,0.16-0.78,0.23-1.2,0.23c-0.65,0-1.17-0.19-1.56-0.56
			c-0.39-0.38-0.58-0.85-0.58-1.44c0-0.39,0.09-0.72,0.27-1.02c0.18-0.3,0.41-0.54,0.7-0.72c0.29-0.19,0.65-0.32,1.06-0.39
			c0.27-0.05,0.78-0.09,1.52-0.12c0.74-0.03,1.27-0.11,1.59-0.23c0.08-0.32,0.12-0.59,0.12-0.81c0-0.27-0.1-0.48-0.3-0.64
			c-0.27-0.22-0.67-0.33-1.19-0.33c-0.5,0-0.91,0.11-1.22,0.33s-0.54,0.53-0.69,0.94l-1.19-0.11c0.24-0.68,0.62-1.2,1.14-1.56
			c0.53-0.36,1.2-0.55,2-0.55c0.85,0,1.53,0.2,2.03,0.61c0.39,0.3,0.58,0.7,0.58,1.19c0,0.36-0.05,0.79-0.16,1.28l-0.39,1.72
			c-0.12,0.54-0.19,0.98-0.19,1.33c0,0.22,0.05,0.53,0.16,0.94h-1.2C312.25,389.44,312.21,389.16,312.19,388.81z M312.61,386.17
			c-0.16,0.06-0.33,0.11-0.53,0.16c-0.19,0.03-0.5,0.07-0.94,0.11c-0.69,0.05-1.17,0.12-1.45,0.22s-0.49,0.24-0.64,0.45
			c-0.15,0.2-0.22,0.42-0.22,0.67c0,0.33,0.11,0.61,0.34,0.83c0.23,0.21,0.56,0.31,0.98,0.31c0.39,0,0.76-0.1,1.11-0.31
			c0.36-0.21,0.65-0.49,0.86-0.86C312.33,387.37,312.49,386.85,312.61,386.17z M314.93,389.67l1.45-6.91h1.03l-0.28,1.41
			c0.35-0.53,0.7-0.92,1.03-1.17c0.34-0.26,0.69-0.39,1.05-0.39c0.24,0,0.53,0.08,0.88,0.25l-0.48,1.09
			c-0.21-0.15-0.43-0.22-0.67-0.22c-0.42,0-0.84,0.23-1.28,0.69c-0.43,0.46-0.77,1.29-1.02,2.48l-0.58,2.77H314.93z M322.13,388.72
			l-0.2,0.95c-0.28,0.07-0.55,0.11-0.81,0.11c-0.47,0-0.84-0.11-1.12-0.34c-0.21-0.17-0.31-0.4-0.31-0.7c0-0.16,0.06-0.51,0.17-1.05
			l0.83-4.02h-0.92l0.19-0.91h0.94l0.34-1.7l1.36-0.81l-0.53,2.52h1.16l-0.19,0.91h-1.16l-0.8,3.81c-0.1,0.49-0.16,0.78-0.16,0.88
			c0,0.15,0.04,0.26,0.11,0.33c0.08,0.07,0.22,0.11,0.41,0.11C321.69,388.8,321.92,388.77,322.13,388.72z M324.74,381.47l0.28-1.34
			h1.17l-0.28,1.34H324.74z M323.02,389.67l1.45-6.91h1.17l-1.44,6.91H323.02z M330.81,387.16l1.17,0.12
			c-0.29,0.86-0.71,1.51-1.27,1.92c-0.54,0.42-1.16,0.62-1.84,0.62c-0.76,0-1.38-0.24-1.84-0.72c-0.46-0.49-0.69-1.17-0.69-2.05
			c0-0.75,0.15-1.49,0.44-2.22c0.3-0.73,0.73-1.28,1.28-1.66c0.56-0.39,1.2-0.58,1.92-0.58c0.74,0,1.33,0.21,1.77,0.62
			s0.66,0.97,0.66,1.66l-1.16,0.08c-0.01-0.44-0.14-0.78-0.39-1.02c-0.25-0.25-0.58-0.38-0.98-0.38c-0.47,0-0.88,0.15-1.23,0.45
			c-0.34,0.29-0.61,0.74-0.81,1.36c-0.2,0.6-0.3,1.19-0.3,1.75c0,0.59,0.13,1.04,0.39,1.34c0.26,0.29,0.58,0.44,0.97,0.44
			c0.38,0,0.73-0.15,1.08-0.44C330.32,388.19,330.6,387.75,330.81,387.16z M334.36,381.47l0.28-1.34h1.17l-0.28,1.34H334.36z
			 M332.65,389.67l1.45-6.91h1.17l-1.44,6.91H332.65z M335.08,392.33l2-9.56h1.09l-0.2,0.95c0.4-0.42,0.76-0.7,1.08-0.86
			c0.32-0.17,0.66-0.25,1.02-0.25c0.66,0,1.2,0.24,1.62,0.72c0.44,0.48,0.66,1.17,0.66,2.06c0,0.72-0.12,1.38-0.36,1.97
			c-0.23,0.58-0.52,1.06-0.88,1.42c-0.34,0.36-0.69,0.63-1.05,0.8c-0.35,0.17-0.72,0.25-1.09,0.25c-0.83,0-1.47-0.42-1.92-1.27
			l-0.78,3.77H335.08z M337.4,386.84c0,0.52,0.04,0.88,0.11,1.08c0.11,0.28,0.29,0.51,0.53,0.69c0.25,0.17,0.54,0.25,0.88,0.25
			c0.68,0,1.22-0.38,1.64-1.14c0.42-0.76,0.62-1.54,0.62-2.33c0-0.58-0.14-1.04-0.42-1.36s-0.63-0.48-1.05-0.48
			c-0.3,0-0.58,0.08-0.84,0.25c-0.25,0.16-0.48,0.39-0.7,0.7s-0.4,0.7-0.55,1.16C337.48,386.11,337.4,386.51,337.4,386.84z
			 M347.74,388.81c-0.42,0.35-0.81,0.61-1.19,0.78c-0.38,0.16-0.78,0.23-1.2,0.23c-0.65,0-1.17-0.19-1.56-0.56
			c-0.39-0.38-0.58-0.85-0.58-1.44c0-0.39,0.09-0.72,0.27-1.02c0.18-0.3,0.41-0.54,0.7-0.72c0.29-0.19,0.65-0.32,1.06-0.39
			c0.27-0.05,0.78-0.09,1.52-0.12c0.74-0.03,1.27-0.11,1.59-0.23c0.08-0.32,0.12-0.59,0.12-0.81c0-0.27-0.1-0.48-0.3-0.64
			c-0.27-0.22-0.67-0.33-1.19-0.33c-0.5,0-0.91,0.11-1.22,0.33s-0.54,0.53-0.69,0.94l-1.19-0.11c0.24-0.68,0.62-1.2,1.14-1.56
			c0.53-0.36,1.2-0.55,2-0.55c0.85,0,1.53,0.2,2.03,0.61c0.39,0.3,0.58,0.7,0.58,1.19c0,0.36-0.05,0.79-0.16,1.28l-0.39,1.72
			c-0.12,0.54-0.19,0.98-0.19,1.33c0,0.22,0.05,0.53,0.16,0.94h-1.2C347.8,389.44,347.76,389.16,347.74,388.81z M348.16,386.17
			c-0.16,0.06-0.33,0.11-0.53,0.16c-0.19,0.03-0.5,0.07-0.94,0.11c-0.69,0.05-1.17,0.12-1.45,0.22s-0.49,0.24-0.64,0.45
			c-0.15,0.2-0.22,0.42-0.22,0.67c0,0.33,0.11,0.61,0.34,0.83c0.23,0.21,0.56,0.31,0.98,0.31c0.39,0,0.76-0.1,1.11-0.31
			c0.36-0.21,0.65-0.49,0.86-0.86C347.88,387.37,348.05,386.85,348.16,386.17z M350.48,389.67l1.45-6.91h1.06l-0.25,1.2
			c0.46-0.48,0.89-0.82,1.3-1.03c0.41-0.22,0.82-0.33,1.23-0.33c0.56,0,1,0.15,1.31,0.45c0.32,0.3,0.48,0.71,0.48,1.22
			c0,0.25-0.06,0.65-0.17,1.2l-0.88,4.19h-1.17l0.92-4.38c0.08-0.43,0.12-0.74,0.12-0.95c0-0.23-0.08-0.41-0.23-0.55
			c-0.16-0.15-0.39-0.22-0.69-0.22c-0.6,0-1.14,0.22-1.61,0.66c-0.47,0.43-0.81,1.17-1.03,2.22l-0.67,3.22H350.48z M360.66,388.72
			l-0.2,0.95c-0.28,0.07-0.55,0.11-0.81,0.11c-0.47,0-0.84-0.11-1.12-0.34c-0.21-0.17-0.31-0.4-0.31-0.7c0-0.16,0.06-0.51,0.17-1.05
			l0.83-4.02h-0.92l0.19-0.91h0.94l0.34-1.7l1.36-0.81l-0.53,2.52h1.16l-0.19,0.91h-1.16l-0.8,3.81c-0.1,0.49-0.16,0.78-0.16,0.88
			c0,0.15,0.04,0.26,0.11,0.33c0.08,0.07,0.22,0.11,0.41,0.11C360.21,388.8,360.45,388.77,360.66,388.72z M363.22,381.5l0.28-1.33
			h1.34l-0.23,1.17c-0.15,0.7-0.38,1.21-0.69,1.53s-0.68,0.51-1.09,0.56l0.11-0.52c0.51-0.15,0.85-0.62,1.02-1.42H363.22z
			 M364.42,387.31l1.19-0.08c0,0.34,0.05,0.64,0.16,0.88s0.3,0.44,0.58,0.59c0.28,0.15,0.6,0.22,0.97,0.22
			c0.52,0,0.91-0.1,1.17-0.31s0.39-0.45,0.39-0.73c0-0.21-0.08-0.4-0.23-0.58c-0.16-0.19-0.55-0.41-1.17-0.67
			c-0.62-0.27-1.02-0.46-1.19-0.58c-0.29-0.18-0.52-0.39-0.67-0.62c-0.15-0.24-0.22-0.52-0.22-0.83c0-0.54,0.22-1.01,0.66-1.39
			c0.44-0.4,1.05-0.59,1.83-0.59c0.86,0,1.52,0.2,1.97,0.61c0.46,0.4,0.7,0.92,0.72,1.58l-1.16,0.08c-0.02-0.42-0.17-0.74-0.45-0.98
			c-0.27-0.25-0.66-0.38-1.17-0.38c-0.41,0-0.72,0.09-0.95,0.28c-0.22,0.19-0.33,0.39-0.33,0.61c0,0.21,0.1,0.4,0.3,0.56
			c0.12,0.11,0.46,0.29,1,0.53c0.91,0.39,1.47,0.69,1.7,0.92c0.38,0.35,0.56,0.79,0.56,1.31c0,0.34-0.1,0.68-0.31,1.02
			c-0.21,0.32-0.53,0.58-0.97,0.78c-0.43,0.2-0.93,0.3-1.52,0.3c-0.8,0-1.48-0.2-2.05-0.59S364.39,388.2,364.42,387.31z
			 M382.28,386.31l1.27,0.17c-0.4,1.1-0.98,1.94-1.75,2.5c-0.76,0.56-1.61,0.84-2.56,0.84c-1.16,0-2.08-0.35-2.77-1.05
			c-0.68-0.71-1.02-1.72-1.02-3.05c0-1.72,0.52-3.14,1.56-4.27c0.92-1,2.06-1.5,3.42-1.5c1.01,0,1.83,0.27,2.45,0.81
			c0.64,0.54,1,1.27,1.09,2.19l-1.19,0.11c-0.12-0.69-0.39-1.2-0.78-1.55s-0.9-0.52-1.52-0.52c-1.17,0-2.11,0.52-2.83,1.56
			c-0.62,0.9-0.94,1.96-0.94,3.19c0,0.98,0.24,1.73,0.72,2.25c0.48,0.51,1.1,0.77,1.88,0.77c0.67,0,1.27-0.21,1.8-0.64
			C381.65,387.7,382.04,387.09,382.28,386.31z M384.53,387.05c0-1.34,0.4-2.46,1.19-3.34c0.66-0.73,1.52-1.09,2.58-1.09
			c0.83,0,1.51,0.26,2.02,0.78c0.51,0.52,0.77,1.22,0.77,2.11c0,0.79-0.16,1.53-0.48,2.22c-0.32,0.68-0.78,1.2-1.38,1.56
			s-1.22,0.55-1.88,0.55c-0.53,0-1.02-0.11-1.47-0.34c-0.44-0.23-0.77-0.55-1-0.97C384.64,388.09,384.53,387.6,384.53,387.05z
			 M385.7,386.94c0,0.65,0.16,1.14,0.47,1.48c0.31,0.33,0.71,0.5,1.19,0.5c0.25,0,0.5-0.05,0.75-0.16s0.48-0.26,0.69-0.47
			c0.22-0.21,0.4-0.44,0.55-0.7c0.15-0.27,0.27-0.56,0.36-0.88c0.14-0.43,0.2-0.84,0.2-1.23c0-0.62-0.16-1.11-0.47-1.45
			s-0.71-0.52-1.19-0.52c-0.38,0-0.71,0.09-1.02,0.27c-0.3,0.18-0.58,0.44-0.83,0.78c-0.24,0.33-0.42,0.72-0.53,1.17
			C385.75,386.18,385.7,386.58,385.7,386.94z M391.72,389.67l1.45-6.91h1.06l-0.25,1.2c0.46-0.48,0.89-0.82,1.3-1.03
			c0.41-0.22,0.82-0.33,1.23-0.33c0.56,0,1,0.15,1.31,0.45c0.32,0.3,0.48,0.71,0.48,1.22c0,0.25-0.06,0.65-0.17,1.2l-0.88,4.19
			h-1.17l0.92-4.38c0.08-0.43,0.12-0.74,0.12-0.95c0-0.23-0.08-0.41-0.23-0.55c-0.16-0.15-0.39-0.22-0.69-0.22
			c-0.6,0-1.14,0.22-1.61,0.66c-0.47,0.43-0.81,1.17-1.03,2.22l-0.67,3.22H391.72z M399.13,389.67l1.45-6.91h1.06l-0.25,1.2
			c0.46-0.48,0.89-0.82,1.3-1.03c0.41-0.22,0.82-0.33,1.23-0.33c0.56,0,1,0.15,1.31,0.45c0.32,0.3,0.48,0.71,0.48,1.22
			c0,0.25-0.06,0.65-0.17,1.2l-0.88,4.19h-1.17l0.92-4.38c0.08-0.43,0.12-0.74,0.12-0.95c0-0.23-0.08-0.41-0.23-0.55
			c-0.16-0.15-0.39-0.22-0.69-0.22c-0.6,0-1.14,0.22-1.61,0.66c-0.47,0.43-0.81,1.17-1.03,2.22l-0.67,3.22H399.13z M411.62,387.33
			l1.16,0.11c-0.17,0.57-0.55,1.11-1.14,1.62s-1.3,0.77-2.12,0.77c-0.51,0-0.98-0.11-1.41-0.34c-0.43-0.24-0.76-0.58-0.98-1.03
			c-0.22-0.46-0.33-0.97-0.33-1.55c0-0.76,0.17-1.49,0.52-2.2c0.35-0.71,0.81-1.23,1.36-1.58c0.56-0.34,1.17-0.52,1.81-0.52
			c0.82,0,1.48,0.26,1.97,0.77c0.5,0.51,0.75,1.21,0.75,2.09c0,0.33-0.03,0.68-0.09,1.05h-5.09c-0.02,0.12-0.03,0.24-0.03,0.36
			c0,0.65,0.15,1.14,0.44,1.48c0.3,0.33,0.67,0.5,1.11,0.5c0.4,0,0.79-0.13,1.17-0.39C411.1,388.21,411.4,387.83,411.62,387.33z
			 M408.2,385.61h3.88c0.01-0.12,0.02-0.21,0.02-0.27c0-0.58-0.15-1.03-0.45-1.34c-0.29-0.32-0.67-0.48-1.12-0.48
			c-0.51,0-0.97,0.18-1.39,0.53C408.72,384.39,408.41,384.91,408.2,385.61z M418.74,387.16l1.17,0.12
			c-0.29,0.86-0.71,1.51-1.27,1.92c-0.54,0.42-1.16,0.62-1.84,0.62c-0.76,0-1.38-0.24-1.84-0.72c-0.46-0.49-0.69-1.17-0.69-2.05
			c0-0.75,0.15-1.49,0.44-2.22c0.3-0.73,0.73-1.28,1.28-1.66c0.56-0.39,1.2-0.58,1.92-0.58c0.74,0,1.33,0.21,1.77,0.62
			s0.66,0.97,0.66,1.66l-1.16,0.08c-0.01-0.44-0.14-0.78-0.39-1.02c-0.25-0.25-0.58-0.38-0.98-0.38c-0.47,0-0.88,0.15-1.23,0.45
			c-0.34,0.29-0.61,0.74-0.81,1.36c-0.2,0.6-0.3,1.19-0.3,1.75c0,0.59,0.13,1.04,0.39,1.34c0.26,0.29,0.58,0.44,0.97,0.44
			c0.38,0,0.73-0.15,1.08-0.44C418.25,388.19,418.53,387.75,418.74,387.16z M423.39,388.72l-0.2,0.95
			c-0.28,0.07-0.55,0.11-0.81,0.11c-0.47,0-0.84-0.11-1.12-0.34c-0.21-0.17-0.31-0.4-0.31-0.7c0-0.16,0.06-0.51,0.17-1.05l0.83-4.02
			h-0.92l0.19-0.91h0.94l0.34-1.7l1.36-0.81l-0.53,2.52h1.16l-0.19,0.91h-1.16l-0.8,3.81c-0.1,0.49-0.16,0.78-0.16,0.88
			c0,0.15,0.04,0.26,0.11,0.33c0.08,0.07,0.22,0.11,0.41,0.11C422.94,388.8,423.18,388.77,423.39,388.72z M424.54,387.05
			c0-1.34,0.4-2.46,1.19-3.34c0.66-0.73,1.52-1.09,2.58-1.09c0.83,0,1.51,0.26,2.02,0.78s0.77,1.22,0.77,2.11
			c0,0.79-0.16,1.53-0.48,2.22c-0.32,0.68-0.78,1.2-1.38,1.56s-1.22,0.55-1.88,0.55c-0.53,0-1.02-0.11-1.47-0.34
			c-0.44-0.23-0.77-0.55-1-0.97C424.66,388.09,424.54,387.6,424.54,387.05z M425.71,386.94c0,0.65,0.16,1.14,0.47,1.48
			c0.31,0.33,0.71,0.5,1.19,0.5c0.25,0,0.5-0.05,0.75-0.16s0.48-0.26,0.69-0.47c0.22-0.21,0.4-0.44,0.55-0.7
			c0.15-0.27,0.27-0.56,0.36-0.88c0.14-0.43,0.2-0.84,0.2-1.23c0-0.62-0.16-1.11-0.47-1.45s-0.71-0.52-1.19-0.52
			c-0.38,0-0.71,0.09-1.02,0.27s-0.58,0.44-0.83,0.78c-0.24,0.33-0.42,0.72-0.53,1.17S425.71,386.58,425.71,386.94z M431.74,389.67
			l1.44-6.91h1.19l-0.25,1.14c0.44-0.5,0.83-0.84,1.17-1.02c0.35-0.19,0.73-0.28,1.12-0.28c0.44,0,0.8,0.11,1.08,0.34
			c0.29,0.22,0.48,0.54,0.58,0.95c0.34-0.44,0.71-0.76,1.09-0.97c0.4-0.22,0.81-0.33,1.23-0.33c0.58,0,1.02,0.14,1.3,0.41
			c0.29,0.27,0.44,0.66,0.44,1.16c0,0.21-0.05,0.56-0.16,1.05l-0.92,4.45h-1.17l0.94-4.56c0.08-0.38,0.12-0.65,0.12-0.81
			c0-0.22-0.07-0.39-0.22-0.52c-0.14-0.14-0.33-0.2-0.59-0.2c-0.35,0-0.71,0.11-1.08,0.33c-0.36,0.21-0.65,0.48-0.86,0.83
			c-0.2,0.34-0.37,0.88-0.52,1.59l-0.7,3.34h-1.19l0.98-4.67c0.07-0.31,0.11-0.54,0.11-0.67c0-0.23-0.07-0.41-0.22-0.55
			s-0.33-0.2-0.55-0.2c-0.33,0-0.69,0.11-1.06,0.33c-0.36,0.21-0.66,0.5-0.89,0.88s-0.42,0.92-0.56,1.62l-0.69,3.27H431.74z
			 M447.92,387.33l1.16,0.11c-0.17,0.57-0.55,1.11-1.14,1.62s-1.3,0.77-2.12,0.77c-0.51,0-0.98-0.11-1.41-0.34
			c-0.43-0.24-0.76-0.58-0.98-1.03c-0.22-0.46-0.33-0.97-0.33-1.55c0-0.76,0.17-1.49,0.52-2.2c0.35-0.71,0.81-1.23,1.36-1.58
			c0.56-0.34,1.17-0.52,1.81-0.52c0.82,0,1.48,0.26,1.97,0.77c0.5,0.51,0.75,1.21,0.75,2.09c0,0.33-0.03,0.68-0.09,1.05h-5.09
			c-0.02,0.12-0.03,0.24-0.03,0.36c0,0.65,0.15,1.14,0.44,1.48c0.3,0.33,0.67,0.5,1.11,0.5c0.4,0,0.79-0.13,1.17-0.39
			C447.39,388.21,447.7,387.83,447.92,387.33z M444.49,385.61h3.88c0.01-0.12,0.02-0.21,0.02-0.27c0-0.58-0.15-1.03-0.45-1.34
			c-0.29-0.32-0.67-0.48-1.12-0.48c-0.51,0-0.97,0.18-1.39,0.53C445.01,384.39,444.7,384.91,444.49,385.61z"/>
		<path class="st2" d="M265.39,120.93L265.39,120.93c0-6.88,5.58-12.46,12.46-12.46h192.59c3.31,0,6.47,1.31,8.81,3.65
			c2.34,2.34,3.65,5.51,3.65,8.81v49.85c0,6.88-5.58,12.46-12.46,12.46H277.85c-6.88,0-12.46-5.58-12.46-12.46V120.93z"/>
		<path class="st3" d="M265.39,120.93L265.39,120.93c0-6.88,5.58-12.46,12.46-12.46h192.59c3.31,0,6.47,1.31,8.81,3.65
			c2.34,2.34,3.65,5.51,3.65,8.81v49.85c0,6.88-5.58,12.46-12.46,12.46H277.85c-6.88,0-12.46-5.58-12.46-12.46V120.93z"/>
		<path d="M348.77,134.94v-10.48h2.06l4.28,7v-7h1.97v10.48h-2.12l-4.22-6.84v6.84H348.77z M364.31,134.94v-1.14
			c-0.27,0.41-0.64,0.73-1.09,0.97c-0.45,0.23-0.92,0.34-1.42,0.34c-0.51,0-0.97-0.11-1.38-0.33c-0.41-0.23-0.7-0.55-0.88-0.95
			c-0.18-0.41-0.27-0.97-0.27-1.69v-4.8h2v3.48c0,1.07,0.04,1.73,0.11,1.97c0.07,0.24,0.21,0.43,0.41,0.58
			c0.2,0.14,0.45,0.2,0.75,0.2c0.34,0,0.65-0.09,0.92-0.28c0.27-0.19,0.45-0.42,0.55-0.7c0.1-0.28,0.16-0.96,0.16-2.05v-3.2h2.02
			v7.59H364.31z M370.2,134.94h-2.02v-7.59h1.86v1.08c0.32-0.51,0.61-0.84,0.86-1c0.26-0.17,0.55-0.25,0.88-0.25
			c0.46,0,0.9,0.12,1.33,0.38l-0.62,1.75c-0.33-0.22-0.65-0.33-0.94-0.33c-0.28,0-0.52,0.08-0.72,0.23s-0.35,0.44-0.47,0.84
			c-0.1,0.41-0.16,1.26-0.16,2.55V134.94z M377.45,127.34v1.59h-1.38V132c0,0.62,0.01,0.99,0.03,1.09c0.03,0.09,0.09,0.18,0.19,0.25
			c0.09,0.06,0.21,0.09,0.34,0.09c0.19,0,0.46-0.06,0.81-0.19l0.17,1.56c-0.47,0.2-1,0.3-1.59,0.3c-0.36,0-0.69-0.06-0.98-0.17
			c-0.28-0.12-0.49-0.28-0.64-0.47c-0.14-0.2-0.23-0.46-0.28-0.8c-0.04-0.24-0.06-0.71-0.06-1.42v-3.31h-0.92v-1.59h0.92v-1.52
			l2.02-1.17v2.69H377.45z M383.85,134.94v-1.14c-0.27,0.41-0.64,0.73-1.09,0.97c-0.45,0.23-0.92,0.34-1.42,0.34
			c-0.51,0-0.97-0.11-1.38-0.33c-0.41-0.23-0.7-0.55-0.88-0.95c-0.18-0.41-0.27-0.97-0.27-1.69v-4.8h2v3.48
			c0,1.07,0.04,1.73,0.11,1.97c0.07,0.24,0.21,0.43,0.41,0.58c0.2,0.14,0.45,0.2,0.75,0.2c0.34,0,0.65-0.09,0.92-0.28
			c0.27-0.19,0.45-0.42,0.55-0.7c0.1-0.28,0.16-0.96,0.16-2.05v-3.2h2.02v7.59H383.85z M389.74,134.94h-2.02v-7.59h1.86v1.08
			c0.32-0.51,0.61-0.84,0.86-1c0.26-0.17,0.55-0.25,0.88-0.25c0.46,0,0.9,0.12,1.33,0.38l-0.62,1.75c-0.33-0.22-0.65-0.33-0.94-0.33
			c-0.28,0-0.52,0.08-0.72,0.23c-0.2,0.16-0.35,0.44-0.47,0.84c-0.1,0.41-0.16,1.26-0.16,2.55V134.94z M397.91,132.52l2,0.34
			c-0.25,0.73-0.66,1.29-1.22,1.67c-0.55,0.39-1.24,0.58-2.08,0.58c-1.32,0-2.3-0.43-2.94-1.3c-0.5-0.69-0.75-1.56-0.75-2.62
			c0-1.25,0.33-2.23,0.98-2.94c0.66-0.72,1.49-1.08,2.5-1.08c1.13,0,2.02,0.38,2.67,1.12c0.66,0.74,0.97,1.88,0.94,3.42h-5.03
			c0.01,0.59,0.17,1.06,0.48,1.39c0.31,0.33,0.7,0.5,1.16,0.5c0.31,0,0.57-0.08,0.78-0.25C397.63,133.18,397.79,132.9,397.91,132.52
			z M398.02,130.49c-0.01-0.58-0.16-1.03-0.45-1.33c-0.28-0.3-0.62-0.45-1.03-0.45c-0.45,0-0.81,0.16-1.09,0.48
			c-0.28,0.31-0.42,0.74-0.42,1.3H398.02z"/>
		<path d="M280.27,151.66l2-9.55h6.89l-0.23,1.09h-5.61l-0.62,2.97h5.47l-0.22,1.08h-5.47l-0.69,3.33h6l-0.23,1.08H280.27z
			 M293.68,150.66c-0.68,0.77-1.38,1.16-2.11,1.16c-0.66,0-1.2-0.24-1.64-0.72c-0.44-0.49-0.66-1.19-0.66-2.11
			c0-0.84,0.17-1.61,0.52-2.31s0.78-1.22,1.3-1.56c0.52-0.34,1.04-0.52,1.56-0.52c0.85,0,1.5,0.41,1.94,1.23l0.78-3.72h1.17
			l-1.98,9.55h-1.09L293.68,150.66z M290.44,148.77c0,0.48,0.05,0.86,0.14,1.14c0.09,0.27,0.26,0.5,0.48,0.69
			c0.23,0.19,0.51,0.28,0.83,0.28c0.53,0,1.02-0.28,1.45-0.84c0.58-0.74,0.88-1.65,0.88-2.73c0-0.54-0.15-0.96-0.44-1.27
			c-0.28-0.31-0.64-0.47-1.08-0.47c-0.28,0-0.54,0.06-0.77,0.19c-0.23,0.12-0.46,0.34-0.69,0.64c-0.23,0.3-0.42,0.69-0.58,1.16
			C290.52,148.01,290.44,148.41,290.44,148.77z M301.14,150.41c-0.82,0.94-1.67,1.41-2.55,1.41c-0.53,0-0.96-0.15-1.3-0.45
			c-0.32-0.31-0.48-0.69-0.48-1.12c0-0.29,0.07-0.79,0.22-1.5l0.84-3.98h1.17l-0.92,4.41c-0.07,0.38-0.11,0.66-0.11,0.86
			c0,0.26,0.08,0.46,0.23,0.61s0.39,0.22,0.7,0.22c0.32,0,0.64-0.08,0.95-0.23c0.32-0.16,0.59-0.37,0.81-0.64
			c0.23-0.28,0.42-0.61,0.56-0.98c0.09-0.24,0.2-0.66,0.33-1.25l0.62-2.98h1.19l-1.45,6.91h-1.08L301.14,150.41z M308.61,149.14
			l1.17,0.12c-0.29,0.86-0.71,1.51-1.27,1.92c-0.54,0.42-1.16,0.62-1.84,0.62c-0.76,0-1.38-0.24-1.84-0.72
			c-0.46-0.49-0.69-1.17-0.69-2.05c0-0.75,0.15-1.49,0.44-2.22c0.3-0.73,0.73-1.28,1.28-1.66c0.56-0.39,1.2-0.58,1.92-0.58
			c0.74,0,1.33,0.21,1.77,0.62s0.66,0.97,0.66,1.66l-1.16,0.08c-0.01-0.44-0.14-0.78-0.39-1.02c-0.25-0.25-0.58-0.38-0.98-0.38
			c-0.47,0-0.88,0.15-1.23,0.45c-0.34,0.29-0.61,0.74-0.81,1.36c-0.2,0.6-0.3,1.19-0.3,1.75c0,0.59,0.13,1.04,0.39,1.34
			c0.26,0.29,0.58,0.44,0.97,0.44c0.38,0,0.73-0.15,1.08-0.44C308.12,150.18,308.4,149.74,308.61,149.14z M315.17,150.8
			c-0.42,0.35-0.81,0.61-1.19,0.78c-0.38,0.16-0.78,0.23-1.2,0.23c-0.65,0-1.17-0.19-1.56-0.56c-0.39-0.38-0.58-0.85-0.58-1.44
			c0-0.39,0.09-0.72,0.27-1.02c0.18-0.3,0.41-0.54,0.7-0.72c0.29-0.19,0.65-0.32,1.06-0.39c0.27-0.05,0.78-0.09,1.52-0.12
			c0.74-0.03,1.27-0.11,1.59-0.23c0.08-0.32,0.12-0.59,0.12-0.81c0-0.27-0.1-0.48-0.3-0.64c-0.27-0.22-0.67-0.33-1.19-0.33
			c-0.5,0-0.91,0.11-1.22,0.33s-0.54,0.53-0.69,0.94l-1.19-0.11c0.24-0.68,0.62-1.2,1.14-1.56c0.53-0.36,1.2-0.55,2-0.55
			c0.85,0,1.53,0.2,2.03,0.61c0.39,0.3,0.58,0.7,0.58,1.19c0,0.36-0.05,0.79-0.16,1.28l-0.39,1.72c-0.12,0.54-0.19,0.98-0.19,1.33
			c0,0.22,0.05,0.53,0.16,0.94h-1.2C315.23,151.43,315.19,151.14,315.17,150.8z M315.59,148.16c-0.16,0.06-0.33,0.11-0.53,0.16
			c-0.19,0.03-0.5,0.07-0.94,0.11c-0.69,0.05-1.17,0.12-1.45,0.22s-0.49,0.24-0.64,0.45c-0.15,0.2-0.22,0.42-0.22,0.67
			c0,0.33,0.11,0.61,0.34,0.83c0.23,0.21,0.56,0.31,0.98,0.31c0.39,0,0.76-0.1,1.11-0.31c0.36-0.21,0.65-0.49,0.86-0.86
			C315.31,149.36,315.48,148.84,315.59,148.16z M320.67,150.71l-0.2,0.95c-0.28,0.07-0.55,0.11-0.81,0.11
			c-0.47,0-0.84-0.11-1.12-0.34c-0.21-0.17-0.31-0.4-0.31-0.7c0-0.16,0.06-0.51,0.17-1.05l0.83-4.02h-0.92l0.19-0.91h0.94l0.34-1.7
			l1.36-0.81l-0.53,2.52h1.16l-0.19,0.91h-1.16l-0.8,3.81c-0.1,0.49-0.16,0.78-0.16,0.88c0,0.15,0.04,0.26,0.11,0.33
			c0.08,0.07,0.22,0.11,0.41,0.11C320.23,150.78,320.47,150.76,320.67,150.71z M323.28,143.46l0.28-1.34h1.17l-0.28,1.34H323.28z
			 M321.56,151.66l1.45-6.91h1.17l-1.44,6.91H321.56z M324.79,149.03c0-1.34,0.4-2.46,1.19-3.34c0.66-0.73,1.52-1.09,2.58-1.09
			c0.83,0,1.51,0.26,2.02,0.78s0.77,1.22,0.77,2.11c0,0.79-0.16,1.53-0.48,2.22c-0.32,0.68-0.78,1.2-1.38,1.56s-1.22,0.55-1.88,0.55
			c-0.53,0-1.02-0.11-1.47-0.34c-0.44-0.23-0.77-0.55-1-0.97C324.91,150.07,324.79,149.59,324.79,149.03z M325.96,148.92
			c0,0.65,0.16,1.14,0.47,1.48c0.31,0.33,0.71,0.5,1.19,0.5c0.25,0,0.5-0.05,0.75-0.16s0.48-0.26,0.69-0.47
			c0.22-0.21,0.4-0.44,0.55-0.7c0.15-0.27,0.27-0.56,0.36-0.88c0.14-0.43,0.2-0.84,0.2-1.23c0-0.62-0.16-1.11-0.47-1.45
			s-0.71-0.52-1.19-0.52c-0.38,0-0.71,0.09-1.02,0.27s-0.58,0.44-0.83,0.78c-0.24,0.33-0.42,0.72-0.53,1.17
			S325.96,148.57,325.96,148.92z M331.99,151.66l1.45-6.91h1.06l-0.25,1.2c0.46-0.48,0.89-0.82,1.3-1.03
			c0.41-0.22,0.82-0.33,1.23-0.33c0.56,0,1,0.15,1.31,0.45c0.32,0.3,0.48,0.71,0.48,1.22c0,0.25-0.06,0.65-0.17,1.2l-0.88,4.19
			h-1.17l0.92-4.38c0.08-0.43,0.12-0.74,0.12-0.95c0-0.23-0.08-0.41-0.23-0.55c-0.16-0.15-0.39-0.22-0.69-0.22
			c-0.6,0-1.14,0.22-1.61,0.66c-0.47,0.43-0.81,1.17-1.03,2.22l-0.67,3.22H331.99z M339.68,151.66l0.28-1.33h1.34l-0.23,1.16
			c-0.16,0.7-0.39,1.21-0.7,1.53c-0.3,0.33-0.67,0.52-1.09,0.56l0.11-0.52c0.52-0.14,0.86-0.6,1.03-1.41H339.68z M347.13,151.66
			l2-9.55h1.27l-2,9.55H347.13z M350.51,151.66l1.45-6.91h1.06l-0.25,1.2c0.46-0.48,0.89-0.82,1.3-1.03
			c0.41-0.22,0.82-0.33,1.23-0.33c0.56,0,1,0.15,1.31,0.45c0.32,0.3,0.48,0.71,0.48,1.22c0,0.25-0.06,0.65-0.17,1.2l-0.88,4.19
			h-1.17l0.92-4.38c0.08-0.43,0.12-0.74,0.12-0.95c0-0.23-0.08-0.41-0.23-0.55c-0.16-0.15-0.39-0.22-0.69-0.22
			c-0.6,0-1.14,0.22-1.61,0.66c-0.47,0.43-0.81,1.17-1.03,2.22l-0.67,3.22H350.51z M362.7,149.14l1.17,0.12
			c-0.29,0.86-0.71,1.51-1.27,1.92c-0.54,0.42-1.16,0.62-1.84,0.62c-0.76,0-1.38-0.24-1.84-0.72c-0.46-0.49-0.69-1.17-0.69-2.05
			c0-0.75,0.15-1.49,0.44-2.22c0.3-0.73,0.73-1.28,1.28-1.66c0.56-0.39,1.2-0.58,1.92-0.58c0.74,0,1.33,0.21,1.77,0.62
			s0.66,0.97,0.66,1.66l-1.16,0.08c-0.01-0.44-0.14-0.78-0.39-1.02c-0.25-0.25-0.58-0.38-0.98-0.38c-0.47,0-0.88,0.15-1.23,0.45
			c-0.34,0.29-0.61,0.74-0.81,1.36c-0.2,0.6-0.3,1.19-0.3,1.75c0,0.59,0.13,1.04,0.39,1.34c0.26,0.29,0.58,0.44,0.97,0.44
			c0.38,0,0.73-0.15,1.08-0.44C362.21,150.18,362.49,149.74,362.7,149.14z M364.8,149.03c0-1.34,0.4-2.46,1.19-3.34
			c0.66-0.73,1.52-1.09,2.58-1.09c0.83,0,1.51,0.26,2.02,0.78s0.77,1.22,0.77,2.11c0,0.79-0.16,1.53-0.48,2.22
			c-0.32,0.68-0.78,1.2-1.38,1.56s-1.22,0.55-1.88,0.55c-0.53,0-1.02-0.11-1.47-0.34c-0.44-0.23-0.77-0.55-1-0.97
			C364.92,150.07,364.8,149.59,364.8,149.03z M365.97,148.92c0,0.65,0.16,1.14,0.47,1.48c0.31,0.33,0.71,0.5,1.19,0.5
			c0.25,0,0.5-0.05,0.75-0.16s0.48-0.26,0.69-0.47c0.22-0.21,0.4-0.44,0.55-0.7c0.15-0.27,0.27-0.56,0.36-0.88
			c0.14-0.43,0.2-0.84,0.2-1.23c0-0.62-0.16-1.11-0.47-1.45s-0.71-0.52-1.19-0.52c-0.38,0-0.71,0.09-1.02,0.27s-0.58,0.44-0.83,0.78
			c-0.24,0.33-0.42,0.72-0.53,1.17S365.97,148.57,365.97,148.92z M372,151.66l1.44-6.91h1.19l-0.25,1.14
			c0.44-0.5,0.83-0.84,1.17-1.02c0.35-0.19,0.73-0.28,1.12-0.28c0.44,0,0.8,0.11,1.08,0.34c0.29,0.22,0.48,0.54,0.58,0.95
			c0.34-0.44,0.71-0.76,1.09-0.97c0.4-0.22,0.81-0.33,1.23-0.33c0.58,0,1.02,0.14,1.3,0.41c0.29,0.27,0.44,0.66,0.44,1.16
			c0,0.21-0.05,0.56-0.16,1.05l-0.92,4.45h-1.17l0.94-4.56c0.08-0.38,0.12-0.65,0.12-0.81c0-0.22-0.07-0.39-0.22-0.52
			c-0.14-0.14-0.33-0.2-0.59-0.2c-0.35,0-0.71,0.11-1.08,0.33c-0.36,0.21-0.65,0.48-0.86,0.83c-0.2,0.34-0.37,0.88-0.52,1.59
			l-0.7,3.34h-1.19l0.98-4.67c0.07-0.31,0.11-0.54,0.11-0.67c0-0.23-0.07-0.41-0.22-0.55s-0.33-0.2-0.55-0.2
			c-0.33,0-0.69,0.11-1.06,0.33c-0.36,0.21-0.66,0.5-0.89,0.88s-0.42,0.92-0.56,1.62l-0.69,3.27H372z M388.18,149.31l1.16,0.11
			c-0.17,0.57-0.55,1.11-1.14,1.62s-1.3,0.77-2.12,0.77c-0.51,0-0.98-0.11-1.41-0.34c-0.43-0.24-0.76-0.58-0.98-1.03
			c-0.22-0.46-0.33-0.97-0.33-1.55c0-0.76,0.17-1.49,0.52-2.2c0.35-0.71,0.81-1.23,1.36-1.58c0.56-0.34,1.17-0.52,1.81-0.52
			c0.82,0,1.48,0.26,1.97,0.77c0.5,0.51,0.75,1.21,0.75,2.09c0,0.33-0.03,0.68-0.09,1.05h-5.09c-0.02,0.12-0.03,0.24-0.03,0.36
			c0,0.65,0.15,1.14,0.44,1.48c0.3,0.33,0.67,0.5,1.11,0.5c0.4,0,0.79-0.13,1.17-0.39C387.65,150.19,387.96,149.81,388.18,149.31z
			 M384.75,147.6h3.88c0.01-0.12,0.02-0.21,0.02-0.27c0-0.58-0.15-1.03-0.45-1.34c-0.29-0.32-0.67-0.48-1.12-0.48
			c-0.51,0-0.97,0.18-1.39,0.53C385.27,146.38,384.96,146.9,384.75,147.6z M390.79,151.66l0.28-1.33h1.34l-0.23,1.16
			c-0.16,0.7-0.39,1.21-0.7,1.53c-0.3,0.33-0.67,0.52-1.09,0.56l0.11-0.52c0.52-0.14,0.86-0.6,1.03-1.41H390.79z M398.7,147.66
			c0-1.7,0.49-3.07,1.47-4.12c0.99-1.05,2.18-1.58,3.58-1.58c1.19,0,2.16,0.39,2.91,1.17c0.75,0.77,1.12,1.81,1.12,3.11
			c0,0.93-0.19,1.79-0.56,2.58c-0.28,0.59-0.64,1.11-1.08,1.55c-0.43,0.43-0.89,0.76-1.38,0.98c-0.65,0.31-1.33,0.47-2.06,0.47
			c-0.77,0-1.47-0.18-2.09-0.55s-1.1-0.87-1.42-1.52C398.86,149.1,398.7,148.4,398.7,147.66z M399.95,147.72
			c0,0.56,0.11,1.08,0.34,1.55c0.24,0.47,0.59,0.84,1.05,1.11c0.46,0.26,0.94,0.39,1.45,0.39c0.49,0,0.95-0.11,1.39-0.34
			c0.45-0.24,0.84-0.56,1.19-0.97c0.35-0.42,0.63-0.93,0.83-1.53c0.21-0.6,0.31-1.2,0.31-1.8c0-0.95-0.27-1.7-0.8-2.27
			s-1.19-0.84-1.97-0.84c-1,0-1.89,0.43-2.66,1.28C400.33,145.15,399.95,146.29,399.95,147.72z M413.06,149.14l1.17,0.12
			c-0.29,0.86-0.71,1.51-1.27,1.92c-0.54,0.42-1.16,0.62-1.84,0.62c-0.76,0-1.38-0.24-1.84-0.72c-0.46-0.49-0.69-1.17-0.69-2.05
			c0-0.75,0.15-1.49,0.44-2.22c0.3-0.73,0.73-1.28,1.28-1.66c0.56-0.39,1.2-0.58,1.92-0.58c0.74,0,1.33,0.21,1.77,0.62
			s0.66,0.97,0.66,1.66l-1.16,0.08c-0.01-0.44-0.14-0.78-0.39-1.02c-0.25-0.25-0.58-0.38-0.98-0.38c-0.47,0-0.88,0.15-1.23,0.45
			c-0.34,0.29-0.61,0.74-0.81,1.36c-0.2,0.6-0.3,1.19-0.3,1.75c0,0.59,0.13,1.04,0.39,1.34c0.26,0.29,0.58,0.44,0.97,0.44
			c0.38,0,0.73-0.15,1.08-0.44C412.58,150.18,412.86,149.74,413.06,149.14z M419.73,149.14l1.17,0.12
			c-0.29,0.86-0.71,1.51-1.27,1.92c-0.54,0.42-1.16,0.62-1.84,0.62c-0.76,0-1.38-0.24-1.84-0.72c-0.46-0.49-0.69-1.17-0.69-2.05
			c0-0.75,0.15-1.49,0.44-2.22c0.3-0.73,0.73-1.28,1.28-1.66c0.56-0.39,1.2-0.58,1.92-0.58c0.74,0,1.33,0.21,1.77,0.62
			s0.66,0.97,0.66,1.66l-1.16,0.08c-0.01-0.44-0.14-0.78-0.39-1.02c-0.25-0.25-0.58-0.38-0.98-0.38c-0.47,0-0.88,0.15-1.23,0.45
			c-0.34,0.29-0.61,0.74-0.81,1.36c-0.2,0.6-0.3,1.19-0.3,1.75c0,0.59,0.13,1.04,0.39,1.34c0.26,0.29,0.58,0.44,0.97,0.44
			c0.38,0,0.73-0.15,1.08-0.44C419.24,150.18,419.52,149.74,419.73,149.14z M426.33,150.41c-0.82,0.94-1.67,1.41-2.55,1.41
			c-0.53,0-0.96-0.15-1.3-0.45c-0.32-0.31-0.48-0.69-0.48-1.12c0-0.29,0.07-0.79,0.22-1.5l0.84-3.98h1.17l-0.92,4.41
			c-0.07,0.38-0.11,0.66-0.11,0.86c0,0.26,0.08,0.46,0.23,0.61s0.39,0.22,0.7,0.22c0.32,0,0.64-0.08,0.95-0.23
			c0.32-0.16,0.59-0.37,0.81-0.64c0.23-0.28,0.42-0.61,0.56-0.98c0.09-0.24,0.2-0.66,0.33-1.25l0.62-2.98h1.19l-1.45,6.91h-1.08
			L426.33,150.41z M428.45,154.31l2-9.56h1.09l-0.2,0.95c0.4-0.42,0.76-0.7,1.08-0.86c0.32-0.17,0.66-0.25,1.02-0.25
			c0.66,0,1.2,0.24,1.62,0.72c0.44,0.48,0.66,1.17,0.66,2.06c0,0.72-0.12,1.38-0.36,1.97c-0.23,0.58-0.52,1.06-0.88,1.42
			c-0.34,0.36-0.69,0.63-1.05,0.8c-0.35,0.17-0.72,0.25-1.09,0.25c-0.83,0-1.47-0.42-1.92-1.27l-0.78,3.77H428.45z M430.77,148.83
			c0,0.52,0.04,0.88,0.11,1.08c0.11,0.28,0.29,0.51,0.53,0.69c0.25,0.17,0.54,0.25,0.88,0.25c0.68,0,1.22-0.38,1.64-1.14
			c0.42-0.76,0.62-1.54,0.62-2.33c0-0.58-0.14-1.04-0.42-1.36s-0.63-0.48-1.05-0.48c-0.3,0-0.58,0.08-0.84,0.25
			c-0.25,0.16-0.48,0.39-0.7,0.7s-0.4,0.7-0.55,1.16C430.85,148.1,430.77,148.5,430.77,148.83z M441.11,150.8
			c-0.42,0.35-0.81,0.61-1.19,0.78c-0.38,0.16-0.78,0.23-1.2,0.23c-0.65,0-1.17-0.19-1.56-0.56c-0.39-0.38-0.58-0.85-0.58-1.44
			c0-0.39,0.09-0.72,0.27-1.02c0.18-0.3,0.41-0.54,0.7-0.72c0.29-0.19,0.65-0.32,1.06-0.39c0.27-0.05,0.78-0.09,1.52-0.12
			c0.74-0.03,1.27-0.11,1.59-0.23c0.08-0.32,0.12-0.59,0.12-0.81c0-0.27-0.1-0.48-0.3-0.64c-0.27-0.22-0.67-0.33-1.19-0.33
			c-0.5,0-0.91,0.11-1.22,0.33s-0.54,0.53-0.69,0.94l-1.19-0.11c0.24-0.68,0.62-1.2,1.14-1.56c0.53-0.36,1.2-0.55,2-0.55
			c0.85,0,1.53,0.2,2.03,0.61c0.39,0.3,0.58,0.7,0.58,1.19c0,0.36-0.05,0.79-0.16,1.28l-0.39,1.72c-0.12,0.54-0.19,0.98-0.19,1.33
			c0,0.22,0.05,0.53,0.16,0.94h-1.2C441.17,151.43,441.13,151.14,441.11,150.8z M441.53,148.16c-0.16,0.06-0.33,0.11-0.53,0.16
			c-0.19,0.03-0.5,0.07-0.94,0.11c-0.69,0.05-1.17,0.12-1.45,0.22s-0.49,0.24-0.64,0.45c-0.15,0.2-0.22,0.42-0.22,0.67
			c0,0.33,0.11,0.61,0.34,0.83c0.23,0.21,0.56,0.31,0.98,0.31c0.39,0,0.76-0.1,1.11-0.31c0.36-0.21,0.65-0.49,0.86-0.86
			C441.25,149.36,441.42,148.84,441.53,148.16z M446.61,150.71l-0.2,0.95c-0.28,0.07-0.55,0.11-0.81,0.11
			c-0.47,0-0.84-0.11-1.12-0.34c-0.21-0.17-0.31-0.4-0.31-0.7c0-0.16,0.06-0.51,0.17-1.05l0.83-4.02h-0.92l0.19-0.91h0.94l0.34-1.7
			l1.36-0.81l-0.53,2.52h1.16l-0.19,0.91h-1.16l-0.8,3.81c-0.1,0.49-0.16,0.78-0.16,0.88c0,0.15,0.04,0.26,0.11,0.33
			c0.08,0.07,0.22,0.11,0.41,0.11C446.17,150.78,446.41,150.76,446.61,150.71z M449.22,143.46l0.28-1.34h1.17l-0.28,1.34H449.22z
			 M447.51,151.66l1.45-6.91h1.17l-1.44,6.91H447.51z M450.73,149.03c0-1.34,0.4-2.46,1.19-3.34c0.66-0.73,1.52-1.09,2.58-1.09
			c0.83,0,1.51,0.26,2.02,0.78s0.77,1.22,0.77,2.11c0,0.79-0.16,1.53-0.48,2.22c-0.32,0.68-0.78,1.2-1.38,1.56s-1.22,0.55-1.88,0.55
			c-0.53,0-1.02-0.11-1.47-0.34c-0.44-0.23-0.77-0.55-1-0.97C450.85,150.07,450.73,149.59,450.73,149.03z M451.9,148.92
			c0,0.65,0.16,1.14,0.47,1.48c0.31,0.33,0.71,0.5,1.19,0.5c0.25,0,0.5-0.05,0.75-0.16s0.48-0.26,0.69-0.47
			c0.22-0.21,0.4-0.44,0.55-0.7c0.15-0.27,0.27-0.56,0.36-0.88c0.14-0.43,0.2-0.84,0.2-1.23c0-0.62-0.16-1.11-0.47-1.45
			s-0.71-0.52-1.19-0.52c-0.38,0-0.71,0.09-1.02,0.27s-0.58,0.44-0.83,0.78c-0.24,0.33-0.42,0.72-0.53,1.17
			S451.9,148.57,451.9,148.92z M457.93,151.66l1.45-6.91h1.06l-0.25,1.2c0.46-0.48,0.89-0.82,1.3-1.03
			c0.41-0.22,0.82-0.33,1.23-0.33c0.56,0,1,0.15,1.31,0.45c0.32,0.3,0.48,0.71,0.48,1.22c0,0.25-0.06,0.65-0.17,1.2l-0.88,4.19
			h-1.17l0.92-4.38c0.08-0.43,0.12-0.74,0.12-0.95c0-0.23-0.08-0.41-0.23-0.55c-0.16-0.15-0.39-0.22-0.69-0.22
			c-0.6,0-1.14,0.22-1.61,0.66c-0.47,0.43-0.81,1.17-1.03,2.22l-0.67,3.22H457.93z M465.62,151.66l0.28-1.33h1.34l-0.23,1.16
			c-0.16,0.7-0.39,1.21-0.7,1.53c-0.3,0.33-0.67,0.52-1.09,0.56l0.11-0.52c0.52-0.14,0.86-0.6,1.03-1.41H465.62z"/>
		<path d="M311.32,167.66l2-9.55h1.27l-1.77,8.47h4.95l-0.22,1.08H311.32z M323.31,166.8c-0.42,0.35-0.81,0.61-1.19,0.78
			c-0.38,0.16-0.78,0.23-1.2,0.23c-0.65,0-1.17-0.19-1.56-0.56c-0.39-0.38-0.58-0.85-0.58-1.44c0-0.39,0.09-0.72,0.27-1.02
			c0.18-0.3,0.41-0.54,0.7-0.72c0.29-0.19,0.65-0.32,1.06-0.39c0.27-0.05,0.78-0.09,1.52-0.12s1.27-0.11,1.59-0.23
			c0.08-0.32,0.12-0.59,0.12-0.81c0-0.27-0.1-0.48-0.3-0.64c-0.27-0.22-0.67-0.33-1.19-0.33c-0.5,0-0.91,0.11-1.22,0.33
			s-0.54,0.53-0.69,0.94l-1.19-0.11c0.24-0.68,0.62-1.2,1.14-1.56c0.53-0.36,1.2-0.55,2-0.55c0.85,0,1.53,0.2,2.03,0.61
			c0.39,0.3,0.58,0.7,0.58,1.19c0,0.36-0.05,0.79-0.16,1.28l-0.39,1.72c-0.12,0.54-0.19,0.98-0.19,1.33c0,0.22,0.05,0.53,0.16,0.94
			h-1.2C323.37,167.43,323.33,167.14,323.31,166.8z M323.73,164.16c-0.16,0.06-0.33,0.11-0.53,0.16c-0.19,0.03-0.5,0.07-0.94,0.11
			c-0.69,0.05-1.17,0.12-1.45,0.22s-0.49,0.24-0.64,0.45c-0.15,0.2-0.22,0.42-0.22,0.67c0,0.33,0.11,0.61,0.34,0.83
			c0.23,0.21,0.56,0.31,0.98,0.31c0.39,0,0.76-0.1,1.11-0.31c0.36-0.21,0.65-0.49,0.86-0.86
			C323.46,165.36,323.62,164.84,323.73,164.16z M326.05,167.66l1.45-6.91h1.06l-0.25,1.2c0.46-0.48,0.89-0.82,1.3-1.03
			c0.41-0.22,0.82-0.33,1.23-0.33c0.56,0,1,0.15,1.31,0.45c0.32,0.3,0.48,0.71,0.48,1.22c0,0.25-0.06,0.65-0.17,1.2l-0.88,4.19
			h-1.17l0.92-4.38c0.08-0.43,0.12-0.74,0.12-0.95c0-0.23-0.08-0.41-0.23-0.55c-0.16-0.15-0.39-0.22-0.69-0.22
			c-0.6,0-1.14,0.22-1.61,0.66c-0.47,0.43-0.81,1.17-1.03,2.22l-0.67,3.22H326.05z M333.4,168.28l1.19,0.11
			c0,0.27,0.04,0.47,0.11,0.61s0.19,0.24,0.34,0.31c0.22,0.09,0.49,0.14,0.83,0.14c0.71,0,1.22-0.18,1.53-0.55
			c0.21-0.25,0.4-0.79,0.58-1.62l0.11-0.56c-0.61,0.62-1.27,0.94-1.95,0.94c-0.7,0-1.28-0.26-1.75-0.77
			c-0.47-0.52-0.7-1.25-0.7-2.19c0-0.78,0.18-1.49,0.55-2.14c0.38-0.66,0.82-1.15,1.33-1.47c0.51-0.33,1.04-0.5,1.58-0.5
			c0.91,0,1.6,0.43,2.09,1.28l0.23-1.12h1.08l-1.39,6.67c-0.15,0.73-0.34,1.3-0.59,1.7c-0.25,0.42-0.59,0.73-1.03,0.95
			c-0.44,0.23-0.95,0.34-1.53,0.34c-0.55,0-1.03-0.07-1.44-0.22c-0.4-0.14-0.69-0.34-0.89-0.62c-0.2-0.27-0.3-0.59-0.3-0.95
			C333.37,168.52,333.38,168.41,333.4,168.28z M334.87,164.6c0,0.48,0.05,0.84,0.14,1.08c0.14,0.33,0.32,0.59,0.56,0.77
			c0.24,0.17,0.51,0.25,0.8,0.25c0.39,0,0.77-0.14,1.14-0.41c0.39-0.27,0.7-0.69,0.94-1.25c0.24-0.57,0.36-1.11,0.36-1.62
			c0-0.57-0.16-1.03-0.48-1.36c-0.31-0.34-0.7-0.52-1.16-0.52c-0.29,0-0.57,0.08-0.84,0.23c-0.26,0.16-0.51,0.39-0.75,0.7
			c-0.23,0.31-0.41,0.69-0.53,1.14C334.93,164.05,334.87,164.38,334.87,164.6z M345.59,166.41c-0.82,0.94-1.67,1.41-2.55,1.41
			c-0.53,0-0.96-0.15-1.3-0.45c-0.32-0.31-0.48-0.69-0.48-1.12c0-0.29,0.07-0.79,0.22-1.5l0.84-3.98h1.17l-0.92,4.41
			c-0.07,0.38-0.11,0.66-0.11,0.86c0,0.26,0.08,0.46,0.23,0.61c0.16,0.15,0.39,0.22,0.7,0.22c0.32,0,0.64-0.08,0.95-0.23
			c0.32-0.16,0.59-0.37,0.81-0.64c0.23-0.28,0.42-0.61,0.56-0.98c0.09-0.24,0.2-0.66,0.33-1.25l0.62-2.98h1.19l-1.45,6.91h-1.08
			L345.59,166.41z M352.96,166.8c-0.42,0.35-0.81,0.61-1.19,0.78c-0.37,0.16-0.78,0.23-1.2,0.23c-0.65,0-1.17-0.19-1.56-0.56
			c-0.39-0.38-0.58-0.85-0.58-1.44c0-0.39,0.09-0.72,0.27-1.02c0.18-0.3,0.41-0.54,0.7-0.72c0.29-0.19,0.65-0.32,1.06-0.39
			c0.27-0.05,0.78-0.09,1.52-0.12c0.74-0.03,1.27-0.11,1.59-0.23c0.08-0.32,0.13-0.59,0.12-0.81c0-0.27-0.1-0.48-0.3-0.64
			c-0.27-0.22-0.67-0.33-1.19-0.33c-0.5,0-0.91,0.11-1.22,0.33c-0.31,0.22-0.54,0.53-0.69,0.94l-1.19-0.11
			c0.24-0.68,0.62-1.2,1.14-1.56c0.53-0.36,1.2-0.55,2-0.55c0.85,0,1.53,0.2,2.03,0.61c0.39,0.3,0.58,0.7,0.58,1.19
			c0,0.36-0.05,0.79-0.16,1.28l-0.39,1.72c-0.12,0.54-0.19,0.98-0.19,1.33c0,0.22,0.05,0.53,0.16,0.94h-1.2
			C353.02,167.43,352.98,167.14,352.96,166.8z M353.38,164.16c-0.16,0.06-0.33,0.11-0.53,0.16c-0.19,0.03-0.5,0.07-0.94,0.11
			c-0.69,0.05-1.17,0.12-1.45,0.22c-0.28,0.09-0.49,0.24-0.64,0.45c-0.15,0.2-0.22,0.42-0.22,0.67c0,0.33,0.11,0.61,0.34,0.83
			c0.23,0.21,0.56,0.31,0.98,0.31c0.39,0,0.76-0.1,1.11-0.31c0.36-0.21,0.65-0.49,0.86-0.86
			C353.11,165.36,353.27,164.84,353.38,164.16z M355.64,168.28l1.19,0.11c0,0.27,0.04,0.47,0.11,0.61c0.07,0.14,0.19,0.24,0.34,0.31
			c0.22,0.09,0.49,0.14,0.83,0.14c0.71,0,1.22-0.18,1.53-0.55c0.21-0.25,0.4-0.79,0.58-1.62l0.11-0.56
			c-0.61,0.62-1.27,0.94-1.95,0.94c-0.7,0-1.28-0.26-1.75-0.77c-0.47-0.52-0.7-1.25-0.7-2.19c0-0.78,0.18-1.49,0.55-2.14
			c0.37-0.66,0.82-1.15,1.33-1.47c0.51-0.33,1.04-0.5,1.58-0.5c0.91,0,1.6,0.43,2.09,1.28l0.23-1.12h1.08l-1.39,6.67
			c-0.15,0.73-0.34,1.3-0.59,1.7c-0.25,0.42-0.59,0.73-1.03,0.95c-0.44,0.23-0.95,0.34-1.53,0.34c-0.55,0-1.03-0.07-1.44-0.22
			c-0.4-0.14-0.69-0.34-0.89-0.62c-0.2-0.27-0.3-0.59-0.3-0.95C355.61,168.52,355.62,168.41,355.64,168.28z M357.11,164.6
			c0,0.48,0.05,0.84,0.14,1.08c0.14,0.33,0.32,0.59,0.56,0.77c0.24,0.17,0.51,0.25,0.8,0.25c0.39,0,0.77-0.14,1.14-0.41
			c0.39-0.27,0.7-0.69,0.94-1.25c0.24-0.57,0.36-1.11,0.36-1.62c0-0.57-0.16-1.03-0.48-1.36c-0.31-0.34-0.7-0.52-1.16-0.52
			c-0.29,0-0.57,0.08-0.84,0.23c-0.26,0.16-0.51,0.39-0.75,0.7c-0.23,0.31-0.41,0.69-0.53,1.14
			C357.16,164.05,357.11,164.38,357.11,164.6z M368.19,165.31l1.16,0.11c-0.17,0.57-0.55,1.11-1.14,1.62
			c-0.59,0.51-1.3,0.77-2.12,0.77c-0.51,0-0.98-0.11-1.41-0.34c-0.43-0.24-0.76-0.58-0.98-1.03c-0.22-0.46-0.33-0.97-0.33-1.55
			c0-0.76,0.17-1.49,0.52-2.2c0.35-0.71,0.81-1.23,1.36-1.58c0.56-0.34,1.17-0.52,1.81-0.52c0.82,0,1.48,0.26,1.97,0.77
			c0.5,0.51,0.75,1.21,0.75,2.09c0,0.33-0.03,0.68-0.09,1.05h-5.09c-0.02,0.12-0.03,0.24-0.03,0.36c0,0.65,0.15,1.14,0.44,1.48
			c0.3,0.33,0.67,0.5,1.11,0.5c0.4,0,0.79-0.13,1.17-0.39C367.66,166.19,367.97,165.81,368.19,165.31z M364.77,163.6h3.88
			c0.01-0.12,0.02-0.21,0.02-0.27c0-0.58-0.15-1.03-0.45-1.34c-0.29-0.32-0.67-0.48-1.12-0.48c-0.51,0-0.97,0.18-1.39,0.53
			C365.28,162.38,364.98,162.9,364.77,163.6z M370.81,167.66l0.28-1.33h1.34l-0.23,1.16c-0.16,0.7-0.39,1.21-0.7,1.53
			c-0.3,0.33-0.67,0.52-1.09,0.56l0.11-0.52c0.52-0.14,0.86-0.6,1.03-1.41H370.81z M378.07,167.66l2-9.55h3.97
			c0.7,0,1.22,0.08,1.56,0.25c0.34,0.16,0.62,0.43,0.84,0.81c0.23,0.39,0.34,0.81,0.34,1.28c0,0.4-0.08,0.8-0.25,1.22
			c-0.16,0.41-0.36,0.74-0.61,1c-0.24,0.26-0.48,0.46-0.73,0.59s-0.52,0.23-0.81,0.3c-0.6,0.15-1.22,0.22-1.84,0.22h-2.39
			l-0.81,3.88H378.07z M380.38,162.71h2.09c0.81,0,1.41-0.09,1.8-0.27c0.39-0.18,0.69-0.44,0.92-0.8c0.23-0.36,0.34-0.75,0.34-1.16
			c0-0.31-0.06-0.56-0.19-0.75c-0.12-0.2-0.3-0.34-0.52-0.44s-0.64-0.14-1.27-0.14h-2.45L380.38,162.71z M391.9,165.31l1.16,0.11
			c-0.17,0.57-0.55,1.11-1.14,1.62s-1.3,0.77-2.12,0.77c-0.51,0-0.98-0.11-1.41-0.34c-0.43-0.24-0.76-0.58-0.98-1.03
			c-0.22-0.46-0.33-0.97-0.33-1.55c0-0.76,0.17-1.49,0.52-2.2c0.35-0.71,0.81-1.23,1.36-1.58c0.56-0.34,1.17-0.52,1.81-0.52
			c0.82,0,1.48,0.26,1.97,0.77c0.5,0.51,0.75,1.21,0.75,2.09c0,0.33-0.03,0.68-0.09,1.05h-5.09c-0.02,0.12-0.03,0.24-0.03,0.36
			c0,0.65,0.15,1.14,0.44,1.48c0.3,0.33,0.67,0.5,1.11,0.5c0.4,0,0.79-0.13,1.17-0.39C391.37,166.19,391.68,165.81,391.9,165.31z
			 M388.48,163.6h3.88c0.01-0.12,0.02-0.21,0.02-0.27c0-0.58-0.15-1.03-0.45-1.34c-0.29-0.32-0.67-0.48-1.12-0.48
			c-0.51,0-0.97,0.18-1.39,0.53C388.99,162.38,388.69,162.9,388.48,163.6z M399.31,165.31l1.16,0.11c-0.17,0.57-0.55,1.11-1.14,1.62
			s-1.3,0.77-2.12,0.77c-0.51,0-0.98-0.11-1.41-0.34c-0.43-0.24-0.76-0.58-0.98-1.03c-0.22-0.46-0.33-0.97-0.33-1.55
			c0-0.76,0.17-1.49,0.52-2.2c0.35-0.71,0.81-1.23,1.36-1.58c0.56-0.34,1.17-0.52,1.81-0.52c0.82,0,1.48,0.26,1.97,0.77
			c0.5,0.51,0.75,1.21,0.75,2.09c0,0.33-0.03,0.68-0.09,1.05h-5.09c-0.02,0.12-0.03,0.24-0.03,0.36c0,0.65,0.15,1.14,0.44,1.48
			c0.3,0.33,0.67,0.5,1.11,0.5c0.4,0,0.79-0.13,1.17-0.39C398.79,166.19,399.09,165.81,399.31,165.31z M395.89,163.6h3.88
			c0.01-0.12,0.02-0.21,0.02-0.27c0-0.58-0.15-1.03-0.45-1.34c-0.29-0.32-0.67-0.48-1.12-0.48c-0.51,0-0.97,0.18-1.39,0.53
			C396.4,162.38,396.1,162.9,395.89,163.6z M401.65,167.66l1.45-6.91h1.03l-0.28,1.41c0.35-0.53,0.7-0.92,1.03-1.17
			c0.34-0.26,0.69-0.39,1.05-0.39c0.24,0,0.53,0.08,0.88,0.25l-0.48,1.09c-0.21-0.15-0.43-0.22-0.67-0.22
			c-0.42,0-0.84,0.23-1.28,0.69c-0.43,0.46-0.77,1.29-1.02,2.48l-0.58,2.77H401.65z M406.19,165.3l1.19-0.08
			c0,0.34,0.05,0.64,0.16,0.88c0.1,0.24,0.3,0.44,0.58,0.59c0.28,0.15,0.6,0.22,0.97,0.22c0.52,0,0.91-0.1,1.17-0.31
			c0.26-0.21,0.39-0.45,0.39-0.73c0-0.21-0.08-0.4-0.23-0.58c-0.16-0.19-0.55-0.41-1.17-0.67c-0.62-0.27-1.02-0.46-1.19-0.58
			c-0.29-0.18-0.52-0.39-0.67-0.62c-0.15-0.24-0.22-0.52-0.22-0.83c0-0.54,0.22-1.01,0.66-1.39c0.44-0.4,1.05-0.59,1.83-0.59
			c0.86,0,1.52,0.2,1.97,0.61c0.46,0.4,0.7,0.92,0.72,1.58l-1.16,0.08c-0.02-0.42-0.17-0.74-0.45-0.98
			c-0.27-0.25-0.66-0.38-1.17-0.38c-0.41,0-0.72,0.09-0.95,0.28c-0.22,0.19-0.33,0.39-0.33,0.61c0,0.21,0.1,0.4,0.3,0.56
			c0.12,0.11,0.46,0.29,1,0.53c0.91,0.39,1.47,0.69,1.7,0.92c0.38,0.35,0.56,0.79,0.56,1.31c0,0.34-0.1,0.68-0.31,1.02
			c-0.21,0.32-0.53,0.58-0.97,0.78c-0.43,0.2-0.93,0.3-1.52,0.3c-0.8,0-1.48-0.2-2.05-0.59S406.16,166.18,406.19,165.3z
			 M413.03,167.66l0.28-1.33h1.34l-0.23,1.16c-0.16,0.7-0.39,1.21-0.7,1.53c-0.3,0.33-0.67,0.52-1.09,0.56l0.11-0.52
			c0.52-0.14,0.86-0.6,1.03-1.41H413.03z M425.23,165.31l1.16,0.11c-0.17,0.57-0.55,1.11-1.14,1.62s-1.3,0.77-2.12,0.77
			c-0.51,0-0.98-0.11-1.41-0.34c-0.43-0.24-0.76-0.58-0.98-1.03c-0.22-0.46-0.33-0.97-0.33-1.55c0-0.76,0.17-1.49,0.52-2.2
			c0.35-0.71,0.81-1.23,1.36-1.58c0.56-0.34,1.17-0.52,1.81-0.52c0.82,0,1.48,0.26,1.97,0.77c0.5,0.51,0.75,1.21,0.75,2.09
			c0,0.33-0.03,0.68-0.09,1.05h-5.09c-0.02,0.12-0.03,0.24-0.03,0.36c0,0.65,0.15,1.14,0.44,1.48c0.3,0.33,0.67,0.5,1.11,0.5
			c0.4,0,0.79-0.13,1.17-0.39C424.71,166.19,425.01,165.81,425.23,165.31z M421.81,163.6h3.88c0.01-0.12,0.02-0.21,0.02-0.27
			c0-0.58-0.15-1.03-0.45-1.34c-0.29-0.32-0.67-0.48-1.12-0.48c-0.51,0-0.97,0.18-1.39,0.53
			C422.33,162.38,422.02,162.9,421.81,163.6z M430.33,166.71l-0.2,0.95c-0.28,0.07-0.55,0.11-0.81,0.11c-0.47,0-0.84-0.11-1.12-0.34
			c-0.21-0.17-0.31-0.4-0.31-0.7c0-0.16,0.06-0.51,0.17-1.05l0.83-4.02h-0.92l0.19-0.91h0.94l0.34-1.7l1.36-0.81l-0.53,2.52h1.16
			l-0.19,0.91h-1.16l-0.8,3.81c-0.1,0.49-0.16,0.78-0.16,0.88c0,0.15,0.04,0.26,0.11,0.33c0.08,0.07,0.22,0.11,0.41,0.11
			C429.89,166.78,430.12,166.76,430.33,166.71z M436.05,165.14l1.17,0.12c-0.29,0.86-0.71,1.51-1.27,1.92
			c-0.54,0.42-1.16,0.62-1.84,0.62c-0.76,0-1.38-0.24-1.84-0.72c-0.46-0.49-0.69-1.17-0.69-2.05c0-0.75,0.15-1.49,0.44-2.22
			c0.3-0.73,0.73-1.28,1.28-1.66c0.56-0.39,1.2-0.58,1.92-0.58c0.74,0,1.33,0.21,1.77,0.62s0.66,0.97,0.66,1.66l-1.16,0.08
			c-0.01-0.44-0.14-0.78-0.39-1.02c-0.25-0.25-0.58-0.38-0.98-0.38c-0.47,0-0.88,0.15-1.23,0.45c-0.34,0.29-0.61,0.74-0.81,1.36
			c-0.2,0.6-0.3,1.19-0.3,1.75c0,0.59,0.13,1.04,0.39,1.34c0.26,0.29,0.58,0.44,0.97,0.44c0.38,0,0.73-0.15,1.08-0.44
			C435.56,166.18,435.84,165.74,436.05,165.14z"/>
		<path class="st6" d="M194.69,227.83L194.69,227.83c0-3.44,2.79-6.23,6.23-6.23h45.36c1.65,0,3.24,0.66,4.41,1.83
			c1.17,1.17,1.83,2.75,1.83,4.41v24.92c0,3.44-2.79,6.23-6.23,6.23h-45.36c-3.44,0-6.23-2.79-6.23-6.23V227.83z"/>
		<path class="st3" d="M194.69,227.83L194.69,227.83c0-3.44,2.79-6.23,6.23-6.23h45.36c1.65,0,3.24,0.66,4.41,1.83
			c1.17,1.17,1.83,2.75,1.83,4.41v24.92c0,3.44-2.79,6.23-6.23,6.23h-45.36c-3.44,0-6.23-2.79-6.23-6.23V227.83z"/>
		<path d="M209.94,242.42l2.25-0.22c0.14,0.76,0.41,1.32,0.83,1.67c0.42,0.35,0.97,0.53,1.67,0.53c0.75,0,1.31-0.16,1.69-0.47
			c0.37-0.32,0.56-0.69,0.56-1.11c0-0.27-0.08-0.5-0.23-0.69c-0.16-0.2-0.43-0.36-0.83-0.5c-0.27-0.09-0.89-0.26-1.86-0.5
			c-1.24-0.31-2.11-0.69-2.61-1.14c-0.7-0.62-1.05-1.39-1.05-2.3c0-0.58,0.16-1.13,0.48-1.64c0.33-0.51,0.81-0.9,1.44-1.16
			c0.62-0.27,1.37-0.41,2.25-0.41c1.44,0,2.52,0.32,3.25,0.95c0.73,0.62,1.11,1.46,1.14,2.52l-2.31,0.11
			c-0.09-0.59-0.31-1.02-0.64-1.27c-0.32-0.26-0.81-0.39-1.45-0.39c-0.68,0-1.2,0.14-1.58,0.41c-0.25,0.18-0.38,0.42-0.38,0.72
			c0,0.27,0.11,0.5,0.34,0.69c0.29,0.25,1,0.51,2.12,0.78c1.12,0.26,1.96,0.53,2.5,0.81c0.54,0.28,0.96,0.67,1.27,1.17
			c0.3,0.49,0.45,1.09,0.45,1.81c0,0.66-0.18,1.27-0.55,1.84c-0.36,0.57-0.88,1-1.55,1.28c-0.67,0.28-1.49,0.42-2.48,0.42
			c-1.45,0-2.56-0.33-3.34-1C210.56,244.68,210.1,243.7,209.94,242.42z M225.99,243.51l2.19,0.36c-0.28,0.8-0.72,1.42-1.33,1.84
			c-0.6,0.42-1.36,0.62-2.28,0.62c-1.44,0-2.51-0.47-3.2-1.42c-0.54-0.75-0.81-1.7-0.81-2.86c0-1.38,0.36-2.45,1.08-3.22
			c0.72-0.78,1.62-1.17,2.72-1.17c1.24,0,2.21,0.41,2.92,1.22c0.72,0.81,1.06,2.06,1.03,3.75h-5.5c0.01,0.65,0.18,1.15,0.52,1.52
			c0.34,0.36,0.77,0.55,1.28,0.55c0.34,0,0.63-0.09,0.86-0.28C225.7,244.23,225.88,243.93,225.99,243.51z M226.12,241.3
			c-0.01-0.64-0.17-1.12-0.48-1.45c-0.31-0.33-0.69-0.5-1.14-0.5c-0.48,0-0.88,0.18-1.19,0.53c-0.31,0.34-0.47,0.82-0.47,1.42
			H226.12z M229.03,246.16l3-4.28l-2.88-4.02h2.69l1.47,2.28l1.55-2.28h2.58l-2.81,3.92l3.06,4.38H235l-1.69-2.58l-1.7,2.58H229.03z
			"/>
		<path class="st1" d="M196.54,375.87h68.09"/>
		<path class="st7" d="M196.54,375.87h20.09"/>
		<path class="st8" d="M216.63,389.08l36.3-13.21l-36.3-13.21V389.08z"/>
		<path class="st1" d="M241.37,74.77l132.79,33.7"/>
		<path class="st3" d="M241.37,74.77L368.34,107"/>
		<path class="st9" d="M367.94,108.6l4.8-0.48l-3.99-2.72L367.94,108.6z"/>
		<path class="st1" d="M223.6,258.99c0,19.87,37.6,29.81,75.2,39.75c37.6,9.94,75.2,19.87,75.2,39.75"/>
		<path class="st3" d="M223.6,258.99c0,19.87,37.6,29.81,75.2,39.75c18.8,4.97,37.6,9.94,51.7,16.15
			c7.05,3.11,12.92,6.52,17.04,10.4c2.06,1.94,3.67,4,4.77,6.19c0.14,0.27,0.27,0.55,0.39,0.83l0.12,0.29"/>
		<path class="st9" d="M371.2,332.92l2.51,4.13l0.73-4.77L371.2,332.92z"/>
		<path class="st1" d="M98.27,338.48c0-19.87,31.33-29.81,62.66-39.75c31.33-9.94,62.66-19.87,62.66-39.75"/>
		<path class="st3" d="M98.27,338.48c0-19.87,31.33-29.81,62.66-39.75c15.67-4.97,31.33-9.94,43.08-16.15
			c5.87-3.11,10.77-6.52,14.2-10.4c1.71-1.94,3.06-4,3.98-6.19c0.11-0.27,0.22-0.55,0.32-0.83l0.09-0.26"/>
		<path class="st9" d="M224.23,265.18l-0.88-4.75l-2.38,4.2L224.23,265.18z"/>
		<path class="st2" d="M37.21,122.25L37.21,122.25c0-6.88,5.58-12.46,12.46-12.46h97.19c3.31,0,6.47,1.31,8.81,3.65
			c2.34,2.34,3.65,5.51,3.65,8.81v49.85c0,6.88-5.58,12.46-12.46,12.46H49.67c-6.88,0-12.46-5.58-12.46-12.46L37.21,122.25z"/>
		<path class="st3" d="M37.21,122.25L37.21,122.25c0-6.88,5.58-12.46,12.46-12.46h97.19c3.31,0,6.47,1.31,8.81,3.65
			c2.34,2.34,3.65,5.51,3.65,8.81v49.85c0,6.88-5.58,12.46-12.46,12.46H49.67c-6.88,0-12.46-5.58-12.46-12.46L37.21,122.25z"/>
		<path d="M76.15,144.26v-10.48h2.06l4.28,7v-7h1.97v10.48h-2.12l-4.22-6.84v6.84H76.15z M88.2,138.97l-1.83-0.33
			c0.2-0.74,0.55-1.28,1.05-1.62c0.51-0.35,1.26-0.53,2.23-0.53c0.91,0,1.58,0.1,2.02,0.31s0.74,0.48,0.92,0.81
			c0.18,0.32,0.27,0.92,0.27,1.8l-0.02,2.34c0,0.67,0.03,1.16,0.09,1.48c0.06,0.31,0.18,0.65,0.36,1.02h-1.98
			c-0.05-0.14-0.12-0.33-0.2-0.59c-0.03-0.11-0.05-0.19-0.06-0.23c-0.34,0.33-0.71,0.58-1.11,0.75c-0.39,0.17-0.8,0.25-1.25,0.25
			c-0.78,0-1.4-0.21-1.86-0.64c-0.45-0.43-0.67-0.96-0.67-1.61c0-0.43,0.1-0.81,0.31-1.14c0.21-0.34,0.49-0.6,0.86-0.78
			c0.38-0.18,0.91-0.33,1.61-0.47c0.94-0.18,1.59-0.34,1.95-0.48v-0.2c0-0.39-0.1-0.66-0.3-0.83c-0.19-0.17-0.55-0.25-1.08-0.25
			c-0.35,0-0.64,0.07-0.84,0.22C88.47,138.38,88.32,138.62,88.2,138.97z M90.89,140.6c-0.26,0.09-0.67,0.2-1.23,0.33
			c-0.55,0.11-0.92,0.23-1.09,0.34c-0.26,0.18-0.39,0.41-0.39,0.7c0,0.28,0.1,0.53,0.31,0.73c0.21,0.2,0.48,0.3,0.81,0.3
			c0.35,0,0.7-0.12,1.03-0.36c0.24-0.18,0.4-0.4,0.48-0.66c0.05-0.18,0.08-0.51,0.08-0.98V140.6z M98.32,136.66v1.59h-1.38v3.06
			c0,0.62,0.01,0.99,0.03,1.09c0.03,0.09,0.09,0.18,0.19,0.25c0.09,0.06,0.21,0.09,0.34,0.09c0.19,0,0.46-0.06,0.81-0.19l0.17,1.56
			c-0.47,0.2-1,0.3-1.59,0.3c-0.36,0-0.69-0.06-0.98-0.17c-0.28-0.12-0.49-0.28-0.64-0.47c-0.14-0.2-0.23-0.46-0.28-0.8
			c-0.04-0.24-0.06-0.71-0.06-1.42v-3.31h-0.92v-1.59h0.92v-1.52l2.02-1.17v2.69H98.32z M104.72,144.26v-1.14
			c-0.27,0.41-0.64,0.73-1.09,0.97c-0.45,0.23-0.92,0.34-1.42,0.34c-0.51,0-0.97-0.11-1.38-0.33c-0.41-0.23-0.7-0.55-0.88-0.95
			c-0.18-0.41-0.27-0.97-0.27-1.69v-4.8h2v3.48c0,1.07,0.04,1.73,0.11,1.97c0.07,0.24,0.21,0.43,0.41,0.58
			c0.2,0.14,0.45,0.2,0.75,0.2c0.34,0,0.65-0.09,0.92-0.28c0.27-0.19,0.45-0.42,0.55-0.7c0.1-0.28,0.16-0.96,0.16-2.05v-3.2h2.02
			v7.59H104.72z M110.61,144.26h-2.02v-7.59h1.86v1.08c0.32-0.51,0.61-0.84,0.86-1c0.26-0.17,0.55-0.25,0.88-0.25
			c0.46,0,0.9,0.12,1.33,0.38l-0.62,1.75c-0.33-0.22-0.65-0.33-0.94-0.33c-0.28,0-0.52,0.08-0.72,0.23
			c-0.2,0.16-0.35,0.44-0.47,0.84c-0.1,0.41-0.16,1.26-0.16,2.55V144.26z M118.78,141.83l2,0.34c-0.25,0.73-0.66,1.29-1.22,1.67
			c-0.55,0.39-1.24,0.58-2.08,0.58c-1.32,0-2.3-0.43-2.94-1.3c-0.5-0.69-0.75-1.56-0.75-2.62c0-1.25,0.33-2.23,0.98-2.94
			c0.66-0.72,1.49-1.08,2.5-1.08c1.12,0,2.02,0.38,2.67,1.12c0.66,0.74,0.97,1.88,0.94,3.42h-5.03c0.01,0.59,0.17,1.06,0.48,1.39
			s0.7,0.5,1.16,0.5c0.31,0,0.57-0.08,0.78-0.25C118.5,142.5,118.67,142.22,118.78,141.83z M118.89,139.8
			c-0.01-0.58-0.16-1.03-0.45-1.33c-0.28-0.3-0.62-0.45-1.03-0.45c-0.45,0-0.81,0.16-1.09,0.48c-0.28,0.31-0.42,0.74-0.42,1.3
			H118.89z"/>
		<path d="M53.31,160.98l5.41-9.55h1.5l1.58,9.55h-1.23l-0.47-2.75h-3.86l-1.53,2.75H53.31z M56.78,157.24h3.16l-0.36-2.39
			c-0.15-0.95-0.23-1.74-0.27-2.38c-0.22,0.55-0.54,1.2-0.95,1.95L56.78,157.24z M62.91,160.98l1.45-6.91h1.06l-0.25,1.2
			c0.46-0.48,0.89-0.82,1.3-1.03c0.41-0.22,0.82-0.33,1.23-0.33c0.56,0,1,0.15,1.31,0.45c0.32,0.3,0.48,0.71,0.48,1.22
			c0,0.25-0.06,0.65-0.17,1.2l-0.88,4.19h-1.17l0.92-4.38c0.08-0.43,0.12-0.74,0.12-0.95c0-0.23-0.08-0.41-0.23-0.55
			c-0.16-0.15-0.39-0.22-0.69-0.22c-0.6,0-1.14,0.22-1.61,0.66c-0.47,0.43-0.81,1.17-1.03,2.22l-0.67,3.22H62.91z M75.1,158.46
			l1.17,0.12c-0.29,0.86-0.71,1.51-1.27,1.92c-0.54,0.42-1.16,0.62-1.84,0.62c-0.76,0-1.38-0.24-1.84-0.72
			c-0.46-0.49-0.69-1.17-0.69-2.05c0-0.75,0.15-1.49,0.44-2.22c0.3-0.73,0.73-1.28,1.28-1.66c0.56-0.39,1.2-0.58,1.92-0.58
			c0.74,0,1.33,0.21,1.77,0.62c0.44,0.42,0.66,0.97,0.66,1.66l-1.16,0.08c-0.01-0.44-0.14-0.78-0.39-1.02
			c-0.25-0.25-0.58-0.38-0.98-0.38c-0.47,0-0.88,0.15-1.23,0.45c-0.34,0.29-0.61,0.74-0.81,1.36c-0.2,0.6-0.3,1.19-0.3,1.75
			c0,0.59,0.13,1.04,0.39,1.34c0.26,0.29,0.58,0.44,0.97,0.44c0.38,0,0.73-0.15,1.08-0.44C74.61,159.5,74.89,159.05,75.1,158.46z
			 M82.06,158.63l1.16,0.11c-0.17,0.57-0.55,1.11-1.14,1.62c-0.59,0.51-1.3,0.77-2.12,0.77c-0.51,0-0.98-0.11-1.41-0.34
			c-0.43-0.24-0.76-0.58-0.98-1.03c-0.22-0.46-0.33-0.97-0.33-1.55c0-0.76,0.17-1.49,0.52-2.2c0.35-0.71,0.81-1.23,1.36-1.58
			c0.56-0.34,1.17-0.52,1.81-0.52c0.82,0,1.48,0.26,1.97,0.77c0.5,0.51,0.75,1.21,0.75,2.09c0,0.33-0.03,0.68-0.09,1.05h-5.09
			c-0.02,0.12-0.03,0.24-0.03,0.36c0,0.65,0.15,1.14,0.44,1.48c0.3,0.33,0.67,0.5,1.11,0.5c0.4,0,0.79-0.13,1.17-0.39
			C81.53,159.51,81.84,159.13,82.06,158.63z M78.64,156.91h3.88c0.01-0.12,0.02-0.21,0.02-0.27c0-0.58-0.15-1.03-0.45-1.34
			c-0.29-0.32-0.67-0.48-1.12-0.48c-0.51,0-0.97,0.18-1.39,0.53C79.15,155.69,78.85,156.22,78.64,156.91z M84.5,158.62l1.19-0.08
			c0,0.34,0.05,0.64,0.16,0.88c0.1,0.24,0.3,0.44,0.58,0.59c0.28,0.15,0.6,0.22,0.97,0.22c0.52,0,0.91-0.1,1.17-0.31
			c0.26-0.21,0.39-0.45,0.39-0.73c0-0.21-0.08-0.4-0.23-0.58c-0.16-0.19-0.55-0.41-1.17-0.67c-0.62-0.27-1.02-0.46-1.19-0.58
			c-0.29-0.18-0.52-0.39-0.67-0.62c-0.15-0.24-0.22-0.52-0.22-0.83c0-0.54,0.22-1.01,0.66-1.39c0.44-0.4,1.05-0.59,1.83-0.59
			c0.86,0,1.52,0.2,1.97,0.61c0.46,0.4,0.7,0.92,0.72,1.58l-1.16,0.08c-0.02-0.42-0.17-0.74-0.45-0.98
			c-0.27-0.25-0.66-0.38-1.17-0.38c-0.41,0-0.72,0.09-0.95,0.28c-0.22,0.19-0.33,0.39-0.33,0.61c0,0.21,0.1,0.4,0.3,0.56
			c0.13,0.11,0.46,0.29,1,0.53c0.91,0.39,1.47,0.69,1.7,0.92c0.38,0.35,0.56,0.79,0.56,1.31c0,0.34-0.1,0.68-0.31,1.02
			c-0.21,0.32-0.53,0.58-0.97,0.78c-0.43,0.2-0.93,0.3-1.52,0.3c-0.8,0-1.48-0.2-2.05-0.59C84.74,160.14,84.47,159.5,84.5,158.62z
			 M93.82,160.02l-0.2,0.95c-0.28,0.07-0.55,0.11-0.81,0.11c-0.47,0-0.84-0.11-1.12-0.34c-0.21-0.17-0.31-0.4-0.31-0.7
			c0-0.16,0.06-0.51,0.17-1.05l0.83-4.02h-0.92l0.19-0.91h0.94l0.34-1.7l1.36-0.81l-0.53,2.52h1.16l-0.19,0.91h-1.16l-0.8,3.81
			c-0.1,0.49-0.16,0.78-0.16,0.88c0,0.15,0.04,0.26,0.11,0.33c0.08,0.07,0.22,0.11,0.41,0.11C93.38,160.1,93.62,160.07,93.82,160.02
			z M94.76,160.98l1.45-6.91h1.03l-0.28,1.41c0.35-0.53,0.7-0.92,1.03-1.17c0.34-0.26,0.69-0.39,1.05-0.39
			c0.24,0,0.53,0.08,0.88,0.25l-0.48,1.09c-0.21-0.15-0.43-0.22-0.67-0.22c-0.42,0-0.84,0.23-1.28,0.69
			c-0.43,0.46-0.77,1.29-1.02,2.48l-0.58,2.77H94.76z M98.76,163.65l0.08-1.11c0.24,0.07,0.47,0.11,0.7,0.11
			c0.24,0,0.43-0.06,0.58-0.17c0.19-0.15,0.4-0.41,0.62-0.8l0.38-0.69l-1.16-6.92h1.17l0.52,3.48c0.1,0.7,0.19,1.39,0.27,2.08
			l3.09-5.56h1.23l-4.41,7.83c-0.43,0.76-0.81,1.27-1.14,1.52c-0.33,0.25-0.71,0.38-1.14,0.38
			C99.29,163.79,99.02,163.74,98.76,163.65z M105.16,160.98l0.28-1.33h1.34l-0.23,1.16c-0.16,0.7-0.39,1.21-0.7,1.53
			c-0.3,0.33-0.67,0.52-1.09,0.56l0.11-0.52c0.52-0.14,0.86-0.6,1.03-1.41H105.16z M112.47,160.98l2-9.55h4
			c0.79,0,1.39,0.07,1.8,0.2c0.41,0.14,0.72,0.39,0.95,0.75c0.24,0.36,0.36,0.82,0.36,1.38c0,0.78-0.26,1.43-0.77,1.94
			c-0.51,0.51-1.33,0.84-2.45,1c0.34,0.25,0.6,0.5,0.78,0.75c0.4,0.56,0.72,1.14,0.97,1.73l0.72,1.8h-1.42l-0.69-1.78
			c-0.24-0.64-0.52-1.19-0.84-1.66c-0.22-0.33-0.44-0.55-0.67-0.64c-0.22-0.1-0.58-0.16-1.09-0.16h-1.48l-0.88,4.23H112.47z
			 M114.84,155.71h1.77c0.81,0,1.34-0.01,1.59-0.03c0.48-0.05,0.87-0.16,1.17-0.33c0.31-0.18,0.55-0.41,0.72-0.69
			c0.18-0.28,0.27-0.59,0.27-0.92c0-0.28-0.06-0.52-0.19-0.72c-0.12-0.21-0.29-0.35-0.5-0.42c-0.21-0.08-0.56-0.12-1.05-0.12h-3.11
			L114.84,155.71z M126.58,160.12c-0.42,0.35-0.81,0.61-1.19,0.78c-0.38,0.16-0.78,0.23-1.2,0.23c-0.65,0-1.17-0.19-1.56-0.56
			c-0.39-0.38-0.58-0.85-0.58-1.44c0-0.39,0.09-0.72,0.27-1.02c0.18-0.3,0.41-0.54,0.7-0.72c0.29-0.19,0.65-0.32,1.06-0.39
			c0.27-0.05,0.78-0.09,1.52-0.12s1.27-0.11,1.59-0.23c0.08-0.32,0.12-0.59,0.12-0.81c0-0.27-0.1-0.48-0.3-0.64
			c-0.27-0.22-0.67-0.33-1.19-0.33c-0.5,0-0.91,0.11-1.22,0.33s-0.54,0.53-0.69,0.94l-1.19-0.11c0.24-0.68,0.62-1.2,1.14-1.56
			c0.53-0.36,1.2-0.55,2-0.55c0.85,0,1.53,0.2,2.03,0.61c0.39,0.3,0.58,0.7,0.58,1.19c0,0.36-0.05,0.79-0.16,1.28l-0.39,1.72
			c-0.12,0.54-0.19,0.98-0.19,1.33c0,0.22,0.05,0.53,0.16,0.94h-1.2C126.64,160.75,126.6,160.46,126.58,160.12z M127,157.48
			c-0.16,0.06-0.33,0.11-0.53,0.16c-0.19,0.03-0.5,0.07-0.94,0.11c-0.69,0.05-1.17,0.12-1.45,0.22s-0.49,0.24-0.64,0.45
			c-0.15,0.2-0.22,0.42-0.22,0.67c0,0.33,0.11,0.61,0.34,0.83c0.23,0.21,0.56,0.31,0.98,0.31c0.39,0,0.76-0.1,1.11-0.31
			c0.36-0.21,0.65-0.49,0.86-0.86C126.72,158.68,126.88,158.15,127,157.48z M134.1,158.46l1.17,0.12c-0.29,0.86-0.71,1.51-1.27,1.92
			c-0.54,0.42-1.16,0.62-1.84,0.62c-0.76,0-1.38-0.24-1.84-0.72c-0.46-0.49-0.69-1.17-0.69-2.05c0-0.75,0.15-1.49,0.44-2.22
			c0.3-0.73,0.73-1.28,1.28-1.66c0.56-0.39,1.2-0.58,1.92-0.58c0.74,0,1.33,0.21,1.77,0.62c0.44,0.42,0.66,0.97,0.66,1.66
			l-1.16,0.08c-0.01-0.44-0.14-0.78-0.39-1.02c-0.25-0.25-0.58-0.38-0.98-0.38c-0.47,0-0.88,0.15-1.23,0.45
			c-0.34,0.29-0.61,0.74-0.81,1.36c-0.2,0.6-0.3,1.19-0.3,1.75c0,0.59,0.13,1.04,0.39,1.34c0.26,0.29,0.58,0.44,0.97,0.44
			c0.38,0,0.73-0.15,1.08-0.44C133.61,159.5,133.89,159.05,134.1,158.46z M141.06,158.63l1.16,0.11c-0.17,0.57-0.55,1.11-1.14,1.62
			c-0.59,0.51-1.3,0.77-2.12,0.77c-0.51,0-0.98-0.11-1.41-0.34c-0.43-0.24-0.76-0.58-0.98-1.03c-0.22-0.46-0.33-0.97-0.33-1.55
			c0-0.76,0.17-1.49,0.52-2.2c0.35-0.71,0.81-1.23,1.36-1.58c0.56-0.34,1.17-0.52,1.81-0.52c0.82,0,1.48,0.26,1.97,0.77
			c0.5,0.51,0.75,1.21,0.75,2.09c0,0.33-0.03,0.68-0.09,1.05h-5.09c-0.02,0.12-0.03,0.24-0.03,0.36c0,0.65,0.15,1.14,0.44,1.48
			c0.3,0.33,0.67,0.5,1.11,0.5c0.4,0,0.79-0.13,1.17-0.39C140.53,159.51,140.84,159.13,141.06,158.63z M137.64,156.91h3.88
			c0.01-0.12,0.02-0.21,0.02-0.27c0-0.58-0.15-1.03-0.45-1.34c-0.29-0.32-0.67-0.48-1.12-0.48c-0.51,0-0.97,0.18-1.39,0.53
			C138.15,155.69,137.85,156.22,137.64,156.91z"/>
		<path class="st1" d="M241.37,74.77L98.25,109.8"/>
		<path class="st3" d="M241.37,74.77l-137.29,33.6"/>
		<path class="st9" d="M103.69,106.76l-4.02,2.68l4.8,0.53L103.69,106.76z"/>
		<path class="st1" d="M98.27,184.56v153.92"/>
		<path class="st3" d="M98.27,184.56v147.92"/>
		<path class="st9" d="M96.62,332.48l1.65,4.54l1.65-4.54H96.62z"/>
		<path class="st1" d="M374.14,183.24l-0.13,155.24"/>
		<path class="st10" d="M374.14,183.24l-0.12,149.24"/>
		<path class="st9" d="M372.37,332.49l1.65,4.54l1.66-4.54L372.37,332.49z"/>
		<path class="st1" d="M159.32,147.18l106.08-1.32"/>
		<path class="st3" d="M159.32,147.18l100.08-1.25"/>
		<path class="st9" d="M259.42,147.58l4.52-1.71l-4.56-1.6L259.42,147.58z"/>
		<path class="st1" d="M223.6,221.6c0-9.59,37.64-14.38,75.28-19.18c37.64-4.8,75.28-9.59,75.28-19.18"/>
		<path class="st3" d="M223.6,221.6c0-9.59,37.64-14.38,75.28-19.18c18.82-2.4,37.64-4.8,51.75-7.79c7.06-1.5,12.94-3.15,17.05-5.02
			c1.03-0.47,1.95-0.95,2.75-1.45l0.15-0.1"/>
		<path class="st9" d="M371.91,189.05l1.37-4.63l-4.03,2.67L371.91,189.05z"/>
	</g>
</g>
</svg>
